<svg width="25" height="26" viewBox="0 0 25 26" fill="none" xmlns="http://www.w3.org/2000/svg">
<g clip-path="url(#clip0_1_7938)">
<path d="M0.249034 0.568359C1.03787e-05 0.705078 0.0048932 0.636719 0.0048932 4.04004C1.03831e-05 7.60449 1.03787e-05 7.60938 0.341807 8.30273C0.581065 8.78125 1.04493 9.27441 1.50392 9.5332L1.80665 9.7041L1.81642 17.0527L1.83107 24.4014L1.9336 24.626C2.08497 24.9482 2.31446 25.1826 2.62696 25.3389C2.85646 25.4512 2.96876 25.4756 3.27149 25.4756C3.88185 25.4756 4.35548 25.1729 4.60939 24.626L4.71192 24.4014L4.72657 17.0527L4.74122 9.7041L5.04396 9.5332C5.49806 9.27441 5.96192 8.78125 6.20118 8.30273C6.54298 7.60938 6.54298 7.59961 6.54298 4.0498C6.54298 0.617188 6.54786 0.680664 6.27442 0.558594C6.11329 0.485352 5.9961 0.485352 5.83497 0.558594C5.56642 0.680664 5.56642 0.65625 5.56642 3.57617V6.26172H5.12696H4.68751V3.57617C4.68751 1.60352 4.67286 0.861328 4.62892 0.768555C4.56544 0.626953 4.36036 0.5 4.19923 0.5C4.0381 0.5 3.83302 0.626953 3.76954 0.768555C3.7256 0.861328 3.71095 1.60352 3.71095 3.57617V6.26172H3.27149H2.83204V3.57617C2.83204 1.60352 2.81739 0.861328 2.77345 0.768555C2.67091 0.539062 2.37306 0.441406 2.12403 0.558594C1.85548 0.680664 1.85548 0.65625 1.85548 3.57617V6.26172H1.41603H0.976573V3.57617C0.976573 1.60352 0.961924 0.861328 0.917979 0.768555C0.810557 0.53418 0.488292 0.436523 0.249034 0.568359ZM5.50294 7.4043C5.41993 7.92676 4.85841 8.58594 4.31642 8.7959C4.16017 8.85938 3.96974 8.97168 3.89649 9.0498L3.75978 9.19141V16.667C3.75978 24.792 3.77442 24.3379 3.49122 24.4648C3.33009 24.5381 3.2129 24.5381 3.05177 24.4648C2.76857 24.3379 2.78321 24.792 2.78321 16.667V9.20117L2.65626 9.0498C2.5879 8.9668 2.50489 8.89844 2.47071 8.89844C2.31935 8.89844 1.80665 8.58594 1.57716 8.35645C1.31837 8.09766 1.08399 7.68262 1.04005 7.4043L1.01075 7.23828H3.27149H5.53224L5.50294 7.4043Z" fill="#1E293B"/>
<path d="M24.0919 0.69043C23.6475 0.988281 23.0177 1.55469 22.5977 2.0332C21.5675 3.19531 20.8595 4.65039 20.547 6.22266C20.4395 6.75977 20.4395 6.88184 20.42 10.5635C20.4054 14.748 20.4005 14.6943 20.7081 15.3047C20.8204 15.5244 21.0304 15.7832 21.4649 16.2227L22.0704 16.8379L22.0802 20.6221C22.0948 24.3477 22.0948 24.4062 22.1974 24.626C22.3487 24.9482 22.5782 25.1826 22.8907 25.3389C23.1202 25.4512 23.2325 25.4756 23.5352 25.4756C24.1456 25.4756 24.6192 25.1729 24.8731 24.626L24.9757 24.4014L24.9903 12.6582C25.0001 3.87402 24.9854 0.880859 24.9464 0.77832C24.8829 0.626953 24.6778 0.5 24.4972 0.5C24.4288 0.5 24.2481 0.587891 24.0919 0.69043ZM23.9698 24.2451C23.9063 24.3916 23.7013 24.5234 23.5352 24.5234C23.3936 24.5234 23.1642 24.3965 23.1153 24.2939C23.0909 24.2451 23.0616 22.4531 23.047 20.3145L23.0225 16.4229L22.3341 15.7246C21.8849 15.2656 21.6065 14.9434 21.5284 14.7822L21.4112 14.5381L21.3966 10.9541C21.3868 7.98535 21.3966 7.26758 21.46 6.80371C21.6749 5.12891 22.422 3.59082 23.5841 2.40918L23.9991 1.98926L24.0138 13.0488C24.0235 21.3008 24.0089 24.1426 23.9698 24.2451Z" fill="#1E293B"/>
<path d="M11.4258 3.72754C10.5273 3.83008 9.41895 4.14258 8.61816 4.52344C8.12988 4.75293 8.00781 4.875 8.00781 5.12891C8.00781 5.35352 8.23242 5.57812 8.45215 5.57812C8.54004 5.57812 8.89648 5.46094 9.24805 5.31445C10.6641 4.72363 12.1094 4.52832 13.5889 4.72363C15.3613 4.95801 16.8799 5.67578 18.208 6.9209C18.667 7.3457 18.7207 7.38477 18.9014 7.38477C19.1846 7.38477 19.3848 7.17969 19.3848 6.8916C19.3848 6.70117 19.3604 6.66211 19.0186 6.33008C17.5 4.85547 15.5811 3.95703 13.4668 3.72754C12.9199 3.66406 11.9629 3.66895 11.4258 3.72754Z" fill="#1E293B"/>
<path d="M11.7921 6.0957C10.7228 6.21289 9.53626 6.65234 8.59876 7.27734C8.05189 7.63867 7.1388 8.55176 6.77747 9.09375C6.25013 9.88965 5.90345 10.7051 5.70325 11.6279C5.55189 12.2969 5.55677 13.6934 5.70325 14.3721C6.30872 17.1406 8.37415 19.2012 11.1476 19.7969C11.8605 19.9482 13.1398 19.9482 13.8478 19.7969C14.5607 19.6455 15.0392 19.4746 15.6788 19.1426C17.5392 18.1904 18.8429 16.4619 19.297 14.3525C19.4386 13.6885 19.4484 12.4092 19.3165 11.7549C18.882 9.55762 17.5197 7.76074 15.5519 6.78418C14.6242 6.3252 13.7745 6.12012 12.6954 6.09082C12.3048 6.08105 11.8995 6.08594 11.7921 6.0957ZM13.3839 7.11621C15.2931 7.4043 16.9533 8.61035 17.837 10.3633C18.0812 10.8516 18.3009 11.5449 18.3839 12.1162C18.8722 15.3535 16.6261 18.3955 13.379 18.8887C10.8058 19.2744 8.25697 17.917 7.12904 15.5635C5.79603 12.7754 6.81654 9.46484 9.4972 7.86328C10.63 7.18457 12.046 6.91113 13.3839 7.11621Z" fill="#1E293B"/>
<path d="M12.2754 8.55675C12.1143 8.62023 12.0117 8.80089 12.0117 9.01085C12.0117 9.49914 12.6953 9.66515 12.9199 9.23546C13.1396 8.80578 12.7246 8.37121 12.2754 8.55675Z" fill="#767F8F"/>
<path d="M10.4786 9.00086C9.17982 9.65515 8.26185 10.9442 8.06165 12.3895C7.97376 13.0243 7.98353 13.1317 8.17396 13.3221C8.3595 13.5077 8.51575 13.5321 8.73548 13.4149C8.90638 13.327 8.96009 13.1854 9.02357 12.6288C9.08216 12.1161 9.24818 11.5985 9.48255 11.203C9.72669 10.7831 10.3566 10.1825 10.8156 9.92859C11.0304 9.80652 11.2452 9.67957 11.2892 9.6405C11.4161 9.53308 11.4503 9.27918 11.3576 9.1034C11.2013 8.80554 10.923 8.77136 10.4786 9.00086Z" fill="#767F8F"/>
<path d="M19.2773 18.0194C19.2333 18.0389 18.9355 18.327 18.623 18.6591C17.3583 19.9823 16.0888 20.7245 14.3896 21.1298C12.3583 21.6132 10.1122 21.2762 8.32514 20.2264C8.0517 20.0653 7.82709 19.9677 7.72943 19.9677C7.39252 19.9579 7.14838 20.3094 7.27533 20.6219C7.35346 20.8026 7.62201 20.9833 8.32514 21.3348C12.2607 23.3075 17.041 22.2577 19.79 18.8202C19.873 18.7128 19.9218 18.5907 19.9218 18.4882C19.9218 18.1854 19.5361 17.9071 19.2773 18.0194Z" fill="#1E293B"/>
<path d="M6.01069 18.8301C5.94722 18.8643 5.86421 18.9473 5.83003 19.0108C5.55659 19.5039 6.20112 19.9922 6.59663 19.5967C6.99214 19.2012 6.50386 18.5567 6.01069 18.8301Z" fill="#767F8F"/>
</g>
<defs>
<clipPath id="clip0_1_7938">
<rect width="25" height="25" fill="white" transform="translate(0 0.5)"/>
</clipPath>
</defs>
</svg>
