<svg width="25" height="26" viewBox="0 0 25 26" fill="none" xmlns="http://www.w3.org/2000/svg">
<g clip-path="url(#clip0_1_8054)">
<path d="M4.9514 25.0532C3.74716 25.0532 2.61509 24.5842 1.76363 23.7327C0.00587413 21.975 0.00587413 19.1149 1.76363 17.3572L16.8538 2.26694C17.7053 1.41548 18.8374 0.946533 20.0416 0.946533C21.2458 0.946533 22.3779 1.41548 23.2294 2.26694C24.9871 4.02469 24.9871 6.88478 23.2294 8.64253L8.13918 23.7327C7.28772 24.5842 6.15559 25.0532 4.9514 25.0532ZM20.0416 2.02075C19.1243 2.02075 18.262 2.37792 17.6134 3.02655L2.52319 18.1167C1.18429 19.4557 1.18429 21.6342 2.52319 22.9731C3.80136 24.3054 6.10144 24.3053 7.37956 22.9731L22.4698 7.88292C23.8086 6.54411 23.8084 4.36546 22.4698 3.0265C21.8212 2.37792 20.9589 2.02075 20.0416 2.02075Z" fill="#1E293B"/>
<path d="M12.8926 14.7283C12.6677 14.7283 12.4582 14.586 12.3831 14.3609L11.5889 11.9783C11.3699 11.3118 12.3828 10.9726 12.608 11.6386L13.4022 14.0212C13.5225 14.3609 13.2511 14.734 12.8926 14.7283Z" fill="#1E293B"/>
<path d="M14.8804 12.7433C14.6555 12.7433 14.446 12.6009 14.3709 12.3759L13.5767 9.99316C13.3577 9.32666 14.3706 8.98745 14.5958 9.65351C14.5958 9.65346 15.39 12.0362 15.39 12.0362C15.5103 12.3758 15.2388 12.7489 14.8804 12.7433Z" fill="#1E293B"/>
<path d="M16.8646 10.7571C16.6397 10.7571 16.4301 10.6148 16.3551 10.3897L15.5608 8.00706C15.3418 7.34061 16.3546 7.00135 16.5799 7.66741C16.5799 7.66737 17.3742 10.05 17.3742 10.05C17.4944 10.3897 17.223 10.7628 16.8646 10.7571Z" fill="#1E293B"/>
<path d="M18.8523 8.77202C18.6274 8.77202 18.4179 8.62968 18.3429 8.40463L17.5486 6.02197C17.3296 5.35546 18.3425 5.01626 18.5677 5.68232C18.5677 5.68227 19.3619 8.06494 19.3619 8.06494C19.4822 8.40459 19.2108 8.77768 18.8523 8.77202Z" fill="#1E293B"/>
<path d="M10.9082 16.7144C10.6833 16.7144 10.4738 16.5721 10.3988 16.3471L9.60453 13.9644C9.38554 13.2978 10.3983 12.9586 10.6236 13.6247L11.4178 16.0074C11.5381 16.347 11.2667 16.7201 10.9082 16.7144Z" fill="#1E293B"/>
<path d="M8.92412 18.6996C8.69922 18.6996 8.4897 18.5572 8.41465 18.3322L7.62041 15.9495C7.40137 15.283 8.41431 14.9437 8.6395 15.6098L9.43374 17.9925C9.554 18.3321 9.28257 18.7052 8.92412 18.6996Z" fill="#1E293B"/>
<path d="M6.93632 20.6846C6.71141 20.6846 6.50189 20.5423 6.42684 20.3172L5.63261 17.9346C5.41361 17.2681 6.4265 16.9289 6.6517 17.5949C6.6517 17.5949 7.44589 19.9775 7.44589 19.9775C7.56615 20.3172 7.29476 20.6903 6.93632 20.6846Z" fill="#1E293B"/>
<path d="M24.1765 7.25122C24.0183 7.61636 23.8105 7.96489 23.5513 8.28564C24.22 9.58612 23.9962 11.1942 22.9181 12.2723L11.7708 23.4197C11.1222 24.0683 10.2598 24.4255 9.34256 24.4255C8.79867 24.4255 8.26459 24.2954 7.78554 24.0518C7.46811 24.3092 7.12055 24.5193 6.75171 24.6799C7.50654 25.2103 8.41366 25.4997 9.34256 25.4997C10.5468 25.4997 11.6789 25.0308 12.5304 24.1793L23.6777 13.032C24.4763 12.2334 24.9435 11.1725 24.9934 10.045C25.0377 9.04203 24.7487 8.06308 24.1765 7.25122Z" fill="#767F8F"/>
<path d="M2.07733 13.7269L13.2246 2.57959C14.3027 1.50137 15.9108 1.27755 17.2113 1.94634C17.5283 1.68951 17.8753 1.47979 18.2435 1.31954C17.4321 0.748253 16.4539 0.459144 15.452 0.504358C14.3244 0.554212 13.2636 1.02145 12.465 1.82002L1.31771 12.9673C0.519083 13.766 0.0518492 14.8268 0.00199598 15.9543C-0.0423397 16.9573 0.246672 17.9362 0.818886 18.748C0.977088 18.3829 1.1849 18.0344 1.44413 17.7136C0.775331 16.4132 0.999158 14.8051 2.07733 13.7269Z" fill="#767F8F"/>
</g>
<defs>
<clipPath id="clip0_1_8054">
<rect width="25" height="25" fill="white" transform="translate(0 0.5)"/>
</clipPath>
</defs>
</svg>
