<svg width="25" height="26" viewBox="0 0 25 26" fill="none" xmlns="http://www.w3.org/2000/svg">
<g clip-path="url(#clip0_1_7992)">
<path d="M15.4836 23.9543C15.3702 23.9543 15.2568 23.9186 15.1614 23.847L9.20892 19.3826C9.02404 19.2439 8.94863 19.0025 9.02175 18.7833C9.09486 18.5641 9.3 18.4163 9.5311 18.4163H21.4858C21.7172 18.4163 21.9227 18.5646 21.9954 18.7844C22.0682 19.0041 21.9919 19.2458 21.8062 19.3839L15.804 23.8483C15.7089 23.919 15.5963 23.9543 15.4836 23.9543ZM11.1417 19.49L15.4849 22.7474L19.8643 19.49H11.1417Z" fill="#1E293B"/>
<path d="M6.50221 7.58511C6.46756 7.58511 6.43193 7.58169 6.39727 7.57486C6.36311 7.56754 6.32943 7.55729 6.29722 7.54411C6.26452 7.53044 6.23328 7.51385 6.20449 7.49481C6.17471 7.4748 6.14738 7.45235 6.12298 7.42795C6.09809 7.40306 6.07564 7.37573 6.05611 7.34644C6.03659 7.31716 6.02 7.28592 6.00682 7.25371C5.99315 7.22101 5.9829 7.18733 5.97607 7.15316C5.96924 7.11851 5.96533 7.08337 5.96533 7.04823C5.96533 7.01309 5.96924 6.97795 5.97607 6.9433C5.9829 6.90913 5.99315 6.87545 6.00682 6.84275C6.02 6.81054 6.03659 6.7793 6.05611 6.75002C6.07564 6.72073 6.09809 6.6934 6.12298 6.66851C6.14738 6.64411 6.17471 6.62117 6.20449 6.60165C6.23328 6.58261 6.26452 6.56602 6.29722 6.55235C6.32943 6.53917 6.36311 6.52892 6.39727 6.52209C6.46658 6.50794 6.53784 6.50794 6.60715 6.52209C6.64131 6.52892 6.67548 6.53917 6.70769 6.55235C6.74039 6.56602 6.77114 6.58261 6.80042 6.60165C6.82971 6.62117 6.85704 6.64411 6.88193 6.66851C6.90682 6.6934 6.92927 6.72073 6.94879 6.75002C6.96832 6.7793 6.98491 6.81054 6.99809 6.84275C7.01176 6.87545 7.02201 6.90913 7.02884 6.9433C7.03567 6.97795 7.03909 7.01309 7.03909 7.04823C7.03909 7.08337 7.03567 7.11851 7.02884 7.15316C7.02201 7.18733 7.01176 7.22101 6.99809 7.25371C6.98491 7.28592 6.96832 7.31716 6.94879 7.34644C6.92927 7.37573 6.90682 7.40306 6.88193 7.42795C6.85704 7.45235 6.82971 7.4748 6.80042 7.49481C6.77114 7.51385 6.74039 7.53044 6.70769 7.54411C6.67548 7.55729 6.64131 7.56754 6.60715 7.57486C6.57249 7.58164 6.53735 7.58511 6.50221 7.58511Z" fill="#767F8F"/>
<path d="M9.53102 6.09719C9.49588 6.09719 9.46074 6.09378 9.42608 6.08646C9.39192 6.07962 9.35824 6.06937 9.32554 6.05619C9.29333 6.04253 9.26209 6.02593 9.23281 6.0069C9.20352 5.98689 9.17619 5.96444 9.1513 5.94003C9.12641 5.91514 9.10396 5.88781 9.08443 5.85853C9.0654 5.82924 9.0488 5.79801 9.03514 5.76579C9.02196 5.73309 9.01171 5.69942 9.00439 5.66525C8.99756 5.6306 8.99414 5.59546 8.99414 5.56032C8.99414 5.52517 8.99756 5.49003 9.00439 5.45538C9.01171 5.42121 9.02196 5.38754 9.03514 5.35484C9.0488 5.32262 9.0654 5.29139 9.08443 5.2621C9.10396 5.23282 9.12641 5.20549 9.1513 5.1806C9.17619 5.1557 9.20352 5.13325 9.23281 5.11373C9.26209 5.0947 9.29333 5.0781 9.32554 5.06444C9.35824 5.05126 9.39192 5.04101 9.42608 5.03369C9.49539 5.02002 9.56665 5.02002 9.63595 5.03369C9.67012 5.04101 9.7038 5.05126 9.7365 5.06444C9.76871 5.0781 9.79995 5.0947 9.82923 5.11373C9.85851 5.13325 9.88585 5.1557 9.91074 5.1806C9.93514 5.20549 9.95759 5.23282 9.9776 5.2621C9.99664 5.29139 10.0132 5.32262 10.0269 5.35484C10.0401 5.38754 10.0503 5.42121 10.0572 5.45538C10.0645 5.49003 10.0679 5.52517 10.0679 5.56032C10.0679 5.59546 10.0645 5.6306 10.0572 5.66525C10.0503 5.69942 10.0401 5.73309 10.0269 5.76579C10.0132 5.79801 9.99664 5.82924 9.9776 5.85853C9.95759 5.88781 9.93514 5.91514 9.91074 5.94003C9.88585 5.96444 9.85851 5.98689 9.82923 6.0069C9.79995 6.02593 9.76871 6.04253 9.7365 6.05619C9.7038 6.06937 9.67012 6.07962 9.63595 6.08646C9.6013 6.09382 9.56616 6.09719 9.53102 6.09719Z" fill="#767F8F"/>
<path d="M12.5073 9.07327C12.4722 9.07327 12.4371 9.06985 12.4024 9.06253C12.3682 9.0557 12.3346 9.04545 12.3019 9.03227C12.2696 9.0186 12.2384 9.00201 12.2091 8.98297C12.1798 8.96296 12.1525 8.94051 12.1276 8.91611C12.1027 8.89122 12.0803 8.86388 12.0608 8.8346C12.0417 8.80532 12.0251 8.77408 12.0115 8.74187C11.9983 8.70917 11.988 8.67549 11.9812 8.64132C11.9739 8.60667 11.9705 8.57153 11.9705 8.53639C11.9705 8.50125 11.9739 8.46611 11.9812 8.43145C11.988 8.39729 11.9983 8.36361 12.0115 8.33091C12.0251 8.2987 12.0417 8.26746 12.0608 8.23818C12.0803 8.20889 12.1027 8.18156 12.1276 8.15667C12.1525 8.13227 12.1798 8.10933 12.2091 8.0898C12.2384 8.07077 12.2696 8.05418 12.3019 8.04051C12.3346 8.02733 12.3682 8.01708 12.4024 8.00976C12.4717 7.9961 12.543 7.9961 12.6123 8.00976C12.6464 8.01708 12.6801 8.02733 12.7128 8.04051C12.745 8.05418 12.7763 8.07077 12.8055 8.0898C12.8348 8.10982 12.8622 8.13227 12.8871 8.15667C12.9119 8.18156 12.9344 8.20889 12.9539 8.23818C12.973 8.26746 12.9896 8.2987 13.0032 8.33091C13.0164 8.36361 13.0266 8.39729 13.0335 8.43145C13.0408 8.46611 13.0442 8.50125 13.0442 8.53639C13.0442 8.57153 13.0408 8.60667 13.0335 8.64132C13.0266 8.67549 13.0164 8.70917 13.0032 8.74187C12.9896 8.77408 12.973 8.80532 12.9539 8.8346C12.9344 8.86388 12.9119 8.89122 12.8871 8.91611C12.787 9.01616 12.6489 9.07327 12.5073 9.07327Z" fill="#767F8F"/>
<path d="M24.4627 12.0496H0.553479C0.256976 12.0496 0.0166016 11.8093 0.0166016 11.5128C0.0166016 6.29338 4.28512 2.04712 9.53188 2.04712H15.4844C20.7311 2.04712 24.9997 6.29338 24.9997 11.5128C24.9996 11.8093 24.7592 12.0496 24.4627 12.0496ZM1.10744 10.9759H23.9088C23.6296 6.59755 19.9578 3.12087 15.4844 3.12087H9.53188C5.05847 3.12087 1.38662 6.5976 1.10744 10.9759Z" fill="#1E293B"/>
<path d="M13.9937 6.09707C13.9585 6.09707 13.9234 6.09365 13.8887 6.08633C13.8546 6.0795 13.8209 6.06925 13.7882 6.05607C13.756 6.04241 13.7247 6.02581 13.6955 6.00678C13.6662 5.98677 13.6388 5.96432 13.6139 5.93991C13.5895 5.91502 13.5666 5.88769 13.5471 5.8584C13.528 5.82912 13.5115 5.79788 13.4978 5.76567C13.4846 5.73297 13.4744 5.69929 13.4675 5.66513C13.4602 5.63048 13.4568 5.59533 13.4568 5.56019C13.4568 5.52505 13.4602 5.48991 13.4675 5.45526C13.4744 5.42109 13.4846 5.38742 13.4978 5.35472C13.5115 5.3225 13.528 5.29127 13.5471 5.26198C13.5666 5.2327 13.5895 5.20537 13.6139 5.18047C13.6388 5.15607 13.6662 5.13313 13.6955 5.11361C13.7247 5.09457 13.756 5.07798 13.7882 5.06431C13.8209 5.05114 13.8546 5.04089 13.8887 5.03405C13.958 5.0199 14.0293 5.0199 14.0986 5.03405C14.1328 5.04089 14.1664 5.05114 14.1991 5.06431C14.2314 5.07798 14.2626 5.09457 14.2919 5.11361C14.3212 5.13313 14.3485 5.15607 14.3734 5.18047C14.3978 5.20537 14.4202 5.2327 14.4402 5.26198C14.4593 5.29127 14.4759 5.3225 14.4895 5.35472C14.5027 5.38742 14.513 5.42109 14.5198 5.45526C14.5271 5.48991 14.5305 5.52505 14.5305 5.56019C14.5305 5.59533 14.5271 5.63048 14.5198 5.66513C14.513 5.69929 14.5027 5.73297 14.4895 5.76567C14.4759 5.79788 14.4593 5.82912 14.4402 5.8584C14.4202 5.88769 14.3978 5.91502 14.3734 5.93991C14.3485 5.96432 14.3212 5.98677 14.2919 6.00678C14.2626 6.02581 14.2314 6.04241 14.1991 6.05607C14.1664 6.06925 14.1328 6.0795 14.0986 6.08633C14.0639 6.0937 14.0288 6.09707 13.9937 6.09707Z" fill="#767F8F"/>
<path d="M17.0191 7.58511C16.9839 7.58511 16.9488 7.58169 16.9141 7.57437C16.88 7.56754 16.8458 7.55729 16.8136 7.54411C16.7814 7.53044 16.7501 7.51385 16.7208 7.49481C16.6916 7.47529 16.6637 7.45284 16.6393 7.42795C16.6144 7.40306 16.592 7.37573 16.5725 7.34644C16.5529 7.31716 16.5364 7.28592 16.5232 7.25371C16.5095 7.22101 16.4993 7.18733 16.4924 7.15316C16.4856 7.11851 16.4822 7.08337 16.4822 7.04823C16.4822 7.01309 16.4856 6.97795 16.4924 6.9433C16.4993 6.90913 16.5095 6.87545 16.5232 6.84275C16.5364 6.81054 16.5529 6.7793 16.5725 6.75002C16.592 6.72073 16.6144 6.6934 16.6393 6.66851C16.6637 6.64411 16.6916 6.62166 16.7208 6.60165C16.7501 6.58261 16.7814 6.56602 16.8136 6.55235C16.8458 6.53917 16.88 6.52892 16.9141 6.52209C16.9834 6.50794 17.0547 6.50794 17.124 6.52209C17.1582 6.52892 17.1918 6.53917 17.224 6.55235C17.2567 6.56602 17.288 6.58261 17.3168 6.60165C17.3465 6.62166 17.3739 6.64411 17.3988 6.66851C17.4232 6.6934 17.4456 6.72073 17.4652 6.75002C17.4847 6.7793 17.5013 6.81054 17.5144 6.84275C17.5281 6.87545 17.5384 6.90913 17.5452 6.9433C17.552 6.97795 17.5559 7.01309 17.5559 7.04823C17.5559 7.08337 17.552 7.11851 17.5452 7.15316C17.5384 7.18733 17.5281 7.22101 17.5144 7.25371C17.5013 7.28592 17.4847 7.31716 17.4652 7.34644C17.4456 7.37573 17.4232 7.40306 17.3988 7.42795C17.3739 7.45284 17.3465 7.47529 17.3168 7.49481C17.288 7.51385 17.2567 7.53044 17.224 7.54411C17.1918 7.55729 17.1582 7.56754 17.124 7.57437C17.0893 7.58164 17.0537 7.58511 17.0191 7.58511Z" fill="#767F8F"/>
<path d="M24.2933 12.7841C24.1648 12.5173 24.0336 12.268 23.9131 12.0493H22.6758C23.308 13.1878 24.2329 14.7928 23.8117 15.5201C23.7304 15.6606 23.6543 15.6124 23.6195 15.6038C23.5408 15.5681 23.3786 15.3194 23.2812 15.17C22.4909 13.6294 20.6772 13.5983 19.6169 14.8532C19.2762 15.1938 19.0301 15.4399 18.5084 15.4399C17.9816 15.4399 17.7246 15.1912 17.3688 14.847C16.3984 13.6761 14.5671 13.6612 13.6148 14.8532C12.9832 15.6315 12.029 15.6313 11.3977 14.8531C10.4517 13.6611 8.60467 13.6788 7.64371 14.8471C7.28795 15.1913 7.03093 15.44 6.50411 15.44C5.98246 15.44 5.73633 15.1939 5.39565 14.8532C4.35621 13.6007 2.50169 13.635 1.73137 15.1701C1.65791 15.2826 1.54775 15.4515 1.4642 15.5433C1.39196 15.6226 1.26048 15.614 1.20298 15.5235C1.2023 15.5224 1.20161 15.5213 1.20093 15.5202C0.761521 14.8007 1.70838 13.1874 2.33667 12.0494H1.09941C0.479368 13.1063 -0.199441 14.8878 0.056357 15.5915C0.184964 16.4817 1.44175 16.9333 1.95515 16.5186C2.25136 16.3382 2.44419 16.0426 2.63069 15.7567C2.92636 15.3034 3.12783 15.0256 3.52791 15.0256C4.0496 15.0256 4.29574 15.2717 4.63641 15.6124C5.59757 16.8097 7.42154 16.7854 8.39045 15.6184C9.04418 14.846 9.9945 14.8206 10.6385 15.6124C11.5836 16.7988 13.4305 16.7974 14.3741 15.6123C15.0151 14.821 15.9718 14.8467 16.6221 15.6186C17.5764 16.784 19.4322 16.8059 20.3762 15.6123C20.7168 15.2717 20.963 15.0256 21.4847 15.0256C21.8847 15.0256 22.0862 15.3034 22.3819 15.7567C22.6744 16.2131 23.0014 16.6709 23.6152 16.6769C24.1513 16.688 24.8632 16.2216 24.9563 15.5914C25.1038 14.9349 24.8869 14.0166 24.2933 12.7841Z" fill="#1E293B"/>
<path d="M24.4603 18.416H22.9271C23.2913 17.9472 23.509 17.3591 23.509 16.7207C23.509 16.704 23.5083 16.6874 23.508 16.6707C22.9621 16.6159 22.6563 16.1857 22.3812 15.7565C22.0856 15.3032 21.8841 15.0254 21.484 15.0254C21.3508 15.0254 21.2357 15.0416 21.1323 15.0712C21.8931 15.2502 22.4353 15.928 22.4353 16.7207C22.4353 17.6555 21.6748 18.416 20.74 18.416H21.484C21.7155 18.416 21.921 18.5643 21.9937 18.7841C22.0664 19.0038 21.9902 19.2455 21.8044 19.3836L21.6618 19.4897H23.8868C23.6242 21.4022 21.9794 22.8803 19.9959 22.8803H17.1033L15.8024 23.848C15.7072 23.9187 15.5946 23.9541 15.4819 23.9541H19.9959C22.7536 23.9541 24.9972 21.7105 24.9972 18.9528C24.9972 18.6563 24.7568 18.416 24.4603 18.416Z" fill="#1E293B"/>
<path d="M13.8728 22.8803H5.01688C3.03337 22.8803 1.38857 21.4022 1.12594 19.4897H9.35193L9.20873 19.3823C9.02385 19.2437 8.94844 19.0023 9.02155 18.7831C9.09466 18.5639 9.2998 18.416 9.5309 18.416H4.27282C3.33802 18.416 2.57751 17.6555 2.57751 16.7207C2.57751 15.9281 3.11966 15.2503 3.88051 15.0712C3.77704 15.0416 3.66195 15.0254 3.52876 15.0254C3.12869 15.0254 2.92721 15.3032 2.63154 15.7565C2.44505 16.0423 2.25221 16.338 1.956 16.5184C1.83759 16.6141 1.67946 16.6631 1.50492 16.6718C1.50463 16.6881 1.5038 16.7044 1.5038 16.7208C1.5038 17.3591 1.72148 17.9472 2.08578 18.4161H0.552503C0.256 18.4161 0.015625 18.6564 0.015625 18.9529C0.015625 21.7106 2.25919 23.9542 5.01688 23.9542H15.4834C15.37 23.9542 15.2567 23.9184 15.1612 23.8468L13.8728 22.8803Z" fill="#1E293B"/>
</g>
<defs>
<clipPath id="clip0_1_7992">
<rect width="25" height="25" fill="white" transform="translate(0 0.5)"/>
</clipPath>
</defs>
</svg>
