<svg width="28" height="29" viewBox="0 0 28 29" fill="none" xmlns="http://www.w3.org/2000/svg">
<path d="M10.4968 1.01516C10.418 1.03666 10.289 1.10114 10.2102 1.1513C10.1314 1.20862 10.0024 1.25161 9.90925 1.25161C9.82327 1.25161 9.73729 1.28027 9.71579 1.31609C9.6943 1.34475 9.5295 1.4164 9.35037 1.46656C9.16408 1.51671 8.92764 1.64568 8.82016 1.76032C8.63387 1.93945 8.61954 2.01827 8.54073 2.87807C8.49057 3.37962 8.42608 4.00298 8.39026 4.26092C8.34727 4.51886 8.26845 5.19238 8.20397 5.76558C8.14665 6.33878 8.075 6.94065 8.0535 7.10544L8.01768 7.41354H4.6931C2.86602 7.41354 1.31837 7.43504 1.25388 7.45653C1.0246 7.54968 0.931455 7.87927 0.931455 8.6316V9.3481H0.702174C0.0501553 9.35527 0 9.46991 0 10.8528C0 12.0493 0.0501553 12.2428 0.386912 12.3574L0.616193 12.4291L0.737999 14.3851C0.809649 15.4527 0.8813 16.6564 0.902795 17.0505C0.917125 17.4446 0.96728 18.025 1.01027 18.3402C1.0461 18.6555 1.11058 19.4938 1.14641 20.2031C1.23955 21.9657 1.41868 24.6526 1.46167 25.0037C1.48316 25.1613 1.53332 25.9853 1.57631 26.8308C1.65512 28.4644 1.72677 28.7725 2.03487 28.8728C2.12085 28.9015 7.54479 28.9373 14.0865 28.9588C22.8636 28.9875 26.0306 28.9731 26.1452 28.9158C26.3888 28.7797 26.4891 28.4214 26.5823 27.3252C26.6253 26.7591 26.7328 25.9065 26.8116 25.4336C26.8904 24.9607 26.9835 24.2657 27.0194 23.8931C27.0552 23.5205 27.1125 23.019 27.1555 22.7826C27.2271 22.367 27.263 22.0732 27.4779 20.1315C27.5352 19.6156 27.6141 19.0567 27.6499 18.8776C27.6929 18.6985 27.743 18.2829 27.7645 17.9461C27.786 17.6094 27.8433 17.1652 27.8863 16.9645C27.958 16.6349 27.9508 16.5561 27.829 16.334C27.7574 16.1979 27.657 16.0832 27.6141 16.0832C27.4708 16.0832 27.4564 15.9256 27.5639 15.5459C27.6212 15.3452 27.6929 15.0371 27.7287 14.8509C27.7645 14.6646 27.8433 14.3206 27.9078 14.0842C27.9795 13.8477 28.0153 13.5826 27.9938 13.4895C27.9365 13.2674 27.6427 13.1026 27.0982 13.0023C26.8546 12.9521 26.6324 12.8805 26.611 12.8518C26.5895 12.816 26.5106 12.7873 26.4318 12.7873C26.2814 12.7873 26.2742 12.7443 26.3673 12.1425C26.4318 11.6767 26.3172 11.3257 26.0807 11.2468C25.9088 11.1895 24.8627 11.0176 24.3396 10.9602C23.6876 10.8814 23.5586 11.0964 23.3867 12.5365C23.3365 12.9664 23.272 13.4393 23.2362 13.5755C23.1861 13.8191 23.1789 13.8119 23.1359 13.3963C23.1072 13.1599 23.0499 12.5007 23.0069 11.9275C22.8923 10.4229 22.6988 8.76057 22.6272 8.61727C22.534 8.43098 22.1041 8.25185 21.9465 8.33067C21.8749 8.36649 21.4808 8.42381 21.0795 8.45247C20.2556 8.50979 19.8543 8.66742 19.84 8.93969C19.8185 9.29795 19.8615 9.92847 19.9618 10.6306C20.0191 11.0462 20.0621 11.5263 20.0621 11.7126V12.0422L19.7827 12.0135C19.5677 11.992 19.4674 12.0207 19.3169 12.1711C19.1092 12.3574 19.0662 12.5509 18.9229 13.8263C18.887 14.0985 18.8584 14.2562 18.8512 14.1702C18.8512 14.0842 18.8154 13.9982 18.7796 13.9767C18.7509 13.9552 18.7007 13.7188 18.6721 13.4537C18.6506 13.1886 18.5718 12.5939 18.5073 12.1425C18.407 11.4188 18.3712 11.2898 18.192 11.1107L17.9914 10.8958L16.9095 11.082C15.5983 11.3042 15.5481 11.34 15.5481 11.9705C15.5481 12.2213 15.5768 12.4362 15.6126 12.4577C15.6413 12.4792 15.6914 12.7443 15.7201 13.0524C15.7488 13.3605 15.8132 13.8048 15.8706 14.0412C16.0067 14.6072 16.0067 14.8652 15.8706 14.8652C15.8132 14.8652 15.7631 14.8365 15.7631 14.7935C15.7631 14.7577 15.6413 14.7076 15.498 14.6861C15.1684 14.6359 14.502 14.4496 14.2656 14.335C14.0148 14.2203 11.6432 14.2275 11.5214 14.3493C11.3279 14.5428 11.3208 14.4783 11.4354 12.9664C11.4712 12.4864 11.4856 12.4577 11.6862 12.3646C12.0444 12.207 12.1089 11.9777 12.1089 10.8958C12.1089 9.57022 12.0014 9.35527 11.3423 9.3481H11.1058V8.55995C11.1058 7.81478 11.0986 7.75746 10.9267 7.59267C10.7619 7.42071 10.7117 7.41354 9.88059 7.41354H9.00645L9.04944 6.94781C9.0781 6.68987 9.12826 6.29579 9.16408 6.06651C9.20707 5.8444 9.27156 5.32135 9.31455 4.90578C9.35037 4.4902 9.42203 3.85968 9.46502 3.50859C9.60115 2.30487 9.54383 2.42667 10.0884 2.24755C10.3535 2.16157 10.5971 2.06842 10.6401 2.0326C10.6759 1.99677 10.7547 1.96811 10.8192 1.96811C11.113 1.96811 11.2921 1.43073 11.0915 1.15846C10.984 1.02949 10.7117 0.95784 10.4968 1.01516ZM10.0884 8.83222L10.1099 9.3481L6.04013 9.33377L1.97039 9.31228L1.94889 8.88954C1.93456 8.66026 1.94173 8.42381 1.96322 8.37366C1.99905 8.28768 2.67256 8.27335 6.03296 8.28768L10.0669 8.30917L10.0884 8.83222ZM21.8104 9.68486C21.839 9.87831 21.9035 10.559 21.9608 11.211C22.0182 11.863 22.097 12.7013 22.1328 13.0739C22.1686 13.4465 22.2403 14.1917 22.2833 14.7219C22.3263 15.2521 22.4122 16.2337 22.4696 16.9072C22.5484 17.8888 22.5555 18.2614 22.4911 18.8274C22.4409 19.2144 22.3692 19.5726 22.3263 19.6299C22.2833 19.6873 22.1328 19.7446 21.9967 19.7517C21.7531 19.7732 21.7459 19.7661 21.7029 19.4508C21.6742 19.2717 21.6169 18.8848 21.5739 18.591C21.4879 17.9533 21.4808 16.4916 21.5668 15.9399C21.6814 15.2378 21.9465 13.0023 21.9465 12.73C21.9465 12.4792 21.6241 12.2141 21.3232 12.2141H21.0867L20.9936 11.297C20.9434 10.7954 20.8933 10.1721 20.8718 9.90697L20.8359 9.42692L21.187 9.39826C21.3733 9.38393 21.5811 9.3696 21.6527 9.36243C21.7387 9.3481 21.7817 9.42692 21.8104 9.68486ZM11.07 10.8886V11.4618H6.0258H0.974445L0.945785 10.9316C0.931455 10.5518 0.945785 10.387 1.01744 10.344C1.06759 10.3082 3.35324 10.2867 6.09028 10.3011L11.07 10.3154V10.8886ZM17.5114 12.1281C17.5543 12.2571 17.6905 13.1886 17.8768 14.6144C17.9341 15.0443 18.0129 15.5315 18.0559 15.6892C18.0917 15.8468 18.1275 15.9973 18.1275 16.0259C18.1275 16.1334 17.9914 16.0832 17.8123 15.9184C17.7191 15.8325 17.5472 15.7107 17.4325 15.6533C17.0958 15.4742 17.0528 15.3954 16.9811 14.8294C16.9453 14.5284 16.8952 14.249 16.8665 14.2132C16.845 14.1702 16.7948 13.9266 16.759 13.6615C16.7232 13.3963 16.6659 12.9736 16.6301 12.73C16.5441 12.1711 16.5727 12.0851 16.8593 12.0493C17.3752 11.9848 17.4755 11.9992 17.5114 12.1281ZM25.3571 12.1138C25.3929 12.1496 25.2568 13.3104 25.1135 14.1845C25.0561 14.5356 24.963 15.1589 24.9128 15.5602C24.8555 15.9614 24.7839 16.334 24.7409 16.3842C24.6979 16.4343 24.6477 16.6923 24.6262 16.9502C24.5689 17.5449 24.2537 18.2542 23.8238 18.72C23.6518 18.9063 23.4942 19.0352 23.4655 19.0137C23.444 18.9851 23.4583 18.7773 23.5013 18.548C23.5443 18.3116 23.6231 17.767 23.6805 17.3371C23.7378 16.9001 23.8381 16.2409 23.8954 15.8683C23.9527 15.4957 24.0459 14.8079 24.1032 14.3493C24.1605 13.8907 24.2393 13.3892 24.2823 13.2387C24.3181 13.0883 24.3683 12.7443 24.397 12.4721L24.4471 11.9848L24.8842 12.035C25.1278 12.0565 25.3427 12.0923 25.3571 12.1138ZM8.94913 12.4219L10.4825 12.4291L10.4323 13.1169C10.3248 14.6789 10.332 14.6359 9.98806 14.7935C9.8161 14.8723 9.64414 14.9368 9.59399 14.9368C9.551 14.9368 9.35037 15.03 9.15692 15.1518C8.97063 15.2664 8.78434 15.3667 8.74851 15.3667C8.71269 15.3667 8.63387 15.4097 8.58372 15.4527C8.42608 15.6032 8.03201 15.8683 7.97469 15.8683C7.83855 15.8755 6.44137 17.3873 6.10461 17.896C5.2663 19.157 4.81491 20.5471 4.77192 22.0446C4.75042 22.6392 4.74326 22.6751 4.5283 22.8542C4.2417 23.0906 4.03392 23.4346 3.90495 23.8788C3.80464 24.1941 3.80464 24.2872 3.90495 24.6526C3.96227 24.8747 4.06258 25.1184 4.1199 25.1828C4.17722 25.2473 4.22737 25.3333 4.22737 25.3691C4.22737 25.4121 4.35634 25.5626 4.52114 25.7202L4.81491 25.9997L4.76475 26.6445C4.72893 27.1389 4.74326 27.3682 4.82924 27.5975C4.90805 27.8196 4.90805 27.8984 4.85073 27.9199C4.80058 27.9342 4.27036 27.9342 3.67566 27.9199L2.57941 27.8984L2.57225 27.3109C2.57225 26.9884 2.54359 26.3651 2.50776 25.9352C2.32864 23.6853 2.214 21.9442 2.11369 20.2031C2.05637 19.1355 1.97755 18.0106 1.93456 17.6954C1.89874 17.3801 1.84858 16.5275 1.81992 15.7966C1.79842 15.0658 1.7626 14.4496 1.74827 14.4209C1.72677 14.3923 1.68378 13.9481 1.64796 13.425C1.59064 12.6727 1.59064 12.4649 1.66229 12.4147C1.71244 12.3861 3.03081 12.3717 4.58562 12.3861C6.14044 12.4004 8.10366 12.4147 8.94913 12.4219ZM20.8646 13.1384C20.9219 13.1957 20.8073 14.6001 20.6711 15.51C20.6066 15.8826 20.5135 16.6421 20.4562 17.1938C20.3057 18.6125 20.2771 18.806 20.2197 18.806C20.1911 18.806 20.0908 18.6555 19.9905 18.462C19.8973 18.2757 19.7612 18.0465 19.6895 17.9533C19.5462 17.767 19.5247 17.2368 19.6322 16.2982C19.84 14.3923 19.9833 13.2387 20.0263 13.1241C20.0693 13.0166 20.1338 13.0094 20.449 13.0453C20.6496 13.0739 20.8359 13.1097 20.8646 13.1384ZM26.8187 13.9122C26.9119 13.9409 26.9405 13.9982 26.9119 14.1057C26.8976 14.1917 26.8116 14.5643 26.7256 14.9368C26.6396 15.3094 26.5536 15.6892 26.5321 15.7751C26.4748 16.0259 26.2957 16.1191 25.9446 16.0904C25.8371 16.0832 25.8515 15.7966 26.0306 14.5428C26.1452 13.7403 26.1596 13.7116 26.4605 13.8048C26.5823 13.8406 26.7471 13.8907 26.8187 13.9122ZM13.9862 15.3309C15.8419 15.6103 17.3394 16.4988 18.5933 18.0536C19.3599 19.0066 19.9403 20.5256 20.0406 21.8296L20.0836 22.3885H12.9042H5.7177L5.75353 21.8654C5.87533 20.0455 6.6205 18.4692 7.97469 17.1867C8.26845 16.9001 8.6697 16.5776 8.85599 16.4702C9.04944 16.3627 9.2214 16.248 9.2429 16.2265C9.32171 16.1334 10.3678 15.6605 10.6043 15.6175C10.7404 15.5889 10.8909 15.5387 10.9267 15.51C10.9697 15.4814 11.2419 15.4169 11.5357 15.3739C11.8295 15.3309 12.1519 15.2808 12.2522 15.2664C12.6678 15.2091 13.3341 15.2306 13.9862 15.3309ZM26.7757 16.986C26.8689 17.0147 26.919 17.0648 26.8976 17.1007C26.8689 17.1437 26.8044 17.5807 26.7543 18.0823C26.7041 18.5767 26.611 19.3577 26.5465 19.8091C26.4891 20.2605 26.3888 21.0773 26.3315 21.6218C26.2742 22.1664 26.2097 22.6392 26.1882 22.6679C26.1739 22.7037 26.1094 23.2053 26.0449 23.7928C25.9446 24.7673 25.8515 25.4694 25.658 26.8666C25.615 27.1389 25.5864 27.5186 25.5792 27.7049V28.0489H23.2291C21.9322 28.0489 20.8503 28.0274 20.8288 27.9987C20.8001 27.9772 20.8288 27.8769 20.8933 27.7766C20.9864 27.6404 21.0079 27.4255 21.0007 26.7878L20.9936 25.9782L21.2658 25.6987C21.6814 25.2688 21.7602 25.1327 21.8534 24.6885C22.0038 23.9719 21.7674 23.2483 21.2443 22.847L21.0079 22.6679L20.9721 21.9013C20.9506 21.4785 20.9147 21.0414 20.8861 20.9268C20.8288 20.719 20.8288 20.719 21.0939 20.762C21.4593 20.8193 22.5054 20.6975 22.7562 20.5614C22.8708 20.5041 23.0069 20.4539 23.0643 20.4539C23.1717 20.4539 23.6231 20.196 23.7736 20.0455C23.8238 19.9954 23.8954 19.9524 23.9241 19.9524C23.9527 19.9524 24.1677 19.7589 24.4041 19.5296C24.92 19.0352 25.5004 17.9533 25.5649 17.3873C25.5864 17.201 25.6365 17.029 25.6795 17.0004C25.7726 16.9359 26.5536 16.9287 26.7757 16.986ZM20.5493 23.5205C21.0509 23.8501 21.0294 24.7314 20.5207 25.0754C20.32 25.2115 20.1481 25.2187 16.4653 25.2402C13.1263 25.2545 12.6105 25.2473 12.6105 25.1542C12.6105 25.0969 12.7896 24.8962 13.0189 24.7028C13.241 24.5165 13.4846 24.2944 13.5706 24.2156C13.6566 24.1367 13.9073 23.9218 14.1295 23.7355L14.5379 23.3916L16.2431 23.3772C18.9802 23.3414 20.3487 23.3916 20.5493 23.5205ZM6.40554 23.4776C6.4557 23.5277 6.87127 23.9075 7.32983 24.323C7.79556 24.7314 8.16814 25.1184 8.16814 25.1685C8.16814 25.2545 7.96036 25.2617 6.79246 25.2187C5.18032 25.1613 5.04419 25.1112 4.87939 24.5953C4.75042 24.1797 4.81491 23.9361 5.123 23.628C5.34512 23.4059 5.38811 23.3916 5.83951 23.3916C6.12611 23.3916 6.35539 23.4274 6.40554 23.4776ZM12.9114 23.4346C12.9544 23.4704 12.5531 23.8573 11.5787 24.7171C11.3064 24.9536 10.9482 25.2688 10.7834 25.4121C10.6186 25.5626 10.4323 25.6844 10.3678 25.6844C10.3033 25.6844 10.0525 25.4981 9.80894 25.2688C9.55816 25.0467 9.30022 24.8103 9.23573 24.7529C9.17125 24.6956 8.85599 24.4018 8.5264 24.1081C8.20397 23.8143 7.9102 23.5564 7.87438 23.5492C7.83855 23.5349 7.80989 23.4919 7.80989 23.4561C7.80989 23.3844 12.8469 23.3629 12.9114 23.4346ZM17.8194 26.1859H20.0764L20.0478 26.8451C20.0334 27.3825 19.9976 27.5401 19.883 27.6763C19.5534 28.056 19.754 28.0489 12.8756 28.0489C7.18653 28.0489 6.47003 28.0345 6.23358 27.9342C5.84667 27.7623 5.73203 27.5043 5.73203 26.7878V26.1859H7.57345H9.40769L9.85909 26.623C10.375 27.1174 10.3248 27.1174 10.941 26.537L11.2778 26.2218L13.327 26.1859C14.4519 26.1644 15.412 26.1573 15.4622 26.1644C15.5195 26.1788 16.5727 26.1859 17.8194 26.1859Z" fill="#767F8F"/>
</svg>
