<svg width="26" height="26" viewBox="0 0 26 26" fill="none" xmlns="http://www.w3.org/2000/svg">
<path d="M24.1347 14.1452C23.6803 13.3948 23.0482 12.7037 22.1604 11.9878C22.2202 11.3161 21.9576 10.6409 21.4269 10.186C21.2786 10.0589 19.9497 8.95509 17.6125 8.1432C17.5088 7.91454 17.3637 7.70204 17.1792 7.51761C14.7347 5.12818 10.2749 5.12667 7.82657 7.51277C7.60226 7.73543 7.4352 8.00036 7.3302 8.28497C4.95117 9.23969 3.60459 10.5436 3.45443 10.6937C3.10045 11.0476 2.89317 11.5071 2.84494 11.9836C1.48088 13.0799 0.00317383 14.6792 0.00317383 17.3577C0.00317383 18.0285 0.228027 18.7371 0.620228 19.3017C1.05055 19.9214 1.6183 20.2768 2.1779 20.2768C3.12047 20.2768 3.48933 19.763 3.91644 19.168C4.24259 18.7137 4.67521 18.1114 5.56081 17.3828C7.26757 18.6713 8.35234 17.1585 10.4353 16.6809C11.0858 17.2719 12.4869 17.0697 13.2945 17.1006C13.7789 17.1006 14.2326 16.9393 14.5962 16.6576C15.8335 16.9912 17.0441 17.4684 17.5928 17.7115C18.2449 18.0043 19.0348 17.9407 19.6282 17.5413C20.3895 18.2 20.7857 18.7516 21.0846 19.1681C21.5117 19.763 21.8806 20.2768 22.8231 20.2768C23.3827 20.2768 23.9504 19.9214 24.3807 19.3017C25.4445 17.7709 24.9986 15.6034 24.1347 14.1452ZM3.04397 18.5417C2.62902 19.1198 2.5452 19.2028 2.1779 19.2028C1.76324 19.2028 1.07716 18.3405 1.07716 17.3577C1.07716 15.7051 1.66697 14.456 3.08014 13.1921C3.11368 13.2578 4.89391 16.4567 4.9254 16.5152C3.89891 17.3513 3.39155 18.0576 3.04397 18.5417ZM7.41182 16.7099C6.92374 16.9633 6.28204 16.7636 6.0234 16.2801L4.03828 12.7069C3.81153 12.2988 3.88378 11.7832 4.21388 11.4531C4.26338 11.4036 5.33185 10.3496 7.25106 9.48593C7.27567 9.59504 7.30882 9.70322 7.35129 9.80939C7.35519 9.81862 9.73339 15.7656 9.73729 15.774C8.73502 16.1014 7.84005 16.4968 7.41182 16.7099ZM13.2945 16.0266H11.7064C11.2742 16.0266 10.8911 15.7673 10.7305 15.366L8.34839 9.41055C8.19241 9.02065 8.28287 8.57699 8.57885 8.2793C10.5962 6.3163 14.4056 6.3163 16.4222 8.2793C16.7181 8.57699 16.8086 9.02065 16.6526 9.4106L14.2705 15.3659C14.1099 15.7673 13.7268 16.0266 13.2945 16.0266ZM18.8516 16.7434C18.5883 16.8503 18.2885 16.8455 18.0284 16.7299C17.5106 16.5004 16.4345 16.0737 15.2797 15.7346L17.6497 9.80949C17.7099 9.65899 17.7519 9.50458 17.7763 9.34899C19.6412 10.0815 20.6794 10.9597 20.7279 11.0013C21.0697 11.2943 21.187 11.7719 21.0198 12.1898L19.4317 16.1601C19.3262 16.4238 19.1148 16.6364 18.8516 16.7434ZM22.823 19.2028C22.4558 19.2028 22.372 19.1198 21.957 18.5418C21.6454 18.1077 21.1942 17.4792 20.3451 16.7415C20.3758 16.6821 20.4039 16.6212 20.4289 16.5589L21.8133 13.0977C23.3032 14.3945 23.9238 15.6672 23.9238 17.3577C23.9238 18.3405 23.2377 19.2028 22.823 19.2028Z" fill="#1E293B"/>
</svg>
