<svg xmlns="http://www.w3.org/2000/svg" width="21" height="21" viewBox="0 0 21 21" fill="none">
<path fill-rule="evenodd" clip-rule="evenodd" d="M14.7409 1.1971C13.4713 1.65177 12.7421 2.73267 12.7421 4.17388V4.62855L12.4247 4.59423C11.3266 4.47413 9.61946 4.4055 9.49079 4.47413C9.41358 4.51703 7.5177 6.39574 5.26153 8.65192C1.78718 12.1348 1.16094 12.804 1.08374 13.0956C0.955057 13.5761 0.972215 13.8163 1.15237 14.2109C1.30678 14.554 2.77373 16.0553 2.9453 16.0553C3.08256 16.0553 3.3056 15.8065 3.3056 15.6435C3.3056 15.5749 2.95388 15.1545 2.53352 14.717C2.43071 14.612 2.33422 14.52 2.24668 14.4365L2.24666 14.4364L2.24665 14.4364C2.00091 14.202 1.82576 14.0349 1.77948 13.8376C1.66463 13.348 2.34325 12.6723 4.70576 10.3199L4.70584 10.3198C5.042 9.98509 5.41224 9.61643 5.81914 9.20953L9.87682 5.15184L11.3095 5.25479L12.7421 5.35773V6.03544C12.7421 6.43025 12.7421 6.59506 12.6759 6.72661C12.6285 6.82087 12.5472 6.89806 12.4075 7.03056C11.8499 7.56244 11.8327 8.17152 12.3475 8.66908C13.2825 9.56983 14.7066 8.51466 14.149 7.33939C14.0718 7.1764 13.9002 6.97909 13.7629 6.90188C13.5227 6.75605 13.5142 6.73031 13.5142 6.07833V5.40062L14.3978 5.46067C14.8782 5.49499 15.2985 5.54646 15.3242 5.58077C15.35 5.60651 15.4787 6.88472 15.6073 8.41172L15.8475 11.1998L11.8242 15.2146L7.80938 19.2294H7.43192C7.07161 19.2294 7.02014 19.195 6.25665 18.4487C5.57893 17.7796 5.4331 17.6681 5.25295 17.7195C5.13285 17.7453 5.02132 17.8482 4.99559 17.9597C4.95269 18.1056 5.08995 18.2943 5.69046 18.912C6.73705 19.9843 7.28608 20.1987 8.06673 19.8384C8.29836 19.7269 9.7653 18.32 12.5105 15.5663L16.611 11.4571L16.3451 8.32593C16.1993 6.61021 16.0534 5.12611 16.0105 5.02316C15.9419 4.87733 15.8304 4.83443 15.3414 4.79154C15.024 4.75723 14.5693 4.73149 14.3291 4.73149C13.5399 4.73149 13.5142 4.70576 13.5142 4.05378C13.5142 3.11013 14.046 2.26943 14.8524 1.93486C15.6502 1.6003 16.8083 1.93486 17.3488 2.64689C17.7263 3.1616 17.8035 3.64201 17.8035 5.68372C17.8035 7.11635 17.8292 7.54528 17.9407 7.80264C18.2152 8.46319 18.8586 8.91786 19.6479 8.99507C20.0511 9.03796 20.1111 9.0208 20.2055 8.85781C20.257 8.75486 20.2741 8.59187 20.2484 8.50608C20.1969 8.33451 20.1197 8.30878 19.502 8.20583C19.0817 8.1372 18.6871 7.80264 18.5755 7.40802C18.5326 7.23645 18.4898 6.24991 18.4898 5.22905C18.4898 3.06724 18.4126 2.73267 17.752 1.99491C16.9971 1.16278 15.7618 0.828218 14.7409 1.1971ZM13.4112 7.57959C13.4713 7.63964 13.5142 7.75974 13.5142 7.86269C13.5142 7.96563 13.4713 8.08573 13.4112 8.14578C13.3512 8.20583 13.2311 8.24873 13.1281 8.24873C13.0252 8.24873 12.9051 8.20583 12.845 8.14578C12.785 8.08573 12.7421 7.96563 12.7421 7.86269C12.7421 7.75974 12.785 7.63964 12.845 7.57959C12.9051 7.51954 13.0252 7.47665 13.1281 7.47665C13.2311 7.47665 13.3512 7.51954 13.4112 7.57959ZM8.23855 8.96867C7.92114 9.11451 7.55226 9.50055 7.43216 9.81796C7.19196 10.4528 7.42358 11.1991 7.92972 11.4651C8.24713 11.628 8.8991 11.6366 9.20793 11.4736C9.47387 11.3364 9.84275 10.9503 9.98859 10.6758C10.1258 10.4099 10.1087 9.74075 9.95427 9.4405C9.67976 8.90862 8.87337 8.68558 8.23855 8.96867ZM9.08783 9.63781C9.46529 9.8008 9.47387 10.2984 9.11357 10.6329C8.71037 11.0018 8.28144 10.9761 8.10987 10.5729C7.98119 10.264 8.16992 9.86085 8.52164 9.67212C8.80474 9.50913 8.8219 9.50913 9.08783 9.63781ZM5.63921 13.4643C5.66494 13.2927 5.99951 13.1297 8.32432 12.1775C9.79126 11.577 11.0695 11.088 11.1724 11.0794C11.4126 11.0794 11.5756 11.3625 11.4641 11.577C11.3783 11.7314 6.21398 13.9104 5.93946 13.9104C5.75073 13.9104 5.60489 13.6873 5.63921 13.4643ZM7.8094 13.5158C7.49199 13.6616 7.12311 14.0477 7.00301 14.3651C6.76281 14.9999 6.99443 15.7463 7.50057 16.0122C7.81798 16.1752 8.46995 16.1838 8.77878 16.0208C9.04472 15.8835 9.4136 15.4975 9.55944 15.223C9.6967 14.957 9.67954 14.2879 9.52512 13.9876C9.25061 13.4558 8.44422 13.2327 7.8094 13.5158ZM8.75305 14.2622C8.94178 14.4166 8.97609 14.4938 8.9332 14.7082C8.79594 15.4031 7.98097 15.669 7.68072 15.12C7.55204 14.8798 7.74077 14.4337 8.05818 14.245C8.39275 14.0391 8.46137 14.0391 8.75305 14.2622ZM4.33518 17.1707C3.97487 17.3594 3.63173 16.879 3.9234 16.5873C3.98345 16.5273 4.0864 16.4844 4.1636 16.4844C4.50675 16.4844 4.63543 17.0077 4.33518 17.1707Z" fill="#198754"/>
<path d="M14.7409 1.1971L14.7919 1.33817L14.7915 1.33832L14.7409 1.1971ZM12.7421 4.62855H12.8921V4.79564L12.726 4.77768L12.7421 4.62855ZM12.4247 4.59423L12.4086 4.74336L12.4084 4.74334L12.4247 4.59423ZM9.49079 4.47413L9.41793 4.34299L9.4202 4.34178L9.49079 4.47413ZM5.26153 8.65192L5.15533 8.54599L5.15546 8.54586L5.26153 8.65192ZM1.08374 13.0956L1.22874 13.134L1.22863 13.1345L1.08374 13.0956ZM1.15237 14.2109L1.28882 14.1486L1.28915 14.1493L1.15237 14.2109ZM2.53352 14.717L2.6407 14.6121L2.64169 14.6131L2.53352 14.717ZM2.24668 14.4365L2.34806 14.3259L2.35022 14.3279L2.24668 14.4365ZM2.24666 14.4364L2.14527 14.547L2.14247 14.5443L2.24666 14.4364ZM2.24665 14.4364L2.35019 14.3279L2.35084 14.3285L2.24665 14.4364ZM1.77948 13.8376L1.63344 13.8719L1.63344 13.8719L1.77948 13.8376ZM4.70576 10.3199L4.59992 10.2136L4.60013 10.2134L4.70576 10.3199ZM4.70584 10.3198L4.81168 10.4261L4.81147 10.4263L4.70584 10.3198ZM5.81914 9.20953L5.9252 9.3156L5.9252 9.3156L5.81914 9.20953ZM9.87682 5.15184L9.77076 5.04578L9.81922 4.99732L9.88757 5.00223L9.87682 5.15184ZM11.3095 5.25479L11.3202 5.10517L11.3202 5.10517L11.3095 5.25479ZM12.7421 5.35773L12.7528 5.20812L12.8921 5.21812V5.35773H12.7421ZM12.6759 6.72661L12.5419 6.65922L12.5419 6.65922L12.6759 6.72661ZM12.4075 7.03056L12.304 6.92202L12.3043 6.92174L12.4075 7.03056ZM12.3475 8.66908L12.2434 8.77711L12.2432 8.77693L12.3475 8.66908ZM14.149 7.33939L14.0135 7.40369L14.0134 7.4036L14.149 7.33939ZM13.7629 6.90188L13.6894 7.03269L13.6851 7.0301L13.7629 6.90188ZM13.5142 5.40062H13.3642V5.24008L13.5243 5.25097L13.5142 5.40062ZM14.3978 5.46067L14.4079 5.31102L14.4084 5.31106L14.3978 5.46067ZM15.3242 5.58077L15.2182 5.68684L15.2106 5.6793L15.2042 5.67077L15.3242 5.58077ZM15.6073 8.41172L15.4579 8.42459L15.4579 8.42432L15.6073 8.41172ZM15.8475 11.1998L15.997 11.1869L16.003 11.2566L15.9535 11.306L15.8475 11.1998ZM11.8242 15.2146L11.7181 15.1085L11.7182 15.1084L11.8242 15.2146ZM7.80938 19.2294L7.91544 19.3354L7.87151 19.3794H7.80938V19.2294ZM6.25665 18.4487L6.15179 18.556L6.15126 18.5554L6.25665 18.4487ZM5.25295 17.7195L5.29425 17.8641L5.28438 17.8662L5.25295 17.7195ZM4.99559 17.9597L5.142 17.9935L5.13949 18.0021L4.99559 17.9597ZM5.69046 18.912L5.58311 19.0167L5.58291 19.0165L5.69046 18.912ZM8.06673 19.8384L8.13182 19.9736L8.12959 19.9746L8.06673 19.8384ZM12.5105 15.5663L12.4042 15.4604L12.4043 15.4603L12.5105 15.5663ZM16.611 11.4571L16.7605 11.4444L16.7664 11.5138L16.7172 11.5631L16.611 11.4571ZM16.3451 8.32593L16.4946 8.31323L16.4946 8.31324L16.3451 8.32593ZM16.0105 5.02316L16.1464 4.95923L16.149 4.96547L16.0105 5.02316ZM15.3414 4.79154L15.3283 4.941L15.3253 4.94067L15.3414 4.79154ZM14.8524 1.93486L14.9104 2.07319L14.9099 2.07341L14.8524 1.93486ZM17.3488 2.64689L17.4683 2.55618L17.4698 2.55818L17.3488 2.64689ZM17.9407 7.80264L18.0784 7.74299L18.0792 7.74507L17.9407 7.80264ZM19.6479 8.99507L19.6625 8.84577L19.6637 8.84591L19.6479 8.99507ZM20.2055 8.85781L20.3399 8.92502L20.3353 8.93296L20.2055 8.85781ZM20.2484 8.50608L20.392 8.46298L20.392 8.46298L20.2484 8.50608ZM19.502 8.20583L19.5262 8.05779L19.5267 8.05787L19.502 8.20583ZM18.5755 7.40802L18.4311 7.44883L18.43 7.4444L18.5755 7.40802ZM17.752 1.99491L17.8631 1.89412L17.8637 1.89485L17.752 1.99491ZM13.4112 7.57959L13.3051 7.68566L13.3051 7.68566L13.4112 7.57959ZM13.4112 8.14578L13.3051 8.03972L13.3051 8.03972L13.4112 8.14578ZM12.845 7.57959L12.9511 7.68566L12.9511 7.68566L12.845 7.57959ZM7.43216 9.81796L7.29187 9.76487L7.29187 9.76487L7.43216 9.81796ZM8.23855 8.96867L8.17592 8.83236L8.17746 8.83168L8.23855 8.96867ZM7.92972 11.4651L7.86119 11.5985L7.85995 11.5978L7.92972 11.4651ZM9.20793 11.4736L9.13792 11.341L9.13914 11.3403L9.20793 11.4736ZM9.98859 10.6758L10.1219 10.7446L10.1211 10.7462L9.98859 10.6758ZM9.95427 9.4405L10.0876 9.3717L10.0877 9.3719L9.95427 9.4405ZM9.11357 10.6329L9.21564 10.7428L9.21482 10.7436L9.11357 10.6329ZM9.08783 9.63781L9.02831 9.77564L9.0225 9.77283L9.08783 9.63781ZM8.10987 10.5729L7.97184 10.6316L7.97141 10.6306L8.10987 10.5729ZM8.52164 9.67212L8.59652 9.80217L8.59257 9.8043L8.52164 9.67212ZM8.32432 12.1775L8.26746 12.0387L8.26749 12.0387L8.32432 12.1775ZM5.63921 13.4643L5.78755 13.4865L5.78746 13.4871L5.63921 13.4643ZM11.1724 11.0794L11.1599 10.9294H11.1724V11.0794ZM11.4641 11.577L11.5972 11.6462L11.5952 11.6498L11.4641 11.577ZM7.00301 14.3651L6.86272 14.312L6.86272 14.312L7.00301 14.3651ZM7.8094 13.5158L7.74677 13.3795L7.74831 13.3788L7.8094 13.5158ZM7.50057 16.0122L7.43204 16.1456L7.4308 16.145L7.50057 16.0122ZM8.77878 16.0208L8.70877 15.8881L8.70999 15.8875L8.77878 16.0208ZM9.55944 15.223L9.69274 15.2918L9.69191 15.2933L9.55944 15.223ZM9.52512 13.9876L9.65842 13.9188L9.65852 13.919L9.52512 13.9876ZM8.9332 14.7082L8.78604 14.6792L8.78611 14.6788L8.9332 14.7082ZM8.75305 14.2622L8.84421 14.1429L8.84803 14.1461L8.75305 14.2622ZM7.68072 15.12L7.54911 15.192L7.5485 15.1908L7.68072 15.12ZM8.05818 14.245L8.1368 14.3728L8.13484 14.3739L8.05818 14.245ZM4.33518 17.1707L4.40675 17.3025L4.40478 17.3036L4.33518 17.1707ZM12.5921 4.17388C12.5921 2.67468 13.3562 1.53366 14.6903 1.05588L14.7915 1.33832C13.5864 1.76988 12.8921 2.79066 12.8921 4.17388H12.5921ZM12.5921 4.62855V4.17388H12.8921V4.62855H12.5921ZM12.4408 4.4451L12.7582 4.47942L12.726 4.77768L12.4086 4.74336L12.4408 4.4451ZM9.4202 4.34178C9.45208 4.32478 9.48817 4.31816 9.50872 4.31481C9.53471 4.31057 9.56507 4.30745 9.59785 4.30506C9.66375 4.30026 9.74902 4.29774 9.84805 4.29706C10.0467 4.2957 10.309 4.30169 10.6003 4.31353C11.1829 4.33722 11.8877 4.38461 12.441 4.44512L12.4084 4.74334C11.8636 4.68376 11.1658 4.63678 10.5881 4.61329C10.2993 4.60154 10.0421 4.59573 9.85011 4.59705C9.75384 4.59771 9.67604 4.60016 9.61966 4.60427C9.59131 4.60633 9.57073 4.60866 9.55704 4.61089C9.5379 4.61402 9.54558 4.61491 9.56137 4.60649L9.4202 4.34178ZM5.15546 8.54586C6.28364 7.41767 7.32188 6.38373 8.0878 5.62638C8.47072 5.24776 8.78582 4.93802 9.01016 4.72013C9.12225 4.61126 9.21213 4.52489 9.27664 4.46419C9.3088 4.43392 9.33534 4.40939 9.35548 4.39141C9.36547 4.3825 9.37476 4.37441 9.38284 4.36776C9.38746 4.36394 9.40173 4.35201 9.41794 4.34301L9.56363 4.60526C9.57502 4.59893 9.5809 4.59327 9.57369 4.59922C9.56992 4.60232 9.56391 4.6075 9.55522 4.61525C9.53801 4.63061 9.5137 4.65304 9.48223 4.68266C9.41946 4.74173 9.33093 4.82679 9.21917 4.93533C8.99581 5.15228 8.68146 5.46127 8.29874 5.83971C7.53338 6.59649 6.49558 7.62999 5.36759 8.75799L5.15546 8.54586ZM0.938731 13.0573C0.966332 12.953 1.03661 12.8362 1.16241 12.6756C1.29061 12.5118 1.48853 12.288 1.78939 11.9678C2.39175 11.3267 3.41863 10.287 5.15533 8.54599L5.36772 8.75786C3.63008 10.4998 2.60667 11.5361 2.00802 12.1732C1.70837 12.4921 1.51811 12.7079 1.39861 12.8605C1.2767 13.0162 1.23974 13.0925 1.22874 13.134L0.938731 13.0573ZM1.01591 14.2732C0.921768 14.0669 0.864856 13.8895 0.852539 13.6949C0.84032 13.5018 0.872767 13.3035 0.938844 13.0568L1.22863 13.1345C1.16603 13.3682 1.14271 13.5302 1.15194 13.676C1.16107 13.8202 1.20281 13.9602 1.28882 14.1486L1.01591 14.2732ZM2.9453 16.2053C2.89289 16.2053 2.84739 16.1813 2.82647 16.1699C2.79809 16.1543 2.7675 16.1337 2.73657 16.111C2.6742 16.0652 2.59819 16.0017 2.51473 15.9274C2.34714 15.7781 2.14019 15.5771 1.93496 15.3664C1.72961 15.1557 1.52413 14.9334 1.35962 14.7414C1.27742 14.6455 1.20447 14.5559 1.14655 14.4784C1.09062 14.4036 1.04213 14.3314 1.01558 14.2724L1.28915 14.1493C1.30121 14.1761 1.33234 14.2259 1.38685 14.2988C1.43938 14.3691 1.50771 14.4532 1.58744 14.5462C1.74676 14.7322 1.9477 14.9496 2.14983 15.1571C2.35209 15.3646 2.5537 15.5604 2.71424 15.7033C2.79484 15.7751 2.8628 15.8315 2.91409 15.8692C2.93999 15.8882 2.95867 15.9002 2.9707 15.9068C2.9902 15.9175 2.97626 15.9053 2.9453 15.9053V16.2053ZM3.4556 15.6435C3.4556 15.7159 3.43167 15.7857 3.40285 15.8435C3.37318 15.903 3.33322 15.9601 3.28935 16.0098C3.24563 16.0593 3.19464 16.1053 3.14066 16.14C3.08969 16.1728 3.02103 16.2053 2.9453 16.2053V15.9053C2.93819 15.9053 2.94889 15.9067 2.97834 15.8877C3.00478 15.8707 3.0353 15.8443 3.06449 15.8112C3.09354 15.7783 3.11792 15.7427 3.13436 15.7097C3.15165 15.675 3.1556 15.6525 3.1556 15.6435H3.4556ZM2.64169 14.6131C2.85371 14.8338 3.04917 15.0509 3.19237 15.2225C3.26373 15.308 3.32368 15.3841 3.36653 15.4447C3.38776 15.4747 3.40671 15.5036 3.421 15.5295C3.42811 15.5423 3.43553 15.5571 3.44152 15.5727C3.44648 15.5856 3.4556 15.6117 3.4556 15.6435H3.1556C3.1556 15.6566 3.15759 15.6663 3.15873 15.6711C3.15997 15.6763 3.1612 15.6795 3.16157 15.6805C3.16221 15.6822 3.16166 15.6804 3.15833 15.6744C3.15174 15.6625 3.13994 15.6438 3.12162 15.6179C3.08538 15.5667 3.03114 15.4975 2.96202 15.4147C2.82427 15.2496 2.63369 15.0378 2.42536 14.8209L2.64169 14.6131ZM2.35022 14.3279C2.43763 14.4113 2.53586 14.505 2.6407 14.6121L2.42635 14.822C2.32556 14.719 2.23081 14.6286 2.14314 14.545L2.35022 14.3279ZM2.34802 14.3259L2.34804 14.3259L2.14532 14.547L2.1453 14.547L2.34802 14.3259ZM2.35084 14.3285L2.35085 14.3285L2.14247 14.5443L2.14246 14.5443L2.35084 14.3285ZM1.92551 13.8034C1.94108 13.8697 1.98023 13.9397 2.0532 14.0267C2.12699 14.1147 2.2254 14.2088 2.35019 14.3279L2.14312 14.545C2.02217 14.4296 1.91012 14.323 1.82334 14.2195C1.73572 14.115 1.66415 14.0028 1.63344 13.8719L1.92551 13.8034ZM4.81159 10.4262C3.62796 11.6048 2.87316 12.3565 2.42736 12.8751C2.20425 13.1346 2.06615 13.3272 1.99022 13.4792C1.91576 13.6283 1.90731 13.7258 1.92551 13.8034L1.63344 13.8719C1.59422 13.7047 1.62753 13.534 1.72184 13.3452C1.81468 13.1593 1.97236 12.9442 2.19986 12.6795C2.65529 12.1497 3.42105 11.3874 4.59992 10.2136L4.81159 10.4262ZM4.81147 10.4263L4.81138 10.4264L4.60013 10.2134L4.60022 10.2133L4.81147 10.4263ZM5.9252 9.3156C5.51818 9.72262 5.14783 10.0914 4.81168 10.4261L4.6 10.2135C4.93616 9.87879 5.3063 9.51023 5.71307 9.10347L5.9252 9.3156ZM9.98289 5.25791L5.9252 9.3156L5.71307 9.10347L9.77076 5.04578L9.98289 5.25791ZM11.2987 5.4044L9.86607 5.30146L9.88757 5.00223L11.3202 5.10517L11.2987 5.4044ZM12.7313 5.50735L11.2987 5.4044L11.3202 5.10517L12.7528 5.20812L12.7313 5.50735ZM12.5921 6.03544V5.35773H12.8921V6.03544H12.5921ZM12.5419 6.65922C12.5627 6.61794 12.5767 6.5656 12.5843 6.46819C12.592 6.36837 12.5921 6.23542 12.5921 6.03544H12.8921C12.8921 6.23027 12.8922 6.37713 12.8834 6.4913C12.8744 6.60788 12.8553 6.70372 12.81 6.79399L12.5419 6.65922ZM12.3043 6.92174C12.4511 6.7824 12.5089 6.7248 12.5419 6.65922L12.81 6.79399C12.7481 6.91694 12.6432 7.01372 12.5108 7.13938L12.3043 6.92174ZM12.2432 8.77693C11.9629 8.50597 11.814 8.19042 11.8255 7.85754C11.8368 7.52647 12.0058 7.20642 12.304 6.92202L12.511 7.1391C12.2516 7.38658 12.1332 7.637 12.1253 7.86784C12.1174 8.09685 12.2173 8.33463 12.4517 8.56123L12.2432 8.77693ZM14.2845 7.27509C14.5969 7.93355 14.3525 8.56672 13.8972 8.90336C13.4412 9.24048 12.7689 9.28335 12.2434 8.77711L12.4515 8.56105C12.8611 8.95557 13.3684 8.92122 13.7188 8.66213C14.0699 8.40256 14.2587 7.9205 14.0135 7.40369L14.2845 7.27509ZM13.8365 6.77115C13.9255 6.82123 14.0156 6.90344 14.0912 6.98948C14.1676 7.07652 14.2386 7.17813 14.2845 7.27518L14.0134 7.4036C13.9822 7.33766 13.9287 7.25912 13.8658 7.18746C13.802 7.11479 13.7376 7.05974 13.6894 7.03262L13.8365 6.77115ZM13.6642 6.07833C13.6642 6.24214 13.6647 6.3623 13.6691 6.45447C13.6735 6.54782 13.6815 6.60162 13.692 6.63641C13.7009 6.66557 13.7111 6.68028 13.7265 6.69501C13.7473 6.71497 13.7787 6.73595 13.8408 6.77366L13.6851 7.0301C13.6271 6.99489 13.5673 6.95797 13.519 6.91171C13.4652 6.86023 13.4283 6.80041 13.4049 6.72341C13.3833 6.65204 13.3741 6.56805 13.3694 6.46864C13.3647 6.36807 13.3642 6.24052 13.3642 6.07833H13.6642ZM13.6642 5.40062V6.07833H13.3642V5.40062H13.6642ZM14.3876 5.61033L13.504 5.55028L13.5243 5.25097L14.4079 5.31102L14.3876 5.61033ZM15.2042 5.67077C15.216 5.68646 15.2281 5.69578 15.2342 5.70004C15.2408 5.70475 15.2462 5.70751 15.2486 5.70871C15.2533 5.711 15.2549 5.71127 15.2511 5.71006C15.2439 5.70775 15.2296 5.70406 15.2065 5.6994C15.1612 5.69026 15.0954 5.68007 15.0125 5.66952C14.8477 5.64853 14.6255 5.62732 14.3871 5.61029L14.4084 5.31106C14.6505 5.32834 14.8785 5.35003 15.0505 5.37193C15.136 5.38282 15.2101 5.39408 15.2658 5.40532C15.2933 5.41085 15.3198 5.41707 15.3424 5.42428C15.3535 5.42782 15.3673 5.43275 15.3812 5.43958C15.3903 5.44408 15.4205 5.45906 15.4442 5.49077L15.2042 5.67077ZM15.4579 8.42432C15.3936 7.6614 15.3293 6.96091 15.2779 6.44823C15.2522 6.19176 15.2298 5.98299 15.2123 5.83712C15.2035 5.76396 15.1961 5.70793 15.1903 5.67005C15.1873 5.65079 15.1851 5.63834 15.1836 5.63144C15.1828 5.62768 15.1828 5.62831 15.1837 5.6314C15.1842 5.63283 15.1857 5.63769 15.1886 5.64417C15.1899 5.647 15.1985 5.66714 15.2182 5.68684L15.4303 5.47471C15.4508 5.49522 15.4603 5.51677 15.4624 5.52161C15.4662 5.53011 15.4687 5.5376 15.4702 5.54225C15.4731 5.55178 15.4753 5.56124 15.4769 5.56862C15.4802 5.58402 15.4835 5.60317 15.4868 5.6243C15.4934 5.66721 15.5013 5.72719 15.5102 5.80135C15.528 5.9501 15.5507 6.16114 15.5764 6.41832C15.628 6.93293 15.6924 7.63505 15.7568 8.39912L15.4579 8.42432ZM15.6981 11.2126L15.4579 8.42459L15.7568 8.39884L15.997 11.1869L15.6981 11.2126ZM11.7182 15.1084L15.7416 11.0936L15.9535 11.306L11.9301 15.3207L11.7182 15.1084ZM7.70331 19.1233L11.7181 15.1085L11.9302 15.3206L7.91544 19.3354L7.70331 19.1233ZM7.43192 19.0794H7.80938V19.3794H7.43192V19.0794ZM6.3615 18.3414C6.74849 18.7197 6.93994 18.9019 7.07848 18.994C7.14267 19.0366 7.18977 19.0557 7.23597 19.0659C7.28581 19.0769 7.34191 19.0794 7.43192 19.0794V19.3794C7.34177 19.3794 7.25632 19.3776 7.17132 19.3588C7.08268 19.3393 7.00163 19.3031 6.91248 19.2439C6.74433 19.1322 6.5283 18.924 6.15179 18.556L6.3615 18.3414ZM5.21174 17.5753C5.27899 17.5561 5.35022 17.551 5.43034 17.573C5.50512 17.5937 5.57844 17.6355 5.65676 17.6928C5.81133 17.8059 6.02581 18.01 6.36203 18.342L6.15126 18.5554C5.80977 18.2183 5.61247 18.0321 5.47966 17.935C5.41429 17.8872 5.37502 17.869 5.35061 17.8623C5.33153 17.857 5.31698 17.8572 5.29415 17.8638L5.21174 17.5753ZM4.84943 17.926C4.88973 17.7514 5.0512 17.6094 5.22152 17.5729L5.28438 17.8662C5.21449 17.8812 5.15292 17.945 5.14175 17.9935L4.84943 17.926ZM5.58291 19.0165C5.28376 18.7088 5.09182 18.4999 4.98056 18.3473C4.8725 18.1991 4.80891 18.0628 4.85168 17.9174L5.13949 18.0021C5.13938 18.0024 5.12296 18.0334 5.22294 18.1705C5.31971 18.3032 5.49665 18.4974 5.79801 18.8074L5.58291 19.0165ZM8.12959 19.9746C7.71211 20.1673 7.3365 20.2131 6.92382 20.0522C6.52582 19.897 6.10777 19.5543 5.58311 19.0167L5.7978 18.8072C6.31973 19.3419 6.69949 19.6427 7.03283 19.7727C7.35147 19.897 7.64071 19.8699 8.00388 19.7023L8.12959 19.9746ZM12.6167 15.6722C11.2439 17.0493 10.1899 18.0904 9.44995 18.8014C9.08007 19.1567 8.78772 19.4305 8.57277 19.6229C8.4654 19.719 8.37622 19.7958 8.30572 19.8526C8.23931 19.9061 8.17851 19.9511 8.13181 19.9736L8.00166 19.7033C8.01287 19.6979 8.04858 19.6745 8.11745 19.619C8.18223 19.5668 8.2671 19.4939 8.37271 19.3993C8.58375 19.2105 8.87314 18.9395 9.2421 18.585C9.97976 17.8763 11.0319 16.837 12.4042 15.4604L12.6167 15.6722ZM16.7172 11.5631L12.6166 15.6722L12.4043 15.4603L16.5049 11.3512L16.7172 11.5631ZM16.4946 8.31324L16.7605 11.4444L16.4616 11.4698L16.1956 8.33863L16.4946 8.31324ZM16.149 4.96547C16.158 4.98696 16.1634 5.01205 16.1667 5.02836C16.1709 5.04855 16.1751 5.07318 16.1795 5.10118C16.1882 5.15738 16.1982 5.23239 16.2093 5.32323C16.2315 5.50521 16.2584 5.75521 16.2885 6.05478C16.3486 6.65415 16.4216 7.45492 16.4946 8.31323L16.1956 8.33864C16.1228 7.48122 16.0499 6.68208 15.99 6.08473C15.96 5.78594 15.9333 5.53838 15.9115 5.35952C15.9006 5.26994 15.891 5.19872 15.883 5.14735C15.879 5.12156 15.8756 5.10208 15.8728 5.08838C15.8692 5.0708 15.8685 5.07224 15.8721 5.08086L16.149 4.96547ZM15.3545 4.64211C15.5965 4.66334 15.7652 4.6857 15.8834 4.72724C15.9458 4.7492 16.0004 4.77848 16.0466 4.82044C16.0931 4.86264 16.1234 4.91078 16.1463 4.95929L15.8748 5.08703C15.8633 5.06263 15.854 5.05072 15.8449 5.04252C15.8357 5.03408 15.819 5.02261 15.7838 5.01025C15.7068 4.98317 15.5753 4.96264 15.3283 4.94097L15.3545 4.64211ZM14.3291 4.58149C14.5756 4.58149 15.0357 4.60762 15.3575 4.64241L15.3253 4.94067C15.0123 4.90683 14.5631 4.88149 14.3291 4.88149V4.58149ZM13.6642 4.05378C13.6642 4.21974 13.6661 4.33118 13.6787 4.4115C13.6909 4.48903 13.7093 4.51149 13.7219 4.52209C13.7395 4.53681 13.7797 4.55646 13.8854 4.5682C13.989 4.57971 14.1299 4.58149 14.3291 4.58149V4.88149C14.1337 4.88149 13.9755 4.88005 13.8523 4.86637C13.7311 4.8529 13.6169 4.82537 13.5294 4.75217C13.437 4.67483 13.3997 4.56862 13.3823 4.45795C13.3654 4.35008 13.3642 4.21381 13.3642 4.05378H13.6642ZM14.9099 2.07341C14.165 2.38246 13.6642 3.16459 13.6642 4.05378H13.3642C13.3642 3.05567 13.927 2.1564 14.7949 1.79631L14.9099 2.07341ZM17.2293 2.73758C16.9824 2.41224 16.5879 2.16635 16.1558 2.04261C15.7234 1.91876 15.2706 1.92214 14.9104 2.07319L14.7944 1.79653C15.232 1.61302 15.7572 1.6164 16.2384 1.7542C16.72 1.89211 17.1748 2.16951 17.4683 2.5562L17.2293 2.73758ZM17.6535 5.68372C17.6535 3.63021 17.5711 3.20364 17.2278 2.73559L17.4698 2.55818C17.8814 3.11957 17.9535 3.6538 17.9535 5.68372H17.6535ZM17.8031 7.86228C17.7367 7.70908 17.7012 7.51626 17.6806 7.19348C17.6599 6.86952 17.6535 6.39951 17.6535 5.68372H17.9535C17.9535 6.40055 17.9599 6.86133 17.98 7.17433C18.0001 7.48851 18.0332 7.63884 18.0784 7.743L17.8031 7.86228ZM19.6333 9.14435C18.7951 9.06236 18.1002 8.57732 17.8022 7.8602L18.0792 7.74507C18.3303 8.34907 18.9221 8.77335 19.6625 8.84578L19.6333 9.14435ZM20.3353 8.93296C20.31 8.97671 20.2798 9.02376 20.2384 9.06297C20.1935 9.1055 20.1411 9.1336 20.0789 9.14917C19.9706 9.17624 19.8256 9.16482 19.632 9.14422L19.6637 8.84591C19.8734 8.86821 19.96 8.86965 20.0061 8.85812C20.021 8.85439 20.0266 8.85031 20.0321 8.84513C20.0411 8.83662 20.0538 8.82041 20.0757 8.78265L20.3353 8.93296ZM20.392 8.46298C20.4132 8.53346 20.4135 8.61861 20.4049 8.69289C20.396 8.7692 20.3753 8.85366 20.3396 8.92489L20.0713 8.79073C20.0872 8.75901 20.1008 8.71051 20.1069 8.65813C20.1132 8.60373 20.1093 8.5645 20.1047 8.54919L20.392 8.46298ZM19.5267 8.05787C19.8283 8.10814 20.0213 8.14269 20.1427 8.19075C20.2084 8.21676 20.2658 8.25115 20.3108 8.30365C20.355 8.35522 20.3769 8.41243 20.392 8.46298L20.1047 8.54919C20.0941 8.51395 20.0871 8.50361 20.083 8.49888C20.0798 8.49508 20.0695 8.48443 20.0323 8.46969C19.9478 8.43626 19.7934 8.40647 19.4774 8.35379L19.5267 8.05787ZM18.7199 7.36723C18.8143 7.70131 19.1586 7.99777 19.5262 8.05779L19.4779 8.35387C19.0048 8.27663 18.5598 7.90397 18.4312 7.44881L18.7199 7.36723ZM18.6398 5.22905C18.6398 5.73758 18.6504 6.2374 18.6664 6.63093C18.6744 6.82777 18.6837 6.99719 18.6936 7.12739C18.7039 7.26277 18.714 7.34336 18.7211 7.37164L18.43 7.4444C18.4156 7.38689 18.4043 7.27983 18.3945 7.15008C18.3842 7.01514 18.3748 6.84195 18.3667 6.64311C18.3505 6.24526 18.3398 5.74138 18.3398 5.22905H18.6398ZM17.8637 1.89485C18.2021 2.27279 18.4049 2.56337 18.5148 3.04457C18.6212 3.5104 18.6398 4.15271 18.6398 5.22905H18.3398C18.3398 4.14358 18.3197 3.5377 18.2224 3.11136C18.1285 2.70038 17.9624 2.45479 17.6402 2.09497L17.8637 1.89485ZM14.6899 1.05603C15.7718 0.665108 17.0701 1.02002 17.8631 1.89412L17.6409 2.0957C16.9241 1.30555 15.7517 0.991329 14.7919 1.33817L14.6899 1.05603ZM13.3642 7.86269C13.3642 7.83064 13.3572 7.79214 13.3441 7.75608C13.3306 7.71865 13.3147 7.69521 13.3051 7.68566L13.5173 7.47353C13.5678 7.52402 13.6033 7.59066 13.6263 7.65404C13.6497 7.71877 13.6642 7.79179 13.6642 7.86269H13.3642ZM13.3051 8.03972C13.3147 8.03016 13.3306 8.00672 13.3441 7.9693C13.3572 7.93324 13.3642 7.89473 13.3642 7.86269H13.6642C13.6642 7.93359 13.6497 8.00661 13.6263 8.07134C13.6033 8.13472 13.5678 8.20135 13.5173 8.25185L13.3051 8.03972ZM13.1281 8.09873C13.1602 8.09873 13.1987 8.09176 13.2347 8.07872C13.2722 8.06518 13.2956 8.04927 13.3051 8.03972L13.5173 8.25185C13.4668 8.30235 13.4001 8.33791 13.3368 8.36083C13.272 8.38424 13.199 8.39873 13.1281 8.39873V8.09873ZM12.9511 8.03972C12.9606 8.04927 12.9841 8.06518 13.0215 8.07872C13.0576 8.09176 13.0961 8.09873 13.1281 8.09873V8.39873C13.0572 8.39873 12.9842 8.38424 12.9195 8.36083C12.8561 8.33791 12.7895 8.30235 12.739 8.25185L12.9511 8.03972ZM12.8921 7.86269C12.8921 7.89473 12.899 7.93324 12.9121 7.9693C12.9256 8.00672 12.9415 8.03016 12.9511 8.03972L12.739 8.25185C12.6885 8.20135 12.6529 8.13472 12.63 8.07134C12.6066 8.00661 12.5921 7.93359 12.5921 7.86269H12.8921ZM12.9511 7.68566C12.9415 7.69521 12.9256 7.71865 12.9121 7.75608C12.899 7.79214 12.8921 7.83064 12.8921 7.86269H12.5921C12.5921 7.79179 12.6066 7.71877 12.63 7.65404C12.6529 7.59066 12.6885 7.52402 12.739 7.47353L12.9511 7.68566ZM13.1281 7.62665C13.0961 7.62665 13.0576 7.63361 13.0215 7.64666C12.9841 7.6602 12.9606 7.67611 12.9511 7.68566L12.739 7.47353C12.7895 7.42303 12.8561 7.38747 12.9195 7.36455C12.9842 7.34113 13.0572 7.32665 13.1281 7.32665V7.62665ZM13.3051 7.68566C13.2956 7.67611 13.2722 7.6602 13.2347 7.64666C13.1987 7.63361 13.1602 7.62665 13.1281 7.62665V7.32665C13.199 7.32665 13.272 7.34113 13.3368 7.36455C13.4001 7.38747 13.4668 7.42303 13.5173 7.47353L13.3051 7.68566ZM7.29187 9.76487C7.36133 9.5813 7.49741 9.3888 7.65269 9.22558C7.80825 9.06208 7.99487 8.91556 8.17592 8.83237L8.30117 9.10498C8.16482 9.16762 8.0083 9.28705 7.87004 9.43237C7.7315 9.57798 7.62309 9.73721 7.57245 9.87104L7.29187 9.76487ZM7.85995 11.5978C7.27152 11.2887 7.0314 10.4532 7.29187 9.76487L7.57245 9.87104C7.35251 10.4523 7.57564 11.1096 7.99949 11.3323L7.85995 11.5978ZM9.27795 11.6063C9.0917 11.7046 8.8226 11.7438 8.57071 11.7416C8.31802 11.7393 8.04922 11.695 7.8612 11.5985L7.99824 11.3316C8.12762 11.3981 8.34352 11.4395 8.57338 11.4416C8.80403 11.4436 9.01533 11.4057 9.13792 11.341L9.27795 11.6063ZM10.1211 10.7462C10.0392 10.9003 9.90035 11.0768 9.75091 11.2307C9.60218 11.3839 9.43036 11.5276 9.27673 11.6069L9.13914 11.3403C9.25144 11.2824 9.39703 11.1645 9.53568 11.0217C9.67363 10.8796 9.79213 10.7259 9.85612 10.6054L10.1211 10.7462ZM10.0877 9.3719C10.18 9.55143 10.2241 9.82017 10.2308 10.067C10.2374 10.3113 10.2085 10.5768 10.1219 10.7446L9.85529 10.607C9.90593 10.5089 9.93713 10.3069 9.93086 10.0751C9.92467 9.84577 9.88296 9.62982 9.82088 9.5091L10.0877 9.3719ZM8.17746 8.83168C8.52905 8.67489 8.92526 8.659 9.27137 8.75436C9.61647 8.84944 9.92661 9.05985 10.0876 9.3717L9.82098 9.50929C9.70742 9.28927 9.47711 9.12222 9.19168 9.04358C8.90726 8.96522 8.58286 8.97937 8.29964 9.10567L8.17746 8.83168ZM9.0115 10.523C9.16498 10.3805 9.23056 10.212 9.2274 10.0745C9.22435 9.94163 9.15898 9.83192 9.02837 9.77552L9.1473 9.5001C9.39415 9.60669 9.5218 9.82726 9.52732 10.0676C9.53274 10.3032 9.42246 10.5508 9.21564 10.7428L9.0115 10.523ZM8.24789 10.5141C8.31449 10.6706 8.41902 10.7358 8.53383 10.7427C8.65878 10.7502 8.82883 10.6901 9.01232 10.5223L9.21482 10.7436C8.99511 10.9446 8.7491 11.0561 8.51589 11.0422C8.27255 11.0276 8.07682 10.8783 7.97185 10.6316L8.24789 10.5141ZM8.59257 9.8043C8.28645 9.96855 8.15819 10.2988 8.24833 10.5152L7.97141 10.6306C7.80419 10.2293 8.05339 9.75315 8.45072 9.53995L8.59257 9.8043ZM9.0225 9.77283C8.87738 9.70261 8.84559 9.69382 8.81998 9.69533C8.80933 9.69595 8.79147 9.69936 8.7547 9.71623C8.71654 9.73374 8.66848 9.76066 8.59649 9.80211L8.4468 9.54213C8.51635 9.50208 8.5766 9.46788 8.62959 9.44357C8.68397 9.41862 8.7401 9.39951 8.80236 9.39584C8.92259 9.38877 9.03235 9.44432 9.15317 9.50278L9.0225 9.77283ZM8.38117 12.3163C7.21724 12.793 6.55711 13.07 6.18453 13.2488C5.99694 13.3389 5.89189 13.3997 5.83355 13.4441C5.77758 13.4867 5.7858 13.4982 5.78755 13.4865L5.49087 13.442C5.50548 13.3446 5.56518 13.2713 5.65183 13.2054C5.73611 13.1412 5.86483 13.0695 6.05469 12.9784C6.43703 12.7948 7.10659 12.5142 8.26746 12.0387L8.38117 12.3163ZM11.1849 11.2289C11.1938 11.2281 11.195 11.2269 11.1791 11.2313C11.1668 11.2346 11.1495 11.2398 11.1267 11.2472C11.0813 11.2618 11.0189 11.2833 10.9409 11.3113C10.7852 11.3672 10.5711 11.4475 10.3137 11.5465C9.79908 11.7444 9.1138 12.0164 8.38114 12.3163L8.26749 12.0387C9.00178 11.7381 9.68908 11.4653 10.206 11.2665C10.4644 11.1671 10.6808 11.0859 10.8396 11.029C10.9188 11.0005 10.9847 10.9778 11.0346 10.9617C11.0595 10.9536 11.0816 10.9469 11.1001 10.9419C11.1149 10.9378 11.1381 10.9317 11.16 10.9299L11.1849 11.2289ZM11.331 11.5078C11.3595 11.4531 11.3556 11.3835 11.3205 11.3233C11.2856 11.2632 11.2299 11.2294 11.1724 11.2294V10.9294C11.3552 10.9294 11.5011 11.0372 11.5798 11.1723C11.6583 11.3072 11.6802 11.4864 11.5972 11.6462L11.331 11.5078ZM5.93946 13.7604C5.92965 13.7604 5.92869 13.7618 5.94538 13.758C5.95874 13.7549 5.97757 13.7498 6.0024 13.7423C6.05188 13.7273 6.11882 13.7048 6.20169 13.6752C6.36708 13.6161 6.58992 13.5311 6.8514 13.4279C7.37404 13.2218 8.04683 12.9451 8.71421 12.6634C9.38162 12.3816 10.0426 12.0953 10.5416 11.87C10.7913 11.7572 10.9992 11.6603 11.1467 11.5872C11.2208 11.5505 11.2776 11.5207 11.3163 11.4985C11.3359 11.4873 11.3483 11.4794 11.3552 11.4746C11.3586 11.4721 11.3585 11.472 11.3563 11.4739C11.3552 11.4749 11.3524 11.4775 11.3489 11.4815C11.3456 11.4851 11.3393 11.4928 11.333 11.5041L11.5952 11.6498C11.5815 11.6745 11.5638 11.6908 11.5564 11.6974C11.5467 11.7061 11.5366 11.7137 11.5278 11.7199C11.51 11.7324 11.4886 11.7455 11.4656 11.7587C11.419 11.7854 11.3559 11.8183 11.28 11.856C11.1276 11.9315 10.9158 12.0302 10.665 12.1434C10.163 12.3701 9.4996 12.6575 8.83089 12.9398C8.16215 13.2221 7.48703 13.4997 6.96146 13.707C6.69885 13.8106 6.47251 13.897 6.3026 13.9577C6.21782 13.988 6.14557 14.0124 6.0892 14.0294C6.06111 14.0379 6.03534 14.0451 6.01306 14.0502C5.99409 14.0546 5.96643 14.0604 5.93946 14.0604V13.7604ZM5.78746 13.4871C5.77614 13.5607 5.79501 13.6345 5.8305 13.6877C5.86639 13.7416 5.90806 13.7604 5.93946 13.7604V14.0604C5.78213 14.0604 5.65651 13.9676 5.58089 13.8542C5.50485 13.7401 5.46796 13.5909 5.49095 13.4415L5.78746 13.4871ZM6.86272 14.312C6.93218 14.1284 7.06826 13.9359 7.22354 13.7727C7.3791 13.6092 7.56572 13.4627 7.74677 13.3795L7.87202 13.6521C7.73567 13.7148 7.57915 13.8342 7.44089 13.9795C7.30235 14.1251 7.19394 14.2843 7.1433 14.4182L6.86272 14.312ZM7.4308 16.145C6.84237 15.8358 6.60225 15.0004 6.86272 14.312L7.1433 14.4182C6.92336 14.9995 7.14649 15.6567 7.57034 15.8794L7.4308 16.145ZM8.8488 16.1534C8.66255 16.2517 8.39345 16.291 8.14156 16.2887C7.88887 16.2865 7.62007 16.2422 7.43205 16.1456L7.56909 15.8788C7.69847 15.9452 7.91437 15.9867 8.14423 15.9887C8.37488 15.9908 8.58618 15.9528 8.70877 15.8881L8.8488 16.1534ZM9.69191 15.2933C9.61006 15.4474 9.4712 15.6239 9.32176 15.7778C9.17303 15.931 9.00121 16.0748 8.84758 16.1541L8.70999 15.8875C8.82229 15.8295 8.96789 15.7116 9.10653 15.5688C9.24448 15.4268 9.36298 15.273 9.42697 15.1526L9.69191 15.2933ZM9.65852 13.919C9.75085 14.0986 9.79493 14.3673 9.8016 14.6141C9.80821 14.8584 9.77936 15.1239 9.69273 15.2918L9.42614 15.1542C9.47678 15.0561 9.50798 14.854 9.50171 14.6222C9.49552 14.3929 9.45381 14.177 9.39173 14.0562L9.65852 13.919ZM7.74831 13.3788C8.0999 13.222 8.49611 13.2061 8.84222 13.3015C9.18732 13.3966 9.49746 13.607 9.65842 13.9188L9.39183 14.0564C9.27827 13.8364 9.04796 13.6694 8.76253 13.5907C8.47811 13.5124 8.15372 13.5265 7.87049 13.6528L7.74831 13.3788ZM8.78611 14.6788C8.80613 14.5787 8.8006 14.5425 8.79119 14.5196C8.77991 14.4921 8.75134 14.4546 8.65806 14.3782L8.84803 14.1461C8.94348 14.2241 9.02644 14.3025 9.06878 14.4058C9.11297 14.5136 9.10316 14.6233 9.08029 14.7377L8.78611 14.6788ZM7.81233 15.048C7.92214 15.2489 8.11982 15.3041 8.32136 15.2381C8.52765 15.1704 8.72779 14.974 8.78604 14.6792L9.08036 14.7373C9.00134 15.1373 8.72538 15.4213 8.41481 15.5231C8.09948 15.6265 7.73955 15.5402 7.54911 15.192L7.81233 15.048ZM8.13484 14.3739C8.00744 14.4497 7.90029 14.5817 7.84004 14.7223C7.77744 14.8683 7.77963 14.987 7.81294 15.0492L7.5485 15.1908C7.45313 15.0128 7.48534 14.7883 7.56429 14.6041C7.64559 14.4144 7.79151 14.229 7.98152 14.1161L8.13484 14.3739ZM8.66193 14.3813C8.50986 14.265 8.45746 14.2436 8.41833 14.2427C8.3749 14.2417 8.31247 14.2646 8.13679 14.3727L7.97956 14.1172C8.13846 14.0195 8.27762 13.9394 8.42507 13.9428C8.57681 13.9462 8.70456 14.0362 8.84416 14.143L8.66193 14.3813ZM4.02947 16.6934C3.94354 16.7793 3.94803 16.8891 4.00712 16.9724C4.06609 17.0554 4.16353 17.0913 4.26557 17.0378L4.40478 17.3036C4.14652 17.4388 3.89223 17.3288 3.76247 17.146C3.63283 16.9633 3.6116 16.687 3.81734 16.4813L4.02947 16.6934ZM4.1636 16.6344C4.15019 16.6344 4.12534 16.6388 4.09574 16.6514C4.06657 16.6638 4.04313 16.6797 4.02947 16.6934L3.81734 16.4813C3.86372 16.4349 3.92178 16.3994 3.9784 16.3753C4.03458 16.3514 4.09981 16.3344 4.1636 16.3344V16.6344ZM4.26361 17.0389C4.3362 16.9995 4.37149 16.909 4.34508 16.8026C4.31874 16.6964 4.24606 16.6344 4.1636 16.6344V16.3344C4.4243 16.3344 4.58753 16.534 4.63625 16.7303C4.6849 16.9263 4.63441 17.1789 4.40674 17.3025L4.26361 17.0389Z" fill="#198754"/>
</svg>