<svg width="26" height="26" viewBox="0 0 26 26" fill="none" xmlns="http://www.w3.org/2000/svg">
<path d="M19.4515 18.04C17.9478 18.0758 17.7869 16.8894 16.7087 16.5693C16.2849 16.511 16.1105 15.9429 16.4236 15.6536C17.0689 14.9335 17.4252 14.003 17.4252 13.0354C17.4252 10.8682 15.6621 9.10503 13.4949 9.10503C11.3276 9.10503 9.5645 10.8682 9.5645 13.0354C9.5645 14.0081 9.92407 14.9422 10.577 15.6657C10.8771 15.9579 10.6975 16.5123 10.2811 16.5694C9.91348 16.6317 9.69009 16.8552 9.40723 17.1381C8.45952 18.3259 6.6146 18.3238 5.66929 17.138C5.03843 16.3595 4.08159 16.3594 3.45059 17.1382C3.11411 17.5033 2.2126 18.3309 1.8353 17.5305C1.27764 16.0947 0.994873 14.5823 0.994873 13.0354C0.994873 9.70981 2.29873 6.57441 4.66631 4.20684C7.03389 1.83926 10.1693 0.5354 13.4949 0.5354C16.8205 0.5354 19.9559 1.83926 22.3234 4.20684C24.691 6.57441 25.9949 9.70981 25.9949 13.0354C25.9949 14.5823 25.7121 16.0947 25.1544 17.5305C24.7771 18.3307 23.8749 17.5033 23.5392 17.1381C23.1982 16.7972 22.9519 16.5508 22.4298 16.5508C21.1651 16.6291 21.1084 18.0817 19.4515 18.04ZM17.6624 15.8039C17.9399 15.9762 18.154 16.1903 18.3421 16.3785C18.9752 17.1577 19.9284 17.1573 20.5608 16.3785C21.5738 15.1303 23.4203 15.2241 24.3902 16.4696C24.7425 15.3614 24.9207 14.2095 24.9207 13.0354C24.9207 6.7352 19.7951 1.60962 13.4949 1.60962C7.19468 1.60962 2.06909 6.7352 2.06909 13.0354C2.06909 14.2095 2.24722 15.3614 2.59951 16.4695C3.57437 15.2218 5.41406 15.1313 6.42891 16.3786C7.05986 17.1571 8.01655 17.1572 8.64761 16.3785C8.83579 16.1904 9.0498 15.9763 9.32744 15.8039C8.78359 14.9872 8.49023 14.0271 8.49023 13.0354C8.49023 10.2759 10.7353 8.03086 13.4948 8.03086C16.2543 8.03086 18.4994 10.2759 18.4994 13.0354C18.4995 14.0268 18.2059 14.9875 17.6624 15.8039Z" fill="#1E293B"/>
<path d="M7.54014 9.10489C7.40269 9.10489 7.26523 9.05245 7.16035 8.94757L5.67124 7.45841C5.46147 7.24865 5.46147 6.90856 5.67124 6.69879C5.88101 6.48903 6.22109 6.48912 6.43086 6.69879L7.91997 8.18795C8.12974 8.39772 8.12974 8.73781 7.91997 8.94757C7.81509 9.05245 7.67754 9.10489 7.54014 9.10489Z" fill="#1E293B"/>
<path d="M14.9871 6.12687C14.8496 6.12687 14.7122 6.07443 14.6073 5.96954C14.3975 5.75978 14.3975 5.41969 14.6073 5.20992L16.0964 3.72076C16.3062 3.51105 16.6462 3.51105 16.8561 3.72076C17.0658 3.93053 17.0658 4.27062 16.8561 4.48038L15.3669 5.96954C15.262 6.07443 15.1245 6.12687 14.9871 6.12687Z" fill="#767F8F"/>
<path d="M20.9434 13.5722C20.8059 13.5722 20.6685 13.5197 20.5636 13.4149C20.3538 13.2051 20.3538 12.865 20.5636 12.6552L22.0527 11.1661C22.2625 10.9564 22.6025 10.9564 22.8124 11.1661C23.0221 11.3758 23.0221 11.7159 22.8124 11.9257L21.3232 13.4149C21.2183 13.5197 21.0809 13.5722 20.9434 13.5722Z" fill="#1E293B"/>
<path d="M6.58714 13.0353C6.58714 13.3319 6.34671 13.5724 6.05008 13.5724C5.33768 13.5441 5.33792 12.5265 6.05008 12.4983C6.34671 12.4983 6.58714 12.7387 6.58714 13.0353Z" fill="#767F8F"/>
<path d="M11.0534 5.58975C11.0534 5.88633 10.813 6.12681 10.5164 6.12681C9.80399 6.09854 9.80423 5.08091 10.5164 5.05273C10.813 5.05269 11.0534 5.29316 11.0534 5.58975Z" fill="#767F8F"/>
<path d="M19.9892 8.56777C19.9892 8.86436 19.7488 9.10483 19.4522 9.10483C18.7398 9.07656 18.74 8.05894 19.4522 8.03076C19.7488 8.03076 19.9892 8.27119 19.9892 8.56777Z" fill="#767F8F"/>
<path d="M16.2936 16.2155C16.2293 16.0302 16.2711 15.8247 16.4027 15.6793L16.4249 15.6548C16.4248 15.6549 16.4246 15.655 16.4245 15.6551C15.6782 16.4879 14.6113 16.9655 13.4974 16.9655C12.3887 16.9655 11.3251 16.4916 10.5795 15.6654L10.5916 15.6787C10.7235 15.824 10.7656 16.0297 10.7014 16.2151C10.6373 16.4006 10.4771 16.5363 10.2836 16.5691C10.1924 16.5846 10.1101 16.61 10.0334 16.6437C10.9624 17.5347 12.2055 18.0396 13.4974 18.0396C14.7899 18.0396 16.0324 17.535 16.9614 16.6438C16.8848 16.61 16.8024 16.5846 16.7112 16.5691C16.5179 16.5363 16.3578 16.4008 16.2936 16.2155Z" fill="#767F8F"/>
<path d="M24.4643 17.8259C24.2761 17.7589 24.1256 17.658 23.9874 17.5515C20.3987 26.603 6.59326 26.5977 3.00547 17.5484C2.59409 17.8788 2.08237 18.0663 1.83691 17.5305C5.86143 28.1136 21.1346 28.1086 25.1561 17.5305C25.0165 17.847 24.7408 17.9332 24.4643 17.8259Z" fill="#767F8F"/>
</svg>
