<svg width="25" height="26" viewBox="0 0 25 26" fill="none" xmlns="http://www.w3.org/2000/svg">
<g clip-path="url(#clip0_1_8116)">
<path d="M18.8671 11.8583C18.7651 11.7378 18.6152 11.6683 18.4573 11.6683H6.54408C6.22231 11.6607 5.95346 11.9773 6.01425 12.2938L6.80849 17.059C6.85165 17.318 7.07572 17.5078 7.33827 17.5078H8.4637L9.58674 25.0417C9.62595 25.3048 9.85193 25.4996 10.118 25.4996H14.8833C15.1494 25.4996 15.3753 25.3048 15.4145 25.0417L16.5376 17.5078H17.663C17.9256 17.5078 18.1496 17.318 18.1928 17.059L18.987 12.2938C19.0131 12.138 18.9692 11.9787 18.8671 11.8583ZM14.4204 24.4254H10.581L9.54988 17.5078H15.4516L14.4204 24.4254ZM17.2081 16.4336H7.7933L7.17811 12.7426H17.8233L17.2081 16.4336Z" fill="#767F8F"/>
<path d="M7.47816 9.42588C7.47816 8.79649 7.71106 7.94566 8.82053 7.46617C9.12399 7.34371 9.24216 6.93727 9.05168 6.67121C7.72356 4.80818 10.2988 2.65878 12.2031 1.70312C13.2911 3.99193 17.2799 3.75306 16.1377 6.40832C15.3213 6.04299 14.3572 5.81052 13.3315 5.74016C12.6274 5.70461 12.5536 6.75094 13.2581 6.81183C15.0524 6.95524 17.318 7.66857 17.5231 9.42583C17.523 10.6099 17.0581 11.2849 15.973 11.6685H17.87C19.0015 10.2743 18.8681 8.05201 17.0766 6.93302C18.7254 2.82709 13.926 3.36503 13.0101 0.86719C12.9214 0.600883 12.6426 0.447759 12.3703 0.515922C10.3657 1.11616 6.57157 4.012 7.87293 6.75397C6.18886 7.68341 5.97211 10.327 7.13114 11.6685H9.02815C7.94309 11.2849 7.47816 10.6099 7.47816 9.42588Z" fill="#1E293B"/>
</g>
<defs>
<clipPath id="clip0_1_8116">
<rect width="25" height="25" fill="white" transform="translate(0 0.5)"/>
</clipPath>
</defs>
</svg>
