<svg width="539" height="136" viewBox="0 0 539 136" fill="none" xmlns="http://www.w3.org/2000/svg">
<mask id="path-1-outside-1_525_2786" maskUnits="userSpaceOnUse" x="4" y="12" width="536" height="110" fill="black">
<rect fill="white" x="4" y="12" width="536" height="110"/>
<path d="M33.1108 95.4123C28.0944 95.4123 23.5933 94.1754 19.6077 91.7015C15.6221 89.159 12.461 85.7574 10.1246 81.4969C7.85692 77.1677 6.72308 72.2887 6.72308 66.86C6.72308 61.4313 7.96 56.5523 10.4338 52.2231C12.9764 47.8938 16.3779 44.4923 20.6385 42.0185C24.9677 39.4759 29.8123 38.2046 35.1723 38.2046C40.5323 38.2046 45.3426 39.4759 49.6031 42.0185C53.8636 44.4923 57.2308 47.8938 59.7046 52.2231C62.2472 56.5523 63.5185 61.4313 63.5185 66.86H59.4985C59.4985 72.2887 58.3303 77.1677 55.9938 81.4969C53.7262 85.7574 50.5995 89.159 46.6138 91.7015C42.6282 94.1754 38.1272 95.4123 33.1108 95.4123ZM35.1723 86.1354C38.6769 86.1354 41.8036 85.3108 44.5523 83.6615C47.301 81.9436 49.4656 79.6415 51.0462 76.7554C52.6267 73.8005 53.4169 70.502 53.4169 66.86C53.4169 63.1492 52.6267 59.8508 51.0462 56.9646C49.4656 54.0097 47.301 51.7077 44.5523 50.0585C41.8036 48.3405 38.6769 47.4815 35.1723 47.4815C31.7364 47.4815 28.6097 48.3405 25.7923 50.0585C23.0436 51.7077 20.8446 54.0097 19.1954 56.9646C17.6149 59.8508 16.8246 63.1492 16.8246 66.86C16.8246 70.502 17.6149 73.8005 19.1954 76.7554C20.8446 79.6415 23.0436 81.9436 25.7923 83.6615C28.6097 85.3108 31.7364 86.1354 35.1723 86.1354ZM58.2615 95.1031C56.7497 95.1031 55.4785 94.6221 54.4477 93.66C53.4856 92.6292 53.0046 91.3579 53.0046 89.8462V74.0754L54.9631 63.1492L63.5185 66.86V89.8462C63.5185 91.3579 63.0031 92.6292 61.9723 93.66C61.0103 94.6221 59.7733 95.1031 58.2615 95.1031ZM95.1148 94.8969C92.9845 94.8969 91.3353 93.7631 90.1671 91.4954L68.3148 45.42C67.765 44.2518 67.6963 43.1179 68.1086 42.0185C68.5896 40.8503 69.483 39.9569 70.7886 39.3385C71.9568 38.72 73.125 38.6169 74.2932 39.0292C75.5301 39.4415 76.4578 40.2318 77.0763 41.4L97.4855 85.4138H92.5378L112.741 41.4C113.359 40.2318 114.287 39.4415 115.524 39.0292C116.83 38.6169 118.135 38.72 119.441 39.3385C120.678 39.8882 121.502 40.7472 121.915 41.9154C122.327 43.0836 122.258 44.2518 121.709 45.42L99.8563 91.4954C98.8255 93.7631 97.245 94.8969 95.1148 94.8969ZM138.804 95C137.292 95 136.021 94.519 134.99 93.5569C134.028 92.5262 133.547 91.2549 133.547 89.7431V43.8738C133.547 42.2933 134.028 41.022 134.99 40.06C136.021 39.0979 137.292 38.6169 138.804 38.6169C140.385 38.6169 141.656 39.0979 142.618 40.06C143.58 41.022 144.061 42.2933 144.061 43.8738V89.7431C144.061 91.2549 143.58 92.5262 142.618 93.5569C141.656 94.519 140.385 95 138.804 95ZM138.804 29.4431C136.949 29.4431 135.334 28.7903 133.959 27.4846C132.654 26.1103 132.001 24.4954 132.001 22.64C132.001 20.7846 132.654 19.2041 133.959 17.8985C135.334 16.5241 136.949 15.8369 138.804 15.8369C140.659 15.8369 142.24 16.5241 143.546 17.8985C144.92 19.2041 145.607 20.7846 145.607 22.64C145.607 24.4954 144.92 26.1103 143.546 27.4846C142.24 28.7903 140.659 29.4431 138.804 29.4431ZM211.242 95.1031C209.73 95.1031 208.459 94.6221 207.428 93.66C206.466 92.6292 205.985 91.3579 205.985 89.8462V64.4892C205.985 60.5723 205.264 57.3769 203.821 54.9031C202.378 52.4292 200.419 50.6082 197.945 49.44C195.54 48.2031 192.757 47.5846 189.596 47.5846C186.71 47.5846 184.099 48.1687 181.762 49.3369C179.426 50.5051 177.57 52.0856 176.196 54.0785C174.822 56.0026 174.135 58.2359 174.135 60.7785H167.641C167.641 56.4492 168.671 52.601 170.733 49.2338C172.863 45.7979 175.749 43.0836 179.391 41.0908C183.033 39.0979 187.122 38.1015 191.658 38.1015C196.399 38.1015 200.625 39.1323 204.336 41.1938C208.116 43.1867 211.07 46.1415 213.201 50.0585C215.4 53.9754 216.499 58.7856 216.499 64.4892V89.8462C216.499 91.3579 215.984 92.6292 214.953 93.66C213.991 94.6221 212.754 95.1031 211.242 95.1031ZM168.878 95.1031C167.366 95.1031 166.095 94.6221 165.064 93.66C164.102 92.6292 163.621 91.3579 163.621 89.8462V43.8738C163.621 42.2933 164.102 41.022 165.064 40.06C166.095 39.0979 167.366 38.6169 168.878 38.6169C170.458 38.6169 171.729 39.0979 172.691 40.06C173.653 41.022 174.135 42.2933 174.135 43.8738V89.8462C174.135 91.3579 173.653 92.6292 172.691 93.66C171.729 94.6221 170.458 95.1031 168.878 95.1031ZM243.984 119.738C243.296 119.738 242.472 119.532 241.51 119.12C238.486 117.746 237.662 115.581 239.036 112.626L270.474 41.6062C271.849 38.72 274.013 37.8954 276.968 39.1323C280.061 40.4379 280.92 42.6026 279.545 45.6261L248.004 116.543C247.179 118.673 245.839 119.738 243.984 119.738ZM256.147 92.7323C254.841 93.2821 253.604 93.3508 252.436 92.9385C251.336 92.4574 250.443 91.5641 249.756 90.2585L226.151 45.42C225.464 44.1144 225.361 42.8774 225.842 41.7092C226.392 40.4723 227.32 39.579 228.625 39.0292C229.931 38.4795 231.168 38.4451 232.336 38.9261C233.504 39.3385 234.397 40.1974 235.016 41.5031L257.59 86.3415C258.277 87.6472 258.517 88.9185 258.311 90.1554C258.174 91.3236 257.452 92.1826 256.147 92.7323ZM310.935 95.4123C305.919 95.4123 301.418 94.1754 297.432 91.7015C293.447 89.159 290.286 85.7574 287.949 81.4969C285.681 77.1677 284.548 72.2887 284.548 66.86C284.548 61.4313 285.785 56.5523 288.258 52.2231C290.801 47.8938 294.202 44.4923 298.463 42.0185C302.792 39.4759 307.637 38.2046 312.997 38.2046C318.357 38.2046 323.167 39.4759 327.428 42.0185C331.688 44.4923 335.055 47.8938 337.529 52.2231C340.072 56.5523 341.343 61.4313 341.343 66.86H337.323C337.323 72.2887 336.155 77.1677 333.818 81.4969C331.551 85.7574 328.424 89.159 324.438 91.7015C320.453 94.1754 315.952 95.4123 310.935 95.4123ZM312.997 86.1354C316.501 86.1354 319.628 85.3108 322.377 83.6615C325.126 81.9436 327.29 79.6415 328.871 76.7554C330.451 73.8005 331.241 70.502 331.241 66.86C331.241 63.1492 330.451 59.8508 328.871 56.9646C327.29 54.0097 325.126 51.7077 322.377 50.0585C319.628 48.3405 316.501 47.4815 312.997 47.4815C309.561 47.4815 306.434 48.3405 303.617 50.0585C300.868 51.7077 298.669 54.0097 297.02 56.9646C295.439 59.8508 294.649 63.1492 294.649 66.86C294.649 70.502 295.439 73.8005 297.02 76.7554C298.669 79.6415 300.868 81.9436 303.617 83.6615C306.434 85.3108 309.561 86.1354 312.997 86.1354ZM336.086 95.1031C334.574 95.1031 333.303 94.6221 332.272 93.66C331.31 92.6292 330.829 91.3579 330.829 89.8462V74.0754L332.788 63.1492L341.343 66.86V89.8462C341.343 91.3579 340.828 92.6292 339.797 93.66C338.835 94.6221 337.598 95.1031 336.086 95.1031ZM382.554 95.4123C377.194 95.4123 372.349 94.1754 368.02 91.7015C363.759 89.159 360.358 85.7231 357.815 81.3938C355.341 77.0646 354.104 72.1856 354.104 66.7569C354.104 61.3282 355.238 56.4836 357.506 52.2231C359.842 47.8938 363.003 44.4923 366.989 42.0185C370.975 39.4759 375.476 38.2046 380.492 38.2046C384.546 38.2046 388.292 39.0636 391.727 40.7815C395.163 42.4308 398.05 44.6985 400.386 47.5846V19.7538C400.386 18.1733 400.867 16.902 401.829 15.94C402.86 14.9779 404.131 14.4969 405.643 14.4969C407.223 14.4969 408.495 14.9779 409.457 15.94C410.419 16.902 410.9 18.1733 410.9 19.7538V66.7569C410.9 72.1856 409.629 77.0646 407.086 81.3938C404.612 85.7231 401.245 89.159 396.984 91.7015C392.724 94.1754 387.914 95.4123 382.554 95.4123ZM382.554 86.1354C386.058 86.1354 389.185 85.3108 391.934 83.6615C394.682 81.9436 396.847 79.6072 398.427 76.6523C400.008 73.6974 400.798 70.399 400.798 66.7569C400.798 63.0462 400.008 59.7477 398.427 56.8615C396.847 53.9754 394.682 51.7077 391.934 50.0585C389.185 48.3405 386.058 47.4815 382.554 47.4815C379.118 47.4815 375.991 48.3405 373.174 50.0585C370.425 51.7077 368.226 53.9754 366.577 56.8615C364.996 59.7477 364.206 63.0462 364.206 66.7569C364.206 70.399 364.996 73.6974 366.577 76.6523C368.226 79.6072 370.425 81.9436 373.174 83.6615C375.991 85.3108 379.118 86.1354 382.554 86.1354ZM455.957 95.4123C450.254 95.4123 445.169 94.2097 440.702 91.8046C436.304 89.3308 432.834 85.9636 430.291 81.7031C427.817 77.3738 426.58 72.4262 426.58 66.86C426.58 61.2251 427.749 56.2774 430.085 52.0169C432.49 47.6877 435.789 44.3205 439.98 41.9154C444.172 39.4415 448.982 38.2046 454.411 38.2046C459.771 38.2046 464.375 39.4072 468.223 41.8123C472.072 44.1487 474.992 47.4128 476.985 51.6046C479.047 55.7277 480.077 60.5036 480.077 65.9323C480.077 67.2379 479.631 68.3374 478.737 69.2308C477.844 70.0554 476.71 70.4677 475.336 70.4677H433.796V62.2215H475.027L470.8 65.1077C470.732 61.6718 470.044 58.6138 468.739 55.9338C467.433 53.1851 465.578 51.0205 463.173 49.44C460.768 47.8595 457.847 47.0692 454.411 47.0692C450.494 47.0692 447.127 47.9282 444.31 49.6461C441.561 51.3641 439.465 53.7349 438.022 56.7585C436.579 59.7133 435.857 63.0805 435.857 66.86C435.857 70.6395 436.716 74.0067 438.434 76.9615C440.152 79.9164 442.523 82.2528 445.547 83.9708C448.57 85.6887 452.04 86.5477 455.957 86.5477C458.088 86.5477 460.252 86.1697 462.451 85.4138C464.719 84.5892 466.54 83.6615 467.914 82.6308C468.945 81.8749 470.044 81.4969 471.213 81.4969C472.45 81.4282 473.515 81.7718 474.408 82.5277C475.576 83.5585 476.195 84.6923 476.263 85.9292C476.332 87.1662 475.782 88.2313 474.614 89.1246C472.278 90.98 469.357 92.4918 465.853 93.66C462.417 94.8282 459.118 95.4123 455.957 95.4123ZM510.543 94.8969C508.413 94.8969 506.763 93.7631 505.595 91.4954L483.743 45.42C483.193 44.2518 483.125 43.1179 483.537 42.0185C484.018 40.8503 484.911 39.9569 486.217 39.3385C487.385 38.72 488.553 38.6169 489.721 39.0292C490.958 39.4415 491.886 40.2318 492.505 41.4L512.914 85.4138H507.966L528.169 41.4C528.788 40.2318 529.715 39.4415 530.952 39.0292C532.258 38.6169 533.563 38.72 534.869 39.3385C536.106 39.8882 536.931 40.7472 537.343 41.9154C537.755 43.0836 537.687 44.2518 537.137 45.42L515.285 91.4954C514.254 93.7631 512.673 94.8969 510.543 94.8969Z"/>
</mask>
<path d="M33.1108 95.4123C28.0944 95.4123 23.5933 94.1754 19.6077 91.7015C15.6221 89.159 12.461 85.7574 10.1246 81.4969C7.85692 77.1677 6.72308 72.2887 6.72308 66.86C6.72308 61.4313 7.96 56.5523 10.4338 52.2231C12.9764 47.8938 16.3779 44.4923 20.6385 42.0185C24.9677 39.4759 29.8123 38.2046 35.1723 38.2046C40.5323 38.2046 45.3426 39.4759 49.6031 42.0185C53.8636 44.4923 57.2308 47.8938 59.7046 52.2231C62.2472 56.5523 63.5185 61.4313 63.5185 66.86H59.4985C59.4985 72.2887 58.3303 77.1677 55.9938 81.4969C53.7262 85.7574 50.5995 89.159 46.6138 91.7015C42.6282 94.1754 38.1272 95.4123 33.1108 95.4123ZM35.1723 86.1354C38.6769 86.1354 41.8036 85.3108 44.5523 83.6615C47.301 81.9436 49.4656 79.6415 51.0462 76.7554C52.6267 73.8005 53.4169 70.502 53.4169 66.86C53.4169 63.1492 52.6267 59.8508 51.0462 56.9646C49.4656 54.0097 47.301 51.7077 44.5523 50.0585C41.8036 48.3405 38.6769 47.4815 35.1723 47.4815C31.7364 47.4815 28.6097 48.3405 25.7923 50.0585C23.0436 51.7077 20.8446 54.0097 19.1954 56.9646C17.6149 59.8508 16.8246 63.1492 16.8246 66.86C16.8246 70.502 17.6149 73.8005 19.1954 76.7554C20.8446 79.6415 23.0436 81.9436 25.7923 83.6615C28.6097 85.3108 31.7364 86.1354 35.1723 86.1354ZM58.2615 95.1031C56.7497 95.1031 55.4785 94.6221 54.4477 93.66C53.4856 92.6292 53.0046 91.3579 53.0046 89.8462V74.0754L54.9631 63.1492L63.5185 66.86V89.8462C63.5185 91.3579 63.0031 92.6292 61.9723 93.66C61.0103 94.6221 59.7733 95.1031 58.2615 95.1031ZM95.1148 94.8969C92.9845 94.8969 91.3353 93.7631 90.1671 91.4954L68.3148 45.42C67.765 44.2518 67.6963 43.1179 68.1086 42.0185C68.5896 40.8503 69.483 39.9569 70.7886 39.3385C71.9568 38.72 73.125 38.6169 74.2932 39.0292C75.5301 39.4415 76.4578 40.2318 77.0763 41.4L97.4855 85.4138H92.5378L112.741 41.4C113.359 40.2318 114.287 39.4415 115.524 39.0292C116.83 38.6169 118.135 38.72 119.441 39.3385C120.678 39.8882 121.502 40.7472 121.915 41.9154C122.327 43.0836 122.258 44.2518 121.709 45.42L99.8563 91.4954C98.8255 93.7631 97.245 94.8969 95.1148 94.8969ZM138.804 95C137.292 95 136.021 94.519 134.99 93.5569C134.028 92.5262 133.547 91.2549 133.547 89.7431V43.8738C133.547 42.2933 134.028 41.022 134.99 40.06C136.021 39.0979 137.292 38.6169 138.804 38.6169C140.385 38.6169 141.656 39.0979 142.618 40.06C143.58 41.022 144.061 42.2933 144.061 43.8738V89.7431C144.061 91.2549 143.58 92.5262 142.618 93.5569C141.656 94.519 140.385 95 138.804 95ZM138.804 29.4431C136.949 29.4431 135.334 28.7903 133.959 27.4846C132.654 26.1103 132.001 24.4954 132.001 22.64C132.001 20.7846 132.654 19.2041 133.959 17.8985C135.334 16.5241 136.949 15.8369 138.804 15.8369C140.659 15.8369 142.24 16.5241 143.546 17.8985C144.92 19.2041 145.607 20.7846 145.607 22.64C145.607 24.4954 144.92 26.1103 143.546 27.4846C142.24 28.7903 140.659 29.4431 138.804 29.4431ZM211.242 95.1031C209.73 95.1031 208.459 94.6221 207.428 93.66C206.466 92.6292 205.985 91.3579 205.985 89.8462V64.4892C205.985 60.5723 205.264 57.3769 203.821 54.9031C202.378 52.4292 200.419 50.6082 197.945 49.44C195.54 48.2031 192.757 47.5846 189.596 47.5846C186.71 47.5846 184.099 48.1687 181.762 49.3369C179.426 50.5051 177.57 52.0856 176.196 54.0785C174.822 56.0026 174.135 58.2359 174.135 60.7785H167.641C167.641 56.4492 168.671 52.601 170.733 49.2338C172.863 45.7979 175.749 43.0836 179.391 41.0908C183.033 39.0979 187.122 38.1015 191.658 38.1015C196.399 38.1015 200.625 39.1323 204.336 41.1938C208.116 43.1867 211.07 46.1415 213.201 50.0585C215.4 53.9754 216.499 58.7856 216.499 64.4892V89.8462C216.499 91.3579 215.984 92.6292 214.953 93.66C213.991 94.6221 212.754 95.1031 211.242 95.1031ZM168.878 95.1031C167.366 95.1031 166.095 94.6221 165.064 93.66C164.102 92.6292 163.621 91.3579 163.621 89.8462V43.8738C163.621 42.2933 164.102 41.022 165.064 40.06C166.095 39.0979 167.366 38.6169 168.878 38.6169C170.458 38.6169 171.729 39.0979 172.691 40.06C173.653 41.022 174.135 42.2933 174.135 43.8738V89.8462C174.135 91.3579 173.653 92.6292 172.691 93.66C171.729 94.6221 170.458 95.1031 168.878 95.1031ZM243.984 119.738C243.296 119.738 242.472 119.532 241.51 119.12C238.486 117.746 237.662 115.581 239.036 112.626L270.474 41.6062C271.849 38.72 274.013 37.8954 276.968 39.1323C280.061 40.4379 280.92 42.6026 279.545 45.6261L248.004 116.543C247.179 118.673 245.839 119.738 243.984 119.738ZM256.147 92.7323C254.841 93.2821 253.604 93.3508 252.436 92.9385C251.336 92.4574 250.443 91.5641 249.756 90.2585L226.151 45.42C225.464 44.1144 225.361 42.8774 225.842 41.7092C226.392 40.4723 227.32 39.579 228.625 39.0292C229.931 38.4795 231.168 38.4451 232.336 38.9261C233.504 39.3385 234.397 40.1974 235.016 41.5031L257.59 86.3415C258.277 87.6472 258.517 88.9185 258.311 90.1554C258.174 91.3236 257.452 92.1826 256.147 92.7323ZM310.935 95.4123C305.919 95.4123 301.418 94.1754 297.432 91.7015C293.447 89.159 290.286 85.7574 287.949 81.4969C285.681 77.1677 284.548 72.2887 284.548 66.86C284.548 61.4313 285.785 56.5523 288.258 52.2231C290.801 47.8938 294.202 44.4923 298.463 42.0185C302.792 39.4759 307.637 38.2046 312.997 38.2046C318.357 38.2046 323.167 39.4759 327.428 42.0185C331.688 44.4923 335.055 47.8938 337.529 52.2231C340.072 56.5523 341.343 61.4313 341.343 66.86H337.323C337.323 72.2887 336.155 77.1677 333.818 81.4969C331.551 85.7574 328.424 89.159 324.438 91.7015C320.453 94.1754 315.952 95.4123 310.935 95.4123ZM312.997 86.1354C316.501 86.1354 319.628 85.3108 322.377 83.6615C325.126 81.9436 327.29 79.6415 328.871 76.7554C330.451 73.8005 331.241 70.502 331.241 66.86C331.241 63.1492 330.451 59.8508 328.871 56.9646C327.29 54.0097 325.126 51.7077 322.377 50.0585C319.628 48.3405 316.501 47.4815 312.997 47.4815C309.561 47.4815 306.434 48.3405 303.617 50.0585C300.868 51.7077 298.669 54.0097 297.02 56.9646C295.439 59.8508 294.649 63.1492 294.649 66.86C294.649 70.502 295.439 73.8005 297.02 76.7554C298.669 79.6415 300.868 81.9436 303.617 83.6615C306.434 85.3108 309.561 86.1354 312.997 86.1354ZM336.086 95.1031C334.574 95.1031 333.303 94.6221 332.272 93.66C331.31 92.6292 330.829 91.3579 330.829 89.8462V74.0754L332.788 63.1492L341.343 66.86V89.8462C341.343 91.3579 340.828 92.6292 339.797 93.66C338.835 94.6221 337.598 95.1031 336.086 95.1031ZM382.554 95.4123C377.194 95.4123 372.349 94.1754 368.02 91.7015C363.759 89.159 360.358 85.7231 357.815 81.3938C355.341 77.0646 354.104 72.1856 354.104 66.7569C354.104 61.3282 355.238 56.4836 357.506 52.2231C359.842 47.8938 363.003 44.4923 366.989 42.0185C370.975 39.4759 375.476 38.2046 380.492 38.2046C384.546 38.2046 388.292 39.0636 391.727 40.7815C395.163 42.4308 398.05 44.6985 400.386 47.5846V19.7538C400.386 18.1733 400.867 16.902 401.829 15.94C402.86 14.9779 404.131 14.4969 405.643 14.4969C407.223 14.4969 408.495 14.9779 409.457 15.94C410.419 16.902 410.9 18.1733 410.9 19.7538V66.7569C410.9 72.1856 409.629 77.0646 407.086 81.3938C404.612 85.7231 401.245 89.159 396.984 91.7015C392.724 94.1754 387.914 95.4123 382.554 95.4123ZM382.554 86.1354C386.058 86.1354 389.185 85.3108 391.934 83.6615C394.682 81.9436 396.847 79.6072 398.427 76.6523C400.008 73.6974 400.798 70.399 400.798 66.7569C400.798 63.0462 400.008 59.7477 398.427 56.8615C396.847 53.9754 394.682 51.7077 391.934 50.0585C389.185 48.3405 386.058 47.4815 382.554 47.4815C379.118 47.4815 375.991 48.3405 373.174 50.0585C370.425 51.7077 368.226 53.9754 366.577 56.8615C364.996 59.7477 364.206 63.0462 364.206 66.7569C364.206 70.399 364.996 73.6974 366.577 76.6523C368.226 79.6072 370.425 81.9436 373.174 83.6615C375.991 85.3108 379.118 86.1354 382.554 86.1354ZM455.957 95.4123C450.254 95.4123 445.169 94.2097 440.702 91.8046C436.304 89.3308 432.834 85.9636 430.291 81.7031C427.817 77.3738 426.58 72.4262 426.58 66.86C426.58 61.2251 427.749 56.2774 430.085 52.0169C432.49 47.6877 435.789 44.3205 439.98 41.9154C444.172 39.4415 448.982 38.2046 454.411 38.2046C459.771 38.2046 464.375 39.4072 468.223 41.8123C472.072 44.1487 474.992 47.4128 476.985 51.6046C479.047 55.7277 480.077 60.5036 480.077 65.9323C480.077 67.2379 479.631 68.3374 478.737 69.2308C477.844 70.0554 476.71 70.4677 475.336 70.4677H433.796V62.2215H475.027L470.8 65.1077C470.732 61.6718 470.044 58.6138 468.739 55.9338C467.433 53.1851 465.578 51.0205 463.173 49.44C460.768 47.8595 457.847 47.0692 454.411 47.0692C450.494 47.0692 447.127 47.9282 444.31 49.6461C441.561 51.3641 439.465 53.7349 438.022 56.7585C436.579 59.7133 435.857 63.0805 435.857 66.86C435.857 70.6395 436.716 74.0067 438.434 76.9615C440.152 79.9164 442.523 82.2528 445.547 83.9708C448.57 85.6887 452.04 86.5477 455.957 86.5477C458.088 86.5477 460.252 86.1697 462.451 85.4138C464.719 84.5892 466.54 83.6615 467.914 82.6308C468.945 81.8749 470.044 81.4969 471.213 81.4969C472.45 81.4282 473.515 81.7718 474.408 82.5277C475.576 83.5585 476.195 84.6923 476.263 85.9292C476.332 87.1662 475.782 88.2313 474.614 89.1246C472.278 90.98 469.357 92.4918 465.853 93.66C462.417 94.8282 459.118 95.4123 455.957 95.4123ZM510.543 94.8969C508.413 94.8969 506.763 93.7631 505.595 91.4954L483.743 45.42C483.193 44.2518 483.125 43.1179 483.537 42.0185C484.018 40.8503 484.911 39.9569 486.217 39.3385C487.385 38.72 488.553 38.6169 489.721 39.0292C490.958 39.4415 491.886 40.2318 492.505 41.4L512.914 85.4138H507.966L528.169 41.4C528.788 40.2318 529.715 39.4415 530.952 39.0292C532.258 38.6169 533.563 38.72 534.869 39.3385C536.106 39.8882 536.931 40.7472 537.343 41.9154C537.755 43.0836 537.687 44.2518 537.137 45.42L515.285 91.4954C514.254 93.7631 512.673 94.8969 510.543 94.8969Z" fill="#10284B"/>
<path d="M19.6077 91.7015L18.5321 93.3877L18.5425 93.3943L18.553 93.4008L19.6077 91.7015ZM10.1246 81.4969L8.35295 82.4249L8.36181 82.4418L8.37099 82.4586L10.1246 81.4969ZM10.4338 52.2231L8.70927 51.2102L8.70326 51.2205L8.69736 51.2308L10.4338 52.2231ZM20.6385 42.0185L21.6427 43.7481L21.6513 43.743L20.6385 42.0185ZM49.6031 42.0185L48.5782 43.7359L48.5884 43.742L48.5988 43.748L49.6031 42.0185ZM59.7046 52.2231L57.9681 53.2154L57.974 53.2257L57.98 53.2359L59.7046 52.2231ZM63.5185 66.86V68.86H65.5185V66.86H63.5185ZM59.4985 66.86V64.86H57.4985V66.86H59.4985ZM55.9938 81.4969L54.2338 80.547L54.2284 80.5572L55.9938 81.4969ZM46.6138 91.7015L47.6686 93.4008L47.6791 93.3943L47.6895 93.3877L46.6138 91.7015ZM44.5523 83.6615L45.5813 85.3765L45.5969 85.3672L45.6123 85.3575L44.5523 83.6615ZM51.0462 76.7554L52.8003 77.716L52.8051 77.7074L52.8097 77.6987L51.0462 76.7554ZM51.0462 56.9646L49.2826 57.9079L49.2872 57.9166L49.292 57.9252L51.0462 56.9646ZM44.5523 50.0585L43.4923 51.7545L43.5077 51.7641L43.5233 51.7734L44.5523 50.0585ZM25.7923 50.0585L26.8213 51.7734L26.8274 51.7698L26.8335 51.766L25.7923 50.0585ZM19.1954 56.9646L17.449 55.9899L17.4451 55.9969L17.4412 56.004L19.1954 56.9646ZM19.1954 76.7554L17.4318 77.6987L17.445 77.7234L17.4589 77.7477L19.1954 76.7554ZM25.7923 83.6615L24.7323 85.3575L24.7569 85.3729L24.7819 85.3876L25.7923 83.6615ZM54.4477 93.66L52.9856 95.0246L53.0326 95.0751L53.0831 95.1221L54.4477 93.66ZM53.0046 74.0754L51.036 73.7225L51.0046 73.8976V74.0754H53.0046ZM54.9631 63.1492L55.7589 61.3144L53.4403 60.3087L52.9945 62.7964L54.9631 63.1492ZM63.5185 66.86H65.5185V65.5474L64.3143 65.0252L63.5185 66.86ZM61.9723 93.66L63.3865 95.0742L61.9723 93.66ZM33.1108 93.4123C28.4401 93.4123 24.3092 92.2658 20.6624 90.0023L18.553 93.4008C22.8774 96.085 27.7486 97.4123 33.1108 97.4123V93.4123ZM20.6833 90.0154C16.989 87.6587 14.0578 84.5097 11.8782 80.5353L8.37099 82.4586C10.8643 87.0052 14.2551 90.6592 18.5321 93.3877L20.6833 90.0154ZM11.8963 80.5689C9.7946 76.5566 8.72308 72.0019 8.72308 66.86H4.72308C4.72308 72.5756 5.91925 77.7788 8.35295 82.4249L11.8963 80.5689ZM8.72308 66.86C8.72308 61.7475 9.88428 57.2159 12.1703 53.2154L8.69736 51.2308C6.03571 55.8887 4.72308 61.115 4.72308 66.86H8.72308ZM12.1584 53.2359C14.5301 49.1977 17.6859 46.0455 21.6427 43.748L19.6342 40.2889C15.07 42.9391 11.4227 46.59 8.70927 51.2102L12.1584 53.2359ZM21.6513 43.743C25.6526 41.393 30.1435 40.2046 35.1723 40.2046V36.2046C29.4812 36.2046 24.2828 37.5587 19.6256 40.2939L21.6513 43.743ZM35.1723 40.2046C40.2014 40.2046 44.6523 41.3931 48.5782 43.7359L50.628 40.301C46.0328 37.5587 40.8632 36.2046 35.1723 36.2046V40.2046ZM48.5988 43.748C52.5507 46.0427 55.6669 49.1882 57.9681 53.2154L61.4411 51.2308C58.7946 46.5995 55.1765 42.9419 50.6073 40.2889L48.5988 43.748ZM57.98 53.2359C60.3277 57.2333 61.5185 61.7575 61.5185 66.86H65.5185C65.5185 61.1051 64.1667 55.8713 61.4292 51.2102L57.98 53.2359ZM63.5185 64.86H59.4985V68.86H63.5185V64.86ZM57.4985 66.86C57.4985 71.9921 56.3969 76.539 54.2338 80.5471L57.7539 82.4468C60.2636 77.7964 61.4985 72.5853 61.4985 66.86H57.4985ZM54.2284 80.5572C52.119 84.5203 49.2272 87.6621 45.5382 90.0154L47.6895 93.3877C51.9718 90.6558 55.3334 86.9945 57.7593 82.4366L54.2284 80.5572ZM45.5591 90.0023C41.9123 92.2658 37.7814 93.4123 33.1108 93.4123V97.4123C38.473 97.4123 43.3441 96.085 47.6686 93.4008L45.5591 90.0023ZM35.1723 88.1354C39.0045 88.1354 42.4931 87.2294 45.5813 85.3765L43.5233 81.9465C41.1141 83.3921 38.3494 84.1354 35.1723 84.1354V88.1354ZM45.6123 85.3575C48.6562 83.4551 51.0579 80.8979 52.8003 77.716L49.292 75.7948C47.8734 78.3851 45.9459 80.4321 43.4923 81.9655L45.6123 85.3575ZM52.8097 77.6987C54.5587 74.4289 55.4169 70.8019 55.4169 66.86H51.4169C51.4169 70.2022 50.6946 73.1722 49.2826 75.8121L52.8097 77.6987ZM55.4169 66.86C55.4169 62.857 54.5618 59.2206 52.8003 56.004L49.292 57.9252C50.6915 60.4809 51.4169 63.4415 51.4169 66.86H55.4169ZM52.8097 56.0213C51.0667 52.7626 48.6545 50.1874 45.5813 48.3435L43.5233 51.7734C45.9475 53.228 47.8646 55.2568 49.2826 57.9079L52.8097 56.0213ZM45.6123 48.3625C42.5199 46.4297 39.0201 45.4815 35.1723 45.4815V49.4815C38.3337 49.4815 41.0873 50.2513 43.4923 51.7545L45.6123 48.3625ZM35.1723 45.4815C31.3849 45.4815 27.8954 46.4336 24.7511 48.3509L26.8335 51.766C29.3241 50.2474 32.0879 49.4815 35.1723 49.4815V45.4815ZM24.7633 48.3435C21.698 50.1826 19.2587 52.7474 17.449 55.9899L20.9418 57.9393C22.4305 55.272 24.3892 53.2327 26.8213 51.7734L24.7633 48.3435ZM17.4412 56.004C15.6797 59.2206 14.8246 62.857 14.8246 66.86H18.8246C18.8246 63.4415 19.55 60.4809 20.9496 57.9252L17.4412 56.004ZM14.8246 66.86C14.8246 70.8019 15.6828 74.4289 17.4318 77.6987L20.959 75.8121C19.5469 73.1722 18.8246 70.2022 18.8246 66.86H14.8246ZM17.4589 77.7477C19.2677 80.913 21.6961 83.4599 24.7323 85.3575L26.8523 81.9655C24.3911 80.4273 22.4215 78.37 20.9319 75.7631L17.4589 77.7477ZM24.7819 85.3876C27.9222 87.2258 31.4007 88.1354 35.1723 88.1354V84.1354C32.0722 84.1354 29.2973 83.3958 26.8027 81.9355L24.7819 85.3876ZM58.2615 93.1031C57.2163 93.1031 56.4445 92.7879 55.8123 92.1979L53.0831 95.1221C54.5124 96.4562 56.2832 97.1031 58.2615 97.1031V93.1031ZM55.9098 92.2954C55.3198 91.6632 55.0046 90.8914 55.0046 89.8462H51.0046C51.0046 91.8245 51.6515 93.5952 52.9856 95.0246L55.9098 92.2954ZM55.0046 89.8462V74.0754H51.0046V89.8462H55.0046ZM54.9732 74.4283L56.9317 63.5021L52.9945 62.7964L51.036 73.7225L54.9732 74.4283ZM54.1672 64.9841L62.7226 68.6948L64.3143 65.0252L55.7589 61.3144L54.1672 64.9841ZM61.5185 66.86V89.8462H65.5185V66.86H61.5185ZM61.5185 89.8462C61.5185 90.8495 61.1985 91.6053 60.5581 92.2458L63.3865 95.0742C64.8076 93.6531 65.5185 91.8664 65.5185 89.8462H61.5185ZM60.5581 92.2458C60.0145 92.7894 59.3075 93.1031 58.2615 93.1031V97.1031C60.2392 97.1031 62.0061 96.4547 63.3865 95.0742L60.5581 92.2458ZM90.1671 91.4954L88.36 92.3524L88.3741 92.3821L88.3891 92.4113L90.1671 91.4954ZM68.3148 45.42L66.5051 46.2716L66.5077 46.277L68.3148 45.42ZM68.1086 42.0185L66.2593 41.257L66.2471 41.2864L66.2359 41.3162L68.1086 42.0185ZM70.7886 39.3385L71.6448 41.1459L71.685 41.1269L71.7244 41.106L70.7886 39.3385ZM74.2932 39.0292L73.6276 40.9152L73.6441 40.921L73.6608 40.9266L74.2932 39.0292ZM77.0763 41.4L78.8907 40.5586L78.8685 40.5108L78.8439 40.4642L77.0763 41.4ZM97.4855 85.4138V87.4138H100.617L99.3 84.5725L97.4855 85.4138ZM92.5378 85.4138L90.7202 84.5795L89.4192 87.4138H92.5378V85.4138ZM112.741 41.4L110.973 40.4642L110.947 40.5142L110.923 40.5657L112.741 41.4ZM115.524 39.0292L114.922 37.1221L114.907 37.1268L114.892 37.1319L115.524 39.0292ZM119.441 39.3385L118.585 41.1459L118.607 41.1563L118.629 41.1661L119.441 39.3385ZM121.915 41.9154L123.801 41.2497V41.2497L121.915 41.9154ZM121.709 45.42L123.516 46.277L123.518 46.2716L121.709 45.42ZM99.8563 91.4954L98.0492 90.6383L98.0423 90.653L98.0356 90.6678L99.8563 91.4954ZM95.1148 92.8969C93.8966 92.8969 92.852 92.3402 91.945 90.5795L88.3891 92.4113C89.8185 95.186 92.0724 96.8969 95.1148 96.8969V92.8969ZM91.9741 90.6383L70.1218 44.563L66.5077 46.277L88.36 92.3524L91.9741 90.6383ZM70.1244 44.5684C69.7792 43.8348 69.7783 43.262 69.9813 42.7207L66.2359 41.3162C65.6143 42.9738 65.7508 44.6688 66.5051 46.2716L70.1244 44.5684ZM69.958 42.78C70.2223 42.1379 70.7197 41.5841 71.6448 41.1459L69.9324 37.531C68.2463 38.3297 66.9569 39.5626 66.2593 41.257L69.958 42.78ZM71.7244 41.106C72.4359 40.7293 73.0247 40.7024 73.6276 40.9152L74.9589 37.1432C73.2254 36.5314 71.4777 36.7106 69.8528 37.5709L71.7244 41.106ZM73.6608 40.9266C74.4023 41.1738 74.9272 41.6151 75.3087 42.3358L78.8439 40.4642C77.9885 38.8484 76.658 37.7093 74.9257 37.1319L73.6608 40.9266ZM75.2619 42.2413L95.6711 86.2552L99.3 84.5725L78.8907 40.5586L75.2619 42.2413ZM97.4855 83.4138H92.5378V87.4138H97.4855V83.4138ZM94.3555 86.2482L114.559 42.2343L110.923 40.5657L90.7202 84.5795L94.3555 86.2482ZM114.508 42.3358C114.89 41.6151 115.415 41.1738 116.156 40.9266L114.892 37.1319C113.159 37.7093 111.829 38.8484 110.973 40.4642L114.508 42.3358ZM116.126 40.9364C116.922 40.685 117.708 40.7304 118.585 41.1459L120.297 37.531C118.563 36.7095 116.737 36.5488 114.922 37.1221L116.126 40.9364ZM118.629 41.1661C119.415 41.5155 119.817 41.9823 120.029 42.581L123.801 41.2497C123.187 39.5121 121.941 38.2609 120.253 37.5108L118.629 41.1661ZM120.029 42.581C120.258 43.2303 120.235 43.8539 119.899 44.5684L123.518 46.2716C124.281 44.6497 124.396 42.9369 123.801 41.2497L120.029 42.581ZM119.902 44.563L98.0492 90.6383L101.663 92.3524L123.516 46.277L119.902 44.563ZM98.0356 90.6678C97.6252 91.5707 97.1689 92.1081 96.732 92.4215C96.3141 92.7213 95.8035 92.8969 95.1148 92.8969V96.8969C96.5563 96.8969 97.9011 96.5056 99.0637 95.6716C100.207 94.8512 101.057 93.6878 101.677 92.323L98.0356 90.6678ZM134.99 93.5569L133.528 94.9216L133.575 94.972L133.626 95.019L134.99 93.5569ZM134.99 40.06L133.626 38.5979L133.6 38.6214L133.576 38.6458L134.99 40.06ZM142.618 93.5569L144.032 94.9711L144.057 94.9468L144.08 94.9216L142.618 93.5569ZM133.959 27.4846L132.509 28.8621L132.545 28.8993L132.582 28.9346L133.959 27.4846ZM133.959 17.8985L132.545 16.4842L133.959 17.8985ZM143.546 17.8985L142.096 19.276L142.131 19.3131L142.168 19.3485L143.546 17.8985ZM143.546 27.4846L144.96 28.8988L143.546 27.4846ZM138.804 93C137.759 93 136.987 92.6848 136.355 92.0948L133.626 95.019C135.055 96.3531 136.826 97 138.804 97V93ZM136.452 92.1923C135.862 91.5601 135.547 90.7883 135.547 89.7431H131.547C131.547 91.7214 132.194 93.4922 133.528 94.9216L136.452 92.1923ZM135.547 89.7431V43.8738H131.547V89.7431H135.547ZM135.547 43.8738C135.547 42.731 135.878 42.0003 136.404 41.4742L133.576 38.6458C132.178 40.0437 131.547 41.8556 131.547 43.8738H135.547ZM136.355 41.5221C136.987 40.9321 137.759 40.6169 138.804 40.6169V36.6169C136.826 36.6169 135.055 37.2638 133.626 38.5979L136.355 41.5221ZM138.804 40.6169C139.947 40.6169 140.678 40.9481 141.204 41.4742L144.032 38.6458C142.634 37.2478 140.822 36.6169 138.804 36.6169V40.6169ZM141.204 41.4742C141.73 42.0003 142.061 42.731 142.061 43.8738H146.061C146.061 41.8556 145.43 40.0437 144.032 38.6458L141.204 41.4742ZM142.061 43.8738V89.7431H146.061V43.8738H142.061ZM142.061 89.7431C142.061 90.7883 141.746 91.5601 141.156 92.1923L144.08 94.9216C145.414 93.4922 146.061 91.7214 146.061 89.7431H142.061ZM141.204 92.1427C140.678 92.6689 139.947 93 138.804 93V97C140.822 97 142.634 96.3691 144.032 94.9711L141.204 92.1427ZM138.804 27.4431C137.474 27.4431 136.349 26.9957 135.337 26.0346L132.582 28.9346C134.319 30.5848 136.424 31.4431 138.804 31.4431V27.4431ZM135.409 26.1071C134.448 25.0955 134.001 23.9704 134.001 22.64H130.001C130.001 25.0203 130.859 27.125 132.509 28.8621L135.409 26.1071ZM134.001 22.64C134.001 21.3122 134.445 20.2412 135.374 19.3127L132.545 16.4842C130.863 18.167 130.001 20.2571 130.001 22.64H134.001ZM135.374 19.3127C136.393 18.2935 137.507 17.8369 138.804 17.8369V13.8369C136.391 13.8369 134.275 14.7547 132.545 16.4842L135.374 19.3127ZM138.804 17.8369C140.098 17.8369 141.158 18.2893 142.096 19.276L144.996 16.521C143.322 14.7589 141.221 13.8369 138.804 13.8369V17.8369ZM142.168 19.3485C143.155 20.2858 143.607 21.3461 143.607 22.64H147.607C147.607 20.2231 146.685 18.1224 144.923 16.4485L142.168 19.3485ZM143.607 22.64C143.607 23.9375 143.151 25.0512 142.131 26.0704L144.96 28.8988C146.689 27.1693 147.607 25.0533 147.607 22.64H143.607ZM142.131 26.0704C141.203 26.9989 140.132 27.4431 138.804 27.4431V31.4431C141.187 31.4431 143.277 30.5816 144.96 28.8988L142.131 26.0704ZM207.428 93.66L205.966 95.0246L206.013 95.0751L206.064 95.1221L207.428 93.66ZM203.821 54.9031L202.093 55.9108L203.821 54.9031ZM197.945 49.44L197.031 51.2186L197.061 51.234L197.091 51.2485L197.945 49.44ZM181.762 49.3369L180.868 47.5481L181.762 49.3369ZM176.196 54.0785L177.824 55.2409L177.833 55.2275L177.842 55.2139L176.196 54.0785ZM174.135 60.7785V62.7785H176.135V60.7785H174.135ZM167.641 60.7785H165.641V62.7785H167.641V60.7785ZM170.733 49.2338L169.033 48.1799L169.027 48.1895L170.733 49.2338ZM179.391 41.0908L180.351 42.8453L179.391 41.0908ZM204.336 41.1938L203.365 42.9422L203.384 42.9528L203.403 42.963L204.336 41.1938ZM213.201 50.0585L211.444 51.014L211.45 51.0258L211.457 51.0375L213.201 50.0585ZM214.953 93.66L213.539 92.2458V92.2458L214.953 93.66ZM165.064 93.66L163.602 95.0246L163.649 95.0751L163.699 95.1221L165.064 93.66ZM165.064 40.06L163.699 38.5979L163.674 38.6214L163.65 38.6458L165.064 40.06ZM172.691 93.66L174.106 95.0742L174.13 95.0498L174.154 95.0246L172.691 93.66ZM211.242 93.1031C210.197 93.1031 209.425 92.7879 208.793 92.1979L206.064 95.1221C207.493 96.4562 209.264 97.1031 211.242 97.1031V93.1031ZM208.89 92.2954C208.3 91.6632 207.985 90.8914 207.985 89.8462H203.985C203.985 91.8245 204.632 93.5952 205.966 95.0246L208.89 92.2954ZM207.985 89.8462V64.4892H203.985V89.8462H207.985ZM207.985 64.4892C207.985 60.3431 207.224 56.7674 205.548 53.8953L202.093 55.9108C203.304 57.9865 203.985 60.8016 203.985 64.4892H207.985ZM205.548 53.8953C203.912 51.0898 201.656 48.9806 198.799 47.6315L197.091 51.2485C199.182 52.2358 200.844 53.7687 202.093 55.9108L205.548 53.8953ZM198.86 47.6614C196.128 46.2563 193.022 45.5846 189.596 45.5846V49.5846C192.493 49.5846 194.953 50.1499 197.031 51.2186L198.86 47.6614ZM189.596 45.5846C186.432 45.5846 183.51 46.227 180.868 47.5481L182.657 51.1258C184.687 50.1105 186.987 49.5846 189.596 49.5846V45.5846ZM180.868 47.5481C178.254 48.8549 176.131 50.6507 174.55 52.943L177.842 55.2139C179.01 53.5206 180.597 52.1554 182.657 51.1258L180.868 47.5481ZM174.569 52.916C172.933 55.2053 172.135 57.8522 172.135 60.7785H176.135C176.135 58.6196 176.71 56.7998 177.824 55.2409L174.569 52.916ZM174.135 58.7785H167.641V62.7785H174.135V58.7785ZM169.641 60.7785C169.641 56.781 170.588 53.301 172.439 50.2781L169.027 48.1895C166.755 51.901 165.641 56.1174 165.641 60.7785H169.641ZM172.433 50.2877C174.376 47.1535 177.004 44.677 180.351 42.8453L178.431 39.3362C174.495 41.4902 171.35 44.4424 169.033 48.18L172.433 50.2877ZM180.351 42.8453C183.672 41.0281 187.426 40.1015 191.658 40.1015V36.1015C186.818 36.1015 182.394 37.1678 178.431 39.3362L180.351 42.8453ZM191.658 40.1015C196.1 40.1015 199.985 41.0643 203.365 42.9422L205.307 39.4455C201.266 37.2003 196.698 36.1015 191.658 36.1015V40.1015ZM203.403 42.963C206.818 44.7635 209.493 47.4277 211.444 51.014L214.958 49.1029C212.648 44.8554 209.413 41.6098 205.269 39.4247L203.403 42.963ZM211.457 51.0375C213.448 54.5852 214.499 59.0378 214.499 64.4892H218.499C218.499 58.5334 217.351 53.3655 214.945 49.0794L211.457 51.0375ZM214.499 64.4892V89.8462H218.499V64.4892H214.499ZM214.499 89.8462C214.499 90.8495 214.179 91.6053 213.539 92.2458L216.367 95.0742C217.788 93.6531 218.499 91.8664 218.499 89.8462H214.499ZM213.539 92.2458C212.995 92.7894 212.288 93.1031 211.242 93.1031V97.1031C213.22 97.1031 214.987 96.4547 216.367 95.0742L213.539 92.2458ZM168.878 93.1031C167.832 93.1031 167.061 92.7879 166.428 92.1979L163.699 95.1221C165.128 96.4562 166.899 97.1031 168.878 97.1031V93.1031ZM166.526 92.2954C165.936 91.6632 165.621 90.8914 165.621 89.8462H161.621C161.621 91.8245 162.268 93.5952 163.602 95.0246L166.526 92.2954ZM165.621 89.8462V43.8738H161.621V89.8462H165.621ZM165.621 43.8738C165.621 42.731 165.952 42.0003 166.478 41.4742L163.65 38.6458C162.252 40.0437 161.621 41.8556 161.621 43.8738H165.621ZM166.428 41.5221C167.061 40.9321 167.832 40.6169 168.878 40.6169V36.6169C166.899 36.6169 165.128 37.2638 163.699 38.5979L166.428 41.5221ZM168.878 40.6169C170.02 40.6169 170.751 40.9481 171.277 41.4742L174.106 38.6458C172.708 37.2478 170.896 36.6169 168.878 36.6169V40.6169ZM171.277 41.4742C171.803 42.0003 172.135 42.731 172.135 43.8738H176.135C176.135 41.8556 175.504 40.0437 174.106 38.6458L171.277 41.4742ZM172.135 43.8738V89.8462H176.135V43.8738H172.135ZM172.135 89.8462C172.135 90.8914 171.819 91.6632 171.229 92.2954L174.154 95.0246C175.488 93.5952 176.135 91.8245 176.135 89.8462H172.135ZM171.277 92.2458C170.751 92.7719 170.02 93.1031 168.878 93.1031V97.1031C170.896 97.1031 172.708 96.4722 174.106 95.0742L171.277 92.2458ZM241.51 119.12L240.682 120.941L240.702 120.95L240.722 120.958L241.51 119.12ZM239.036 112.626L240.849 113.47L240.857 113.453L240.865 113.436L239.036 112.626ZM270.474 41.6062L268.669 40.7463L268.657 40.7713L268.646 40.7966L270.474 41.6062ZM276.968 39.1323L277.746 37.2898L277.741 37.2874L276.968 39.1323ZM279.545 45.6261L277.724 44.7985L277.721 44.8059L277.718 44.8134L279.545 45.6261ZM248.004 116.543L246.176 115.73L246.156 115.775L246.138 115.821L248.004 116.543ZM256.147 92.7323L256.923 94.5756L256.147 92.7323ZM252.436 92.9385L251.634 94.7708L251.701 94.8001L251.77 94.8244L252.436 92.9385ZM249.756 90.2585L251.526 89.327L251.526 89.3268L249.756 90.2585ZM226.151 45.42L224.381 46.3515L224.382 46.3517L226.151 45.42ZM225.842 41.7092L224.014 40.8969L224.003 40.9222L223.993 40.9477L225.842 41.7092ZM228.625 39.0292L227.849 37.186L227.849 37.186L228.625 39.0292ZM232.336 38.9261L231.574 40.7755L231.622 40.795L231.67 40.8121L232.336 38.9261ZM235.016 41.5031L233.208 42.3592L233.219 42.381L233.23 42.4024L235.016 41.5031ZM257.59 86.3415L255.803 87.2409L255.812 87.257L255.82 87.273L257.59 86.3415ZM258.311 90.1554L256.339 89.8266L256.331 89.874L256.325 89.9217L258.311 90.1554ZM243.984 117.738C243.671 117.738 243.128 117.638 242.298 117.282L240.722 120.958C241.816 121.427 242.922 121.738 243.984 121.738V117.738ZM242.337 117.299C241.096 116.735 240.649 116.164 240.493 115.754C240.34 115.353 240.296 114.66 240.849 113.47L237.222 111.783C236.402 113.547 236.083 115.414 236.755 117.178C237.423 118.932 238.9 120.131 240.682 120.941L242.337 117.299ZM240.865 113.436L272.303 42.4157L268.646 40.7966L237.207 111.817L240.865 113.436ZM272.28 42.466C272.831 41.3086 273.397 40.8611 273.841 40.692C274.285 40.5227 275.008 40.4801 276.196 40.9772L277.741 37.2874C275.973 36.5476 274.137 36.2989 272.417 36.9541C270.696 37.6097 269.492 39.0176 268.669 40.7463L272.28 42.466ZM276.19 40.9748C277.462 41.5117 277.914 42.0733 278.073 42.4727C278.229 42.8666 278.284 43.5678 277.724 44.7985L281.366 46.4538C282.181 44.6609 282.493 42.768 281.791 40.9973C281.09 39.2321 279.567 38.0585 277.746 37.2898L276.19 40.9748ZM277.718 44.8134L246.176 115.73L249.831 117.356L281.373 46.4389L277.718 44.8134ZM246.138 115.821C245.813 116.662 245.45 117.125 245.136 117.374C244.85 117.601 244.5 117.738 243.984 117.738V121.738C245.323 121.738 246.57 121.343 247.625 120.505C248.651 119.69 249.37 118.554 249.869 117.265L246.138 115.821ZM255.371 90.889C254.453 91.2754 253.733 91.2754 253.102 91.0525L251.77 94.8244C253.475 95.4261 255.229 95.2887 256.923 94.5756L255.371 90.889ZM253.238 91.1061C252.642 90.8456 252.052 90.326 251.526 89.327L247.986 91.19C248.835 92.8023 250.031 94.0693 251.634 94.7708L253.238 91.1061ZM251.526 89.3268L227.921 44.4883L224.382 46.3517L247.986 91.1901L251.526 89.3268ZM227.921 44.4885C227.459 43.6096 227.475 42.996 227.691 42.4707L223.993 40.9477C223.247 42.7589 223.47 44.6192 224.381 46.3515L227.921 44.4885ZM227.67 42.5215C228.002 41.7728 228.54 41.235 229.401 40.8725L227.849 37.186C226.099 37.923 224.781 39.1718 224.014 40.8969L227.67 42.5215ZM229.401 40.8725C230.281 40.5021 230.961 40.5229 231.574 40.7755L233.097 37.0768C231.375 36.3674 229.581 36.4568 227.849 37.186L229.401 40.8725ZM231.67 40.8121C232.252 41.0175 232.777 41.4488 233.208 42.3592L236.823 40.6469C236.018 38.9461 234.756 37.6594 233.002 37.0402L231.67 40.8121ZM233.23 42.4024L255.803 87.2409L259.376 85.4422L236.802 40.6037L233.23 42.4024ZM255.82 87.273C256.341 88.2628 256.461 89.0934 256.339 89.8266L260.284 90.4842C260.574 88.7435 260.213 87.0316 259.36 85.41L255.82 87.273ZM256.325 89.9217C256.29 90.2169 256.173 90.5512 255.371 90.889L256.923 94.5756C258.732 93.8139 260.057 92.4303 260.298 90.3891L256.325 89.9217ZM297.432 91.7015L296.357 93.3877L296.367 93.3943L296.378 93.4008L297.432 91.7015ZM287.949 81.4969L286.177 82.4249L286.186 82.4418L286.196 82.4586L287.949 81.4969ZM288.258 52.2231L286.534 51.2102L286.528 51.2205L286.522 51.2308L288.258 52.2231ZM298.463 42.0185L299.467 43.7481L299.476 43.743L298.463 42.0185ZM327.428 42.0185L326.403 43.7359L326.413 43.742L326.423 43.748L327.428 42.0185ZM337.529 52.2231L335.793 53.2154L335.799 53.2257L335.805 53.2359L337.529 52.2231ZM341.343 66.86V68.86H343.343V66.86H341.343ZM337.323 66.86V64.86H335.323V66.86H337.323ZM333.818 81.4969L332.058 80.547L332.053 80.5572L333.818 81.4969ZM324.438 91.7015L325.493 93.4008L325.504 93.3943L325.514 93.3877L324.438 91.7015ZM322.377 83.6615L323.406 85.3765L323.421 85.3672L323.437 85.3575L322.377 83.6615ZM328.871 76.7554L330.625 77.716L330.63 77.7074L330.634 77.6987L328.871 76.7554ZM328.871 56.9646L327.107 57.9079L327.112 57.9166L327.116 57.9252L328.871 56.9646ZM322.377 50.0585L321.317 51.7545L321.332 51.7641L321.348 51.7734L322.377 50.0585ZM303.617 50.0585L304.646 51.7734L304.652 51.7698L304.658 51.766L303.617 50.0585ZM297.02 56.9646L295.273 55.9899L295.27 55.9969L295.266 56.004L297.02 56.9646ZM297.02 76.7554L295.256 77.6987L295.27 77.7234L295.283 77.7477L297.02 76.7554ZM303.617 83.6615L302.557 85.3575L302.581 85.3729L302.606 85.3876L303.617 83.6615ZM332.272 93.66L330.81 95.0246L330.857 95.0751L330.908 95.1221L332.272 93.66ZM330.829 74.0754L328.861 73.7225L328.829 73.8976V74.0754H330.829ZM332.788 63.1492L333.583 61.3144L331.265 60.3087L330.819 62.7964L332.788 63.1492ZM341.343 66.86H343.343V65.5474L342.139 65.0252L341.343 66.86ZM339.797 93.66L341.211 95.0742L339.797 93.66ZM310.935 93.4123C306.265 93.4123 302.134 92.2658 298.487 90.0023L296.378 93.4008C300.702 96.085 305.573 97.4123 310.935 97.4123V93.4123ZM298.508 90.0154C294.814 87.6587 291.882 84.5097 289.703 80.5353L286.196 82.4586C288.689 87.0052 292.08 90.6592 296.357 93.3877L298.508 90.0154ZM289.721 80.5689C287.619 76.5566 286.548 72.0019 286.548 66.86H282.548C282.548 72.5756 283.744 77.7788 286.177 82.4249L289.721 80.5689ZM286.548 66.86C286.548 61.7475 287.709 57.2159 289.995 53.2154L286.522 51.2308C283.86 55.8887 282.548 61.115 282.548 66.86H286.548ZM289.983 53.2359C292.355 49.1977 295.51 46.0455 299.467 43.748L297.459 40.2889C292.895 42.9391 289.247 46.59 286.534 51.2102L289.983 53.2359ZM299.476 43.743C303.477 41.393 307.968 40.2046 312.997 40.2046V36.2046C307.306 36.2046 302.107 37.5587 297.45 40.2939L299.476 43.743ZM312.997 40.2046C318.026 40.2046 322.477 41.3931 326.403 43.7359L328.453 40.301C323.857 37.5587 318.688 36.2046 312.997 36.2046V40.2046ZM326.423 43.748C330.375 46.0427 333.491 49.1882 335.793 53.2154L339.266 51.2308C336.619 46.5995 333.001 42.9419 328.432 40.2889L326.423 43.748ZM335.805 53.2359C338.152 57.2333 339.343 61.7575 339.343 66.86H343.343C343.343 61.1051 341.991 55.8713 339.254 51.2102L335.805 53.2359ZM341.343 64.86H337.323V68.86H341.343V64.86ZM335.323 66.86C335.323 71.9921 334.221 76.539 332.058 80.5471L335.578 82.4468C338.088 77.7964 339.323 72.5853 339.323 66.86H335.323ZM332.053 80.5572C329.943 84.5203 327.052 87.6621 323.363 90.0154L325.514 93.3877C329.796 90.6558 333.158 86.9945 335.584 82.4366L332.053 80.5572ZM323.384 90.0023C319.737 92.2658 315.606 93.4123 310.935 93.4123V97.4123C316.297 97.4123 321.169 96.085 325.493 93.4008L323.384 90.0023ZM312.997 88.1354C316.829 88.1354 320.318 87.2294 323.406 85.3765L321.348 81.9465C318.939 83.3921 316.174 84.1354 312.997 84.1354V88.1354ZM323.437 85.3575C326.481 83.4551 328.882 80.8979 330.625 77.716L327.116 75.7948C325.698 78.3851 323.77 80.4321 321.317 81.9655L323.437 85.3575ZM330.634 77.6987C332.383 74.4289 333.241 70.8019 333.241 66.86H329.241C329.241 70.2022 328.519 73.1722 327.107 75.8121L330.634 77.6987ZM333.241 66.86C333.241 62.857 332.386 59.2206 330.625 56.004L327.116 57.9252C328.516 60.4809 329.241 63.4415 329.241 66.86H333.241ZM330.634 56.0213C328.891 52.7626 326.479 50.1874 323.406 48.3435L321.348 51.7734C323.772 53.228 325.689 55.2568 327.107 57.9079L330.634 56.0213ZM323.437 48.3625C320.344 46.4297 316.845 45.4815 312.997 45.4815V49.4815C316.158 49.4815 318.912 50.2513 321.317 51.7545L323.437 48.3625ZM312.997 45.4815C309.209 45.4815 305.72 46.4336 302.576 48.3509L304.658 51.766C307.149 50.2474 309.912 49.4815 312.997 49.4815V45.4815ZM302.588 48.3435C299.523 50.1826 297.083 52.7474 295.273 55.9899L298.766 57.9393C300.255 55.272 302.214 53.2327 304.646 51.7734L302.588 48.3435ZM295.266 56.004C293.504 59.2206 292.649 62.857 292.649 66.86H296.649C296.649 63.4415 297.375 60.4809 298.774 57.9252L295.266 56.004ZM292.649 66.86C292.649 70.8019 293.507 74.4289 295.256 77.6987L298.783 75.8121C297.371 73.1722 296.649 70.2022 296.649 66.86H292.649ZM295.283 77.7477C297.092 80.913 299.521 83.4599 302.557 85.3575L304.677 81.9655C302.216 80.4273 300.246 78.37 298.756 75.7631L295.283 77.7477ZM302.606 85.3876C305.747 87.2258 309.225 88.1354 312.997 88.1354V84.1354C309.897 84.1354 307.122 83.3958 304.627 81.9355L302.606 85.3876ZM336.086 93.1031C335.041 93.1031 334.269 92.7879 333.637 92.1979L330.908 95.1221C332.337 96.4562 334.108 97.1031 336.086 97.1031V93.1031ZM333.734 92.2954C333.144 91.6632 332.829 90.8914 332.829 89.8462H328.829C328.829 91.8245 329.476 93.5952 330.81 95.0246L333.734 92.2954ZM332.829 89.8462V74.0754H328.829V89.8462H332.829ZM332.798 74.4283L334.756 63.5021L330.819 62.7964L328.861 73.7225L332.798 74.4283ZM331.992 64.9841L340.547 68.6948L342.139 65.0252L333.583 61.3144L331.992 64.9841ZM339.343 66.86V89.8462H343.343V66.86H339.343ZM339.343 89.8462C339.343 90.8495 339.023 91.6053 338.383 92.2458L341.211 95.0742C342.632 93.6531 343.343 91.8664 343.343 89.8462H339.343ZM338.383 92.2458C337.839 92.7894 337.132 93.1031 336.086 93.1031V97.1031C338.064 97.1031 339.831 96.4547 341.211 95.0742L338.383 92.2458ZM368.02 91.7015L366.995 93.419L367.011 93.4286L367.027 93.438L368.02 91.7015ZM357.815 81.3938L356.079 82.3861L356.085 82.3964L356.091 82.4067L357.815 81.3938ZM357.506 52.2231L355.746 51.2732L355.74 51.2834L357.506 52.2231ZM366.989 42.0185L368.044 43.7177L368.054 43.7112L368.065 43.7046L366.989 42.0185ZM391.727 40.7815L390.833 42.5704L390.847 42.5776L390.862 42.5846L391.727 40.7815ZM400.386 47.5846L398.831 48.843L402.386 53.2339V47.5846H400.386ZM401.829 15.94L400.464 14.4779L400.439 14.5014L400.415 14.5258L401.829 15.94ZM407.086 81.3938L405.361 80.381L405.355 80.3913L405.349 80.4016L407.086 81.3938ZM396.984 91.7015L397.989 93.4311L397.999 93.4251L398.009 93.419L396.984 91.7015ZM391.934 83.6615L392.963 85.3765L392.978 85.3672L392.994 85.3575L391.934 83.6615ZM398.427 76.6523L396.664 75.709L398.427 76.6523ZM398.427 56.8615L396.673 57.8222L398.427 56.8615ZM391.934 50.0585L390.874 51.7545L390.889 51.7641L390.905 51.7734L391.934 50.0585ZM373.174 50.0585L374.203 51.7734L374.209 51.7698L374.215 51.766L373.174 50.0585ZM366.577 56.8615L364.84 55.8693L364.831 55.885L364.823 55.9009L366.577 56.8615ZM366.577 76.6523L364.813 77.5956L364.822 77.6114L364.83 77.627L366.577 76.6523ZM373.174 83.6615L372.114 85.3575L372.138 85.3729L372.163 85.3876L373.174 83.6615ZM382.554 93.4123C377.515 93.4123 373.017 92.2533 369.012 89.965L367.027 93.438C371.681 96.0975 376.873 97.4123 382.554 97.4123V93.4123ZM369.045 89.9841C365.077 87.616 361.914 84.4239 359.54 80.381L356.091 82.4067C358.801 87.0222 362.442 90.702 366.995 93.419L369.045 89.9841ZM359.552 80.4016C357.266 76.401 356.104 71.8694 356.104 66.7569H352.104C352.104 72.5019 353.417 77.7282 356.079 82.3861L359.552 80.4016ZM356.104 66.7569C356.104 61.6145 357.176 57.0995 359.271 53.1628L355.74 51.2834C353.3 55.8677 352.104 61.0419 352.104 66.7569H356.104ZM359.266 53.1729C361.445 49.1352 364.369 45.9985 368.044 43.7177L365.934 40.3192C361.638 42.9861 358.24 46.6525 355.746 51.2732L359.266 53.1729ZM368.065 43.7046C371.709 41.3797 375.832 40.2046 380.492 40.2046V36.2046C375.119 36.2046 370.24 37.5721 365.913 40.3323L368.065 43.7046ZM380.492 40.2046C384.254 40.2046 387.69 40.999 390.833 42.5704L392.622 38.9927C388.893 37.1282 384.839 36.2046 380.492 36.2046V40.2046ZM390.862 42.5846C394.038 44.109 396.687 46.1934 398.831 48.843L401.94 46.3262C399.413 43.2035 396.289 40.7525 392.593 38.9785L390.862 42.5846ZM402.386 47.5846V19.7538H398.386V47.5846H402.386ZM402.386 19.7538C402.386 18.611 402.717 17.8804 403.243 17.3542L400.415 14.5258C399.017 15.9237 398.386 17.7356 398.386 19.7538H402.386ZM403.194 17.4021C403.826 16.8121 404.598 16.4969 405.643 16.4969V12.4969C403.665 12.4969 401.894 13.1438 400.464 14.4779L403.194 17.4021ZM405.643 16.4969C406.786 16.4969 407.516 16.8281 408.042 17.3542L410.871 14.5258C409.473 13.1278 407.661 12.4969 405.643 12.4969V16.4969ZM408.042 17.3542C408.569 17.8804 408.9 18.611 408.9 19.7538H412.9C412.9 17.7356 412.269 15.9237 410.871 14.5258L408.042 17.3542ZM408.9 19.7538V66.7569H412.9V19.7538H408.9ZM408.9 66.7569C408.9 71.8594 407.709 76.3837 405.361 80.381L408.811 82.4067C411.548 77.7456 412.9 72.5118 412.9 66.7569H408.9ZM405.349 80.4016C403.046 84.4334 399.923 87.6189 395.959 89.9841L398.009 93.419C402.567 90.699 406.179 87.0127 408.822 82.3861L405.349 80.4016ZM395.98 89.972C392.051 92.2533 387.593 93.4123 382.554 93.4123V97.4123C388.234 97.4123 393.397 96.0975 397.989 93.4311L395.98 89.972ZM382.554 88.1354C386.386 88.1354 389.874 87.2294 392.963 85.3765L390.905 81.9465C388.495 83.3921 385.731 84.1354 382.554 84.1354V88.1354ZM392.994 85.3575C396.049 83.448 398.452 80.8476 400.191 77.5956L396.664 75.709C395.242 78.3667 393.316 80.4392 390.874 81.9655L392.994 85.3575ZM400.191 77.5956C401.94 74.3258 402.798 70.6988 402.798 66.7569H398.798C398.798 70.0991 398.076 73.0691 396.664 75.709L400.191 77.5956ZM402.798 66.7569C402.798 62.7539 401.943 59.1175 400.182 55.9009L396.673 57.8222C398.073 60.3779 398.798 63.3384 398.798 66.7569H402.798ZM400.182 55.9009C398.435 52.7121 396.024 50.1804 392.963 48.3435L390.905 51.7734C393.341 53.235 395.259 55.2387 396.673 57.8222L400.182 55.9009ZM392.994 48.3625C389.901 46.4297 386.401 45.4815 382.554 45.4815V49.4815C385.715 49.4815 388.469 50.2513 390.874 51.7545L392.994 48.3625ZM382.554 45.4815C378.766 45.4815 375.277 46.4336 372.132 48.3509L374.215 51.766C376.705 50.2474 379.469 49.4815 382.554 49.4815V45.4815ZM372.145 48.3435C369.091 50.1757 366.653 52.697 364.84 55.8693L368.313 57.8538C369.799 55.2537 371.759 53.2397 374.203 51.7734L372.145 48.3435ZM364.823 55.9009C363.061 59.1175 362.206 62.7539 362.206 66.7569H366.206C366.206 63.3384 366.931 60.3779 368.331 57.8222L364.823 55.9009ZM362.206 66.7569C362.206 70.6988 363.064 74.3258 364.813 77.5956L368.34 75.709C366.928 73.0691 366.206 70.0991 366.206 66.7569H362.206ZM364.83 77.627C366.636 80.8629 369.066 83.4529 372.114 85.3575L374.234 81.9655C371.784 80.4343 369.815 78.3514 368.323 75.6776L364.83 77.627ZM372.163 85.3876C375.303 87.2258 378.782 88.1354 382.554 88.1354V84.1354C379.453 84.1354 376.679 83.3958 374.184 81.9355L372.163 85.3876ZM440.702 91.8046L439.721 93.5478L439.737 93.5568L439.754 93.5656L440.702 91.8046ZM430.291 81.7031L428.555 82.6954L428.564 82.7118L428.574 82.728L430.291 81.7031ZM430.085 52.0169L428.337 51.0456L428.331 51.0553L430.085 52.0169ZM439.98 41.9154L440.976 43.6501L440.986 43.644L440.997 43.6378L439.98 41.9154ZM468.223 41.8123L467.163 43.5083L467.174 43.5152L467.185 43.5219L468.223 41.8123ZM476.985 51.6046L475.179 52.4633L475.187 52.4813L475.196 52.499L476.985 51.6046ZM478.737 69.2308L480.094 70.7004L480.123 70.6733L480.152 70.645L478.737 69.2308ZM433.796 70.4677H431.796V72.4677H433.796V70.4677ZM433.796 62.2215V60.2215H431.796V62.2215H433.796ZM475.027 62.2215L476.154 63.8731L481.501 60.2215H475.027V62.2215ZM470.8 65.1077L468.801 65.1477L468.875 68.8447L471.928 66.7593L470.8 65.1077ZM468.739 55.9338L466.932 56.792L466.937 56.8009L466.941 56.8098L468.739 55.9338ZM444.31 49.6461L443.268 47.9386L443.259 47.9443L443.25 47.9502L444.31 49.6461ZM438.022 56.7585L439.819 57.6361L439.823 57.628L439.827 57.6199L438.022 56.7585ZM438.434 76.9615L436.705 77.9668L438.434 76.9615ZM445.547 83.9708L446.535 82.2319L445.547 83.9708ZM462.451 85.4138L463.101 87.3052L463.118 87.2995L463.135 87.2934L462.451 85.4138ZM467.914 82.6308L466.732 81.018L466.723 81.0243L466.714 81.0308L467.914 82.6308ZM471.213 81.4969V83.4969H471.268L471.324 83.4938L471.213 81.4969ZM474.408 82.5277L475.731 81.028L475.716 81.0143L475.7 81.0009L474.408 82.5277ZM476.263 85.9292L478.26 85.8183L476.263 85.9292ZM474.614 89.1246L473.399 87.5359L473.385 87.547L473.37 87.5584L474.614 89.1246ZM465.853 93.66L465.22 91.7626L465.209 91.7665L465.853 93.66ZM455.957 93.4123C450.543 93.4123 445.791 92.2732 441.65 90.0437L439.754 93.5656C444.546 96.1463 449.964 97.4123 455.957 97.4123V93.4123ZM441.682 90.0615C437.583 87.7556 434.369 84.6338 432.009 80.6782L428.574 82.728C431.298 87.2934 435.025 90.9059 439.721 93.5478L441.682 90.0615ZM432.028 80.7108C429.746 76.7178 428.58 72.1195 428.58 66.86H424.58C424.58 72.7328 425.889 78.0299 428.555 82.6954L432.028 80.7108ZM428.58 66.86C428.58 61.5072 429.688 56.9003 431.839 52.9786L428.331 51.0553C425.809 55.6545 424.58 60.943 424.58 66.86H428.58ZM431.833 52.9882C434.066 48.969 437.108 45.8694 440.976 43.6501L438.985 40.1806C434.469 42.7716 430.914 46.4064 428.337 51.0456L431.833 52.9882ZM440.997 43.6378C444.846 41.366 449.298 40.2046 454.411 40.2046V36.2046C448.667 36.2046 443.498 37.517 438.964 40.193L440.997 43.6378ZM454.411 40.2046C459.465 40.2046 463.687 41.3354 467.163 43.5083L469.283 40.1163C465.064 37.479 460.077 36.2046 454.411 36.2046V40.2046ZM467.185 43.5219C470.689 45.6492 473.348 48.6125 475.179 52.4633L478.791 50.7459C476.636 46.2131 473.454 42.6482 469.261 40.1027L467.185 43.5219ZM475.196 52.499C477.096 56.2991 478.077 60.7592 478.077 65.9323H482.077C482.077 60.248 480.997 55.1562 478.774 50.7102L475.196 52.499ZM478.077 65.9323C478.077 66.7273 477.828 67.3121 477.323 67.8166L480.152 70.645C481.434 69.3628 482.077 67.7485 482.077 65.9323H478.077ZM477.381 67.7612C476.906 68.1997 476.278 68.4677 475.336 68.4677V72.4677C477.142 72.4677 478.782 71.9111 480.094 70.7004L477.381 67.7612ZM475.336 68.4677H433.796V72.4677H475.336V68.4677ZM435.796 70.4677V62.2215H431.796V70.4677H435.796ZM433.796 64.2215H475.027V60.2215H433.796V64.2215ZM473.899 60.5699L469.672 63.4561L471.928 66.7593L476.154 63.8731L473.899 60.5699ZM472.8 65.0677C472.726 61.386 471.987 58.0356 470.537 55.0579L466.941 56.8098C468.101 59.1921 468.737 61.9576 468.801 65.1477L472.8 65.0677ZM470.545 55.0757C469.092 52.016 467 49.5619 464.271 47.7686L462.074 51.1114C464.156 52.4791 465.774 54.3543 466.932 56.792L470.545 55.0757ZM464.271 47.7686C461.481 45.9351 458.161 45.0692 454.411 45.0692V49.0692C457.534 49.0692 460.054 49.7839 462.074 51.1114L464.271 47.7686ZM454.411 45.0692C450.196 45.0692 446.454 45.9962 443.268 47.9386L445.351 51.3537C447.8 49.8602 450.792 49.0692 454.411 49.0692V45.0692ZM443.25 47.9502C440.167 49.8768 437.818 52.5422 436.217 55.897L439.827 57.6199C441.112 54.9275 442.955 52.8514 445.37 51.3421L443.25 47.9502ZM436.225 55.8808C434.63 59.1471 433.857 62.8218 433.857 66.86H437.857C437.857 63.3392 438.528 60.2796 439.819 57.6361L436.225 55.8808ZM433.857 66.86C433.857 70.9543 434.791 74.6751 436.705 77.9668L440.163 75.9563C438.641 73.3382 437.857 70.3247 437.857 66.86H433.857ZM436.705 77.9668C438.604 81.233 441.233 83.8202 444.559 85.7097L446.535 82.2319C443.813 80.6854 441.7 78.5998 440.163 75.9563L436.705 77.9668ZM444.559 85.7097C447.92 87.6195 451.739 88.5477 455.957 88.5477V84.5477C452.342 84.5477 449.22 83.7579 446.535 82.2319L444.559 85.7097ZM455.957 88.5477C458.328 88.5477 460.712 88.1265 463.101 87.3052L461.801 83.5225C459.792 84.213 457.847 84.5477 455.957 84.5477V88.5477ZM463.135 87.2934C465.519 86.4265 467.533 85.4166 469.114 84.2308L466.714 81.0308C465.547 81.9064 463.919 82.752 461.768 83.5343L463.135 87.2934ZM469.097 84.2436C469.819 83.7143 470.51 83.4969 471.213 83.4969V79.4969C469.579 79.4969 468.071 80.0355 466.732 81.018L469.097 84.2436ZM471.324 83.4938C472.083 83.4517 472.638 83.6496 473.116 84.0545L475.7 81.0009C474.392 79.894 472.816 79.4048 471.102 79.5L471.324 83.4938ZM473.085 84.0274C473.961 84.8004 474.235 85.4674 474.267 86.0402L478.26 85.8183C478.155 83.9172 477.192 82.3165 475.731 81.028L473.085 84.0274ZM474.267 86.0402C474.291 86.4856 474.155 86.9583 473.399 87.5359L475.829 90.7133C477.41 89.5042 478.373 87.8467 478.26 85.8183L474.267 86.0402ZM473.37 87.5584C471.255 89.2386 468.554 90.6513 465.22 91.7626L466.485 95.5574C470.16 94.3323 473.301 92.7214 475.858 90.6908L473.37 87.5584ZM465.209 91.7665C461.95 92.8744 458.87 93.4123 455.957 93.4123V97.4123C459.367 97.4123 462.883 96.782 466.496 95.5535L465.209 91.7665ZM505.595 91.4954L503.788 92.3524L503.802 92.3821L503.817 92.4113L505.595 91.4954ZM483.743 45.42L481.933 46.2716L481.936 46.277L483.743 45.42ZM483.537 42.0185L481.687 41.257L481.675 41.2864L481.664 41.3162L483.537 42.0185ZM486.217 39.3385L487.073 41.1459L487.113 41.1269L487.153 41.106L486.217 39.3385ZM489.721 39.0292L489.056 40.9152L489.072 40.921L489.089 40.9266L489.721 39.0292ZM492.504 41.4L494.319 40.5586L494.297 40.5108L494.272 40.4642L492.504 41.4ZM512.914 85.4138V87.4138H516.046L514.728 84.5725L512.914 85.4138ZM507.966 85.4138L506.148 84.5795L504.847 87.4138H507.966V85.4138ZM528.169 41.4L526.402 40.4642L526.375 40.5142L526.351 40.5657L528.169 41.4ZM530.952 39.0292L530.35 37.1221L530.335 37.1268L530.32 37.1319L530.952 39.0292ZM534.869 39.3385L534.013 41.1459L534.035 41.1563L534.057 41.1661L534.869 39.3385ZM537.343 41.9154L539.229 41.2497V41.2497L537.343 41.9154ZM537.137 45.42L538.944 46.277L538.946 46.2716L537.137 45.42ZM515.284 91.4954L513.477 90.6383L513.47 90.653L513.464 90.6678L515.284 91.4954ZM510.543 92.8969C509.325 92.8969 508.28 92.3402 507.373 90.5795L503.817 92.4113C505.247 95.186 507.501 96.8969 510.543 96.8969V92.8969ZM507.402 90.6383L485.55 44.563L481.936 46.277L503.788 92.3524L507.402 90.6383ZM485.553 44.5684C485.207 43.8348 485.206 43.262 485.409 42.7207L481.664 41.3162C481.043 42.9738 481.179 44.6688 481.933 46.2716L485.553 44.5684ZM485.386 42.78C485.651 42.1379 486.148 41.5841 487.073 41.1459L485.361 37.531C483.674 38.3297 482.385 39.5626 481.687 41.257L485.386 42.78ZM487.153 41.106C487.864 40.7293 488.453 40.7024 489.056 40.9152L490.387 37.1432C488.654 36.5314 486.906 36.7106 485.281 37.5709L487.153 41.106ZM489.089 40.9266C489.831 41.1738 490.355 41.6151 490.737 42.3358L494.272 40.4642C493.417 38.8484 492.086 37.7093 490.354 37.1319L489.089 40.9266ZM490.69 42.2413L511.099 86.2552L514.728 84.5725L494.319 40.5586L490.69 42.2413ZM512.914 83.4138H507.966V87.4138H512.914V83.4138ZM509.784 86.2482L529.987 42.2343L526.351 40.5657L506.148 84.5795L509.784 86.2482ZM529.937 42.3358C530.318 41.6151 530.843 41.1738 531.585 40.9266L530.32 37.1319C528.587 37.7093 527.257 38.8484 526.402 40.4642L529.937 42.3358ZM531.554 40.9364C532.35 40.685 533.136 40.7304 534.013 41.1459L535.725 37.531C533.991 36.7095 532.165 36.5488 530.35 37.1221L531.554 40.9364ZM534.057 41.1661C534.843 41.5155 535.246 41.9823 535.457 42.581L539.229 41.2497C538.616 39.5121 537.369 38.2609 535.681 37.5108L534.057 41.1661ZM535.457 42.581C535.686 43.2303 535.663 43.8539 535.327 44.5684L538.946 46.2716C539.71 44.6497 539.824 42.9369 539.229 41.2497L535.457 42.581ZM535.33 44.563L513.477 90.6383L517.092 92.3524L538.944 46.277L535.33 44.563ZM513.464 90.6678C513.053 91.5707 512.597 92.1081 512.16 92.4215C511.742 92.7213 511.232 92.8969 510.543 92.8969V96.8969C511.984 96.8969 513.329 96.5056 514.492 95.6716C515.636 94.8512 516.485 93.6878 517.105 92.323L513.464 90.6678Z" fill="#10284B" mask="url(#path-1-outside-1_525_2786)"/>
<path d="M275.442 130.171C275.067 130.171 274.781 130.073 274.585 129.878C274.389 129.665 274.291 129.372 274.291 128.996V114.676H268.93C268.62 114.676 268.375 114.594 268.196 114.431C268.016 114.251 267.927 114.006 267.927 113.696C267.927 113.386 268.016 113.15 268.196 112.986C268.375 112.823 268.62 112.742 268.93 112.742H281.929C282.256 112.742 282.5 112.823 282.664 112.986C282.843 113.15 282.933 113.386 282.933 113.696C282.933 114.006 282.843 114.251 282.664 114.431C282.5 114.594 282.256 114.676 281.929 114.676H276.568V128.996C276.568 129.372 276.47 129.665 276.274 129.878C276.095 130.073 275.817 130.171 275.442 130.171ZM293.274 130C292.882 130 292.58 129.894 292.368 129.682C292.156 129.47 292.05 129.168 292.05 128.776V113.966C292.05 113.574 292.156 113.272 292.368 113.06C292.58 112.848 292.882 112.742 293.274 112.742H302.282C302.592 112.742 302.829 112.823 302.992 112.986C303.172 113.133 303.262 113.354 303.262 113.647C303.262 113.957 303.172 114.194 302.992 114.357C302.829 114.52 302.592 114.602 302.282 114.602H294.253V120.306H301.768C302.078 120.306 302.315 120.388 302.478 120.551C302.641 120.714 302.723 120.942 302.723 121.236C302.723 121.546 302.641 121.783 302.478 121.946C302.315 122.093 302.078 122.166 301.768 122.166H294.253V128.14H302.282C302.592 128.14 302.829 128.221 302.992 128.384C303.172 128.531 303.262 128.76 303.262 129.07C303.262 129.38 303.172 129.616 302.992 129.78C302.829 129.927 302.592 130 302.282 130H293.274ZM321.01 130.22C319.296 130.22 317.827 129.861 316.603 129.143C315.379 128.425 314.433 127.405 313.764 126.083C313.111 124.745 312.784 123.17 312.784 121.359C312.784 120.004 312.972 118.788 313.347 117.711C313.723 116.618 314.261 115.687 314.963 114.92C315.665 114.137 316.522 113.541 317.534 113.133C318.562 112.725 319.72 112.521 321.01 112.521C321.989 112.521 322.927 112.66 323.825 112.937C324.739 113.215 325.522 113.607 326.175 114.112C326.436 114.292 326.607 114.496 326.689 114.724C326.771 114.953 326.779 115.173 326.714 115.385C326.665 115.581 326.559 115.753 326.395 115.9C326.248 116.03 326.061 116.104 325.832 116.12C325.604 116.12 325.359 116.03 325.098 115.851C324.527 115.41 323.898 115.092 323.213 114.896C322.544 114.684 321.826 114.578 321.059 114.578C319.802 114.578 318.733 114.847 317.852 115.385C316.987 115.908 316.326 116.675 315.869 117.687C315.428 118.682 315.208 119.906 315.208 121.359C315.208 122.795 315.428 124.027 315.869 125.055C316.326 126.067 316.987 126.842 317.852 127.381C318.733 127.903 319.802 128.164 321.059 128.164C321.826 128.164 322.552 128.058 323.237 127.846C323.939 127.634 324.584 127.307 325.171 126.867C325.432 126.687 325.669 126.605 325.881 126.622C326.11 126.638 326.297 126.712 326.444 126.842C326.591 126.956 326.689 127.12 326.738 127.332C326.803 127.528 326.803 127.732 326.738 127.944C326.673 128.156 326.526 128.344 326.297 128.507C325.628 129.078 324.829 129.51 323.898 129.804C322.984 130.082 322.022 130.22 321.01 130.22ZM338.165 130.171C337.806 130.171 337.529 130.073 337.333 129.878C337.137 129.665 337.039 129.372 337.039 128.996V113.745C337.039 113.354 337.137 113.06 337.333 112.864C337.529 112.668 337.806 112.57 338.165 112.57C338.541 112.57 338.826 112.668 339.022 112.864C339.218 113.06 339.316 113.354 339.316 113.745V120.281H349.304V113.745C349.304 113.354 349.402 113.06 349.598 112.864C349.793 112.668 350.079 112.57 350.454 112.57C350.813 112.57 351.091 112.668 351.287 112.864C351.483 113.06 351.58 113.354 351.58 113.745V128.996C351.58 129.372 351.483 129.665 351.287 129.878C351.091 130.073 350.813 130.171 350.454 130.171C350.079 130.171 349.793 130.073 349.598 129.878C349.402 129.665 349.304 129.372 349.304 128.996V122.215H339.316V128.996C339.316 129.372 339.218 129.665 339.022 129.878C338.843 130.073 338.557 130.171 338.165 130.171ZM363.886 130.171C363.559 130.171 363.298 130.073 363.103 129.878C362.923 129.682 362.833 129.412 362.833 129.07V113.721C362.833 113.345 362.923 113.06 363.103 112.864C363.282 112.668 363.519 112.57 363.812 112.57C364.09 112.57 364.302 112.619 364.449 112.717C364.596 112.815 364.759 112.986 364.939 113.231L375.318 126.989H374.706V113.672C374.706 113.313 374.796 113.044 374.975 112.864C375.171 112.668 375.44 112.57 375.783 112.57C376.126 112.57 376.387 112.668 376.567 112.864C376.746 113.044 376.836 113.313 376.836 113.672V129.07C376.836 129.412 376.746 129.682 376.567 129.878C376.403 130.073 376.183 130.171 375.906 130.171C375.644 130.171 375.424 130.114 375.245 130C375.081 129.902 374.91 129.731 374.731 129.486L364.375 115.728H364.939V129.07C364.939 129.412 364.849 129.682 364.669 129.878C364.49 130.073 364.229 130.171 363.886 130.171ZM395.446 130.22C393.814 130.22 392.402 129.861 391.211 129.143C390.019 128.409 389.089 127.381 388.42 126.059C387.767 124.72 387.441 123.154 387.441 121.359C387.441 120.004 387.628 118.788 388.004 117.711C388.379 116.618 388.91 115.687 389.595 114.92C390.297 114.137 391.137 113.541 392.116 113.133C393.112 112.725 394.222 112.521 395.446 112.521C397.078 112.521 398.489 112.88 399.681 113.598C400.872 114.316 401.794 115.336 402.447 116.658C403.1 117.98 403.426 119.539 403.426 121.334C403.426 122.689 403.239 123.913 402.863 125.006C402.488 126.1 401.949 127.038 401.248 127.821C400.562 128.605 399.73 129.2 398.751 129.608C397.771 130.016 396.67 130.22 395.446 130.22ZM395.446 128.213C396.621 128.213 397.624 127.944 398.457 127.405C399.289 126.867 399.926 126.083 400.366 125.055C400.823 124.027 401.052 122.795 401.052 121.359C401.052 119.188 400.562 117.507 399.583 116.316C398.62 115.124 397.241 114.529 395.446 114.529C394.271 114.529 393.259 114.798 392.41 115.336C391.578 115.859 390.941 116.634 390.501 117.662C390.06 118.674 389.84 119.906 389.84 121.359C389.84 123.513 390.329 125.194 391.309 126.401C392.288 127.609 393.667 128.213 395.446 128.213ZM415.213 130C414.854 130 414.568 129.894 414.356 129.682C414.16 129.47 414.062 129.184 414.062 128.825V113.794C414.062 113.419 414.16 113.133 414.356 112.937C414.552 112.742 414.829 112.644 415.188 112.644C415.564 112.644 415.849 112.742 416.045 112.937C416.241 113.133 416.339 113.419 416.339 113.794V128.042H424.124C424.466 128.042 424.719 128.123 424.883 128.286C425.062 128.45 425.152 128.686 425.152 128.996C425.152 129.323 425.062 129.576 424.883 129.755C424.719 129.918 424.466 130 424.124 130H415.213ZM441.033 130.22C439.401 130.22 437.989 129.861 436.798 129.143C435.607 128.409 434.676 127.381 434.007 126.059C433.354 124.72 433.028 123.154 433.028 121.359C433.028 120.004 433.216 118.788 433.591 117.711C433.966 116.618 434.497 115.687 435.182 114.92C435.884 114.137 436.725 113.541 437.704 113.133C438.699 112.725 439.809 112.521 441.033 112.521C442.665 112.521 444.077 112.88 445.268 113.598C446.459 114.316 447.382 115.336 448.034 116.658C448.687 117.98 449.014 119.539 449.014 121.334C449.014 122.689 448.826 123.913 448.45 125.006C448.075 126.1 447.537 127.038 446.835 127.821C446.149 128.605 445.317 129.2 444.338 129.608C443.359 130.016 442.257 130.22 441.033 130.22ZM441.033 128.213C442.208 128.213 443.212 127.944 444.044 127.405C444.876 126.867 445.513 126.083 445.954 125.055C446.41 124.027 446.639 122.795 446.639 121.359C446.639 119.188 446.149 117.507 445.17 116.316C444.207 115.124 442.828 114.529 441.033 114.529C439.858 114.529 438.846 114.798 437.998 115.336C437.165 115.859 436.529 116.634 436.088 117.662C435.647 118.674 435.427 119.906 435.427 121.359C435.427 123.513 435.917 125.194 436.896 126.401C437.875 127.609 439.254 128.213 441.033 128.213ZM467.606 130.22C465.762 130.22 464.195 129.869 462.906 129.168C461.633 128.45 460.662 127.43 459.992 126.108C459.34 124.786 459.013 123.211 459.013 121.383C459.013 120.012 459.201 118.788 459.576 117.711C459.952 116.618 460.498 115.687 461.216 114.92C461.951 114.137 462.832 113.541 463.86 113.133C464.905 112.725 466.08 112.521 467.385 112.521C468.397 112.521 469.376 112.66 470.323 112.937C471.27 113.199 472.135 113.631 472.918 114.235C473.114 114.382 473.236 114.553 473.285 114.749C473.35 114.945 473.359 115.141 473.31 115.336C473.261 115.532 473.163 115.704 473.016 115.851C472.885 115.997 472.714 116.087 472.502 116.12C472.306 116.136 472.094 116.071 471.865 115.924C471.196 115.434 470.494 115.084 469.76 114.871C469.042 114.659 468.25 114.553 467.385 114.553C466.096 114.553 465.003 114.822 464.105 115.361C463.207 115.883 462.53 116.658 462.073 117.687C461.633 118.698 461.412 119.931 461.412 121.383C461.412 123.619 461.935 125.316 462.979 126.475C464.04 127.634 465.607 128.213 467.679 128.213C468.446 128.213 469.189 128.14 469.907 127.993C470.641 127.846 471.343 127.642 472.012 127.381L471.523 128.605V122.705H468.193C467.899 122.705 467.663 122.623 467.483 122.46C467.32 122.297 467.239 122.077 467.239 121.799C467.239 121.522 467.32 121.31 467.483 121.163C467.663 121.016 467.899 120.942 468.193 120.942H472.526C472.82 120.942 473.048 121.024 473.212 121.187C473.391 121.35 473.481 121.587 473.481 121.897V128.188C473.481 128.45 473.432 128.678 473.334 128.874C473.236 129.053 473.073 129.184 472.844 129.266C472.159 129.543 471.343 129.772 470.396 129.951C469.45 130.131 468.52 130.22 467.606 130.22ZM485.709 130.171C485.35 130.171 485.073 130.073 484.877 129.878C484.681 129.665 484.583 129.372 484.583 128.996V113.745C484.583 113.354 484.681 113.06 484.877 112.864C485.073 112.668 485.35 112.57 485.709 112.57C486.084 112.57 486.37 112.668 486.566 112.864C486.762 113.06 486.86 113.354 486.86 113.745V128.996C486.86 129.372 486.762 129.665 486.566 129.878C486.386 130.073 486.101 130.171 485.709 130.171ZM499.313 130C498.921 130 498.619 129.894 498.407 129.682C498.195 129.47 498.089 129.168 498.089 128.776V113.966C498.089 113.574 498.195 113.272 498.407 113.06C498.619 112.848 498.921 112.742 499.313 112.742H508.322C508.632 112.742 508.868 112.823 509.032 112.986C509.211 113.133 509.301 113.354 509.301 113.647C509.301 113.957 509.211 114.194 509.032 114.357C508.868 114.52 508.632 114.602 508.322 114.602H500.292V120.306H507.808C508.118 120.306 508.354 120.388 508.518 120.551C508.681 120.714 508.762 120.942 508.762 121.236C508.762 121.546 508.681 121.783 508.518 121.946C508.354 122.093 508.118 122.166 507.808 122.166H500.292V128.14H508.322C508.632 128.14 508.868 128.221 509.032 128.384C509.211 128.531 509.301 128.76 509.301 129.07C509.301 129.38 509.211 129.616 509.032 129.78C508.868 129.927 508.632 130 508.322 130H499.313ZM524.948 130.22C524.181 130.22 523.438 130.155 522.72 130.024C522.002 129.91 521.325 129.731 520.688 129.486C520.052 129.241 519.481 128.939 518.975 128.58C518.763 128.433 518.607 128.254 518.51 128.042C518.428 127.829 518.403 127.625 518.436 127.43C518.485 127.217 518.575 127.038 518.705 126.891C518.852 126.744 519.024 126.654 519.219 126.622C519.415 126.589 519.627 126.654 519.856 126.818C520.607 127.324 521.39 127.691 522.206 127.919C523.038 128.148 523.952 128.262 524.948 128.262C526.384 128.262 527.437 128.001 528.106 127.479C528.791 126.956 529.134 126.271 529.134 125.422C529.134 124.72 528.889 124.174 528.399 123.782C527.91 123.374 527.086 123.056 525.927 122.827L523.332 122.289C521.798 121.962 520.647 121.424 519.88 120.673C519.13 119.922 518.754 118.919 518.754 117.662C518.754 116.895 518.909 116.201 519.219 115.581C519.53 114.945 519.97 114.398 520.541 113.941C521.113 113.484 521.782 113.133 522.549 112.888C523.332 112.644 524.197 112.521 525.144 112.521C526.155 112.521 527.102 112.66 527.983 112.937C528.881 113.215 529.689 113.623 530.407 114.161C530.603 114.308 530.733 114.488 530.799 114.7C530.864 114.896 530.872 115.092 530.823 115.288C530.79 115.483 530.701 115.647 530.554 115.777C530.423 115.908 530.252 115.981 530.04 115.997C529.844 116.014 529.623 115.94 529.379 115.777C528.726 115.32 528.057 114.994 527.371 114.798C526.686 114.586 525.935 114.48 525.119 114.48C524.287 114.48 523.561 114.61 522.94 114.871C522.337 115.132 521.863 115.5 521.521 115.973C521.194 116.43 521.031 116.968 521.031 117.589C521.031 118.339 521.259 118.927 521.716 119.351C522.173 119.776 522.94 120.102 524.018 120.33L526.588 120.844C528.22 121.187 529.428 121.718 530.211 122.436C531.011 123.137 531.411 124.084 531.411 125.275C531.411 126.026 531.255 126.703 530.945 127.307C530.652 127.911 530.227 128.433 529.672 128.874C529.118 129.298 528.44 129.633 527.641 129.878C526.841 130.106 525.943 130.22 524.948 130.22Z" fill="#10284B"/>
</svg>
