<svg width="25" height="26" viewBox="0 0 25 26" fill="none" xmlns="http://www.w3.org/2000/svg">
<g clip-path="url(#clip0_1_8016)">
<path d="M25.0008 18.9209C24.8272 13.939 21.9857 9.96563 17.4369 8.55388C16.5048 3.50341 9.19027 4.0352 8.99917 9.16457C8.53964 9.3878 8.09758 9.64276 7.67628 9.92818C5.07151 8.54768 1.64854 10.4528 1.50202 13.4084C0.533295 15.0614 0.015514 16.9477 0.00350329 18.8739C-0.0544511 19.9754 0.892788 20.9753 1.99646 20.9694C5.30947 20.9658 22.9255 20.9697 22.9255 20.9697C24.0581 20.97 25.0155 20.0277 25.0008 18.9209ZM13.0049 6.10583C14.3211 6.00604 15.7399 6.64603 16.258 8.25586C14.2508 7.85374 12.025 8.00974 10.1241 8.69386C10.4045 7.0437 11.6992 6.20524 13.0049 6.10583ZM4.21454 10.9564C5.0073 10.5177 5.89121 10.4272 6.69589 10.6805C5.1174 12.0457 4.01851 13.8301 3.44004 15.9239C2.02575 14.4713 2.36913 11.9206 4.21454 10.9564ZM2.98129 18.9435C2.92885 20.2068 1.12929 20.2058 1.07734 18.9435H1.07651C1.07861 17.6821 1.31727 16.4363 1.78075 15.2769C2.06174 16.0007 2.53919 16.6402 3.17263 17.1217C3.07137 17.7086 3.00546 18.3183 2.98129 18.9435ZM22.9255 19.8955C19.9469 19.8961 9.67402 19.8959 3.81775 19.8952C3.96759 19.6147 4.05337 19.2951 4.05542 18.956C4.73418 5.79429 23.2465 5.79277 23.9271 18.9537C23.9211 19.4652 23.4649 19.8955 22.9255 19.8955Z" fill="#1E293B"/>
<path d="M16.0181 14.4765C16.0181 14.7733 15.7775 15.0138 15.4808 15.0138C14.768 14.9855 14.7682 13.9674 15.4808 13.9392C15.7775 13.9392 16.0181 14.1798 16.0181 14.4765Z" fill="#767F8F"/>
<path d="M18.9961 15.9655C18.9961 16.2623 18.7555 16.5028 18.4588 16.5028C17.7461 16.4745 17.7463 15.4564 18.4588 15.4282C18.7555 15.4282 18.9961 15.6688 18.9961 15.9655Z" fill="#767F8F"/>
<path d="M21.9741 17.4545C21.9741 17.7513 21.7336 17.9919 21.4368 17.9919C20.7241 17.9635 20.7243 16.9455 21.4368 16.9172C21.7335 16.9172 21.9741 17.1578 21.9741 17.4545Z" fill="#767F8F"/>
<path d="M14.5281 17.4545C14.5281 17.7513 14.2875 17.9919 13.9908 17.9919C13.278 17.9635 13.2782 16.9455 13.9908 16.9172C14.2875 16.9172 14.5281 17.1578 14.5281 17.4545Z" fill="#767F8F"/>
<path d="M6.88277 7.84282C7.64008 7.4616 8.50539 7.48231 9.22228 7.87988C9.33487 7.53211 9.48793 7.2062 9.68206 6.90696C7.59668 5.7032 4.62533 7.24502 4.48657 9.67632C4.85153 9.56031 5.22636 9.4943 5.60123 9.47824C5.75263 8.77332 6.20538 8.18386 6.88277 7.84282Z" fill="#1E293B"/>
<path d="M19.99 8.12412C20.5418 8.57238 21.0244 9.37592 20.8777 10.3455C21.1943 10.592 21.4985 10.8587 21.7835 11.1409C22.8631 8.21386 19.51 5.37429 16.8025 6.91157C16.9917 7.20823 17.1455 7.5332 17.2624 7.88322C18.3078 7.28576 19.3635 7.61513 19.99 8.12412Z" fill="#1E293B"/>
</g>
<defs>
<clipPath id="clip0_1_8016">
<rect width="25" height="25" fill="white" transform="translate(0 0.5)"/>
</clipPath>
</defs>
</svg>
