<svg width="25" height="26" viewBox="0 0 25 26" fill="none" xmlns="http://www.w3.org/2000/svg">
<path d="M21.4842 25.4978H3.51382C1.57578 25.4978 -0.000976562 23.921 -0.000976562 21.9829C-0.000976562 21.6863 0.239502 21.4458 0.536133 21.4458H24.4619C24.7585 21.4458 24.999 21.6863 24.999 21.9829C24.999 23.921 23.4223 25.4978 21.4842 25.4978ZM1.13281 22.52C1.37812 23.6083 2.35254 24.4235 3.51387 24.4235H21.4842C22.6455 24.4235 23.6199 23.6083 23.8653 22.52H1.13281Z" fill="#767F8F"/>
<path d="M24.463 3.48018H12.9986C12.7393 1.79609 11.2803 0.502441 9.52476 0.502441H8.23242C8.23564 0.515381 8.23799 0.528955 8.23994 0.542773C8.43535 0.623145 8.57305 0.815137 8.57305 1.03955V1.57666H9.52476C10.686 1.57666 11.6597 2.39204 11.9051 3.48018H8.57305V4.55439H11.9051C11.6597 5.64248 10.686 6.45786 9.52476 6.45786H8.57305V6.99497C8.57305 7.18096 8.54736 7.36089 8.50024 7.53208H9.5248C11.2803 7.53208 12.7393 6.23838 12.9986 4.55439H24.463C25.1657 4.55122 25.1652 3.48325 24.463 3.48018Z" fill="#767F8F"/>
<path d="M19.6313 16.0627C18.6455 8.66894 8.29116 8.30957 6.79307 15.6096C5.79741 15.8032 4.88252 16.2251 4.10483 16.8184V9.02124H6.00835V12.1318C6.00835 12.4285 6.24883 12.6689 6.54546 12.6689C6.84209 12.6689 7.08257 12.4285 7.08257 12.1318V8.94844C7.93975 8.7124 8.57143 7.92642 8.57143 6.99526V1.03979C8.57143 0.743164 8.33096 0.502686 8.03433 0.502686H3.56768C2.45059 0.502686 1.54175 1.41152 1.54175 2.52866V6.99526C1.54175 7.92642 2.17344 8.7124 3.03057 8.94839V17.851C2.20845 18.8449 1.67598 20.0868 1.56411 21.446H2.64253C3.05771 17.0048 8.55889 14.9422 11.7849 18.0769C11.3801 18.6125 11.0565 19.2127 10.8321 19.8588C8.97768 17.4005 5.02866 18.3991 4.56045 21.4459H5.65391C6.25513 18.9233 9.81431 18.925 10.4146 21.4459H11.5757C12.395 14.973 21.5423 14.9778 22.3592 21.4459H23.4376C23.2401 19.0458 21.7314 17.0115 19.6313 16.0627ZM5.59365 1.5769H7.49717V6.99526C7.49717 7.52007 7.07021 7.94702 6.54541 7.94702H5.59365V1.5769ZM2.61592 6.99526V2.52866C2.61592 2.00386 3.04287 1.5769 3.56763 1.5769H4.51938V7.94702H3.56768C3.04292 7.94702 2.61592 7.52007 2.61592 6.99526ZM12.5007 17.2757C12.0033 16.8039 11.4381 16.4172 10.8286 16.1257C11.4236 13.9901 14.375 13.7072 15.362 15.6918C14.2725 15.97 13.2922 16.5242 12.5007 17.2757ZM16.4553 15.5109C15.2533 12.4191 10.8016 12.5896 9.82236 15.7433C9.20986 15.567 8.56416 15.479 7.91636 15.492C9.34893 9.92417 17.2414 10.0706 18.4818 15.6692C17.8385 15.5132 17.1307 15.456 16.4553 15.5109Z" fill="#1E293B"/>
<path d="M16.9679 18.468C15.2125 18.468 13.7535 19.7617 13.4941 21.4457H14.5876C15.1889 18.923 18.748 18.9248 19.3483 21.4457H20.4417C20.1824 19.7617 18.7234 18.468 16.9679 18.468Z" fill="#1E293B"/>
</svg>
