<svg width="80" height="80" viewBox="0 0 80 80" fill="none" xmlns="http://www.w3.org/2000/svg">
<path d="M28.75 7.5H26.25V10H28.75V7.5Z" fill="#1E40AF"/>
<path d="M41.25 7.5H31.25V10H41.25V7.5Z" fill="#1E40AF"/>
<path d="M71.2501 57.5C70.0733 57.4953 68.9336 57.9121 68.0376 58.675C67.5919 57.9361 66.9632 57.3246 66.2121 56.8998C65.461 56.475 64.613 56.2512 63.7501 56.25C62.5733 56.2453 61.4336 56.6621 60.5376 57.425C60.0997 56.6996 59.4846 56.0975 58.7501 55.675V11.25C58.7474 8.93017 57.8247 6.70611 56.1844 5.06574C54.544 3.42537 52.3199 2.50265 50.0001 2.5H22.5001C20.1803 2.50265 17.9562 3.42537 16.3158 5.06574C14.6755 6.70611 13.7527 8.93017 13.7501 11.25V34.075C12.9357 34.3395 12.1846 34.769 11.5437 35.3368C10.9028 35.9046 10.3858 36.5985 10.0251 37.375L5.01259 48.2375C4.17378 50.0423 3.74274 52.0098 3.75009 54V77.5H6.25009V54C6.24548 52.372 6.59972 50.763 7.28759 49.2875L12.3001 38.425C12.6125 37.7619 13.1179 37.2085 13.7501 36.8375V58.75C13.7518 59.1644 13.7852 59.5782 13.8501 59.9875L13.0501 61.375L15.2126 62.625L22.7126 49.6375C22.8751 49.3518 23.0923 49.101 23.3519 48.8994C23.6114 48.6978 23.9081 48.5493 24.2251 48.4625C24.867 48.2983 25.5475 48.3878 26.1251 48.7125C26.6985 49.0473 27.1163 49.5953 27.2872 50.2369C27.4582 50.8786 27.3684 51.5618 27.0376 52.1375L21.4126 61.875C21.3039 62.0704 21.2479 62.2906 21.2501 62.5142C21.2523 62.7377 21.3126 62.9568 21.4251 63.15L24.1126 67.6C24.6895 68.5726 24.9959 69.6817 25.0001 70.8125V77.4875H27.5001V70.8125C27.4941 69.676 27.2691 68.5514 26.8376 67.5H34.4251C34.5345 67.9532 34.7026 68.3903 34.9251 68.8L40.3126 78.125L42.4751 76.875L37.0876 67.55C36.7587 66.9738 36.6701 66.2913 36.8409 65.6502C37.0117 65.0092 37.4282 64.4612 38.0001 64.125C38.5779 63.8011 39.2581 63.7116 39.9001 63.875C40.2187 63.958 40.5171 64.105 40.7771 64.307C41.0371 64.509 41.2534 64.7618 41.4126 65.05L43.9126 69.375C44.0531 69.6122 44.2666 69.7977 44.5212 69.9036C44.7758 70.0094 45.0578 70.0301 45.3251 69.9625C45.5914 69.8908 45.8266 69.733 45.9939 69.5137C46.1612 69.2943 46.2513 69.0258 46.2501 68.75V47.5C46.2501 46.837 46.5135 46.2011 46.9823 45.7322C47.4512 45.2634 48.087 45 48.7501 45C49.4131 45 50.049 45.2634 50.5179 45.7322C50.9867 46.2011 51.2501 46.837 51.2501 47.5V65C51.2501 65.3315 51.3818 65.6495 51.6162 65.8839C51.8506 66.1183 52.1686 66.25 52.5001 66.25C52.8316 66.25 53.1496 66.1183 53.384 65.8839C53.6184 65.6495 53.7501 65.3315 53.7501 65V60C53.7501 59.337 54.0135 58.7011 54.4823 58.2322C54.9512 57.7634 55.587 57.5 56.2501 57.5C56.9131 57.5 57.549 57.7634 58.0179 58.2322C58.4867 58.7011 58.7501 59.337 58.7501 60V65C58.7501 65.3315 58.8818 65.6495 59.1162 65.8839C59.3506 66.1183 59.6686 66.25 60.0001 66.25C60.3316 66.25 60.6496 66.1183 60.884 65.8839C61.1184 65.6495 61.2501 65.3315 61.2501 65V61.25C61.2501 60.587 61.5135 59.9511 61.9823 59.4822C62.4512 59.0134 63.087 58.75 63.7501 58.75C64.4131 58.75 65.049 59.0134 65.5179 59.4822C65.9867 59.9511 66.2501 60.587 66.2501 61.25V65C66.2501 65.3315 66.3818 65.6495 66.6162 65.8839C66.8506 66.1183 67.1686 66.25 67.5001 66.25C67.8316 66.25 68.1496 66.1183 68.384 65.8839C68.6184 65.6495 68.7501 65.3315 68.7501 65V62.5C68.7501 61.837 69.0135 61.2011 69.4823 60.7322C69.9512 60.2634 70.587 60 71.2501 60C71.9131 60 72.549 60.2634 73.0179 60.7322C73.4867 61.2011 73.7501 61.837 73.7501 62.5V77.5H76.2501V62.5C76.2501 61.1739 75.7233 59.9021 74.7856 58.9645C73.8479 58.0268 72.5762 57.5 71.2501 57.5ZM38.7501 60H33.7501C33.4186 60 33.1006 59.8683 32.8662 59.6339C32.6318 59.3995 32.5001 59.0815 32.5001 58.75C32.5001 58.4185 32.6318 58.1005 32.8662 57.8661C33.1006 57.6317 33.4186 57.5 33.7501 57.5H38.7501C39.0816 57.5 39.3996 57.6317 39.634 57.8661C39.8684 58.1005 40.0001 58.4185 40.0001 58.75C40.0001 59.0815 39.8684 59.3995 39.634 59.6339C39.3996 59.8683 39.0816 60 38.7501 60ZM56.2501 55C55.3719 55.0009 54.5094 55.2338 53.7501 55.675V47.5C53.7501 46.1739 53.2233 44.9021 52.2856 43.9645C51.3479 43.0268 50.0762 42.5 48.7501 42.5C47.424 42.5 46.1522 43.0268 45.2146 43.9645C44.2769 44.9021 43.7501 46.1739 43.7501 47.5V64.0875L43.5876 63.8C43.0195 62.8209 42.1326 62.0663 41.0751 61.6625C41.5176 61.3166 41.8758 60.8747 42.1226 60.3702C42.3695 59.8656 42.4985 59.3117 42.5001 58.75C42.4971 57.7564 42.1011 56.8042 41.3985 56.1016C40.6958 55.399 39.7437 55.003 38.7501 55H33.7501C32.7555 55 31.8017 55.3951 31.0984 56.0984C30.3952 56.8016 30.0001 57.7554 30.0001 58.75C30.0001 59.7446 30.3952 60.6984 31.0984 61.4016C31.8017 62.1049 32.7555 62.5 33.7501 62.5H36.0126C35.2408 63.1519 34.6869 64.0243 34.4251 65H25.4626L23.9501 62.4875L29.2126 53.3875C29.5417 52.8181 29.7553 52.1894 29.8411 51.5373C29.9269 50.8852 29.8832 50.2227 29.7125 49.5875C29.5418 48.9524 29.2475 48.3571 28.8464 47.8359C28.4453 47.3147 27.9453 46.8777 27.3751 46.55C26.2262 45.8892 24.862 45.7116 23.5823 46.0561C22.3025 46.4007 21.2119 47.2392 20.5501 48.3875L16.2501 55.825V11.25C16.2501 9.5924 16.9086 8.00269 18.0807 6.83058C19.2528 5.65848 20.8425 5 22.5001 5H50.0001C51.6577 5 53.2474 5.65848 54.4195 6.83058C55.5916 8.00269 56.2501 9.5924 56.2501 11.25V55Z" fill="#1E40AF"/>
<path d="M49.3126 21.3877L36.8126 15.1377C36.6395 15.0454 36.4463 14.9971 36.2501 14.9971C36.0539 14.9971 35.8607 15.0454 35.6876 15.1377L23.1876 21.3877C22.9793 21.4889 22.8041 21.6472 22.6824 21.8442C22.5606 22.0412 22.4974 22.2687 22.5001 22.5002V30.2627C22.5077 33.0659 23.2374 35.8198 24.619 38.2589C26.0005 40.6979 27.9873 42.7399 30.3876 44.1877L35.6126 47.3252C35.8055 47.4396 36.0257 47.5 36.2501 47.5C36.4744 47.5 36.6946 47.4396 36.8876 47.3252L42.1126 44.1877C44.5129 42.7399 46.4996 40.6979 47.8812 38.2589C49.2627 35.8198 49.9925 33.0659 50.0001 30.2627V22.5002C50.0027 22.2687 49.9395 22.0412 49.8178 21.8442C49.6961 21.6472 49.5209 21.4889 49.3126 21.3877ZM47.5001 30.2627C47.4915 32.635 46.873 34.9652 45.7041 37.0294C44.5352 39.0937 42.855 40.8226 40.8251 42.0502L36.2501 44.7877L31.6751 42.0502C29.6451 40.8226 27.965 39.0937 26.7961 37.0294C25.6271 34.9652 25.0087 32.635 25.0001 30.2627V23.2752L36.2501 17.6502L47.5001 23.2752V30.2627Z" fill="#1E40AF"/>
<path d="M35 23.75V25C34.0054 25 33.0516 25.3951 32.3483 26.0983C31.6451 26.8016 31.25 27.7554 31.25 28.75C31.25 29.7446 31.6451 30.6984 32.3483 31.4017C33.0516 32.1049 34.0054 32.5 35 32.5H37.5C37.8315 32.5 38.1495 32.6317 38.3839 32.8661C38.6183 33.1005 38.75 33.4185 38.75 33.75C38.75 34.0815 38.6183 34.3995 38.3839 34.6339C38.1495 34.8683 37.8315 35 37.5 35H35C34.6685 35 34.3505 34.8683 34.1161 34.6339C33.8817 34.3995 33.75 34.0815 33.75 33.75H31.25C31.25 34.7446 31.6451 35.6984 32.3483 36.4017C33.0516 37.1049 34.0054 37.5 35 37.5V38.75H37.5V37.5C38.4946 37.5 39.4484 37.1049 40.1516 36.4017C40.8549 35.6984 41.25 34.7446 41.25 33.75C41.25 32.7554 40.8549 31.8016 40.1516 31.0983C39.4484 30.3951 38.4946 30 37.5 30H35C34.6685 30 34.3505 29.8683 34.1161 29.6339C33.8817 29.3995 33.75 29.0815 33.75 28.75C33.75 28.4185 33.8817 28.1005 34.1161 27.8661C34.3505 27.6317 34.6685 27.5 35 27.5H37.5C37.8315 27.5 38.1495 27.6317 38.3839 27.8661C38.6183 28.1005 38.75 28.4185 38.75 28.75H41.25C41.25 27.7554 40.8549 26.8016 40.1516 26.0983C39.4484 25.3951 38.4946 25 37.5 25V23.75H35Z" fill="#1E40AF"/>
</svg>
