<svg width="25" height="26" viewBox="0 0 25 26" fill="none" xmlns="http://www.w3.org/2000/svg">
<path d="M19.3116 5.49023C19.0333 5.58789 18.8624 5.76855 18.5157 6.32031C18.1202 6.9502 17.9884 7.22852 17.9396 7.52148L17.9054 7.72656L17.544 7.7168C17.212 7.70215 17.173 7.71191 17.0851 7.81934C17.0362 7.88281 16.9923 7.99512 16.9923 8.07324C16.9923 8.28809 17.1388 8.39551 17.4659 8.43457C19.7169 8.70312 21.3771 10.0605 22.1583 12.2725C22.2853 12.6387 22.4366 13.2588 22.5294 13.8154L22.5587 13.9766H20.7276C19.7218 13.9766 18.8966 13.957 18.8966 13.9375C18.8966 13.9131 19.0919 13.3613 19.336 12.707C19.5753 12.0527 19.7853 11.457 19.7999 11.3838C19.878 11.0273 19.5851 10.5732 19.1993 10.4561C19.0138 10.4023 18.9015 10.4121 18.0128 10.5977C16.8751 10.8271 16.67 10.9199 16.4308 11.3203C16.3526 11.457 16.089 12.1064 15.8497 12.7705L15.4151 13.9766H13.047C10.7374 13.9766 10.6837 13.9766 10.796 13.8887C10.8595 13.835 11.3819 13.4492 11.9483 13.0293L12.9884 12.2627L13.2325 12.3896C13.3644 12.458 13.4767 12.541 13.4767 12.5801C13.4767 12.6143 13.3839 12.707 13.2716 12.7803C12.9249 13.0049 12.8419 13.0977 12.8419 13.2783C12.8419 13.4785 12.9884 13.6348 13.1739 13.6348C13.3351 13.6348 13.9308 13.2441 14.0772 13.0391C14.2237 12.8389 14.2433 12.4336 14.1163 12.1846C13.9894 11.9355 13.8868 11.8721 12.8907 11.4326C12.1485 11.1055 12.0558 11.0762 11.7433 11.0762C11.4894 11.0713 11.3526 11.0957 11.2159 11.1689C11.1183 11.2227 10.1563 11.877 9.08213 12.6191L7.13389 13.9766H6.31358L5.49326 13.9717L4.37022 11.96C3.75498 10.8564 3.18369 9.87988 3.11045 9.79199C2.94444 9.60156 2.69541 9.51367 2.41221 9.54785C2.06553 9.58691 1.90928 9.74805 1.47471 10.5195C0.942482 11.4766 0.879006 11.6035 0.849709 11.8428C0.805764 12.1602 0.898537 12.4238 1.34776 13.2148C1.57237 13.6152 1.75791 13.9473 1.75791 13.957C1.75791 13.9668 1.57725 13.9766 1.35752 13.9766C0.800881 13.9766 0.605568 14.04 0.337014 14.3135C0.0293963 14.6162 -0.0145489 14.7969 0.00986512 15.6855C0.0245136 16.3789 0.0293964 16.3984 0.200295 16.7598C0.424904 17.2334 0.742287 17.5557 1.21104 17.7754C1.50889 17.917 1.63584 17.9463 2.03623 17.9756L2.50986 18.0049L3.17881 18.957C3.90147 19.9922 4.14072 20.2363 4.62412 20.4268L4.90733 20.5439H12.5001H20.0929L20.3761 20.4268C20.8595 20.2363 21.0987 19.9922 21.8214 18.957L22.4903 18.0049L22.964 17.9756C23.3644 17.9463 23.4913 17.917 23.7892 17.7754C24.2579 17.5557 24.5753 17.2334 24.7999 16.7598C24.9708 16.3984 24.9757 16.3789 24.9903 15.6855C25.0147 14.7969 24.9708 14.6162 24.6632 14.3135C24.3995 14.0449 24.1993 13.9766 23.672 13.9766H23.296L23.2716 13.8154C23.1105 12.8242 22.9493 12.2041 22.6954 11.5938C22.6124 11.3984 22.5636 11.2178 22.588 11.1982C22.6124 11.1787 22.8663 11.0127 23.1593 10.832C23.7062 10.4854 23.8722 10.2949 23.9503 9.93848C23.9894 9.73828 23.9015 9.40137 23.7501 9.20605C23.5987 9.00586 22.5343 8.33203 22.1778 8.20996C22.0265 8.15625 21.7774 8.10254 21.6261 8.08301L21.3575 8.05859L21.3038 7.70215C21.2745 7.50195 21.1866 7.2041 21.1085 7.0332C20.9376 6.67188 20.3712 5.78809 20.2247 5.66113C20.005 5.46094 19.6046 5.3877 19.3116 5.49023ZM19.7364 6.22266C19.8976 6.35449 20.503 7.38965 20.5519 7.63379C20.6593 8.12207 20.6397 8.1709 20.3126 8.3418C20.1515 8.4248 20.0099 8.4834 19.9952 8.46875C19.9806 8.4541 19.9708 8.19043 19.9708 7.8877C19.9708 7.36035 19.9659 7.32617 19.8487 7.21387C19.7853 7.14551 19.673 7.0918 19.6046 7.0918C19.5362 7.0918 19.4239 7.14551 19.3605 7.21387C19.253 7.32129 19.2384 7.37012 19.2384 7.72168V8.1123L18.9356 8.00977C18.7647 7.95117 18.6231 7.90234 18.6183 7.89746C18.6085 7.89258 18.6378 7.76074 18.6769 7.60449C18.7257 7.43359 18.8819 7.11133 19.0724 6.80371C19.3897 6.29102 19.4972 6.16406 19.6046 6.16406C19.6339 6.16406 19.6925 6.19336 19.7364 6.22266ZM21.8995 8.88867C22.1974 8.99121 23.1739 9.60645 23.213 9.71387C23.2667 9.8457 23.1251 9.99219 22.6612 10.2852C22.1778 10.5879 22.1681 10.5879 22.0069 10.3193L21.919 10.168H22.0411C22.3536 10.168 22.5636 9.91895 22.4659 9.66504C22.3927 9.47461 22.2706 9.43555 21.753 9.43555H21.2794L21.0353 9.2207C20.9034 9.09863 20.7911 8.98633 20.7862 8.96191C20.7716 8.90332 21.1476 8.81055 21.4112 8.80566C21.548 8.80566 21.7677 8.83984 21.8995 8.88867ZM3.6085 12.0967C4.1749 13.1074 4.63877 13.9424 4.63877 13.9521C4.63877 13.9668 4.51182 13.9766 4.35069 13.9766H4.06748L3.13975 12.3506L2.21201 10.7295L2.32432 10.4951C2.39268 10.3682 2.47569 10.2656 2.50986 10.2656C2.54893 10.2656 3.02256 11.0566 3.6085 12.0967ZM19.0577 11.2031C19.0675 11.2373 18.8575 11.877 18.5841 12.6191L18.0958 13.9766H17.837C17.6954 13.9766 17.5782 13.9619 17.5782 13.9375C17.5782 13.918 17.7882 13.3076 18.047 12.5752L18.5206 11.2471L18.7208 11.1982C19.004 11.1348 19.0284 11.1348 19.0577 11.2031ZM17.4269 12.1309C17.2901 12.5166 17.0851 13.0879 16.9776 13.4004L16.7726 13.9766H16.4942C16.338 13.9766 16.211 13.9619 16.211 13.9375C16.211 13.918 16.4015 13.4004 16.6261 12.7803C17.0899 11.5156 17.1241 11.4717 17.5636 11.4424C17.671 11.4375 17.6661 11.4619 17.4269 12.1309ZM2.41709 12.5703C2.75889 13.1709 3.08115 13.7324 3.13486 13.8154L3.23252 13.9766H2.92002H2.6124L2.08506 13.0342C1.79697 12.5166 1.5626 12.043 1.5626 11.9844C1.5626 11.8818 1.7335 11.4863 1.77744 11.4863C1.79209 11.4863 2.08018 11.9746 2.41709 12.5703ZM12.0216 11.8574C12.1192 11.9062 12.1534 11.9502 12.1192 11.9844C12.0948 12.0088 11.4845 12.4678 10.7618 13L9.44834 13.9717L8.94053 13.9766H8.42783L8.94053 13.6201C11.67 11.6963 11.6896 11.6865 12.0216 11.8574ZM24.1456 14.8311C24.2628 14.9434 24.2677 14.9775 24.2677 15.5342C24.2677 16.0029 24.2481 16.1738 24.17 16.3789C24.0431 16.7109 23.7306 17.0283 23.3985 17.1504C23.1544 17.2432 23.0177 17.248 20.6349 17.248C18.1739 17.248 18.1251 17.248 17.9981 17.3506C17.8224 17.4873 17.8224 17.7412 17.9981 17.8779C18.1251 17.9756 18.1837 17.9805 19.8536 17.9805C20.8058 17.9805 21.5821 17.9951 21.5772 18.0146C21.5772 18.0391 21.338 18.3809 21.0548 18.7812C20.6007 19.416 20.4981 19.5283 20.2638 19.6602L19.9952 19.8115H12.5001H5.00498L4.73643 19.6602C4.50205 19.5283 4.39951 19.416 3.94541 18.7812C3.66221 18.3809 3.42295 18.0391 3.42295 18.0146C3.41807 17.9951 6.39658 17.9805 10.0343 17.9805H16.6554L16.7726 17.8584C16.9288 17.707 16.9288 17.5215 16.7726 17.3701L16.6554 17.248H9.25791C1.99229 17.248 1.85557 17.248 1.60166 17.1504C1.26963 17.0283 0.957131 16.7109 0.830178 16.3789C0.752053 16.1738 0.732521 16.0029 0.732521 15.5342C0.732521 14.9775 0.737404 14.9434 0.854592 14.8311L0.971779 14.709H12.5001H24.0284L24.1456 14.8311Z" fill="#1E293B"/>
<path d="M5.12717 5.90039C4.70236 6.08594 4.64377 6.22754 4.54123 7.38965C4.42893 8.62012 4.46799 8.83008 4.88303 9.23047L5.07834 9.41602L4.76096 9.6748C4.39475 9.96777 4.31174 10.1143 4.39963 10.3242C4.46311 10.4756 4.57541 10.5586 4.73166 10.5586C4.78537 10.5586 5.0051 10.417 5.21994 10.2412C6.43576 9.25488 7.50022 8.82031 9.13108 8.65918C9.53635 8.61523 9.59983 8.62012 9.64377 8.68848C9.76584 8.88867 10.0442 9.15723 10.2151 9.24512C10.3567 9.31836 11.1086 9.44531 13.0959 9.7334C16.0891 10.1729 16.0256 10.168 16.3381 9.85547C16.5139 9.67969 16.6262 9.34766 16.5774 9.14746C16.5041 8.84961 15.8108 7.29688 15.674 7.13086C15.3713 6.76953 15.4201 6.7793 10.5959 6.08594L9.64377 5.94922L9.4094 6.06152C9.24826 6.13965 9.14084 6.2373 9.05783 6.37891C8.88694 6.67188 8.8967 6.91602 9.10666 7.39941C9.19944 7.61426 9.27756 7.81934 9.27756 7.84863C9.27756 7.92188 8.65256 7.99023 8.57444 7.92676C7.9885 7.47266 5.85959 5.94434 5.73752 5.89062C5.52756 5.80273 5.34201 5.80762 5.12717 5.90039ZM6.54807 7.3457L7.62717 8.1416L7.32932 8.23438L7.03147 8.33203L6.16721 7.74609L5.30295 7.15527L5.3176 6.8916C5.33225 6.61328 5.35178 6.55469 5.42502 6.55469C5.44944 6.55469 5.95236 6.91113 6.54807 7.3457ZM12.427 7.0918C13.7453 7.28223 14.8879 7.46777 14.9709 7.50195C15.1321 7.5752 15.3713 7.98535 15.2688 8.00488C15.2346 8.01465 14.0139 7.8584 12.549 7.66309L9.88791 7.30664L9.77072 7.07715C9.62912 6.78906 9.65842 6.68164 9.87815 6.71582C9.96115 6.73535 11.1135 6.90137 12.427 7.0918ZM5.76682 8.35645L6.25998 8.69824L6.00119 8.8252C5.78635 8.9375 5.73264 8.94727 5.63498 8.89844C5.45432 8.7959 5.22971 8.54199 5.21994 8.41016C5.20529 8.22949 5.21994 8.01953 5.24924 8.01953C5.26389 8.01953 5.49826 8.1709 5.76682 8.35645ZM15.5813 8.80078C15.674 8.80078 15.8938 9.28418 15.8303 9.34766C15.7961 9.38184 11.0354 8.71777 10.6447 8.625C10.4787 8.58594 10.3567 8.46875 10.2737 8.26855C10.2346 8.18066 10.2053 8.10254 10.2053 8.09766C10.2053 8.09277 11.3967 8.24902 12.8567 8.44434C14.3117 8.63965 15.5373 8.80078 15.5813 8.80078Z" fill="#1E293B"/>
<path d="M17.7834 9.31348C17.3879 9.48438 17.5197 10.0703 17.9543 10.0703C18.301 10.0703 18.4816 9.6748 18.2521 9.41602C18.1056 9.25977 17.9787 9.23047 17.7834 9.31348Z" fill="#767F8F"/>
<path d="M7.34863 9.69922C7.20703 9.75781 7.08008 9.94824 7.08008 10.0947C7.08008 10.1289 7.13867 10.2266 7.20703 10.3096C7.30469 10.4268 7.37305 10.4609 7.5 10.4609C7.85156 10.4609 8.03223 10.0654 7.80273 9.80664C7.65625 9.65039 7.5293 9.62109 7.34863 9.69922Z" fill="#767F8F"/>
<path d="M9.89258 10.124C9.82422 10.207 9.76562 10.3047 9.76562 10.3389C9.76562 10.4902 9.86816 10.6562 10.0049 10.7295C10.4102 10.9346 10.7959 10.4121 10.4736 10.0947C10.2979 9.91405 10.0537 9.9287 9.89258 10.124Z" fill="#767F8F"/>
<path d="M13.7354 10.412C13.4912 10.5097 13.4424 10.9247 13.6524 11.0907C13.999 11.3641 14.4385 11.0077 14.2774 10.5829C14.2432 10.4999 14.0088 10.3632 13.9063 10.3681C13.8721 10.3681 13.794 10.3876 13.7354 10.412Z" fill="#767F8F"/>
<path d="M8.10064 11.4521C7.89068 11.6133 7.86138 11.8623 8.0274 12.0527C8.11529 12.1553 8.18365 12.1895 8.32525 12.1895C8.46685 12.1895 8.53521 12.1553 8.6231 12.0527C8.68658 11.9795 8.74029 11.877 8.74029 11.8232C8.74029 11.6865 8.61333 11.457 8.52056 11.418C8.39361 11.3691 8.18365 11.3887 8.10064 11.4521Z" fill="#767F8F"/>
<path d="M20.3711 11.4229C20.293 11.4522 20.166 11.6963 20.166 11.8233C20.166 11.877 20.2197 11.9796 20.2832 12.0528C20.5859 12.4092 21.1572 12.0284 20.9375 11.6182C20.9082 11.5596 20.8496 11.4864 20.8057 11.4522C20.7275 11.3936 20.4883 11.3741 20.3711 11.4229Z" fill="#767F8F"/>
<path d="M14.922 12.0771C14.6828 12.2675 14.7853 12.7118 15.0832 12.7802C15.2443 12.8144 15.4982 12.7069 15.547 12.5849C15.7082 12.1601 15.2687 11.8036 14.922 12.0771Z" fill="#767F8F"/>
<path d="M5.83496 12.1797C5.67871 12.2627 5.61523 12.3701 5.61523 12.5655C5.61523 12.9121 6.03027 13.0781 6.27441 12.8291C6.47461 12.6338 6.43555 12.3164 6.19629 12.1944C6.03516 12.1065 5.9668 12.1065 5.83496 12.1797Z" fill="#767F8F"/>
<path d="M21.2354 12.8682C20.9131 13.1172 21.0645 13.6055 21.4697 13.6055C21.8213 13.6055 22.002 13.1709 21.7529 12.9268C21.6211 12.7949 21.3672 12.7656 21.2354 12.8682Z" fill="#767F8F"/>
</svg>
