<svg width="25" height="26" viewBox="0 0 25 26" fill="none" xmlns="http://www.w3.org/2000/svg">
<path d="M12.1062 15.5229C10.9342 15.5229 9.98071 14.5694 9.98071 13.3974C9.98071 13.1008 10.2212 12.8604 10.5178 12.8604C10.8144 12.8604 11.0549 13.1008 11.0549 13.3974C11.0549 13.9772 11.5265 14.4487 12.1062 14.4487C12.4028 14.4487 12.6433 14.6892 12.6433 14.9858C12.6433 15.2824 12.4028 15.5229 12.1062 15.5229Z" fill="#767F8F"/>
<path d="M7.73278 10.756C7.27338 10.7721 7.0105 10.1583 7.35306 9.8391L7.75012 9.44204C8.2355 8.94221 9.00978 9.71605 8.50961 10.2016C8.3167 10.3704 8.02633 10.7897 7.73278 10.756Z" fill="#767F8F"/>
<path d="M20.0472 5.98939C19.5878 6.00555 19.325 5.39171 19.6675 5.07253L20.0645 4.67543C20.5499 4.17564 21.3242 4.94935 20.8241 5.43502C20.6312 5.60381 20.3408 6.02313 20.0472 5.98939Z" fill="#767F8F"/>
<path d="M16.4721 16.7131C16.1799 16.7474 15.8865 16.3272 15.6952 16.1587C15.1954 15.6734 15.9692 14.899 16.4548 15.3992C16.4548 15.3991 16.8519 15.7962 16.8519 15.7962C17.1942 16.1153 16.9316 16.7294 16.4721 16.7131Z" fill="#767F8F"/>
<path d="M17.438 25.5007C15.1577 25.5007 12.9253 25.0425 10.7992 24.1378C8.70089 23.2449 6.8079 21.9631 5.17275 20.3281C3.53771 18.693 2.25592 16.8001 1.36304 14.7019C0.434751 12.5204 -0.0235321 10.2269 0.00092987 7.88468C0.00254114 6.71408 0.955386 5.76221 2.12639 5.76221H2.92059C4.09257 5.76221 5.04605 6.71569 5.04605 7.88766C5.04605 14.8171 10.6836 20.4547 17.6131 20.4547C18.785 20.4547 19.7385 21.4081 19.7385 22.5801V23.3743C19.7385 24.5453 18.7867 25.4982 17.6161 25.4998C17.5567 25.5004 17.4972 25.5007 17.438 25.5007ZM2.12639 6.83638C1.54667 6.83638 1.07511 7.308 1.07511 7.88766V7.89338C1.0297 12.1809 2.80009 16.4363 5.9323 19.5685C9.02524 22.6614 13.2136 24.4264 17.4461 24.4265C17.5 24.4265 17.5535 24.4262 17.6074 24.4256H17.6131C18.1928 24.4256 18.6644 23.954 18.6644 23.3743V22.5801C18.6644 22.0005 18.1928 21.5288 17.6131 21.5288C13.9694 21.5288 10.5438 20.1099 7.96733 17.5334C5.39086 14.957 3.97187 11.5314 3.97187 7.88766C3.97187 7.30795 3.50026 6.83638 2.92059 6.83638H2.12639Z" fill="#1E293B"/>
<path d="M24.8409 0.656547C24.6998 0.515488 24.4923 0.464367 24.3017 0.523398L4.63428 6.63327C4.84511 6.92115 4.98509 7.26377 5.02899 7.63548L23.6453 1.85216L17.8619 20.4684C18.2337 20.5123 18.5763 20.6524 18.8642 20.8631L24.974 1.19564C25.0332 1.00517 24.9819 0.797557 24.8409 0.656547Z" fill="#767F8F"/>
<path d="M20.0449 13.2566C19.0273 13.2566 18.1994 12.4287 18.1994 11.4111C18.1994 10.3935 19.0273 9.56563 20.0449 9.56563C20.4448 9.56563 20.8239 9.692 21.1389 9.92543L21.4692 8.86234C21.0393 8.62065 20.5529 8.49146 20.0449 8.49146C18.435 8.49146 17.1252 9.80122 17.1252 11.4111C17.1252 12.9297 18.2909 14.1807 19.7744 14.3177L20.1045 13.2551C20.0847 13.2557 20.0648 13.2566 20.0449 13.2566Z" fill="#1E293B"/>
<path d="M13.9449 6.64607C13.9449 7.66366 13.117 8.49156 12.0994 8.49156C11.0818 8.49156 10.2539 7.66366 10.2539 6.64607C10.2539 6.41195 10.2968 6.18642 10.381 5.97295L9.19648 6.34091C9.18574 6.44217 9.17969 6.54402 9.17969 6.64607C9.17969 8.25597 10.4895 9.56573 12.0994 9.56573C13.7093 9.56573 15.019 8.25597 15.019 6.64607C15.019 5.93633 14.7638 5.26883 14.3191 4.74951L13.1323 5.1182C13.6378 5.45959 13.9449 6.02739 13.9449 6.64607Z" fill="#1E293B"/>
<path d="M15.4179 12.2047C15.4179 12.5013 15.1775 12.7418 14.8809 12.7418C14.1685 12.7135 14.1687 11.6959 14.8809 11.6677C15.1775 11.6677 15.4179 11.9081 15.4179 12.2047Z" fill="#767F8F"/>
<path d="M17.7971 6.2477C17.7971 6.54429 17.5567 6.78477 17.26 6.78477C16.5476 6.75649 16.5479 5.73887 17.26 5.71069C17.5567 5.71064 17.7971 5.95112 17.7971 6.2477Z" fill="#767F8F"/>
<path d="M14.2283 17.3671C14.2283 17.6637 13.9878 17.9041 13.6912 17.9041C12.9788 17.8759 12.979 16.8583 13.6912 16.8301C13.9878 16.83 14.2283 17.0705 14.2283 17.3671Z" fill="#767F8F"/>
</svg>
