<svg width="24" height="24" viewBox="0 0 24 24" fill="none" xmlns="http://www.w3.org/2000/svg">
<g clip-path="url(#clip0_1_8042)">
<path d="M5.52649 0.135978C5.32024 0.346916 5.34836 0.510978 5.64836 0.848478C5.99055 1.23285 6.18742 1.71098 6.18742 2.15629C6.18742 2.46567 6.0843 2.70004 5.80305 3.03285C5.14211 3.82504 5.02961 4.78129 5.48899 5.70004C5.64367 6.00473 5.96242 6.37035 6.08899 6.37973C6.37492 6.39848 6.56242 6.25317 6.56242 6.00942C6.56242 5.89223 6.50617 5.77504 6.35149 5.56879C6.09836 5.23129 6.02336 5.00629 6.02336 4.57035C6.02336 4.16723 6.15461 3.86723 6.51555 3.42192C6.9093 2.9391 6.96086 2.7891 6.96086 2.15629C6.96086 1.65473 6.95149 1.59379 6.81086 1.2516C6.53899 0.60004 6.0468 4.05312e-05 5.7843 4.05312e-05C5.71399 4.05312e-05 5.60617 0.0562906 5.52649 0.135978Z" fill="#767F8F"/>
<path d="M21.8203 0.154686C20.4891 0.707811 19.1531 1.75312 18.225 2.97656C17.3625 4.11562 16.8188 6.15 16.5234 9.36562L16.4906 9.70781L15.6141 9.67031C14.2125 9.60937 8.63438 9.62812 7.54688 9.69375C3.48281 9.94687 1.67813 10.1953 0.834375 10.6219C0.501563 10.7906 0.421875 10.9219 0.421875 11.2922C0.421875 12.4547 0.871875 14.2266 1.49531 15.4969C2.11406 16.7625 2.67188 17.5406 3.68438 18.5531L4.40625 19.275V20.5125C4.40625 21.9375 4.42031 22.0031 4.79063 22.3875C5.5125 23.1328 7.37344 23.6859 9.9375 23.9109C10.8141 23.9906 13.1859 23.9906 14.0625 23.9109C16.6266 23.6859 18.4875 23.1328 19.2094 22.3875C19.575 22.0078 19.5938 21.9281 19.5938 20.6062V19.4625L20.0578 19.0547C21.6234 17.6812 22.7578 15.8203 23.2781 13.7672C23.4516 13.0828 23.5781 12.1406 23.5781 11.5219C23.5781 11.0109 23.5688 10.9687 23.4609 10.8375C23.1609 10.4812 22.0594 10.1953 20.1562 9.98437C19.7063 9.93281 19.3172 9.89062 19.2938 9.89062C19.2141 9.89062 19.3828 7.74375 19.5516 6.58594C19.6594 5.83125 19.8234 5.13281 19.9828 4.74375C20.325 3.88594 21.2766 2.95312 22.5797 2.18437C23.2641 1.78125 23.4375 1.54219 23.4375 1.03594C23.4328 0.473436 22.9359 0 22.3594 0C22.2703 0 22.0266 0.0703125 21.8203 0.154686ZM22.5563 0.876562C22.6406 0.956249 22.6641 1.10625 22.6031 1.2C22.5844 1.23281 22.3828 1.36406 22.1484 1.50469C20.8078 2.29219 19.8375 3.22969 19.35 4.19531C19.1016 4.67812 18.8859 5.55937 18.7266 6.67969C18.5719 7.81406 18.4219 9.95625 18.4219 11.1187V11.7609L18.2719 11.7844C18.1875 11.7984 17.9062 11.8219 17.6531 11.8359L17.1891 11.8641L17.2219 11.1C17.3719 7.59375 17.9203 4.87031 18.7172 3.67031C19.4062 2.63437 20.5031 1.69687 21.7875 1.05C22.3313 0.778124 22.425 0.754686 22.5563 0.876562ZM16.0219 10.4812L16.4578 10.5094L16.425 11.1984C16.4063 11.5734 16.3922 11.8875 16.3875 11.8922C16.3828 11.8969 15.6 11.925 14.6484 11.9578C11.8688 12.0469 7.92188 11.9672 5.36719 11.7656C3.71719 11.6344 1.54688 11.3156 1.54688 11.2031C1.54688 11.1891 1.70156 11.1375 1.88906 11.0953C3.22969 10.7859 5.87344 10.5469 9.1875 10.4344C9.88594 10.4109 15.5344 10.4531 16.0219 10.4812ZM20.4844 10.8094C20.9344 10.8703 21.4969 10.9734 22.2797 11.1422C22.35 11.1562 22.4062 11.1844 22.4062 11.2031C22.4062 11.2219 22.35 11.25 22.2797 11.2641C22.2047 11.2734 21.8859 11.3391 21.5625 11.4047C21.0047 11.5219 20.2172 11.6297 19.5375 11.6906L19.2188 11.7234V11.1984V10.6781L19.5844 10.7109C19.7812 10.725 20.1891 10.7719 20.4844 10.8094ZM2.10938 12.1594C4.33125 12.6281 10.2281 12.9047 14.8359 12.7547C18.5906 12.6328 20.7281 12.4359 22.2891 12.0703C22.5469 12.0094 22.7578 11.9625 22.7625 11.9672C22.7672 11.9719 22.7484 12.1406 22.7297 12.3469C22.5844 13.6406 22.0781 15.1172 21.4031 16.2047C20.9813 16.8891 20.6016 17.3766 20.0672 17.925C19.4906 18.5109 19.0828 18.8578 18.4922 19.2469C16.5375 20.5453 14.4328 21.1875 12.0938 21.1875C9.04219 21.1875 6.33281 20.0766 4.21875 17.9578C2.60625 16.3406 1.67813 14.4937 1.28906 12.1312L1.26094 11.9578L1.41563 12.0047C1.5 12.0281 1.81406 12.0984 2.10938 12.1594ZM5.66719 20.1516C6.67031 20.8078 8.26406 21.4641 9.51562 21.7266C11.0109 22.0406 12.6891 22.0734 14.1797 21.8156C15.6656 21.5578 17.1516 21.0187 18.3563 20.2922C18.5672 20.1656 18.7547 20.0625 18.7688 20.0625C18.7828 20.0625 18.7969 20.4328 18.7969 20.8828V21.6984L18.6375 21.8578C18.3516 22.1437 17.5406 22.4859 16.6172 22.7062C15.2063 23.0484 13.9594 23.175 12 23.175C10.0406 23.175 8.79375 23.0484 7.38281 22.7062C6.45938 22.4859 5.64844 22.1437 5.3625 21.8578L5.20312 21.6984V20.7891C5.20312 20.2875 5.2125 19.875 5.22656 19.875C5.23594 19.875 5.4375 20.0016 5.66719 20.1516Z" fill="#1E293B"/>
<path d="M2.60623 13.3173C2.43279 13.4532 2.44685 13.6595 2.65779 14.1938C2.84529 14.6673 2.94841 14.7798 3.19685 14.7798C3.37029 14.7798 3.56248 14.5876 3.56248 14.4142C3.56248 14.2548 3.23904 13.4532 3.12654 13.322C3.00466 13.1907 2.77498 13.186 2.60623 13.3173Z" fill="#767F8F"/>
<path d="M3.82033 15.7266C3.63283 15.9094 3.66564 16.0969 3.9422 16.4532C5.09533 17.9344 6.74064 19.1438 8.43283 19.7532C8.79845 19.8844 8.90626 19.8797 9.08439 19.7203C9.20626 19.6078 9.22033 19.3828 9.1172 19.2328C9.0797 19.1766 8.8547 19.0594 8.60626 18.961C7.20001 18.4172 5.86876 17.4891 4.95939 16.4157C4.29845 15.6375 4.27033 15.6094 4.0922 15.6094C3.98439 15.6094 3.89533 15.6469 3.82033 15.7266Z" fill="#767F8F"/>
<path d="M14.1422 0.487546C14.1 0.520359 14.0391 0.614109 14.011 0.698484C13.9547 0.862546 13.9688 0.895359 14.3579 1.41098C14.6485 1.79536 14.775 2.14223 14.7797 2.5313C14.7797 2.87817 14.7094 3.04692 14.4329 3.37973C13.6641 4.30786 13.5891 5.38598 14.2266 6.34692C14.5172 6.78286 14.7844 6.89536 15.0282 6.68442C15.225 6.51567 15.2063 6.3188 14.9625 5.99536C14.7047 5.65786 14.6157 5.39536 14.611 4.99223C14.611 4.57505 14.7422 4.26567 15.1125 3.81567C15.675 3.13598 15.7407 2.36255 15.3188 1.46723C15.1641 1.13911 14.8219 0.660984 14.6391 0.515671C14.5032 0.407859 14.2641 0.393796 14.1422 0.487546Z" fill="#767F8F"/>
<path d="M9.81568 2.45636C9.64693 2.53136 9.54381 2.75636 9.60474 2.92042C9.62818 2.97667 9.73131 3.12667 9.84381 3.25792C10.2235 3.71261 10.4485 4.33136 10.3782 4.72042C10.336 4.95948 10.2422 5.13292 10.0079 5.41417C9.33287 6.22511 9.21568 7.18604 9.68912 8.12354C9.82506 8.39073 10.1016 8.71417 10.2563 8.77042C10.411 8.83136 10.6735 8.70948 10.7391 8.54542C10.8001 8.37667 10.7672 8.25948 10.5891 8.03448C10.2797 7.64542 10.1532 7.20011 10.2235 6.75011C10.2751 6.43136 10.3782 6.22979 10.6969 5.84073C11.1516 5.28761 11.2829 4.76729 11.1329 4.09698C11.0907 3.89073 10.9688 3.56729 10.8704 3.37042C10.7016 3.04698 10.3313 2.55011 10.2001 2.47979C10.0735 2.40479 9.95162 2.40011 9.81568 2.45636Z" fill="#767F8F"/>
</g>
<defs>
<clipPath id="clip0_1_8042">
<rect width="24" height="24" fill="white"/>
</clipPath>
</defs>
</svg>
