<svg width="25" height="26" viewBox="0 0 25 26" fill="none" xmlns="http://www.w3.org/2000/svg">
<g clip-path="url(#clip0_1_8085)">
<path d="M18.4764 14.5299C16.7792 14.5299 15.4497 13.638 15.4497 12.4993C15.5441 9.80859 21.4096 9.80971 21.5031 12.4993C21.5031 13.638 20.1736 14.5299 18.4764 14.5299ZM18.4764 11.5419C17.3584 11.5419 16.523 12.0474 16.523 12.4993C16.523 12.9512 17.3584 13.4567 18.4764 13.4567C19.5944 13.4567 20.4298 12.9512 20.4298 12.4993C20.4298 12.0474 19.5944 11.5419 18.4764 11.5419Z" fill="#1E293B"/>
<path d="M23.0298 8.89149C20.05 6.59593 14.4717 7.07017 12.4993 10.4677C10.527 7.07027 4.94821 6.59594 1.96875 8.89154C0.698691 9.84401 -0.000732422 11.1252 -0.000732422 12.4991V16.9811C-0.000732422 18.3549 0.698691 19.6361 1.96875 20.5886C4.94836 22.8839 10.5269 22.4103 12.4993 19.0125C14.4717 22.41 20.0503 22.8843 23.0298 20.5886C24.2998 19.6361 24.9993 18.3549 24.9993 16.9811V12.4991C24.9993 11.1252 24.2998 9.84401 23.0298 8.89149ZM18.4754 8.56478C21.4685 8.56478 23.9037 10.3297 23.9037 12.4991C23.6232 17.714 13.3259 17.7117 13.0471 12.499C13.0471 10.3297 15.4822 8.56478 18.4754 8.56478ZM6.52317 8.56478C9.51634 8.56478 11.9515 10.3297 11.9515 12.4991C11.6711 17.714 1.37367 17.7117 1.09487 12.499C1.09487 10.3297 3.53 8.56478 6.52317 8.56478ZM6.52317 20.9154C3.53 20.9154 1.09487 19.1505 1.09487 16.9811V15.299C3.67854 18.2687 9.36779 18.2687 11.9515 15.299V16.9811C11.9515 19.1505 9.51634 20.9154 6.52317 20.9154ZM23.9037 16.9811C23.6224 22.1971 13.3255 22.1928 13.0471 16.9811V15.2991C15.6307 18.2687 21.32 18.2688 23.9037 15.2991V16.9811Z" fill="#767F8F"/>
<path d="M6.52254 14.5299C4.82532 14.5299 3.49585 13.638 3.49585 12.4993C3.59025 9.80859 9.45566 9.80971 9.54918 12.4993C9.54922 13.638 8.21975 14.5299 6.52254 14.5299ZM6.52254 11.5419C5.40454 11.5419 4.56911 12.0474 4.56911 12.4993C4.56911 12.9512 5.40449 13.4567 6.52254 13.4567C7.64058 13.4567 8.47597 12.9512 8.47597 12.4993C8.47597 12.0474 7.64053 11.5419 6.52254 11.5419Z" fill="#1E293B"/>
<path d="M21.938 8.23029C23.1493 7.6722 23.9926 6.44771 23.9926 5.02881V4.53077C23.9926 4.2344 23.7524 3.99414 23.456 3.99414H21.464C20.2055 3.99414 19.0996 4.65756 18.4759 5.65257C17.8522 4.65756 16.7464 3.99414 15.4879 3.99414H13.4959C13.1995 3.99414 12.9592 4.2344 12.9592 4.53077V5.02881C12.9592 6.44761 13.8024 7.6723 15.0135 8.23044C16.0412 7.73479 17.2331 7.46901 18.4759 7.46901C19.7186 7.46901 20.9104 7.73474 21.938 8.23029ZM21.464 5.0674H22.9191C22.8984 6.40141 21.8068 7.48023 20.4679 7.48023H19.0128C19.0335 6.14622 20.1251 5.0674 21.464 5.0674ZM16.4839 7.48023C15.1451 7.48023 14.0535 6.40141 14.0328 5.0674H15.4879C16.8267 5.0674 17.9183 6.14622 17.939 7.48023H16.4839Z" fill="#1E293B"/>
</g>
<defs>
<clipPath id="clip0_1_8085">
<rect width="25" height="25" fill="white" transform="translate(0 0.5)"/>
</clipPath>
</defs>
</svg>
