<svg width="23" height="23" viewBox="0 0 23 23" fill="none" xmlns="http://www.w3.org/2000/svg">
<path d="M15.8738 1.02156L15.8725 1.02255C15.7995 1.08097 15.7132 1.19567 15.6342 1.31632C15.5515 1.44262 15.4649 1.59435 15.3924 1.74277C15.2169 2.09728 15.1082 2.25527 14.9569 2.34313C14.8002 2.43404 14.5748 2.46392 14.1155 2.47452L14.1152 2.47453C13.8405 2.48148 13.6494 2.492 13.5122 2.51486C13.3729 2.53808 13.271 2.57676 13.1889 2.65254C13.1488 2.68799 13.1065 2.74074 13.0661 2.79655C13.0231 2.85588 12.9755 2.92822 12.9259 3.00824C12.8266 3.16844 12.7157 3.36481 12.6122 3.56085C12.5087 3.75684 12.4114 3.9547 12.3395 4.11802C12.3036 4.19949 12.2733 4.2743 12.2515 4.337C12.2322 4.39288 12.2123 4.45905 12.2123 4.51359C12.2123 4.65588 12.2566 4.80784 12.3369 4.97502C12.4174 5.14261 12.5383 5.3339 12.7012 5.55705L12.7014 5.5573C12.8425 5.7497 12.9096 5.92762 12.9174 6.08926C12.9251 6.24871 12.8759 6.40667 12.7581 6.56365C12.635 6.7279 12.518 6.93695 12.4315 7.1335C12.3478 7.32392 12.282 7.52633 12.282 7.6714C12.282 7.73524 12.3053 7.80962 12.3303 7.87537C12.3574 7.94682 12.3953 8.02975 12.4398 8.11838C12.5289 8.29598 12.649 8.50535 12.7753 8.7076C12.9016 8.90981 13.0359 9.10783 13.1539 9.2623C13.2128 9.33932 13.2693 9.40776 13.32 9.4611C13.3649 9.50832 13.4228 9.56311 13.4839 9.58794L13.4899 9.59036L13.4899 9.59023C13.5306 9.60476 13.5844 9.61413 13.6375 9.62087C13.6938 9.62801 13.7607 9.63351 13.8336 9.63712C13.9788 9.64434 14.153 9.64436 14.3224 9.6336C14.691 9.61645 14.9218 9.63942 15.0833 9.70679C15.2346 9.76987 15.3408 9.87877 15.4417 10.0807L15.4429 10.0831L15.443 10.0831C15.565 10.3164 15.7089 10.5434 15.8444 10.7207C15.9121 10.8093 15.9795 10.8879 16.0428 10.9495C16.102 11.007 16.1718 11.064 16.2446 11.0894L16.2502 11.0913L16.2502 11.0912C16.2894 11.1031 16.3493 11.1088 16.4049 11.1127C16.4671 11.1171 16.5455 11.1204 16.6338 11.1228C16.8107 11.1276 17.0322 11.1286 17.2539 11.1265C17.4755 11.1243 17.6988 11.1188 17.8792 11.1103C17.9693 11.106 18.0498 11.101 18.1146 11.0951C18.1746 11.0896 18.2345 11.0824 18.2744 11.0706L18.2749 11.0705C18.3243 11.0556 18.3664 11.0231 18.3949 10.9984C18.4273 10.9703 18.461 10.9353 18.4946 10.897C18.5619 10.8203 18.6364 10.7211 18.7088 10.6146C18.8517 10.4042 18.998 10.1474 19.0636 9.95821L19.0637 9.95794C19.1203 9.79369 19.2139 9.68695 19.3778 9.61383C19.5522 9.53595 19.8112 9.49431 20.2 9.48741C20.2001 9.48741 20.2002 9.48741 20.2002 9.48741L20.1976 9.33743C20.6646 9.33046 20.8877 9.30258 21.0062 9.21196L15.8738 1.02156ZM15.8738 1.02156C15.9206 0.984957 15.9704 0.951784 16.0348 0.925827C16.098 0.900365 16.1685 0.884571 16.2548 0.87403C16.4227 0.853501 16.6772 0.850266 17.1025 0.850266H18.0645H18.1331L18.1779 0.902143L18.4001 1.15898C18.5364 1.31088 18.7177 1.5942 18.8073 1.79505C18.9275 2.04853 19.0247 2.1675 19.1757 2.2374C19.3413 2.31405 19.5916 2.34203 20.0512 2.34203L20.0524 2.34204C20.0798 2.34225 20.1065 2.34242 20.1326 2.34259C20.3136 2.34375 20.4625 2.3447 20.5851 2.35843C20.7314 2.37481 20.8554 2.41052 20.9721 2.49359C21.0841 2.57338 21.1781 2.68911 21.2805 2.84171C21.3676 2.97151 21.4679 3.13905 21.5945 3.3504C21.617 3.38802 21.6403 3.42703 21.6646 3.46746L22.0619 4.12969L22.095 4.18486L22.0779 4.24686L21.9873 4.57449L21.9874 4.57452L21.9856 4.58022C21.9257 4.76742 21.7801 5.08025 21.6392 5.28793L21.639 5.28815C21.4866 5.51194 21.4214 5.70725 21.4228 5.88653C21.4242 6.06483 21.4917 6.24687 21.6416 6.44453C21.7819 6.62927 21.9494 6.9273 22.0245 7.12262L22.0246 7.12282L22.1501 7.45045L22.174 7.51298L22.1435 7.57257L21.7322 8.37422L21.7316 8.37535C21.6146 8.5987 21.4884 8.8138 21.3783 8.98214C21.3233 9.06616 21.2713 9.14019 21.2255 9.19839C21.1858 9.24888 21.1393 9.30273 21.093 9.33434L15.8738 1.02156ZM18.6569 3.46828L18.6573 3.46847C18.9643 3.62882 19.1498 3.72366 19.2866 3.76289C19.3611 3.78425 19.4279 3.79154 19.497 3.78348C19.5608 3.77603 19.6193 3.75605 19.6748 3.73533C19.8003 3.69608 19.9833 3.65978 20.0791 3.65978C20.1601 3.65978 20.1797 3.66923 20.2057 3.6921C20.2499 3.731 20.306 3.8112 20.4173 3.99787L20.4189 4.00058L20.4189 4.00056C20.4865 4.10868 20.5469 4.21624 20.59 4.30148C20.6111 4.34341 20.6272 4.3782 20.6377 4.40402C20.6278 4.41881 20.6143 4.43741 20.5971 4.4594C20.5509 4.5184 20.4853 4.59232 20.4122 4.66544L20.1333 4.94428L20.0894 4.98821V5.05035V5.88685V6.72336V6.78749L20.1358 6.8318L20.4482 7.13036C20.5325 7.21474 20.6067 7.29575 20.6589 7.35993C20.6801 7.38611 20.6963 7.40777 20.7077 7.42454C20.6976 7.45032 20.6827 7.48497 20.6634 7.52671C20.6241 7.61202 20.57 7.72035 20.512 7.82955C20.4485 7.9428 20.3991 8.02238 20.3545 8.07874C20.3105 8.13427 20.2774 8.15898 20.2496 8.17142C20.1916 8.19736 20.1036 8.19508 19.8621 8.12658L19.8598 8.12594L19.8598 8.12596C19.8544 8.12453 19.8491 8.12311 19.8439 8.1217C19.7004 8.08334 19.5858 8.05268 19.4348 8.09396C19.3633 8.1135 19.2879 8.14757 19.1992 8.19363C19.1105 8.23966 19 8.3022 18.8577 8.38279L18.855 8.38435L18.8544 8.38463C18.4459 8.6181 18.1985 8.7655 18.0489 8.90825C17.9696 8.98396 17.9145 9.06089 17.875 9.15041C17.837 9.23677 17.8163 9.32911 17.7984 9.42913M18.6569 3.46828L17.7983 9.42957C17.7983 9.42942 17.7984 9.42928 17.7984 9.42913M18.6569 3.46828C18.317 3.28957 18.0718 3.13812 17.9104 2.99579C17.7479 2.85253 17.6496 2.69994 17.6496 2.51992L17.6496 2.51973L17.6496 2.51917L17.6494 2.51704L17.6486 2.50947C17.6478 2.503 17.6464 2.49476 17.6443 2.48475C17.6401 2.46464 17.6336 2.44026 17.6251 2.41327C17.6082 2.35954 17.5853 2.30152 17.5617 2.254C17.5307 2.19582 17.5166 2.17338 17.5042 2.16051L17.504 2.16035C17.4992 2.15535 17.4936 2.14945 17.4673 2.14476C17.4334 2.13869 17.3776 2.13725 17.2778 2.14472C17.18 2.15205 17.0514 2.16686 16.8764 2.18786L16.8751 2.18801C16.7017 2.20727 16.6144 2.25086 16.5667 2.30309C16.5196 2.35457 16.4857 2.44223 16.4857 2.61054C16.4857 2.77476 16.4174 2.90784 16.2681 3.04703C16.1267 3.17875 15.8992 3.32899 15.5555 3.53383C15.2795 3.70075 15.1024 3.80474 14.9163 3.8469C14.7273 3.88971 14.5392 3.86672 14.253 3.82584L13.9991 3.79598L13.804 4.14727L13.8039 4.14745C13.7443 4.25435 13.7012 4.33271 13.6707 4.39404C13.6396 4.45648 13.6264 4.49198 13.6213 4.51439C13.6175 4.5313 13.6191 4.53664 13.6208 4.54196C13.6247 4.55426 13.6338 4.57251 13.6606 4.61533L13.6607 4.61527L13.6636 4.62041C13.7073 4.69681 13.8317 4.8364 13.9374 4.92917C13.9862 4.96958 14.0366 5.01219 14.0775 5.06521C14.1219 5.12291 14.1507 5.18652 14.1704 5.26602C14.2064 5.41077 14.2169 5.63419 14.2339 6.01912C14.2339 6.0193 14.234 6.01947 14.234 6.01964L14.2757 6.83418L14.2791 6.89972L14.2332 6.94667L13.9422 7.2447C13.87 7.3236 13.8036 7.40639 13.7562 7.47511C13.7322 7.50993 13.7148 7.5386 13.7041 7.55965C13.7027 7.56249 13.7014 7.56501 13.7004 7.5672C13.7019 7.57255 13.7041 7.57989 13.7074 7.58947C13.7171 7.61738 13.732 7.65379 13.7517 7.69704C13.7911 7.78316 13.8462 7.88849 13.907 7.9932C13.9615 8.08648 14.0007 8.15234 14.0339 8.20118C14.0673 8.2502 14.0883 8.27209 14.103 8.2834C14.124 8.29946 14.1467 8.3091 14.2932 8.3091C14.3636 8.3091 14.4314 8.30136 14.4814 8.29065C14.4986 8.28696 14.5119 8.28331 14.5213 8.28023C14.573 8.21531 14.6469 8.1823 14.725 8.17293C14.8088 8.16287 14.9025 8.17862 14.9995 8.20715C15.1947 8.26456 15.4563 8.39032 15.7885 8.57913C16.0657 8.7316 16.2503 8.84155 16.3695 8.93569C16.4931 9.0334 16.5644 9.12836 16.5876 9.25331C16.605 9.339 16.674 9.51801 16.7351 9.64747L16.8157 9.80409L17.2346 9.78711C17.2348 9.7871 17.235 9.78709 17.2352 9.78708C17.3746 9.78026 17.5075 9.76841 17.6081 9.75438C17.6551 9.74783 17.6926 9.74114 17.7195 9.7349M18.6569 3.46828L17.7195 9.7349M17.7984 9.42913C17.7819 9.51801 17.7606 9.60483 17.7405 9.67147C17.7328 9.69693 17.7257 9.71823 17.7195 9.7349M17.7984 9.42913L17.7195 9.7349M20.7191 7.3915C20.719 7.39155 20.7188 7.3922 20.7186 7.39338L20.7191 7.3915Z" fill="#4B5B73" stroke="#4B5B73" stroke-width="0.3"/>
<path d="M17.318 7.95929C17.3183 7.95926 17.3186 7.95923 17.3189 7.9592L17.3048 7.80986C17.8137 7.76804 18.1971 7.56588 18.5456 7.17551C19.1451 6.49237 19.1451 5.47462 18.5456 4.79147C18.3922 4.6172 18.1413 4.41505 17.981 4.3314C17.6394 4.15712 16.8935 4.10136 16.5659 4.22683M17.318 7.95929C17.8676 7.91391 18.2855 7.69202 18.6575 7.27542L18.6584 7.27446L18.6583 7.27445C19.3075 6.5347 19.3075 5.43229 18.6583 4.69254L18.6582 4.69238C18.495 4.50696 18.23 4.29213 18.0503 4.19841L18.0491 4.19778L18.0491 4.19778C17.8525 4.09745 17.5576 4.03777 17.2793 4.01712C17.0028 3.99661 16.7078 4.01197 16.5126 4.08662M17.318 7.95929C16.5168 8.03452 15.7992 7.63871 15.4026 6.91283L15.4025 6.91274C15.3163 6.75475 15.2585 6.62784 15.2244 6.48327C15.1906 6.34026 15.182 6.18834 15.182 5.98349C15.182 5.77528 15.1906 5.6233 15.2244 5.48023C15.2585 5.33585 15.3162 5.20907 15.4018 5.04852L15.4018 5.04851L15.403 5.04646C15.636 4.62538 16.0538 4.25969 16.5126 4.08662M17.318 7.95929L15.5342 5.11911C15.7503 4.72874 16.1407 4.38716 16.5659 4.22683M16.5126 4.08662C16.5127 4.08657 16.5128 4.08652 16.513 4.08648L16.5659 4.22683M16.5126 4.08662C16.5125 4.08666 16.5124 4.08671 16.5122 4.08675L16.5659 4.22683M16.5738 5.66862L16.5736 5.66898C16.2295 6.3347 17.0411 6.96405 17.6071 6.44513C17.7195 6.33974 17.7599 6.29064 17.7809 6.24292C17.8017 6.19573 17.8101 6.13452 17.8101 5.98349C17.8101 5.83247 17.8017 5.77126 17.7809 5.72407C17.76 5.67645 17.7196 5.62747 17.6078 5.52257C17.515 5.43976 17.4504 5.3945 17.3922 5.36827C17.3373 5.34355 17.2797 5.33198 17.1948 5.33184C16.8964 5.33837 16.6756 5.47047 16.5738 5.66862Z" fill="#4B5B73" stroke="#4B5B73" stroke-width="0.3"/>
<path d="M3.06265 1.13788L3.06306 1.1378C3.12955 1.12493 3.25712 1.11541 3.41759 1.1075C3.5825 1.09937 3.79373 1.09253 4.03528 1.08696C4.51854 1.07582 5.12614 1.06971 5.73331 1.06884C6.34048 1.06797 6.94809 1.07233 7.43137 1.08216C7.67292 1.08708 7.88418 1.09337 8.04912 1.10111C8.20873 1.1086 8.33602 1.11783 8.40298 1.13064C9.27121 1.29251 9.96648 1.81689 10.3502 2.59176L10.3504 2.59205L10.5804 3.0591L10.5958 3.09044V3.12538V5.98344V8.8415V8.87643L10.5804 8.90777L10.3504 9.37482L10.3503 9.37494C10.0617 9.95965 9.66549 10.3304 9.01933 10.6426L9.01933 10.6426L9.01784 10.6433L8.55777 10.8594L8.52747 10.8736H8.49399H5.77535H5.76433C4.43234 10.8736 3.74825 10.8736 3.34972 10.8534C3.14887 10.8432 3.01353 10.8276 2.90076 10.8024C2.78667 10.7768 2.70076 10.7425 2.60256 10.7021C2.00238 10.4575 1.42479 9.90797 1.13051 9.30486C1.13046 9.30477 1.13042 9.30469 1.13038 9.3046L0.900593 8.83806L0.885156 8.80672V8.77179V5.98344V3.19509V3.16136L0.899596 3.13087L1.08728 2.73465C1.08737 2.73446 1.08746 2.73427 1.08755 2.73407C1.4619 1.92714 2.23167 1.30111 3.06265 1.13788ZM9.18448 3.19649L9.18399 3.19556C9.09554 3.02849 9.00577 2.90576 8.89677 2.80515C8.78756 2.70433 8.65294 2.62009 8.46788 2.53746C8.39772 2.50646 8.34284 2.48518 8.26501 2.46839C8.18443 2.45102 8.07501 2.43762 7.89703 2.42821C7.53977 2.40931 6.93143 2.4075 5.77581 2.41099H5.77535C4.42406 2.41099 3.74008 2.41483 3.3378 2.46807C3.14054 2.49418 3.02276 2.53096 2.93202 2.57889C2.84011 2.62744 2.766 2.6923 2.65821 2.79487L2.6578 2.79526C2.52962 2.91633 2.44968 2.99384 2.39026 3.0876C2.3334 3.17732 2.29058 3.29049 2.26038 3.48476C2.19818 3.88483 2.19593 4.57469 2.19593 5.98344C2.19593 7.1247 2.19946 7.75478 2.21754 8.13111C2.23554 8.50567 2.26749 8.6092 2.31402 8.70774L2.31403 8.70773L2.31502 8.70991C2.3874 8.86973 2.52868 9.04682 2.6986 9.19704C2.86881 9.34751 3.05226 9.45737 3.19983 9.49818C3.23144 9.50617 3.30996 9.51606 3.44867 9.5247C3.58396 9.53312 3.7653 9.53982 3.99308 9.54459C4.44839 9.55413 5.08454 9.55588 5.89949 9.54892C7.01992 9.53845 7.63423 9.52973 7.99662 9.50907C8.35813 9.48847 8.44626 9.45661 8.52818 9.41309L8.52825 9.41305C8.84585 9.24453 9.03171 9.06318 9.18357 8.77211L9.18356 8.77211L9.18449 8.77038C9.21917 8.70598 9.24009 8.66315 9.25679 8.59662C9.2745 8.52603 9.2885 8.42389 9.29836 8.2434C9.31811 7.88177 9.31992 7.24066 9.31992 5.98344C9.31992 4.72621 9.31811 4.0851 9.29836 3.72347C9.2885 3.54298 9.2745 3.44084 9.25679 3.37025C9.24009 3.30372 9.21917 3.26089 9.18448 3.19649Z" fill="#4B5B73" stroke="#4B5B73" stroke-width="0.3"/>
<path d="M8.51461 13.7913L8.4566 13.9297C8.37735 13.8964 8.23853 13.8699 7.8312 13.855C7.4302 13.8403 6.79015 13.8368 5.72625 13.8368C4.50756 13.8368 3.87659 13.8386 3.51384 13.8575C3.33293 13.8669 3.22625 13.8803 3.15016 13.8977C3.07798 13.9142 3.0293 13.9351 2.96303 13.9674C2.64141 14.1318 2.36525 14.4484 2.26632 14.7675C2.26354 14.7781 2.25858 14.806 2.25309 14.8577C2.24771 14.9085 2.24256 14.9743 2.23772 15.0537C2.22807 15.2124 2.21996 15.4209 2.21344 15.6633C2.20042 16.148 2.19389 16.7644 2.19389 17.3813C2.19389 17.9983 2.20042 18.6147 2.21344 19.0993C2.21996 19.3418 2.22807 19.5503 2.23772 19.709C2.24256 19.7884 2.24771 19.8542 2.25309 19.9049C2.25858 19.9566 2.26354 19.9846 2.26631 19.9952C2.36534 20.3145 2.64835 20.6373 2.96833 20.7945C3.03673 20.827 3.087 20.8482 3.1611 20.8649C3.23882 20.8823 3.3472 20.8958 3.5303 20.9052C3.89747 20.9241 4.53547 20.9259 5.76808 20.9259C6.99723 20.9259 7.63344 20.9241 7.99796 20.9052C8.17983 20.8958 8.28634 20.8823 8.36158 20.865C8.4329 20.8486 8.48004 20.8279 8.54465 20.7956C8.90713 20.611 9.14981 20.3224 9.25596 19.9602L9.25595 19.9602L9.25645 19.9586C9.27032 19.9132 9.28625 19.8074 9.30079 19.6406C9.31489 19.479 9.32676 19.2728 9.33629 19.0361C9.35536 18.5629 9.36493 17.9725 9.36493 17.3813C9.36493 16.7902 9.35536 16.1997 9.33629 15.7266C9.32676 15.4899 9.31489 15.2837 9.30079 15.1221C9.28625 14.9553 9.27032 14.8495 9.25645 14.8041L9.25616 14.8032C9.15106 14.4507 8.81431 14.0803 8.4564 13.9296L8.51461 13.7913ZM8.51461 13.7913C8.91195 13.9586 9.2814 14.363 9.39991 14.7603C9.55327 15.2622 9.55327 19.5005 9.39991 20.0024M8.51461 13.7913C8.29851 13.7007 7.85237 13.6868 5.72625 13.6868C3.29342 13.6868 3.18188 13.6937 2.89608 13.8332C2.54056 14.0144 2.23385 14.363 2.12231 14.7254L9.39991 20.0024M9.39991 20.0024C9.2814 20.4067 9.00954 20.7274 8.6122 20.9295C8.33336 21.0689 8.22183 21.0759 5.76808 21.0759C3.30736 21.0759 3.19583 21.0689 2.90305 20.9295C2.54753 20.7552 2.23385 20.3997 2.12231 20.0372L9.39991 20.0024ZM0.996156 14.4021L0.99638 14.4014C1.26175 13.5611 1.88925 12.9194 2.72762 12.6252C2.90549 12.562 3.08007 12.5298 3.50862 12.5148C3.93519 12.4998 4.62719 12.5016 5.84571 12.5121C5.84582 12.5121 5.84593 12.5121 5.84605 12.5121L8.56417 12.526L8.59711 12.5262L8.62695 12.5401L9.05893 12.7422C9.3326 12.8696 9.61301 13.0779 9.85371 13.315C10.0942 13.5519 10.3033 13.8257 10.4279 14.0899L10.428 14.0902C10.4677 14.1751 10.5021 14.2527 10.5273 14.3657C10.5517 14.4753 10.5665 14.6134 10.5762 14.8222C10.5955 15.2378 10.5955 15.9652 10.5955 17.3712V17.3813V17.3915C10.5955 18.7975 10.5955 19.5249 10.5762 19.9405C10.5665 20.1492 10.5517 20.2874 10.5273 20.3969C10.5021 20.5098 10.4678 20.5874 10.4282 20.6721C10.3138 20.9198 10.1061 21.1917 9.871 21.4304C9.63532 21.6697 9.36133 21.8865 9.10607 22.0179L9.10607 22.0179L9.1045 22.0187L8.70019 22.2208L8.66907 22.2364L8.63427 22.2367L5.92957 22.2576L5.92933 22.2576C4.79015 22.2646 4.09569 22.2646 3.64658 22.2523C3.19871 22.2401 2.98345 22.2155 2.80863 22.1689L2.80862 22.1689L2.80523 22.1679C1.96742 21.9233 1.26145 21.2154 0.996158 20.3605C0.862162 19.9288 0.85 19.6623 0.85 17.3813C0.85 15.0934 0.862164 14.8339 0.996156 14.4021Z" fill="#4B5B73" stroke="#4B5B73" stroke-width="0.3"/>
<path d="M13.9167 21.8848L14.3489 22.0869H17.1721H19.9953L20.4624 21.8569C21.0061 21.592 21.4244 21.1598 21.6962 20.5882L21.8775 20.2048L21.8984 17.5628C21.9193 15.0742 21.9123 14.8999 21.7799 14.4608C21.5289 13.6522 20.8667 12.976 20.079 12.7459C19.598 12.6065 14.7184 12.5996 14.2653 12.7459M13.9167 21.8848L13.855 22.0214C13.8546 22.0213 13.8543 22.0212 13.854 22.021M13.9167 21.8848C13.4079 21.6547 12.8572 21.104 12.6202 20.6091L14.2653 12.7459M13.9167 21.8848L13.8532 22.0206L13.854 22.021M13.854 22.021L14.2854 22.2228L14.3156 22.2369H14.3489H17.1721H19.9953H20.0303L20.0616 22.2215L20.5281 21.9917L20.4624 21.8569L20.5287 21.9914L20.5284 21.9916C21.1044 21.7109 21.5462 21.2529 21.8317 20.6526L21.8318 20.6523L22.0131 20.2689L22.0272 20.239L22.0275 20.206L22.0484 17.5641M13.854 22.021C13.3122 21.7757 12.7365 21.1994 12.4849 20.6739L12.4849 20.6739L12.4843 20.6727C12.4449 20.5884 12.4104 20.5116 12.3852 20.3995C12.3607 20.2908 12.3458 20.1539 12.3361 19.946C12.3168 19.5321 12.3168 18.8047 12.3168 17.392V17.3816V14.4887V14.4527L12.3331 14.4206L12.5283 14.0372L12.5284 14.037C12.8805 13.3474 13.4903 12.8245 14.2205 12.6028M22.0484 17.5641L21.8984 17.5628L22.0484 17.564V17.5641ZM22.0484 17.5641C22.0692 15.0886 22.0643 14.8843 21.9235 14.4175L21.9232 14.4163C21.6583 13.5628 20.9601 12.847 20.121 12.602L20.1208 12.6019C20.0428 12.5793 19.8975 12.5633 19.7207 12.5503C19.5375 12.5369 19.3035 12.5256 19.0365 12.5166C18.5022 12.4986 17.8312 12.4892 17.1618 12.4888C16.4924 12.4883 15.8231 12.4968 15.2922 12.5147C15.0268 12.5236 14.7948 12.5348 14.6141 12.5486C14.4418 12.5618 14.2976 12.5782 14.2205 12.6028M14.2205 12.6028C14.2209 12.6027 14.2213 12.6025 14.2218 12.6024L14.2653 12.7459M14.2205 12.6028C14.22 12.6029 14.2196 12.6031 14.2192 12.6032L14.2653 12.7459M20.0737 14.0427L20.0725 14.0419L19.8171 13.8716L17.248 13.8579L17.2479 13.8579C16.1317 13.8509 15.4708 13.851 15.063 13.8639C14.6488 13.8771 14.5182 13.9038 14.4436 13.9361C14.1573 14.0606 13.896 14.3067 13.7292 14.6276L13.7292 14.6276L13.7274 14.6309C13.6935 14.6921 13.6722 14.7364 13.6552 14.8016C13.6371 14.8705 13.6227 14.9677 13.6116 15.1339C13.5893 15.4674 13.5823 16.0455 13.5718 17.1599L13.5718 17.1601C13.5578 18.4886 13.56 19.2058 13.6109 19.6464C13.6361 19.8642 13.6723 20.0053 13.7201 20.1149C13.7673 20.2233 13.8294 20.3092 13.9191 20.4139L13.9193 20.4141C13.9227 20.4181 13.9261 20.4221 13.9295 20.426C14.0498 20.567 14.1243 20.6543 14.2141 20.7194C14.3002 20.7818 14.4076 20.828 14.5987 20.8603C14.9892 20.9262 15.6693 20.9262 17.08 20.9261L17.1512 20.9261C18.3238 20.9261 18.9679 20.9226 19.3513 20.9045C19.7325 20.8865 19.8369 20.8546 19.9397 20.8074L19.9398 20.8073C20.0821 20.7421 20.2401 20.615 20.3765 20.4589C20.5121 20.3038 20.615 20.1333 20.6597 19.9894C20.6651 19.9674 20.6737 19.8922 20.6814 19.7475C20.6889 19.6066 20.695 19.4149 20.6993 19.1765C20.708 18.6999 20.7097 18.0409 20.7028 17.2365V17.2364L20.6822 14.7368L20.5119 14.4812L20.511 14.48C20.4178 14.3371 20.2166 14.1359 20.0737 14.0427L20.0737 14.0427Z" fill="#4B5B73" stroke="#4B5B73" stroke-width="0.3"/>
</svg>
