<svg width="173" height="153" viewBox="0 0 173 153" fill="none" xmlns="http://www.w3.org/2000/svg">
<g filter="url(#filter0_d_298_227)">
<mask id="path-2-inside-1_298_227" fill="white">
<path d="M39 42C39 37.5817 42.5817 34 47 34H126C130.418 34 134 37.5817 134 42V111C134 115.418 130.418 119 126 119H47C42.5817 119 39 115.418 39 111V42Z"/>
</mask>
<path d="M39 42C39 37.5817 42.5817 34 47 34H126C130.418 34 134 37.5817 134 42V111C134 115.418 130.418 119 126 119H47C42.5817 119 39 115.418 39 111V42Z" fill="white"/>
<path d="M39 34H134H39ZM134 119H39H134ZM47 119C39.8203 119 34 113.18 34 106V47C34 39.8203 39.8203 34 47 34C45.3431 34 44 37.5817 44 42V111C44 115.418 45.3431 119 47 119ZM134 34V119V34Z" fill="#C5CAD2" mask="url(#path-2-inside-1_298_227)"/>
</g>
<path d="M57.104 55.192C56.2827 55.192 55.5733 55.048 54.976 54.76C54.3893 54.472 53.9253 54.0773 53.584 53.576C53.2533 53.064 53.0613 52.488 53.008 51.848H55.008C55.104 52.3067 55.3387 52.6907 55.712 53C56.0853 53.2987 56.5493 53.448 57.104 53.448C57.7013 53.448 58.1867 53.2293 58.56 52.792C58.944 52.3547 59.136 51.8107 59.136 51.16C59.136 50.488 58.944 49.9547 58.56 49.56C58.1867 49.1653 57.712 48.968 57.136 48.968C56.656 48.968 56.24 49.0853 55.888 49.32C55.536 49.5547 55.2853 49.848 55.136 50.2H53.168L54.128 43.8H60.336V45.592H55.664L55.152 48.184C55.3867 47.928 55.7067 47.72 56.112 47.56C56.5173 47.3893 56.9707 47.304 57.472 47.304C58.272 47.304 58.9387 47.4853 59.472 47.848C60.0053 48.2 60.4107 48.6693 60.688 49.256C60.9653 49.832 61.104 50.4613 61.104 51.144C61.104 51.9227 60.9333 52.616 60.592 53.224C60.2613 53.832 59.792 54.312 59.184 54.664C58.5867 55.016 57.8933 55.192 57.104 55.192Z" fill="#767F8F"/>
<path d="M15 71.7273C15 63.5936 21.5936 57 29.7273 57V57C31.5347 57 33 58.4652 33 60.2727V93.7273C33 95.5347 31.5348 97 29.7273 97V97C21.5936 97 15 90.4064 15 82.2727V71.7273Z" fill="#D9DEE4"/>
<path d="M158 71.7273C158 63.5936 151.406 57 143.273 57V57C141.465 57 140 58.4652 140 60.2727V93.7273C140 95.5347 141.465 97 143.273 97V97C151.406 97 158 90.4064 158 82.2727V71.7273Z" fill="#D9DEE4"/>
<defs>
<filter id="filter0_d_298_227" x="31" y="26" width="115" height="105" filterUnits="userSpaceOnUse" color-interpolation-filters="sRGB">
<feFlood flood-opacity="0" result="BackgroundImageFix"/>
<feColorMatrix in="SourceAlpha" type="matrix" values="0 0 0 0 0 0 0 0 0 0 0 0 0 0 0 0 0 0 127 0" result="hardAlpha"/>
<feOffset dx="2" dy="2"/>
<feGaussianBlur stdDeviation="5"/>
<feComposite in2="hardAlpha" operator="out"/>
<feColorMatrix type="matrix" values="0 0 0 0 0 0 0 0 0 0 0 0 0 0 0 0 0 0 0.08 0"/>
<feBlend mode="normal" in2="BackgroundImageFix" result="effect1_dropShadow_298_227"/>
<feBlend mode="normal" in="SourceGraphic" in2="effect1_dropShadow_298_227" result="shape"/>
</filter>
</defs>
</svg>
