<svg width="268" height="153" viewBox="0 0 268 153" fill="none" xmlns="http://www.w3.org/2000/svg">
<g filter="url(#filter0_d_420_26485)">
<mask id="path-2-inside-1_420_26485" fill="white">
<path d="M39 72C39 51.0132 56.0132 34 77 34H191C211.987 34 229 51.0132 229 72V81C229 101.987 211.987 119 191 119H77C56.0132 119 39 101.987 39 81V72Z"/>
</mask>
<path d="M39 72C39 51.0132 56.0132 34 77 34H191C211.987 34 229 51.0132 229 72V81C229 101.987 211.987 119 191 119H77C56.0132 119 39 101.987 39 81V72Z" fill="white"/>
<path d="M39 34H229H39ZM229 119H39H229ZM77 119C54.3563 119 36 100.644 36 78V75C36 52.3563 54.3563 34 77 34C57.67 34 42 51.0132 42 72V81C42 101.987 57.67 119 77 119ZM229 34V119V34Z" fill="#FFC144" mask="url(#path-2-inside-1_420_26485)"/>
</g>
<path d="M15 71.7273C15 63.5936 21.5936 57 29.7273 57C31.5347 57 33 58.4653 33 60.2727V93.7273C33 95.5347 31.5347 97 29.7273 97C21.5936 97 15 90.4064 15 82.2727V71.7273Z" fill="#FFC144"/>
<path d="M253 71.7273C253 63.5936 246.406 57 238.273 57C236.465 57 235 58.4653 235 60.2727V93.7273C235 95.5347 236.465 97 238.273 97C246.406 97 253 90.4064 253 82.2727V71.7273Z" fill="#D9DEE4"/>
<path d="M107 24.7273C107 16.5936 100.406 10 92.2727 10H81.7273C73.5936 10 67 16.5936 67 24.7273C67 26.5347 68.4652 28 70.2727 28H103.727C105.535 28 107 26.5347 107 24.7273Z" fill="#FFC144"/>
<path d="M154 24.7273C154 16.5936 147.406 10 139.273 10H128.727C120.594 10 114 16.5936 114 24.7273C114 26.5347 115.465 28 117.273 28H150.727C152.535 28 154 26.5347 154 24.7273Z" fill="#FFC144"/>
<path d="M201 24.7273C201 16.5936 194.406 10 186.273 10H175.727C167.594 10 161 16.5936 161 24.7273C161 26.5347 162.465 28 164.273 28H197.727C199.535 28 201 26.5347 201 24.7273Z" fill="#D9DEE4"/>
<path d="M107 128.273C107 136.406 100.406 143 92.2727 143H81.7273C73.5936 143 67 136.406 67 128.273C67 126.465 68.4652 125 70.2727 125H103.727C105.535 125 107 126.465 107 128.273Z" fill="#FFC144"/>
<path d="M154 128.273C154 136.406 147.406 143 139.273 143H128.727C120.594 143 114 136.406 114 128.273C114 126.465 115.465 125 117.273 125H150.727C152.535 125 154 126.465 154 128.273Z" fill="#D9DEE4"/>
<path d="M201 128.273C201 136.406 194.406 143 186.273 143H175.727C167.594 143 161 136.406 161 128.273C161 126.465 162.465 125 164.273 125H197.727C199.535 125 201 126.465 201 128.273Z" fill="#D9DEE4"/>
<defs>
<filter id="filter0_d_420_26485" x="31" y="26" width="210" height="105" filterUnits="userSpaceOnUse" color-interpolation-filters="sRGB">
<feFlood flood-opacity="0" result="BackgroundImageFix"/>
<feColorMatrix in="SourceAlpha" type="matrix" values="0 0 0 0 0 0 0 0 0 0 0 0 0 0 0 0 0 0 127 0" result="hardAlpha"/>
<feOffset dx="2" dy="2"/>
<feGaussianBlur stdDeviation="5"/>
<feComposite in2="hardAlpha" operator="out"/>
<feColorMatrix type="matrix" values="0 0 0 0 0 0 0 0 0 0 0 0 0 0 0 0 0 0 0.08 0"/>
<feBlend mode="normal" in2="BackgroundImageFix" result="effect1_dropShadow_420_26485"/>
<feBlend mode="normal" in="SourceGraphic" in2="effect1_dropShadow_420_26485" result="shape"/>
</filter>
</defs>
</svg>
