<svg width="261" height="240" viewBox="0 0 261 240" fill="none" xmlns="http://www.w3.org/2000/svg">
<path d="M192.192 208.9C192.192 208.9 223.596 206.946 245.186 168.508C266.776 130.071 262.85 71.4368 236.026 38.8625C209.202 6.28814 167.33 -4.78712 127.421 5.63666C107.976 10.7156 95.0092 23.8887 83.8032 39.7667C74.0418 53.5984 63.0655 66.933 48.29 75.6871C33.6597 84.3544 18.6212 91.268 11.2334 107.742C-6.74595 147.831 6.3933 194.478 48.9115 210.203C94.7089 227.142 171.256 218.021 192.192 208.9Z" fill="#EC525A"/>
<path d="M192.262 210.814C192.262 210.814 224.101 208.824 245.991 169.688C267.88 130.553 263.9 70.8542 236.704 37.6884C209.508 4.52261 167.056 -6.75376 126.594 3.85929C106.879 9.0305 93.7327 22.4427 82.3714 38.6091C72.4747 52.6919 61.3463 66.2687 46.3659 75.1817C31.5329 84.0064 16.2859 91.0455 8.79574 107.818C-9.43285 148.636 3.88852 196.129 46.9961 212.14C93.4282 229.387 171.036 220.1 192.262 210.814Z" fill="url(#paint0_linear_1685_2032)"/>
<path d="M135.443 240C198.026 240 248.759 235.545 248.759 230.05C248.759 224.555 198.026 220.101 135.443 220.101C72.86 220.101 22.1266 224.555 22.1266 230.05C22.1266 235.545 72.86 240 135.443 240Z" fill="#EC525A"/>
<path opacity="0.9" d="M135.443 240C198.026 240 248.759 235.545 248.759 230.05C248.759 224.555 198.026 220.101 135.443 220.101C72.86 220.101 22.1266 224.555 22.1266 230.05C22.1266 235.545 72.86 240 135.443 240Z" fill="white"/>
<path d="M19.8949 104.21V110.095" stroke="#EC525A" stroke-miterlimit="10" stroke-linecap="round" stroke-linejoin="round"/>
<path d="M22.8373 107.152H16.953" stroke="#EC525A" stroke-miterlimit="10" stroke-linecap="round" stroke-linejoin="round"/>
<path d="M220.659 53.7983V59.6826" stroke="#EC525A" stroke-miterlimit="10" stroke-linecap="round" stroke-linejoin="round"/>
<path d="M223.601 56.7402H217.718" stroke="#EC525A" stroke-miterlimit="10" stroke-linecap="round" stroke-linejoin="round"/>
<path d="M137.081 8.25122V14.1348" stroke="#212121" stroke-miterlimit="10" stroke-linecap="round" stroke-linejoin="round"/>
<path d="M140.023 11.1931H134.14" stroke="#212121" stroke-miterlimit="10" stroke-linecap="round" stroke-linejoin="round"/>
<path d="M40.2374 170.1V175.984" stroke="#EC525A" stroke-miterlimit="10" stroke-linecap="round" stroke-linejoin="round"/>
<path d="M43.1794 173.042H37.2958" stroke="#EC525A" stroke-miterlimit="10" stroke-linecap="round" stroke-linejoin="round"/>
<path d="M218.026 32.5924C218.026 35.2788 215.848 37.4565 213.162 37.4565C210.475 37.4565 208.297 35.2788 208.297 32.5924C208.297 29.9059 210.475 27.7283 213.162 27.7283C215.847 27.7283 218.026 29.9059 218.026 32.5924Z" stroke="#212121" stroke-miterlimit="10" stroke-linecap="round" stroke-linejoin="round"/>
<path d="M9.84094 149.411C12.3229 148.383 13.5015 145.538 12.4734 143.056C11.4453 140.574 8.5999 139.395 6.11796 140.423C3.63603 141.451 2.45743 144.297 3.48551 146.779C4.51358 149.261 7.359 150.439 9.84094 149.411Z" stroke="#212121" stroke-miterlimit="10" stroke-linecap="round" stroke-linejoin="round"/>
<path d="M240.136 82.3409C240.136 82.9518 239.641 83.4466 239.03 83.4466C238.42 83.4466 237.924 82.9518 237.924 82.3409C237.924 81.7306 238.419 81.2351 239.03 81.2351C239.641 81.2358 240.136 81.7306 240.136 82.3409Z" stroke="#212121" stroke-miterlimit="10" stroke-linecap="round" stroke-linejoin="round"/>
<path d="M71.4328 66.4214C71.4328 67.0323 70.938 67.5272 70.3271 67.5272C69.7162 67.5272 69.2213 67.0323 69.2213 66.4214C69.2213 65.8112 69.7162 65.3157 70.3271 65.3157C70.938 65.3157 71.4328 65.8112 71.4328 66.4214Z" stroke="#212121" stroke-miterlimit="10" stroke-linecap="round" stroke-linejoin="round"/>
<path d="M257.332 131.65L257.355 131.62C257.355 131.62 257.34 131.619 257.317 131.616C257.307 131.594 257.301 131.581 257.301 131.581L257.279 131.613C256.356 131.52 246.81 130.701 238.099 135.227C241.476 130.872 243.745 125.234 243.031 118.09C240.929 97.0672 221.088 85.0293 219.561 84.1318V84.0754C219.561 84.0754 219.542 84.0861 219.512 84.1033C219.483 84.0861 219.464 84.0754 219.464 84.0754V84.1318C217.936 85.0293 198.096 97.0672 195.994 118.09C195.535 122.676 196.308 126.642 197.813 130.047C186.642 123.368 173.609 124.492 172.409 124.613L172.381 124.575C172.381 124.575 172.374 124.591 172.362 124.618C172.333 124.621 172.315 124.623 172.315 124.623L172.343 124.661C171.754 126.022 164.297 143.946 173.256 159.183C181.267 172.807 198.069 169.205 202.63 167.926C206.466 171.954 213.454 181.118 216.544 196.763H212.187L214.285 226.389H224.078L226.177 196.763H221.053C224.069 183.593 229.099 173.716 233.56 166.968C238.13 168.104 250.497 170.028 256.591 159.662C263.86 147.299 257.81 132.755 257.332 131.65ZM219.214 131.534L208.865 117.162C208.775 117.036 208.803 116.86 208.93 116.769C209.056 116.679 209.232 116.707 209.323 116.833L219.231 130.594V116.035L219.214 116.057L208.865 101.684C208.775 101.558 208.803 101.383 208.93 101.292C209.056 101.202 209.232 101.229 209.323 101.356L219.231 115.118V93.923C219.231 93.7678 219.357 93.6418 219.512 93.6418C219.668 93.6418 219.794 93.7678 219.794 93.923V114.412L230.54 100.783C230.637 100.661 230.813 100.64 230.935 100.737C231.057 100.833 231.079 101.01 230.982 101.132L219.794 115.322V129.889L230.541 116.26C230.638 116.137 230.814 116.117 230.936 116.213C231.058 116.309 231.079 116.486 230.983 116.608L219.795 130.798V143.115L230.541 129.485C230.638 129.363 230.815 129.343 230.937 129.439C231.059 129.535 231.08 129.712 230.984 129.834L219.796 144.024V144.292H218.879L208.867 130.387C208.777 130.261 208.805 130.085 208.932 129.994C209.058 129.904 209.234 129.932 209.324 130.058L219.233 143.82V131.512L219.214 131.534ZM202.774 166.621L201.753 165.226L187.192 161.165C187.067 161.13 186.994 161.001 187.028 160.876C187.064 160.751 187.193 160.678 187.318 160.712L201.304 164.611L195.224 156.293L180.663 152.233C180.538 152.198 180.465 152.069 180.499 151.943C180.534 151.819 180.664 151.746 180.789 151.78L194.775 155.68L187.584 145.841L173.023 141.781C172.897 141.746 172.824 141.617 172.859 141.491C172.894 141.367 173.024 141.293 173.149 141.328L187.135 145.227L177.02 131.389C176.943 131.284 176.966 131.137 177.071 131.06C177.176 130.983 177.323 131.006 177.4 131.111L187.864 145.426L187.761 131.24C187.76 131.11 187.865 131.004 187.995 131.003C188.125 131.002 188.231 131.107 188.232 131.237L188.339 146.052L188.316 146.046L195.504 155.879L195.401 141.693C195.4 141.564 195.506 141.458 195.635 141.456C195.765 141.455 195.871 141.56 195.872 141.69L195.979 156.506L195.956 156.5L202.032 164.812L201.93 150.626C201.929 150.497 202.034 150.39 202.163 150.388C202.293 150.388 202.399 150.492 202.4 150.622L202.507 165.438L202.484 165.432L203.355 166.623H202.774V166.621ZM204.429 166.621C206.555 163.392 212.681 152.781 209.022 142.575C212.699 145.015 216.204 146.507 218.098 147.22V193.276C214.739 179.165 208.406 170.699 204.547 166.621H204.429ZM220.349 190.441V147.431C221.9 146.878 225.308 145.528 229.03 143.201C223.188 152.567 229.731 163.383 231.457 165.935C227.607 171.796 223.399 179.905 220.349 190.441ZM256.78 145.542L244.965 148.837L239.13 156.82L250.478 153.656C250.58 153.628 250.685 153.687 250.713 153.789C250.742 153.89 250.682 153.996 250.581 154.024L238.766 157.319L233.832 164.068L245.181 160.904C245.282 160.876 245.388 160.935 245.416 161.037C245.445 161.138 245.385 161.244 245.284 161.272L233.469 164.567L232.848 165.416C232.736 165.351 232.624 165.286 232.519 165.218L232.874 164.733L232.856 164.738L232.943 152.717C232.943 152.611 233.029 152.526 233.135 152.527C233.24 152.528 233.325 152.614 233.325 152.719L233.242 164.231L238.172 157.486L238.154 157.491L238.24 145.47C238.24 145.365 238.327 145.28 238.432 145.28C238.537 145.282 238.622 145.368 238.622 145.473L238.539 156.984L244.371 149.005L244.352 149.011L244.438 136.989C244.439 136.884 244.525 136.799 244.631 136.8C244.736 136.8 244.821 136.887 244.821 136.992L244.738 148.503L253.228 136.887C253.29 136.802 253.41 136.784 253.495 136.846C253.58 136.908 253.598 137.027 253.537 137.112L245.329 148.339L256.677 145.175C256.779 145.147 256.884 145.206 256.913 145.307C256.941 145.409 256.882 145.514 256.78 145.542Z" fill="#EC525A"/>
<path d="M192.303 229.162H89.8825C87.411 229.162 85.4071 227.158 85.4071 224.687V32.9219C85.4071 30.4504 87.411 28.4465 89.8825 28.4465H192.302C194.774 28.4465 196.778 30.4504 196.778 32.9219V224.687C196.779 227.159 194.775 229.162 192.303 229.162Z" fill="#212121" stroke="#212121" stroke-miterlimit="10" stroke-linecap="round" stroke-linejoin="round"/>
<path d="M188.773 229.162H86.3526C83.8811 229.162 81.8772 227.158 81.8772 224.687V32.9219C81.8772 30.4504 83.8811 28.4465 86.3526 28.4465H188.773C191.244 28.4465 193.248 30.4504 193.248 32.9219V224.687C193.248 227.159 191.244 229.162 188.773 229.162Z" fill="white"/>
<mask id="mask0_1685_2032" style="mask-type:luminance" maskUnits="userSpaceOnUse" x="81" y="28" width="113" height="202">
<path d="M188.773 229.162H86.3526C83.8811 229.162 81.8772 227.158 81.8772 224.687V32.9219C81.8772 30.4504 83.8811 28.4465 86.3526 28.4465H188.773C191.244 28.4465 193.248 30.4504 193.248 32.9219V224.687C193.248 227.159 191.244 229.162 188.773 229.162Z" fill="white"/>
</mask>
<g mask="url(#mask0_1685_2032)">
<path d="M193.248 104.182L95.3135 229.161H188.773C191.244 229.161 193.248 227.158 193.248 224.686V104.182Z" fill="#EC525A"/>
</g>
<mask id="mask1_1685_2032" style="mask-type:luminance" maskUnits="userSpaceOnUse" x="81" y="28" width="113" height="202">
<path d="M188.773 229.162H86.3526C83.8811 229.162 81.8772 227.158 81.8772 224.687V32.9219C81.8772 30.4504 83.8811 28.4465 86.3526 28.4465H188.773C191.244 28.4465 193.248 30.4504 193.248 32.9219V224.687C193.248 227.159 191.244 229.162 188.773 229.162Z" fill="white"/>
</mask>
<g mask="url(#mask1_1685_2032)">
<path opacity="0.95" d="M193.248 104.182L95.3135 229.161H188.773C191.244 229.161 193.248 227.158 193.248 224.686V104.182Z" fill="white"/>
</g>
<path d="M188.773 229.162H86.3526C83.8811 229.162 81.8772 227.158 81.8772 224.687V32.9219C81.8772 30.4504 83.8811 28.4465 86.3526 28.4465H188.773C191.244 28.4465 193.248 30.4504 193.248 32.9219V224.687C193.248 227.159 191.244 229.162 188.773 229.162Z" stroke="#212121" stroke-miterlimit="10" stroke-linecap="round" stroke-linejoin="round"/>
<path d="M145.261 40.4359H131.397C130.611 40.4359 129.974 39.7991 129.974 39.0137C129.974 38.2283 130.611 37.5916 131.397 37.5916H145.261C146.047 37.5916 146.683 38.2283 146.683 39.0137C146.683 39.7997 146.047 40.4359 145.261 40.4359Z" fill="#212121" stroke="#212121" stroke-miterlimit="10" stroke-linecap="round" stroke-linejoin="round"/>
<path d="M186.21 211.221H88.915V40.6003H111.977L114.571 42.7528C115.478 43.505 116.618 43.9169 117.796 43.9169H158.485C159.712 43.9169 160.897 43.4705 161.819 42.6606L164.164 40.6003H186.21V211.221H186.21Z" fill="#212121" stroke="#212121" stroke-miterlimit="10" stroke-linecap="round" stroke-linejoin="round"/>
<path d="M107.168 174.434H167.957" stroke="white" stroke-miterlimit="10" stroke-linecap="round" stroke-linejoin="round"/>
<path d="M107.168 182.433H167.957" stroke="white" stroke-miterlimit="10" stroke-linecap="round" stroke-linejoin="round"/>
<path d="M107.168 190.431H167.957" stroke="white" stroke-miterlimit="10" stroke-linecap="round" stroke-linejoin="round"/>
<path d="M112.801 100.165C109.448 105.016 107.484 110.901 107.484 117.245C107.484 133.857 120.951 147.324 137.563 147.324C154.175 147.324 167.641 133.857 167.641 117.245C167.641 100.633 154.175 87.1663 137.563 87.1663C135.684 87.1663 133.847 87.3387 132.064 87.6677" stroke="white" stroke-miterlimit="10" stroke-linecap="round" stroke-linejoin="round"/>
<path d="M117.909 94.4751C116.896 95.35 115.942 96.2913 115.054 97.2922" stroke="white" stroke-miterlimit="10" stroke-linecap="round" stroke-linejoin="round"/>
<path d="M160.959 127.519C166.482 114.551 160.446 99.5619 147.479 94.0394C134.511 88.5169 119.522 94.5523 113.999 107.52C108.477 120.488 114.512 135.477 127.48 140.999C140.448 146.522 155.437 140.486 160.959 127.519Z" fill="#EC525A"/>
<path d="M148 107L127 128" stroke="white" stroke-width="5" stroke-linecap="round" stroke-linejoin="round"/>
<path d="M127 107L148 128" stroke="white" stroke-width="5" stroke-linecap="round" stroke-linejoin="round"/>
<path d="M161.819 42.6606C160.897 43.4705 159.712 43.9169 158.485 43.9169H117.796C116.618 43.9169 115.478 43.505 114.571 42.7528L111.977 40.6003H88.915V58.0562H186.21V40.6003H164.164L161.819 42.6606Z" fill="#EC525A" stroke="#212121" stroke-miterlimit="10" stroke-linecap="round" stroke-linejoin="round"/>
<path d="M140.67 216.48C140.67 215.259 139.68 214.269 138.459 214.269C137.238 214.269 136.248 215.259 136.248 216.48C136.248 217.701 137.238 218.691 138.459 218.691C139.68 218.691 140.67 217.701 140.67 216.48Z" fill="#212121" stroke="#212121" stroke-miterlimit="10" stroke-linecap="round" stroke-linejoin="round"/>
<path d="M64.1978 106.938C64.1978 106.938 65.2857 110.527 65.6117 111.615C65.9383 112.703 68.1136 111.615 70.2894 110.854C72.4652 110.093 77.4689 107.591 78.5568 108.57C79.6447 109.549 88.1293 131.196 87.6945 132.828C87.2596 134.459 86.7154 135.439 83.887 134.786C81.0587 134.133 79.9707 131.196 79.9707 131.196L78.5568 136.2C78.5568 136.2 81.3852 140.878 82.7991 145.99C84.213 151.103 87.1502 167.637 87.3679 172.315C87.5856 176.992 88.9995 187.435 88.9995 187.435C88.9995 187.435 87.9116 188.414 82.3643 189.502C76.8164 190.59 73.988 190.59 73.988 190.59L74.0968 192.33C74.0968 192.33 69.0932 193.636 62.675 192.548C56.2569 191.46 52.2323 189.611 52.2323 189.611C52.2323 189.611 56.5834 171.771 56.4746 167.855C56.3658 163.938 55.3867 160.675 55.6044 156.977C55.8221 153.278 58.2151 147.622 58.2151 147.622C58.2151 147.622 59.9555 144.358 57.4537 138.049C54.9518 131.74 50.8179 122.276 49.7305 119.448C48.6425 116.62 57.5625 113.791 58.6504 113.356C59.7383 112.921 54.1904 103.131 55.4955 102.043C56.8011 100.954 64.1978 106.938 64.1978 106.938Z" fill="#FCBABE" stroke="#212121" stroke-miterlimit="10" stroke-linecap="round" stroke-linejoin="round"/>
<path d="M49.1862 119.121C49.1862 119.121 48.0982 120.318 48.5336 122.711C48.969 125.104 54.5164 141.312 55.9308 143.923C57.3447 146.533 58.6503 146.098 59.8471 145.445C61.0439 144.793 71.5954 137.939 74.641 136.09C77.687 134.241 83.1255 131.086 83.1255 131.086C83.1255 131.086 88.1292 133.37 88.0209 132.283C87.9121 131.195 88.4558 129.129 86.933 127.497C85.4102 125.865 82.6907 127.062 81.4939 127.931C80.2972 128.802 71.7038 132.391 67.8963 133.697C64.0889 135.002 62.1307 135.546 62.1307 135.546L57.1271 125.212" fill="white"/>
<mask id="mask2_1685_2032" style="mask-type:luminance" maskUnits="userSpaceOnUse" x="48" y="119" width="41" height="27">
<path d="M49.1862 119.121C49.1862 119.121 48.0982 120.318 48.5336 122.711C48.969 125.104 54.5164 141.312 55.9308 143.923C57.3447 146.533 58.6503 146.098 59.8471 145.445C61.0439 144.793 71.5954 137.939 74.641 136.09C77.687 134.241 83.1255 131.086 83.1255 131.086C83.1255 131.086 88.1292 133.37 88.0209 132.283C87.9121 131.195 88.4558 129.129 86.933 127.497C85.4102 125.865 82.6907 127.062 81.4939 127.931C80.2972 128.802 71.7038 132.391 67.8963 133.697C64.0889 135.002 62.1307 135.546 62.1307 135.546L57.1271 125.212" fill="white"/>
</mask>
<g mask="url(#mask2_1685_2032)">
<path opacity="0.5" d="M59.2698 142.43C57.5062 141.989 55.742 138.461 55.742 138.461C55.742 138.461 57.2853 136.918 59.0494 134.934C59.8503 134.033 60.2856 133.042 60.5244 132.228L57.127 125.212L57.1255 125.211L51.1117 125.674C51.1117 125.674 50.6059 126.241 49.824 127.136C51.6649 132.87 54.8981 142.017 55.9303 143.923C57.3442 146.533 58.6498 146.098 59.8466 145.445C61.0433 144.793 71.5949 137.939 74.6404 136.09C77.6865 134.241 83.125 131.086 83.125 131.086C83.125 131.086 85.0353 131.958 86.4697 132.368C85.8735 130.583 85.2856 128.981 85.2856 128.981H79.4743C79.0731 129.168 78.6309 129.369 78.1555 129.579L77.7896 132.509" fill="#FCBABE"/>
</g>
<path d="M49.1862 119.121C49.1862 119.121 48.0982 120.318 48.5336 122.711C48.969 125.104 54.5164 141.312 55.9308 143.923C57.3447 146.533 58.6503 146.098 59.8471 145.445C61.0439 144.793 71.5954 137.939 74.641 136.09C77.687 134.241 83.1255 131.086 83.1255 131.086C83.1255 131.086 88.1292 133.37 88.0209 132.283C87.9121 131.195 88.4558 129.129 86.933 127.497C85.4102 125.865 82.6907 127.062 81.4939 127.931C80.2972 128.802 71.7038 132.391 67.8963 133.697C64.0889 135.002 62.1307 135.546 62.1307 135.546L57.1271 125.212" stroke="#212121" stroke-miterlimit="10" stroke-linecap="round" stroke-linejoin="round"/>
<path d="M86.933 127.497C85.4102 125.866 82.6907 127.062 81.4939 127.933C81.3993 128.001 81.2531 128.089 81.0712 128.19C81.4929 128.693 81.9829 129.4 82.2553 130.217C82.3899 130.62 82.4972 131.023 82.5834 131.402C82.9257 131.203 83.1255 131.087 83.1255 131.087C83.1255 131.087 88.1292 133.371 88.0209 132.284C87.9121 131.195 88.4557 129.129 86.933 127.497Z" fill="white" stroke="#212121" stroke-miterlimit="10" stroke-linecap="round" stroke-linejoin="round"/>
<path d="M69.7793 111.038C67.7849 111.772 65.9125 112.618 65.6117 111.615C65.2852 110.527 64.1978 106.937 64.1978 106.937C64.1978 106.937 56.8006 100.955 55.4955 102.042C54.1899 103.13 59.7378 112.92 58.6499 113.355C58.2629 113.51 56.8842 113.969 55.3183 114.621C56.0192 115.77 57.6593 117.83 61.2606 119.991C66.6996 123.254 67.8964 124.124 67.8964 124.124L69.7793 111.038Z" fill="white"/>
<mask id="mask3_1685_2032" style="mask-type:luminance" maskUnits="userSpaceOnUse" x="55" y="101" width="15" height="24">
<path d="M69.7793 111.038C67.7849 111.772 65.9125 112.618 65.6117 111.615C65.2852 110.527 64.1978 106.937 64.1978 106.937C64.1978 106.937 56.8006 100.955 55.4955 102.042C54.1899 103.13 59.7378 112.92 58.6499 113.355C58.2629 113.51 56.8842 113.969 55.3183 114.621C56.0192 115.77 57.6593 117.83 61.2606 119.991C66.6996 123.254 67.8964 124.124 67.8964 124.124L69.7793 111.038Z" fill="white"/>
</mask>
<g mask="url(#mask3_1685_2032)">
<path opacity="0.5" d="M64.1975 106.938C64.1975 106.938 57.4597 101.489 55.7129 101.942C55.6156 102.005 55.5199 102.067 55.4248 102.13C54.7948 103.031 56.6788 107.116 57.8793 110.105C59.0214 110.305 60.0036 110.372 60.5925 110.241C61.7577 109.982 63.4514 109.116 64.6539 108.445C64.3989 107.602 64.1975 106.938 64.1975 106.938Z" fill="#FCBABE"/>
</g>
<path d="M69.7793 111.038C67.7849 111.772 65.9125 112.618 65.6117 111.615C65.2852 110.527 64.1978 106.937 64.1978 106.937C64.1978 106.937 56.8006 100.955 55.4955 102.042C54.1899 103.13 59.7378 112.92 58.6499 113.355C58.2629 113.51 56.8842 113.969 55.3183 114.621C56.0192 115.77 57.6593 117.83 61.2606 119.991C66.6996 123.254 67.8964 124.124 67.8964 124.124L69.7793 111.038Z" stroke="#212121" stroke-miterlimit="10" stroke-linecap="round" stroke-linejoin="round"/>
<path d="M65.1463 92.4331C65.1463 92.4331 67.5256 88.1462 65.2362 84.6405C61.8789 79.5001 54.5658 79.7157 48.8197 83.8197C43.1856 87.8443 42.8138 95.6811 42.6808 100.342C42.5477 105.003 44.8077 109.239 42.2822 112.77C39.7567 116.301 36.0344 119.832 37.2307 126.47C38.4269 133.108 41.6176 135.367 50.7894 135.367C59.9612 135.367 64.111 126.337 62.1165 120.264C60.1226 114.191 58.0125 108.944 58.0125 106.967C58.0125 104.99 52.2517 93.704 57.3027 92.1503C62.3547 90.597 65.1463 92.4331 65.1463 92.4331Z" fill="#212121" stroke="#212121" stroke-miterlimit="10" stroke-linecap="round" stroke-linejoin="round"/>
<path d="M61.7953 88.215C61.7953 88.215 58.4911 86.0124 55.0302 88.8444C51.5687 91.6765 50.1527 96.0818 50.1527 100.802C50.1527 105.522 54.873 115.119 56.289 121.099C57.705 127.077 56.4462 134.787 47.6356 135.102" stroke="white" stroke-width="0.5" stroke-miterlimit="10" stroke-linecap="round" stroke-linejoin="round"/>
<path d="M63.0541 88.3728C63.0541 88.3728 61.7953 83.3381 54.7152 84.2819C47.6351 85.2258 44.803 96.2395 45.7474 103.005C46.6912 109.77 54.7152 121.885 55.3446 125.976C55.974 130.066 54.5606 132.022 54.5606 132.022" stroke="white" stroke-width="0.5" stroke-miterlimit="10" stroke-linecap="round" stroke-linejoin="round"/>
<path d="M47.3207 108.669C47.3207 108.669 48.7367 112.13 47.7928 119.84C46.849 127.549 41.4993 129.595 40.3983 127.077C39.2967 124.559 40.8705 122.515 42.4437 122.357" stroke="white" stroke-width="0.5" stroke-miterlimit="10" stroke-linecap="round" stroke-linejoin="round"/>
<path d="M67.5315 108.661C67.5315 108.661 65.6753 108.576 65.4219 109.167C65.169 109.758 67.9532 110.095 67.9532 110.095L67.5315 108.661Z" fill="white" stroke="#212121" stroke-miterlimit="10" stroke-linecap="round" stroke-linejoin="round"/>
<path d="M66.9172 106.393C66.9172 106.393 63.654 109.331 64.1977 110.092C64.7414 110.853 66.9172 108.025 66.9172 108.025L68.114 108.678C68.114 108.678 66.9172 109.548 66.5912 110.309C66.2647 111.071 66.5912 111.615 67.2438 112.376C67.8963 113.137 68.0051 114.117 68.8754 114.117C69.7456 114.117 69.9633 112.92 69.9633 112.92C69.9633 112.92 70.8335 114.443 71.3772 114.878C71.9209 115.313 73.4442 115.422 73.4442 115.422C73.4442 115.422 78.9921 130.651 80.2972 132.935C81.6022 135.219 81.9288 136.96 85.7362 136.525C89.5437 136.09 88.2381 132.935 87.0413 130.107C85.8445 127.278 78.339 117.488 76.3809 115.204C74.4227 112.92 73.5525 111.832 71.2684 109.004C68.9842 106.176 67.5703 105.741 66.9172 106.393Z" fill="white"/>
<mask id="mask4_1685_2032" style="mask-type:luminance" maskUnits="userSpaceOnUse" x="64" y="106" width="25" height="31">
<path d="M66.9172 106.393C66.9172 106.393 63.654 109.331 64.1977 110.092C64.7414 110.853 66.9172 108.025 66.9172 108.025L68.114 108.678C68.114 108.678 66.9172 109.548 66.5912 110.309C66.2647 111.071 66.5912 111.615 67.2438 112.376C67.8963 113.137 68.0051 114.117 68.8754 114.117C69.7456 114.117 69.9633 112.92 69.9633 112.92C69.9633 112.92 70.8335 114.443 71.3772 114.878C71.9209 115.313 73.4442 115.422 73.4442 115.422C73.4442 115.422 78.9921 130.651 80.2972 132.935C81.6022 135.219 81.9288 136.96 85.7362 136.525C89.5437 136.09 88.2381 132.935 87.0413 130.107C85.8445 127.278 78.339 117.488 76.3809 115.204C74.4227 112.92 73.5525 111.832 71.2684 109.004C68.9842 106.176 67.5703 105.741 66.9172 106.393Z" fill="white"/>
</mask>
<g mask="url(#mask4_1685_2032)">
<path opacity="0.5" d="M83.3527 133.231C81.2494 130.602 74.9396 116.756 73.4442 115.422C73.4442 115.422 78.9921 130.652 80.2972 132.936C81.6023 135.22 81.9288 136.961 85.7362 136.526C86.5534 136.432 87.1333 136.213 87.5314 135.899C86.322 135.539 84.5952 134.784 83.3527 133.231Z" fill="#FCBABE"/>
</g>
<path d="M66.9172 106.393C66.9172 106.393 63.654 109.331 64.1977 110.092C64.7414 110.853 66.9172 108.025 66.9172 108.025L68.114 108.678C68.114 108.678 66.9172 109.548 66.5912 110.309C66.2647 111.071 66.5912 111.615 67.2438 112.376C67.8963 113.137 68.0051 114.117 68.8754 114.117C69.7456 114.117 69.9633 112.92 69.9633 112.92C69.9633 112.92 70.8335 114.443 71.3772 114.878C71.9209 115.313 73.4442 115.422 73.4442 115.422C73.4442 115.422 78.9921 130.651 80.2972 132.935C81.6022 135.219 81.9288 136.96 85.7362 136.525C89.5437 136.09 88.2381 132.935 87.0413 130.107C85.8445 127.278 78.339 117.488 76.3809 115.204C74.4227 112.92 73.5525 111.832 71.2684 109.004C68.9842 106.176 67.5703 105.741 66.9172 106.393Z" stroke="#212121" stroke-miterlimit="10" stroke-linecap="round" stroke-linejoin="round"/>
<path d="M70.0322 112.023C68.8054 112.023 68.8754 114.117 68.8754 114.117C69.7456 114.117 69.9633 112.92 69.9633 112.92C69.9633 112.92 70.8335 114.443 71.3772 114.879C71.9209 115.313 73.4442 115.422 73.4442 115.422C71.9488 114.089 71.2589 112.023 70.0322 112.023Z" fill="#FCBABE"/>
<path d="M67.1096 112.12C67.1096 112.12 66.8567 110.939 67.1096 110.602C67.3625 110.264 68.4594 109.251 68.4594 109.251" stroke="#212121" stroke-width="0.5" stroke-miterlimit="10" stroke-linecap="round" stroke-linejoin="round"/>
<path d="M67.7848 113.133C67.7848 113.133 67.4472 111.446 67.7848 111.192C68.1224 110.939 69.5568 110.095 69.5568 110.095" stroke="#212121" stroke-width="0.5" stroke-miterlimit="10" stroke-linecap="round" stroke-linejoin="round"/>
<path d="M73.116 188.884C73.116 188.884 70.1609 195.943 70.1609 199.719C70.1609 203.495 70.325 217.777 69.5042 220.568C68.6834 223.358 68.6834 224.672 69.8323 225.165C70.9812 225.657 73.6082 225.493 74.2649 225.985C74.9217 226.478 78.2049 227.627 79.0257 226.97C79.8465 226.313 74.1009 222.866 73.4441 221.553C72.7874 220.239 75.9065 206.122 77.5481 202.838C79.1897 199.555 81.4881 189.541 81.4881 188.392C81.4886 187.243 73.116 188.884 73.116 188.884Z" fill="white"/>
<mask id="mask5_1685_2032" style="mask-type:luminance" maskUnits="userSpaceOnUse" x="68" y="187" width="14" height="41">
<path d="M73.116 188.884C73.116 188.884 70.1609 195.943 70.1609 199.719C70.1609 203.495 70.325 217.777 69.5042 220.568C68.6834 223.358 68.6834 224.672 69.8323 225.165C70.9812 225.657 73.6082 225.493 74.2649 225.985C74.9217 226.478 78.2049 227.627 79.0257 226.97C79.8465 226.313 74.1009 222.866 73.4441 221.553C72.7874 220.239 75.9065 206.122 77.5481 202.838C79.1897 199.555 81.4881 189.541 81.4881 188.392C81.4886 187.243 73.116 188.884 73.116 188.884Z" fill="white"/>
</mask>
<g mask="url(#mask5_1685_2032)">
<path opacity="0.5" d="M73.116 188.884C73.116 188.884 70.1609 195.943 70.1609 199.719C70.1609 203.495 70.325 217.777 69.5042 220.568C68.6834 223.358 68.6834 224.672 69.8323 225.165C69.8123 223.015 70.7341 216.29 72.4982 207.03C74.2618 197.77 73.6003 194.022 73.6003 194.022C73.6003 194.022 76.9077 193.361 78.4509 192.919C79.0635 192.744 79.9527 192.396 80.8035 192.039C81.2204 190.206 81.4875 188.783 81.4875 188.392C81.4886 187.243 73.116 188.884 73.116 188.884Z" fill="#FCBABE"/>
</g>
<path d="M73.116 188.884C73.116 188.884 70.1609 195.943 70.1609 199.719C70.1609 203.495 70.325 217.777 69.5042 220.568C68.6834 223.358 68.6834 224.672 69.8323 225.165C70.9812 225.657 73.6082 225.493 74.2649 225.985C74.9217 226.478 78.2049 227.627 79.0257 226.97C79.8465 226.313 74.1009 222.866 73.4441 221.553C72.7874 220.239 75.9065 206.122 77.5481 202.838C79.1897 199.555 81.4881 189.541 81.4881 188.392C81.4886 187.243 73.116 188.884 73.116 188.884Z" stroke="#212121" stroke-miterlimit="10" stroke-linecap="round" stroke-linejoin="round"/>
<path d="M73.4439 221.553L72.1304 223.194L69.261 221.448C68.6989 223.639 68.8115 224.727 69.8321 225.164C70.981 225.657 73.608 225.492 74.2647 225.985C74.9214 226.477 78.2046 227.626 79.0254 226.97C79.8462 226.313 74.1006 222.866 73.4439 221.553Z" fill="#FCBABE" stroke="#212121" stroke-miterlimit="10" stroke-linecap="round" stroke-linejoin="round"/>
<path d="M56.3715 189.541C56.3715 189.541 53.745 192.66 52.7596 198.898C51.7748 205.137 51.6107 223.687 51.4462 226.314C51.2816 228.94 51.1175 229.433 52.7596 230.253C54.4012 231.074 58.1771 232.88 59.162 232.88C60.1469 232.88 60.4755 232.223 59.162 229.925C57.8485 227.626 54.2372 226.642 54.2372 224.671C54.2372 222.702 62.4452 199.883 63.4301 196.271C64.4149 192.66 64.4149 190.197 64.4149 190.197L56.3715 189.541Z" fill="white"/>
<mask id="mask6_1685_2032" style="mask-type:luminance" maskUnits="userSpaceOnUse" x="51" y="189" width="14" height="44">
<path d="M56.3715 189.541C56.3715 189.541 53.745 192.66 52.7596 198.898C51.7748 205.137 51.6107 223.687 51.4462 226.314C51.2816 228.94 51.1175 229.433 52.7596 230.253C54.4012 231.074 58.1771 232.88 59.162 232.88C60.1469 232.88 60.4755 232.223 59.162 229.925C57.8485 227.626 54.2372 226.642 54.2372 224.671C54.2372 222.702 62.4452 199.883 63.4301 196.271C64.4149 192.66 64.4149 190.197 64.4149 190.197L56.3715 189.541Z" fill="white"/>
</mask>
<g mask="url(#mask6_1685_2032)">
<path opacity="0.5" d="M52.7595 198.898C51.7746 205.137 51.6106 223.687 51.446 226.314C51.2851 228.892 51.1279 229.414 52.6748 230.209C52.7184 227.418 52.8599 221.881 53.3163 215.188C53.9778 205.487 56.1825 193.361 56.1825 193.361C56.1825 193.361 57.9461 194.022 61.2535 194.463C62.3672 194.612 63.2011 194.658 63.8237 194.657C64.4121 191.948 64.4147 190.197 64.4147 190.197L56.3708 189.541C56.3708 189.541 53.7448 192.66 52.7595 198.898Z" fill="#FCBABE"/>
</g>
<path d="M56.3715 189.541C56.3715 189.541 53.745 192.66 52.7596 198.898C51.7748 205.137 51.6107 223.687 51.4462 226.314C51.2816 228.94 51.1175 229.433 52.7596 230.253C54.4012 231.074 58.1771 232.88 59.162 232.88C60.1469 232.88 60.4755 232.223 59.162 229.925C57.8485 227.626 54.2372 226.642 54.2372 224.671C54.2372 222.702 62.4452 199.883 63.4301 196.271C64.4149 192.66 64.4149 190.197 64.4149 190.197L56.3715 189.541Z" stroke="#212121" stroke-miterlimit="10" stroke-linecap="round" stroke-linejoin="round"/>
<path d="M59.162 232.88C60.1469 232.88 60.4755 232.223 59.162 229.925C58.2303 228.294 56.147 227.324 55.0123 226.195L53.5805 227.627L51.4383 226.437C51.2774 228.952 51.1449 229.446 52.7597 230.254C54.4013 231.074 58.1772 232.88 59.162 232.88Z" fill="#FCBABE" stroke="#212121" stroke-miterlimit="10" stroke-linecap="round" stroke-linejoin="round"/>
<path d="M65.6122 91.2732C65.6122 91.2732 65.5034 89.7504 64.1983 88.7714C62.8932 87.7923 58.1067 87.5746 56.0397 90.1853C53.9728 92.796 54.843 99.2141 55.1695 99.8666C55.1695 99.8666 52.45 98.235 52.2323 100.737C52.0146 103.239 53.2114 104.435 54.5164 104.435C55.822 104.435 56.2569 103.456 56.2569 103.456C56.2569 103.456 59.0853 106.937 63.001 107.373C66.9173 107.808 69.0926 103.456 69.6363 100.846C70.1811 98.235 66.1559 94.1016 65.6122 91.2732Z" fill="white"/>
<mask id="mask7_1685_2032" style="mask-type:luminance" maskUnits="userSpaceOnUse" x="52" y="88" width="18" height="20">
<path d="M65.6122 91.2732C65.6122 91.2732 65.5034 89.7504 64.1983 88.7714C62.8932 87.7923 58.1067 87.5746 56.0397 90.1853C53.9728 92.796 54.843 99.2141 55.1695 99.8666C55.1695 99.8666 52.45 98.235 52.2323 100.737C52.0146 103.239 53.2114 104.435 54.5164 104.435C55.822 104.435 56.2569 103.456 56.2569 103.456C56.2569 103.456 59.0853 106.937 63.001 107.373C66.9173 107.808 69.0926 103.456 69.6363 100.846C70.1811 98.235 66.1559 94.1016 65.6122 91.2732Z" fill="white"/>
</mask>
<g mask="url(#mask7_1685_2032)">
<path opacity="0.5" d="M60.5928 104.508C57.9469 102.745 56.1833 98.996 55.5218 96.3506C55.0339 94.3993 55.6249 91.613 55.9688 90.2827C53.9949 92.9507 54.8467 99.2221 55.169 99.8668C55.169 99.8668 52.4495 98.2352 52.2318 100.737C52.0141 103.239 53.2109 104.436 54.516 104.436C55.8216 104.436 56.2564 103.457 56.2564 103.457C56.2564 103.457 59.0848 106.937 63.0005 107.373C64.3235 107.52 65.443 107.114 66.3731 106.42C65.0675 106.421 62.8833 106.035 60.5928 104.508Z" fill="#FCBABE"/>
</g>
<path d="M65.6122 91.2732C65.6122 91.2732 65.5034 89.7504 64.1983 88.7714C62.8932 87.7923 58.1067 87.5746 56.0397 90.1853C53.9728 92.796 54.843 99.2141 55.1695 99.8666C55.1695 99.8666 52.45 98.235 52.2323 100.737C52.0146 103.239 53.2114 104.435 54.5164 104.435C55.822 104.435 56.2569 103.456 56.2569 103.456C56.2569 103.456 59.0853 106.937 63.001 107.373C66.9173 107.808 69.0926 103.456 69.6363 100.846C70.1811 98.235 66.1559 94.1016 65.6122 91.2732Z" stroke="#212121" stroke-miterlimit="10" stroke-linecap="round" stroke-linejoin="round"/>
<path d="M64.031 92.9229C64.031 92.9229 63.7461 94.3478 64.1735 95.4168C64.601 96.4858 66.24 97.6258 66.026 98.0533C65.812 98.4807 65.0995 98.6232 65.0995 98.6232" stroke="#212121" stroke-miterlimit="10" stroke-linecap="round" stroke-linejoin="round"/>
<path d="M65.0285 101.83C65.0285 101.83 64.031 102.257 62.5345 101.331" stroke="#212121" stroke-miterlimit="10" stroke-linecap="round" stroke-linejoin="round"/>
<path d="M61.0686 95.4243C61.1422 95.8707 61.0286 96.2614 60.8151 96.2967C60.6016 96.3319 60.3687 95.9985 60.2956 95.5516C60.222 95.1051 60.3356 94.7145 60.5491 94.6792C60.7625 94.6445 60.995 94.9779 61.0686 95.4243Z" fill="#212121"/>
<path d="M65.5738 93.6624C65.7163 94.092 65.6653 94.4953 65.4597 94.5637C65.2541 94.632 64.9723 94.3386 64.8298 93.9096C64.6873 93.48 64.7383 93.0767 64.9439 93.0083C65.149 92.9394 65.4313 93.2328 65.5738 93.6624Z" fill="#212121"/>
<path d="M58.7581 94.5618C58.7581 94.5618 58.5441 92.9944 59.7556 92.4954C60.9671 91.9964 61.608 92.3529 61.608 92.3529" stroke="#212121" stroke-miterlimit="10" stroke-linecap="round" stroke-linejoin="round"/>
<path d="M63.8885 92.2817C63.8885 92.2817 64.0174 91.0097 64.815 91.1417" stroke="#212121" stroke-miterlimit="10" stroke-linecap="round" stroke-linejoin="round"/>
<path d="M73.988 190.589C73.988 190.589 76.8163 190.589 82.3642 189.501C87.9121 188.413 89.0001 187.434 89.0001 187.434C89.0001 187.434 87.5861 176.992 87.3684 172.314C87.1534 167.686 84.2772 151.46 82.8464 146.164C81.1417 147.365 78.5058 148.684 74.4297 149.813C66.8931 151.9 60.9172 149.566 58.0541 148.014C57.5136 149.358 55.7879 153.862 55.6044 156.976C55.3867 160.675 56.3657 163.938 56.4746 167.854C56.5834 171.77 52.2323 189.61 52.2323 189.61C52.2323 189.61 56.2574 191.46 62.675 192.547C69.0932 193.635 74.0968 192.33 74.0968 192.33L73.988 190.589Z" fill="#212121" stroke="#212121" stroke-miterlimit="10" stroke-linecap="round" stroke-linejoin="round"/>
<path d="M73.9879 190.59L73.4442 158.842L76.3993 153.753" stroke="white" stroke-miterlimit="10" stroke-linecap="round" stroke-linejoin="round"/>
<path d="M64.3796 151.36C64.3796 151.36 64.1935 153.037 62.8894 154.527C61.5854 156.018 60.4675 156.39 60.4675 156.39" stroke="white" stroke-width="0.5" stroke-miterlimit="10" stroke-linecap="round" stroke-linejoin="round"/>
<path d="M59.1583 188.59C58.9343 190.108 58.7913 191.04 58.7913 191.04" stroke="white" stroke-width="0.5" stroke-miterlimit="10" stroke-linecap="round" stroke-linejoin="round"/>
<path d="M61.0266 150.615C61.0266 150.615 59.5365 155.459 60.0954 160.675C60.6543 165.891 61.0266 175.019 60.2815 180.607C59.9913 182.784 59.701 184.848 59.455 186.557" stroke="white" stroke-width="0.5" stroke-miterlimit="10" stroke-linecap="round" stroke-linejoin="round"/>
<path d="M53.5747 186.755C53.5747 186.755 59.3498 191.412 72.7623 189.922" stroke="white" stroke-width="0.5" stroke-miterlimit="10" stroke-linecap="round" stroke-linejoin="round"/>
<path d="M75.557 188.245C75.557 188.245 81.3321 188.618 88.0383 184.706" stroke="white" stroke-width="0.5" stroke-miterlimit="10" stroke-linecap="round" stroke-linejoin="round"/>
<defs>
<linearGradient id="paint0_linear_1685_2032" x1="130.472" y1="0" x2="130.472" y2="221.802" gradientUnits="userSpaceOnUse">
<stop stop-color="white" stop-opacity="0.93"/>
<stop offset="1" stop-color="white"/>
</linearGradient>
</defs>
</svg>
