<svg width="261" height="240" viewBox="0 0 261 240" fill="none" xmlns="http://www.w3.org/2000/svg">
<path d="M192.192 208.9C192.192 208.9 223.596 206.946 245.186 168.508C266.776 130.071 262.851 71.4368 236.026 38.8625C209.202 6.28814 167.33 -4.78712 127.421 5.63666C107.976 10.7156 95.0093 23.8887 83.8033 39.7667C74.042 53.5984 63.0657 66.933 48.2901 75.6871C33.6598 84.3544 18.6213 91.268 11.2335 107.742C-6.74583 147.831 6.39342 194.478 48.9117 210.203C94.709 227.142 171.256 218.021 192.192 208.9Z" fill="#1F9108"/>
<path d="M192.262 210.814C192.262 210.814 224.101 208.824 245.991 169.688C267.88 130.553 263.9 70.8542 236.704 37.6884C209.508 4.52261 167.056 -6.75376 126.594 3.85929C106.879 9.0305 93.7327 22.4427 82.3714 38.6091C72.4747 52.6919 61.3463 66.2687 46.3659 75.1817C31.5329 84.0064 16.2859 91.0455 8.79574 107.818C-9.43285 148.636 3.88852 196.129 46.9961 212.14C93.4282 229.387 171.036 220.1 192.262 210.814Z" fill="url(#paint0_linear_1684_1103)"/>
<path d="M135.443 240C198.026 240 248.759 235.545 248.759 230.05C248.759 224.555 198.026 220.101 135.443 220.101C72.8601 220.101 22.1267 224.555 22.1267 230.05C22.1267 235.545 72.8601 240 135.443 240Z" fill="#1F9108"/>
<path opacity="0.9" d="M135.443 240C198.026 240 248.759 235.545 248.759 230.05C248.759 224.555 198.026 220.101 135.443 220.101C72.8601 220.101 22.1267 224.555 22.1267 230.05C22.1267 235.545 72.8601 240 135.443 240Z" fill="white"/>
<path d="M19.895 104.21V110.095" stroke="#1F9108" stroke-miterlimit="10" stroke-linecap="round" stroke-linejoin="round"/>
<path d="M22.8374 107.152H16.9531" stroke="#1F9108" stroke-miterlimit="10" stroke-linecap="round" stroke-linejoin="round"/>
<path d="M220.659 53.7983V59.6826" stroke="#1F9108" stroke-miterlimit="10" stroke-linecap="round" stroke-linejoin="round"/>
<path d="M223.601 56.7402H217.717" stroke="#1F9108" stroke-miterlimit="10" stroke-linecap="round" stroke-linejoin="round"/>
<path d="M137.081 8.25122V14.1348" stroke="#212121" stroke-miterlimit="10" stroke-linecap="round" stroke-linejoin="round"/>
<path d="M140.023 11.1931H134.139" stroke="#212121" stroke-miterlimit="10" stroke-linecap="round" stroke-linejoin="round"/>
<path d="M40.2371 170.1V175.984" stroke="#1F9108" stroke-miterlimit="10" stroke-linecap="round" stroke-linejoin="round"/>
<path d="M43.179 173.042H37.2954" stroke="#1F9108" stroke-miterlimit="10" stroke-linecap="round" stroke-linejoin="round"/>
<path d="M218.026 32.5924C218.026 35.2788 215.848 37.4565 213.161 37.4565C210.475 37.4565 208.297 35.2788 208.297 32.5924C208.297 29.9059 210.475 27.7283 213.161 27.7283C215.847 27.7283 218.026 29.9059 218.026 32.5924Z" stroke="#212121" stroke-miterlimit="10" stroke-linecap="round" stroke-linejoin="round"/>
<path d="M9.84069 149.411C12.3226 148.383 13.5012 145.538 12.4731 143.056C11.4451 140.574 8.59965 139.395 6.11772 140.423C3.63578 141.451 2.45719 144.297 3.48526 146.779C4.51334 149.261 7.35876 150.439 9.84069 149.411Z" stroke="#212121" stroke-miterlimit="10" stroke-linecap="round" stroke-linejoin="round"/>
<path d="M240.136 82.3409C240.136 82.9518 239.641 83.4466 239.03 83.4466C238.42 83.4466 237.924 82.9518 237.924 82.3409C237.924 81.7306 238.419 81.2351 239.03 81.2351C239.641 81.2358 240.136 81.7306 240.136 82.3409Z" stroke="#212121" stroke-miterlimit="10" stroke-linecap="round" stroke-linejoin="round"/>
<path d="M71.4327 66.4214C71.4327 67.0323 70.9379 67.5272 70.3269 67.5272C69.716 67.5272 69.2212 67.0323 69.2212 66.4214C69.2212 65.8112 69.716 65.3157 70.3269 65.3157C70.9379 65.3157 71.4327 65.8112 71.4327 66.4214Z" stroke="#212121" stroke-miterlimit="10" stroke-linecap="round" stroke-linejoin="round"/>
<path d="M257.332 131.65L257.355 131.62C257.355 131.62 257.34 131.619 257.317 131.616C257.308 131.594 257.302 131.581 257.302 131.581L257.279 131.613C256.356 131.52 246.811 130.701 238.099 135.227C241.476 130.872 243.745 125.234 243.031 118.09C240.929 97.0672 221.089 85.0293 219.561 84.1318V84.0754C219.561 84.0754 219.542 84.0861 219.512 84.1033C219.483 84.0861 219.464 84.0754 219.464 84.0754V84.1318C217.936 85.0293 198.096 97.0672 195.994 118.09C195.536 122.676 196.308 126.642 197.813 130.047C186.642 123.368 173.609 124.492 172.409 124.613L172.381 124.575C172.381 124.575 172.374 124.591 172.362 124.618C172.333 124.621 172.316 124.623 172.316 124.623L172.343 124.661C171.754 126.022 164.297 143.946 173.256 159.183C181.267 172.807 198.069 169.205 202.63 167.926C206.466 171.954 213.454 181.118 216.544 196.763H212.187L214.286 226.389H224.078L226.177 196.763H221.053C224.069 183.593 229.099 173.716 233.56 166.968C238.13 168.104 250.497 170.028 256.591 159.662C263.86 147.299 257.81 132.755 257.332 131.65ZM219.214 131.534L208.866 117.162C208.775 117.036 208.803 116.86 208.93 116.769C209.056 116.679 209.232 116.707 209.323 116.833L219.231 130.594V116.035L219.214 116.057L208.866 101.684C208.775 101.558 208.803 101.383 208.93 101.292C209.056 101.202 209.232 101.229 209.323 101.356L219.231 115.118V93.923C219.231 93.7678 219.357 93.6418 219.512 93.6418C219.668 93.6418 219.794 93.7678 219.794 93.923V114.412L230.54 100.783C230.637 100.661 230.813 100.64 230.935 100.737C231.058 100.833 231.079 101.01 230.983 101.132L219.794 115.322V129.889L230.541 116.26C230.638 116.137 230.814 116.117 230.936 116.213C231.058 116.309 231.079 116.486 230.983 116.608L219.795 130.798V143.115L230.541 129.485C230.638 129.363 230.815 129.343 230.937 129.439C231.059 129.535 231.08 129.712 230.984 129.834L219.796 144.024V144.292H218.879L208.868 130.387C208.777 130.261 208.805 130.085 208.932 129.994C209.058 129.904 209.234 129.932 209.325 130.058L219.233 143.82V131.512L219.214 131.534ZM202.774 166.621L201.754 165.226L187.192 161.165C187.067 161.13 186.994 161.001 187.029 160.876C187.064 160.751 187.193 160.678 187.318 160.712L201.304 164.611L195.225 156.293L180.663 152.233C180.538 152.198 180.465 152.069 180.5 151.943C180.534 151.819 180.664 151.746 180.789 151.78L194.775 155.68L187.584 145.841L173.023 141.781C172.897 141.746 172.824 141.617 172.859 141.491C172.894 141.367 173.024 141.293 173.149 141.328L187.135 145.227L177.02 131.389C176.943 131.284 176.966 131.137 177.071 131.06C177.176 130.983 177.323 131.006 177.4 131.111L187.864 145.426L187.762 131.24C187.76 131.11 187.865 131.004 187.995 131.003C188.125 131.002 188.231 131.107 188.232 131.237L188.339 146.052L188.316 146.046L195.504 155.879L195.402 141.693C195.4 141.564 195.506 141.458 195.635 141.456C195.765 141.455 195.871 141.56 195.872 141.69L195.979 156.506L195.956 156.5L202.032 164.812L201.93 150.626C201.929 150.497 202.034 150.39 202.163 150.388C202.293 150.388 202.4 150.492 202.4 150.622L202.507 165.438L202.485 165.432L203.355 166.623H202.774V166.621ZM204.429 166.621C206.555 163.392 212.681 152.781 209.022 142.575C212.7 145.015 216.204 146.507 218.098 147.22V193.276C214.739 179.165 208.406 170.699 204.547 166.621H204.429ZM220.35 190.441V147.431C221.9 146.878 225.309 145.528 229.03 143.201C223.188 152.567 229.732 163.383 231.457 165.935C227.608 171.796 223.4 179.905 220.35 190.441ZM256.78 145.542L244.965 148.837L239.13 156.82L250.478 153.656C250.58 153.628 250.685 153.687 250.714 153.789C250.742 153.89 250.682 153.996 250.581 154.024L238.766 157.319L233.832 164.068L245.181 160.904C245.282 160.876 245.388 160.935 245.416 161.037C245.445 161.138 245.385 161.244 245.284 161.272L233.469 164.567L232.848 165.416C232.736 165.351 232.624 165.286 232.519 165.218L232.874 164.733L232.856 164.738L232.943 152.717C232.943 152.611 233.03 152.526 233.135 152.527C233.24 152.528 233.325 152.614 233.325 152.719L233.242 164.231L238.172 157.486L238.154 157.491L238.24 145.47C238.241 145.365 238.327 145.28 238.432 145.28C238.537 145.282 238.623 145.368 238.622 145.473L238.539 156.984L244.371 149.005L244.352 149.011L244.439 136.989C244.439 136.884 244.525 136.799 244.631 136.8C244.736 136.8 244.821 136.887 244.821 136.992L244.738 148.503L253.228 136.887C253.291 136.802 253.41 136.784 253.495 136.846C253.58 136.908 253.598 137.027 253.537 137.112L245.329 148.339L256.677 145.175C256.78 145.147 256.884 145.206 256.913 145.307C256.941 145.409 256.882 145.514 256.78 145.542Z" fill="#1F9108"/>
<path d="M192.303 229.162H89.8824C87.4109 229.162 85.407 227.158 85.407 224.687V32.9219C85.407 30.4504 87.4109 28.4465 89.8824 28.4465H192.302C194.774 28.4465 196.778 30.4504 196.778 32.9219V224.687C196.778 227.159 194.775 229.162 192.303 229.162Z" fill="#212121" stroke="#212121" stroke-miterlimit="10" stroke-linecap="round" stroke-linejoin="round"/>
<path d="M188.773 229.162H86.3526C83.8811 229.162 81.8772 227.158 81.8772 224.687V32.9219C81.8772 30.4504 83.8811 28.4465 86.3526 28.4465H188.773C191.244 28.4465 193.248 30.4504 193.248 32.9219V224.687C193.248 227.159 191.244 229.162 188.773 229.162Z" fill="white"/>
<mask id="mask0_1684_1103" style="mask-type:luminance" maskUnits="userSpaceOnUse" x="81" y="28" width="113" height="202">
<path d="M188.773 229.162H86.3526C83.8811 229.162 81.8772 227.158 81.8772 224.687V32.9219C81.8772 30.4504 83.8811 28.4465 86.3526 28.4465H188.773C191.244 28.4465 193.248 30.4504 193.248 32.9219V224.687C193.248 227.159 191.244 229.162 188.773 229.162Z" fill="white"/>
</mask>
<g mask="url(#mask0_1684_1103)">
<path d="M193.248 104.182L95.3135 229.161H188.773C191.244 229.161 193.248 227.158 193.248 224.686V104.182Z" fill="#1F9108"/>
</g>
<mask id="mask1_1684_1103" style="mask-type:luminance" maskUnits="userSpaceOnUse" x="81" y="28" width="113" height="202">
<path d="M188.773 229.162H86.3526C83.8811 229.162 81.8772 227.158 81.8772 224.687V32.9219C81.8772 30.4504 83.8811 28.4465 86.3526 28.4465H188.773C191.244 28.4465 193.248 30.4504 193.248 32.9219V224.687C193.248 227.159 191.244 229.162 188.773 229.162Z" fill="white"/>
</mask>
<g mask="url(#mask1_1684_1103)">
<path opacity="0.95" d="M193.248 104.182L95.3135 229.161H188.773C191.244 229.161 193.248 227.158 193.248 224.686V104.182Z" fill="white"/>
</g>
<path d="M188.773 229.162H86.3526C83.8811 229.162 81.8772 227.158 81.8772 224.687V32.9219C81.8772 30.4504 83.8811 28.4465 86.3526 28.4465H188.773C191.244 28.4465 193.248 30.4504 193.248 32.9219V224.687C193.248 227.159 191.244 229.162 188.773 229.162Z" stroke="#212121" stroke-miterlimit="10" stroke-linecap="round" stroke-linejoin="round"/>
<path d="M145.261 40.4359H131.397C130.611 40.4359 129.975 39.7991 129.975 39.0137C129.975 38.2283 130.611 37.5916 131.397 37.5916H145.261C146.047 37.5916 146.684 38.2283 146.684 39.0137C146.684 39.7997 146.047 40.4359 145.261 40.4359Z" fill="#212121" stroke="#212121" stroke-miterlimit="10" stroke-linecap="round" stroke-linejoin="round"/>
<path d="M186.21 211.221H88.915V40.6003H111.977L114.571 42.7528C115.478 43.505 116.618 43.9169 117.796 43.9169H158.485C159.712 43.9169 160.897 43.4705 161.819 42.6606L164.164 40.6003H186.21V211.221H186.21Z" fill="#212121" stroke="#212121" stroke-miterlimit="10" stroke-linecap="round" stroke-linejoin="round"/>
<path d="M107.168 174.434H167.957" stroke="white" stroke-miterlimit="10" stroke-linecap="round" stroke-linejoin="round"/>
<path d="M107.168 182.433H167.957" stroke="white" stroke-miterlimit="10" stroke-linecap="round" stroke-linejoin="round"/>
<path d="M107.168 190.431H167.957" stroke="white" stroke-miterlimit="10" stroke-linecap="round" stroke-linejoin="round"/>
<path d="M112.801 100.165C109.448 105.016 107.484 110.901 107.484 117.245C107.484 133.857 120.951 147.324 137.563 147.324C154.175 147.324 167.641 133.857 167.641 117.245C167.641 100.633 154.175 87.1663 137.563 87.1663C135.684 87.1663 133.847 87.3387 132.064 87.6677" stroke="white" stroke-miterlimit="10" stroke-linecap="round" stroke-linejoin="round"/>
<path d="M117.909 94.4751C116.896 95.35 115.942 96.2913 115.054 97.2922" stroke="white" stroke-miterlimit="10" stroke-linecap="round" stroke-linejoin="round"/>
<path d="M161.032 127.249C166.555 114.281 160.519 99.2917 147.552 93.7691C134.584 88.2466 119.595 94.2821 114.072 107.25C108.55 120.217 114.585 135.207 127.553 140.729C140.52 146.252 155.51 140.216 161.032 127.249Z" fill="#1F9108"/>
<path d="M125.774 114.605L135.455 125.606L151.296 103.165" stroke="white" stroke-width="6" stroke-miterlimit="10" stroke-linecap="round" stroke-linejoin="round"/>
<path d="M161.819 42.6606C160.897 43.4705 159.712 43.9169 158.485 43.9169H117.796C116.618 43.9169 115.478 43.505 114.571 42.7528L111.977 40.6003H88.915V58.0562H186.21V40.6003H164.164L161.819 42.6606Z" fill="#1F9108" stroke="#212121" stroke-miterlimit="10" stroke-linecap="round" stroke-linejoin="round"/>
<path d="M140.67 216.48C140.67 215.259 139.68 214.269 138.459 214.269C137.238 214.269 136.248 215.259 136.248 216.48C136.248 217.701 137.238 218.691 138.459 218.691C139.68 218.691 140.67 217.701 140.67 216.48Z" fill="#212121" stroke="#212121" stroke-miterlimit="10" stroke-linecap="round" stroke-linejoin="round"/>
<path d="M54.1282 148.624L45.452 226.226C45.452 226.226 39.0915 231.759 39.648 233.996C40.2045 236.232 47.5514 232.688 48.5637 230.825C49.5759 228.962 50.0893 225.991 50.0893 225.991L68.3597 167.64L82.4067 230.238C82.4067 230.238 88.4124 235.142 91.7243 234.974C95.0362 234.806 93.8635 233.507 91.9711 231.112C90.078 228.716 85.8022 227.348 85.8022 227.348L83.6955 146.669L54.1282 148.624Z" fill="#212121" stroke="#212121" stroke-miterlimit="10" stroke-linecap="round" stroke-linejoin="round"/>
<path d="M83.1731 145.303L54.0251 146.783L54.2269 150.758L83.3749 149.278L83.1731 145.303Z" fill="#212121" stroke="#212121" stroke-miterlimit="10" stroke-linecap="round" stroke-linejoin="round"/>
<path d="M72.1168 147.824C72.1672 148.81 70.9095 149.675 69.3076 149.756C67.7064 149.837 66.3671 149.104 66.3174 148.118C66.267 147.133 67.5246 146.268 69.1265 146.187C70.7278 146.105 72.067 146.838 72.1168 147.824Z" fill="white"/>
<path d="M67.1241 107.042L56.1628 110.255L57.5253 146.881L83.2294 146.24L79.9779 108.381L67.1241 107.042Z" fill="white" stroke="#212121" stroke-miterlimit="10" stroke-linecap="round" stroke-linejoin="round"/>
<path d="M62.3307 107.451L60.8575 169.958L46.8987 163.195L53.0357 143.456L48.8515 110.129L62.3307 107.451Z" fill="#BFDCB9" stroke="#212121" stroke-miterlimit="10" stroke-linecap="round" stroke-linejoin="round"/>
<path d="M73.4272 106.887L81.2278 168.923L94.4298 160.78L86.3241 141.765L87.1081 108.184L73.4272 106.887Z" fill="#BFDCB9" stroke="#212121" stroke-miterlimit="10" stroke-linecap="round" stroke-linejoin="round"/>
<path d="M65.1218 114.449L67.2942 117.991L65.5583 142.654L69.6808 147.536L71.818 141.672L68.514 118.04L70.5544 114.616L67.592 110.781L65.1218 114.449Z" fill="#212121" stroke="#212121" stroke-miterlimit="10" stroke-linecap="round" stroke-linejoin="round"/>
<path d="M67.8094 113.98L63.7048 117.067L60.4187 109.042L62.266 106.181L72.3133 105.67L74.6899 108.871L72.7358 116.165L67.8094 113.98Z" fill="white" stroke="#212121" stroke-miterlimit="10" stroke-linecap="round" stroke-linejoin="round"/>
<path d="M63.1057 103.094L64.029 108.195L67.8099 113.981L71.2824 107.162L71.0642 102.856L63.1057 103.094Z" fill="white" stroke="#212121" stroke-miterlimit="10" stroke-linecap="round" stroke-linejoin="round"/>
<path d="M48.8512 110.129L30.2366 132.66L42.6041 147.308L47.5863 144.065L41.4731 131.591L50.6024 124.983L48.8512 110.129Z" fill="#BFDCB9" stroke="#212121" stroke-miterlimit="10" stroke-linecap="round" stroke-linejoin="round"/>
<path d="M47.5862 144.065L48.3331 145.688L44.1363 148.06L43.5725 146.76L47.5862 144.065Z" fill="white" stroke="#212121" stroke-miterlimit="10" stroke-linecap="round" stroke-linejoin="round"/>
<path d="M48.3331 145.688L52.6022 151.282L51.1959 153.014L50.1771 152.568L48.1082 154.333C48.1082 154.333 46.5925 153.912 46.4015 153.424C46.2105 152.936 44.1562 151.711 44.1137 150.883C44.0719 150.056 44.1363 148.06 44.1363 148.06L48.3331 145.688Z" fill="white" stroke="#212121" stroke-miterlimit="10" stroke-linecap="round" stroke-linejoin="round"/>
<path d="M97.4743 112.582C97.4743 112.582 97.9452 111.307 97.6374 110.518C97.3297 109.729 96.6544 106.994 96.7871 106.094C96.9197 105.194 98.2822 103.874 98.4016 102.706C98.521 101.539 98.3777 100.474 98.4347 99.8454C98.4925 99.2172 99.2719 98.7303 99.9358 99.5011C100.6 100.271 100.998 101.055 100.682 101.876C100.366 102.696 100.377 104.661 100.377 104.661C100.377 104.661 101.434 106.126 102.019 107.079C102.603 108.033 102.552 110.537 102.156 111.54C101.76 112.543 100.647 113.492 100.647 113.492L100.711 115.222L97.4743 112.582Z" fill="white" stroke="#212121" stroke-miterlimit="10" stroke-linecap="round" stroke-linejoin="round"/>
<path d="M99.4141 103.279C99.4141 103.279 98.9471 104.643 99.7676 104.959C100.587 105.275 103.917 105.731 103.952 104.657C103.986 103.583 104.049 103.044 103.514 103.071C102.979 103.098 100.475 103.046 100.475 103.046C100.475 103.046 99.3112 103.017 99.4141 103.279Z" fill="white" stroke="#212121" stroke-miterlimit="10" stroke-linecap="round" stroke-linejoin="round"/>
<path d="M99.7939 109.964C99.7939 109.964 99.4596 110.979 100.051 111.215C100.642 111.451 103.04 111.795 103.063 110.996C103.087 110.196 103.131 109.794 102.746 109.814C102.361 109.834 100.557 109.792 100.557 109.792C100.557 109.792 99.7196 109.769 99.7939 109.964Z" fill="white" stroke="#212121" stroke-miterlimit="10" stroke-linecap="round" stroke-linejoin="round"/>
<path d="M99.347 107.814C99.347 107.814 98.9596 108.989 99.6441 109.263C100.329 109.536 103.105 109.934 103.133 109.008C103.16 108.082 103.211 107.618 102.766 107.64C102.32 107.663 100.231 107.615 100.231 107.615C100.231 107.615 99.2614 107.587 99.347 107.814Z" fill="white" stroke="#212121" stroke-miterlimit="10" stroke-linecap="round" stroke-linejoin="round"/>
<path d="M99.0911 105.709C99.0911 105.709 98.6241 107.073 99.4446 107.388C100.264 107.704 103.594 108.161 103.628 107.087C103.663 106.013 103.725 105.473 103.19 105.501C102.656 105.528 100.151 105.476 100.151 105.476C100.151 105.476 98.9883 105.446 99.0911 105.709Z" fill="white" stroke="#212121" stroke-miterlimit="10" stroke-linecap="round" stroke-linejoin="round"/>
<path d="M97.0962 113.941L97.6162 111.859L101.209 114L100.61 116.264L97.0962 113.941Z" fill="white" stroke="#212121" stroke-miterlimit="10" stroke-linecap="round" stroke-linejoin="round"/>
<path d="M87.1082 108.185L93.9961 122.834L97.375 113.412L100.69 116.565L97.2961 134.042C96.8264 136.461 93.6923 137.145 92.2575 135.142L86.7593 127.464L87.1082 108.185Z" fill="#BFDCB9" stroke="#212121" stroke-miterlimit="10" stroke-linecap="round" stroke-linejoin="round"/>
<path d="M59.8987 97.1351C59.8987 97.1351 58.5091 95.6526 58.3253 96.7371C58.1416 97.8216 58.7147 99.7041 59.5856 100.377C60.4559 101.049 61.236 99.9343 61.236 99.9343L59.8987 97.1351Z" fill="white" stroke="#212121" stroke-miterlimit="10" stroke-linecap="round" stroke-linejoin="round"/>
<path d="M73.0644 96.4665C73.0644 96.4665 74.2968 94.8506 74.5893 95.9113C74.8818 96.9719 74.5024 98.9028 73.7045 99.6597C72.9065 100.417 72.0183 99.3871 72.0183 99.3871L73.0644 96.4665Z" fill="white" stroke="#212121" stroke-miterlimit="10" stroke-linecap="round" stroke-linejoin="round"/>
<path d="M60.4539 98.66L59.1167 95.8608C59.1167 95.8608 57.5837 93.9073 56.9496 90.8335C56.3155 87.7597 57.3801 85.1966 58.7737 84.4086C60.1673 83.6213 61.3772 83.9178 61.3772 83.9178C61.3772 83.9178 61.6439 82.1122 65.9866 80.5773C70.3293 79.0424 75.1278 81.7852 75.0575 82.745C74.9865 83.7042 73.8131 84.1221 73.8131 84.1221C73.8131 84.1221 77.2225 85.3824 75.9901 86.9982C74.7576 88.614 73.1199 89.2946 73.1199 89.2946C73.1199 89.2946 73.5497 90.7061 73.7235 91.7728C73.8973 92.8394 72.9355 97.4282 72.9355 97.4282L70.5768 90.9768L63.1887 91.3522C63.1887 91.3522 62.7503 94.4804 61.9709 95.5954C61.1915 96.7105 61.157 98.3847 61.157 98.3847C61.157 98.3847 60.8598 99.5952 60.4539 98.66Z" fill="#212121" stroke="#212121" stroke-miterlimit="10" stroke-linecap="round" stroke-linejoin="round"/>
<path d="M61.7727 87.0039C61.7727 87.0039 61.7282 90.8292 61.3481 92.7602C60.9681 94.6911 59.8132 95.4665 59.8132 95.4665C59.8132 95.4665 60.7525 99.8391 61.9458 102.168C63.1391 104.497 65.6259 106.401 68.1219 106.155C70.618 105.909 72.6239 103.059 72.8607 100.658C73.0968 98.2564 71.928 89.3554 71.928 89.3554C71.928 89.3554 64.1115 90.7079 61.7727 87.0039Z" fill="white" stroke="#212121" stroke-miterlimit="10" stroke-linecap="round" stroke-linejoin="round"/>
<path d="M62.4302 95.9788C62.4302 95.9788 63.8278 95.1324 65.0828 95.8442" stroke="#212121" stroke-miterlimit="10" stroke-linecap="round" stroke-linejoin="round"/>
<path d="M62.3291 93.9893C62.3291 93.9893 62.483 92.6521 64.6932 92.5393" stroke="#212121" stroke-miterlimit="10" stroke-linecap="round" stroke-linejoin="round"/>
<path d="M68.2239 92.2501C68.2239 92.2501 69.9584 91.4973 71.1425 92.9884" stroke="#212121" stroke-miterlimit="10" stroke-linecap="round" stroke-linejoin="round"/>
<path d="M67.4465 94.3948C67.4465 94.3948 67.8021 97.0361 67.8193 97.3678C67.8359 97.6994 68.9469 97.7538 68.6491 98.4337C68.3513 99.1136 67.3902 99.8273 66.5889 99.3139" stroke="#212121" stroke-miterlimit="10" stroke-linecap="round" stroke-linejoin="round"/>
<path d="M68.6949 101.533C68.6949 101.533 67.8498 102.352 66.1531 101.663" stroke="#212121" stroke-miterlimit="10" stroke-linecap="round" stroke-linejoin="round"/>
<path d="M70.3708 95.243C70.3954 95.7312 70.1685 96.1398 69.8634 96.1551C69.5583 96.1703 69.2909 95.7869 69.2657 95.2987C69.2412 94.8105 69.468 94.4019 69.7732 94.3867C70.079 94.3714 70.3463 94.7548 70.3708 95.243Z" fill="#212121"/>
<defs>
<linearGradient id="paint0_linear_1684_1103" x1="130.472" y1="0" x2="130.472" y2="221.802" gradientUnits="userSpaceOnUse">
<stop stop-color="white" stop-opacity="0.93"/>
<stop offset="1" stop-color="white"/>
</linearGradient>
</defs>
</svg>
