<svg width="22" height="20" viewBox="0 0 22 20" fill="none" xmlns="http://www.w3.org/2000/svg">
<rect x="6" y="8" width="3" height="5" fill="#FF9900"/>
<path d="M13 5H18L17 8H12L13 5Z" fill="#FF9900"/>
<path d="M21.3555 15.5072H20.6192V7.70681C20.6192 7.60464 20.596 7.50391 20.5512 7.41252L19.2385 4.732V2.06785C19.2385 1.70442 18.9499 1.40977 18.594 1.40977H13.0711C12.7151 1.40977 12.4266 1.70442 12.4266 2.06785V4.732L11.1139 7.41252C11.0691 7.50391 11.0458 7.60468 11.0458 7.70681V15.5072H9.57344V7.08721C9.57344 5.94734 9.13864 4.87564 8.34913 4.06954C7.80308 3.51202 7.50234 2.77085 7.50234 1.98256V1.31615H7.89336C8.74762 1.28377 8.74698 0.0320702 7.89336 0H3.06079C2.20653 0.0323773 2.20718 1.28408 3.06079 1.31615H3.45181V1.98252C3.45181 2.77081 3.15107 3.51202 2.60502 4.06954C1.81547 4.87564 1.38067 5.94734 1.38067 7.08721V15.5072H0.644531C0.288578 15.5072 0 15.8018 0 16.1653V18.9848C0 19.3482 0.288578 19.6429 0.644531 19.6429H21.3555C21.7114 19.6429 22 19.3482 22 18.9848V16.1653C22 15.8018 21.7114 15.5072 21.3555 15.5072ZM19.3302 7.86216V15.5072H17.8578V7.86216L18.594 6.35881L19.3302 7.86216ZM13.7156 2.72593H17.9495V4.22928H13.7156V2.72593ZM13.4695 5.54539H17.5511L16.8149 7.04874H12.7332L13.4695 5.54539ZM12.3349 8.36489H16.5688V15.5072H12.3349L12.3349 8.36489ZM2.66978 7.08721C2.66978 6.29893 2.97052 5.55776 3.51656 5.00019C4.30611 4.19409 4.74091 3.12239 4.74091 1.98252V1.31615H6.21328V1.98252C6.21328 3.12239 6.64808 4.19409 7.43763 5.00019C7.97474 5.54863 8.27454 6.2748 8.28416 7.04869H6.16748C5.81152 7.04869 5.52295 7.34334 5.52295 7.70677V13.3458C5.52295 13.7092 5.81152 14.0039 6.16748 14.0039H8.28438V15.5072H2.66978V7.08721ZM8.28438 8.36489V12.6877H6.81197V8.36489H8.28438ZM20.7109 18.3267H1.28906V16.8234H20.7109V18.3267Z" fill="#1E293B"/>
</svg>
