<svg width="22" height="22" viewBox="0 0 22 22" fill="none" xmlns="http://www.w3.org/2000/svg">
<path d="M14.3014 20.6996L11.2295 21.3138L11.8437 18.2419L18.6017 11.4839C18.9409 11.1447 19.4909 11.1447 19.8301 11.4839L21.0585 12.7123C21.3977 13.0515 21.3977 13.6015 21.0585 13.9407L14.3014 20.6996Z" fill="#FF9900"/>
<path d="M13.9063 18.2419L20.2472 11.901L19.8301 11.4839C19.4909 11.1447 18.9409 11.1447 18.6017 11.4839L11.8437 18.2419L11.2295 21.3138L13.3783 20.8838L13.9063 18.2419Z" fill="#FF9900"/>
<path d="M9.16712 7.33439C9.09012 7.33439 9.01312 7.32155 8.93886 7.29588L0.459273 4.31657C0.184259 4.22031 0 3.95905 0 3.66754C0 3.37602 0.184259 3.11476 0.459273 3.0185L8.93886 0.0391894C9.08645 -0.0130631 9.24688 -0.0130631 9.39447 0.0391894L17.8741 3.0185C18.15 3.11476 18.3342 3.37602 18.3342 3.66754C18.3342 3.95905 18.15 4.22031 17.875 4.31657L9.39539 7.29588C9.32113 7.32155 9.24413 7.33439 9.16712 7.33439ZM2.76205 3.66754L9.16712 5.91806L15.5722 3.66754L9.16712 1.41701L2.76205 3.66754Z" fill="#1E293B"/>
<path d="M16.96 3.66699H18.335V8.47973H16.96V3.66699Z" fill="#1E293B"/>
<path d="M7.28053 17.7083L0.460189 15.3166C0.184259 15.2203 0 14.9591 0 14.6675V3.66699H1.37507V14.1798L7.73522 16.4111L7.28053 17.7083Z" fill="#1E293B"/>
<path d="M8.47949 6.64746H9.85456V16.2729H8.47949V6.64746Z" fill="#1E293B"/>
<path d="M11.2291 22.0014C11.0485 22.0014 10.8734 21.9308 10.7432 21.7997C10.5809 21.6365 10.5104 21.4037 10.5553 21.1781L11.1695 18.1062C11.1961 17.9733 11.2611 17.8514 11.3574 17.7551L18.1154 10.9971C18.7223 10.3903 19.7096 10.3903 20.3164 10.9971L21.5448 12.2265C22.1508 12.8333 22.1508 13.8197 21.5448 14.4266L14.7859 21.1846C14.6906 21.2799 14.5677 21.3459 14.4348 21.3725L11.3629 21.9867C11.3189 21.9968 11.274 22.0014 11.2291 22.0014ZM12.4767 18.582L12.1054 20.4374L13.9618 20.0671L20.5722 13.4558C20.6428 13.3852 20.6428 13.2706 20.5722 13.2L19.3438 11.9707C19.2833 11.9102 19.1485 11.9102 19.0871 11.9707L12.4767 18.582Z" fill="#1E293B"/>
</svg>
