<svg width="20" height="24" viewBox="0 0 20 24" fill="none" xmlns="http://www.w3.org/2000/svg">
<path d="M6 19.0588V22.9412C6 23.5235 5.52353 24 4.94118 24H1.05882C0.476471 24 0 23.5235 0 22.9412V19.0588C0 18.4765 0.476471 18 1.05882 18H4.94118C5.52353 18 6 18.4765 6 19.0588Z" fill="#FF9900"/>
<path d="M12.4 19.0588V22.9412C12.4 23.1922 12.1922 23.4 11.9412 23.4H8.05882C7.80784 23.4 7.6 23.1922 7.6 22.9412V19.0588C7.6 18.8078 7.80784 18.6 8.05882 18.6H11.9412C12.1922 18.6 12.4 18.8078 12.4 19.0588Z" stroke="#1E293B" stroke-width="1.2"/>
<path d="M5.4 19.0588V22.9412C5.4 23.1922 5.19216 23.4 4.94118 23.4H1.05882C0.807841 23.4 0.6 23.1922 0.6 22.9412V19.0588C0.6 18.8078 0.807841 18.6 1.05882 18.6H4.94118C5.19216 18.6 5.4 18.8078 5.4 19.0588Z" stroke="#1E293B" stroke-width="1.2"/>
<path d="M19.4 19.0588V22.9412C19.4 23.1922 19.1922 23.4 18.9412 23.4H15.0588C14.8078 23.4 14.6 23.1922 14.6 22.9412V19.0588C14.6 18.8078 14.8078 18.6 15.0588 18.6H18.9412C19.1922 18.6 19.4 18.8078 19.4 19.0588Z" stroke="#1E293B" stroke-width="1.2"/>
<path d="M18.9639 4.38778L10.0039 7.66778L1.04395 4.38778C1.08895 4.28111 1.18395 4.19222 1.31395 4.14333L9.81394 1.03667C9.93394 0.987778 10.0739 0.987778 10.1939 1.03667L18.6939 4.14778C18.8239 4.19222 18.9189 4.28111 18.9639 4.38778Z" fill="#FF9900"/>
<path d="M1.2465 12.939L9.7465 17.3834L9.7485 17.3843L9.7515 17.3866C9.7785 17.4003 9.8075 17.4083 9.8365 17.4172C9.8485 17.4208 9.859 17.427 9.871 17.4297C9.9135 17.4394 9.9565 17.4448 10 17.4448C10.0435 17.4448 10.0865 17.4394 10.129 17.4297C10.141 17.427 10.152 17.4208 10.1635 17.4172C10.192 17.4083 10.2215 17.3999 10.2485 17.3866L10.2515 17.3843L10.2535 17.3834L18.753 12.939C18.906 12.859 18.9995 12.7137 18.9995 12.5559L19 4.55589C19 4.51456 18.992 4.47411 18.9795 4.43544C18.9755 4.42256 18.969 4.411 18.9635 4.39856C18.9525 4.37322 18.9405 4.34878 18.9245 4.32567C18.9155 4.31278 18.906 4.30122 18.8955 4.28922C18.878 4.26878 18.859 4.25011 18.838 4.23278C18.8255 4.22256 18.8135 4.21233 18.7995 4.203C18.792 4.19767 18.786 4.19144 18.778 4.18656C18.7595 4.17544 18.739 4.16878 18.719 4.16033C18.709 4.15589 18.701 4.14878 18.69 4.14478L10.1895 1.03367C10.0675 0.988778 9.9305 0.988778 9.8085 1.03367L1.3095 4.14433C1.2995 4.14789 1.2925 4.15456 1.283 4.15856C1.2625 4.16744 1.241 4.17456 1.222 4.18611C1.214 4.191 1.208 4.19767 1.2005 4.20256C1.187 4.21189 1.175 4.22167 1.1625 4.23189C1.141 4.24967 1.122 4.26833 1.1045 4.28922C1.0945 4.30122 1.0845 4.31278 1.076 4.32522C1.06 4.34833 1.0475 4.37322 1.037 4.39856C1.0315 4.411 1.025 4.42211 1.021 4.435C1.008 4.47367 1 4.51411 1 4.55544V12.5559C1 12.7137 1.094 12.859 1.2465 12.939ZM2 5.21944L9.5 7.96478V16.2234L2 12.3017V5.21944ZM10.5 16.2234V7.96478L12 7.41589L18 5.21989L17.9995 12.3021L10.5 16.2234ZM9.9995 1.92567L17.1865 4.55589L10 7.18611L2.813 4.55544L9.9995 1.92567Z" fill="#1E293B" stroke="#1E293B" stroke-width="0.5"/>
</svg>
