<svg width="213" height="153" viewBox="0 0 213 153" fill="none" xmlns="http://www.w3.org/2000/svg">
<g filter="url(#filter0_d_298_295)">
<mask id="path-2-inside-1_298_295" fill="white">
<path d="M39 42C39 37.5817 42.5817 34 47 34H166C170.418 34 174 37.5817 174 42V111C174 115.418 170.418 119 166 119H47C42.5817 119 39 115.418 39 111V42Z"/>
</mask>
<path d="M39 42C39 37.5817 42.5817 34 47 34H166C170.418 34 174 37.5817 174 42V111C174 115.418 170.418 119 166 119H47C42.5817 119 39 115.418 39 111V42Z" fill="white"/>
<path d="M39 34H174H39ZM174 119H39H174ZM47 119C39.8203 119 34 113.18 34 106V47C34 39.8203 39.8203 34 47 34C45.3431 34 44 37.5817 44 42V111C44 115.418 45.3431 119 47 119ZM174 34V119V34Z" fill="#FFC144" mask="url(#path-2-inside-1_298_295)"/>
</g>
<path d="M15 71.7273C15 63.5936 21.5936 57 29.7273 57V57C31.5347 57 33 58.4652 33 60.2727V93.7273C33 95.5347 31.5348 97 29.7273 97V97C21.5936 97 15 90.4064 15 82.2727V71.7273Z" fill="#FFC144"/>
<path d="M198 71.7273C198 63.5936 191.406 57 183.273 57V57C181.465 57 180 58.4652 180 60.2727V93.7273C180 95.5347 181.465 97 183.273 97V97C191.406 97 198 90.4064 198 82.2727V71.7273Z" fill="#FFC144"/>
<path d="M99 24.7273C99 16.5936 92.4064 10 84.2727 10H73.7273C65.5936 10 59 16.5936 59 24.7273V24.7273C59 26.5347 60.4652 28 62.2727 28H95.7273C97.5347 28 99 26.5348 99 24.7273V24.7273Z" fill="#FFC144"/>
<path d="M154 24.7273C154 16.5936 147.406 10 139.273 10H128.727C120.594 10 114 16.5936 114 24.7273V24.7273C114 26.5347 115.465 28 117.273 28H150.727C152.535 28 154 26.5348 154 24.7273V24.7273Z" fill="#FFC144"/>
<path d="M99 128.273C99 136.406 92.4064 143 84.2727 143H73.7273C65.5936 143 59 136.406 59 128.273V128.273C59 126.465 60.4652 125 62.2727 125H95.7273C97.5347 125 99 126.465 99 128.273V128.273Z" fill="#FFC144"/>
<path d="M154 128.273C154 136.406 147.406 143 139.273 143H128.727C120.594 143 114 136.406 114 128.273V128.273C114 126.465 115.465 125 117.273 125H150.727C152.535 125 154 126.465 154 128.273V128.273Z" fill="#FFC144"/>
<defs>
<filter id="filter0_d_298_295" x="31" y="26" width="155" height="105" filterUnits="userSpaceOnUse" color-interpolation-filters="sRGB">
<feFlood flood-opacity="0" result="BackgroundImageFix"/>
<feColorMatrix in="SourceAlpha" type="matrix" values="0 0 0 0 0 0 0 0 0 0 0 0 0 0 0 0 0 0 127 0" result="hardAlpha"/>
<feOffset dx="2" dy="2"/>
<feGaussianBlur stdDeviation="5"/>
<feComposite in2="hardAlpha" operator="out"/>
<feColorMatrix type="matrix" values="0 0 0 0 0 0 0 0 0 0 0 0 0 0 0 0 0 0 0.08 0"/>
<feBlend mode="normal" in2="BackgroundImageFix" result="effect1_dropShadow_298_295"/>
<feBlend mode="normal" in="SourceGraphic" in2="effect1_dropShadow_298_295" result="shape"/>
</filter>
</defs>
</svg>
