<svg width="213" height="153" viewBox="0 0 213 153" fill="none" xmlns="http://www.w3.org/2000/svg">
<g filter="url(#filter0_d_420_26353)">
<mask id="path-2-inside-1_420_26353" fill="white">
<path d="M39 72C39 51.0132 56.0132 34 77 34H136C156.987 34 174 51.0132 174 72V81C174 101.987 156.987 119 136 119H77C56.0132 119 39 101.987 39 81V72Z"/>
</mask>
<path d="M39 72C39 51.0132 56.0132 34 77 34H136C156.987 34 174 51.0132 174 72V81C174 101.987 156.987 119 136 119H77C56.0132 119 39 101.987 39 81V72Z" fill="white"/>
<path d="M39 34H174H39ZM174 119H39H174ZM77 119C54.3563 119 36 100.644 36 78V75C36 52.3563 54.3563 34 77 34C57.67 34 42 51.0132 42 72V81C42 101.987 57.67 119 77 119ZM174 34V119V34Z" fill="#1BA452" mask="url(#path-2-inside-1_420_26353)"/>
</g>
<path d="M15 71.7273C15 63.5936 21.5936 57 29.7273 57C31.5347 57 33 58.4653 33 60.2727V93.7273C33 95.5347 31.5347 97 29.7273 97C21.5936 97 15 90.4064 15 82.2727V71.7273Z" fill="#1BA452"/>
<path d="M198 71.7273C198 63.5936 191.406 57 183.273 57C181.465 57 180 58.4653 180 60.2727V93.7273C180 95.5347 181.465 97 183.273 97C191.406 97 198 90.4064 198 82.2727V71.7273Z" fill="#D9DEE4"/>
<path d="M103 24.7273C103 16.5936 96.4064 10 88.2727 10H77.7273C69.5936 10 63 16.5936 63 24.7273C63 26.5347 64.4652 28 66.2727 28H99.7273C101.535 28 103 26.5347 103 24.7273Z" fill="#D9DEE4"/>
<path d="M150 24.7273C150 16.5936 143.406 10 135.273 10H124.727C116.594 10 110 16.5936 110 24.7273C110 26.5347 111.465 28 113.273 28H146.727C148.535 28 150 26.5347 150 24.7273Z" fill="#D9DEE4"/>
<path d="M103 128.273C103 136.406 96.4064 143 88.2727 143H77.7273C69.5936 143 63 136.406 63 128.273C63 126.465 64.4652 125 66.2727 125H99.7273C101.535 125 103 126.465 103 128.273Z" fill="#D9DEE4"/>
<path d="M150 128.273C150 136.406 143.406 143 135.273 143H124.727C116.594 143 110 136.406 110 128.273C110 126.465 111.465 125 113.273 125H146.727C148.535 125 150 126.465 150 128.273Z" fill="#D9DEE4"/>
<defs>
<filter id="filter0_d_420_26353" x="31" y="26" width="155" height="105" filterUnits="userSpaceOnUse" color-interpolation-filters="sRGB">
<feFlood flood-opacity="0" result="BackgroundImageFix"/>
<feColorMatrix in="SourceAlpha" type="matrix" values="0 0 0 0 0 0 0 0 0 0 0 0 0 0 0 0 0 0 127 0" result="hardAlpha"/>
<feOffset dx="2" dy="2"/>
<feGaussianBlur stdDeviation="5"/>
<feComposite in2="hardAlpha" operator="out"/>
<feColorMatrix type="matrix" values="0 0 0 0 0 0 0 0 0 0 0 0 0 0 0 0 0 0 0.08 0"/>
<feBlend mode="normal" in2="BackgroundImageFix" result="effect1_dropShadow_420_26353"/>
<feBlend mode="normal" in="SourceGraphic" in2="effect1_dropShadow_420_26353" result="shape"/>
</filter>
</defs>
</svg>
