<svg width="268" height="153" viewBox="0 0 268 153" fill="none" xmlns="http://www.w3.org/2000/svg">
<g filter="url(#filter0_d_420_27005)">
<mask id="path-2-inside-1_420_27005" fill="white">
<path d="M39 42C39 37.5817 42.5817 34 47 34H221C225.418 34 229 37.5817 229 42V111C229 115.418 225.418 119 221 119H47C42.5817 119 39 115.418 39 111V42Z"/>
</mask>
<path d="M39 42C39 37.5817 42.5817 34 47 34H221C225.418 34 229 37.5817 229 42V111C229 115.418 225.418 119 221 119H47C42.5817 119 39 115.418 39 111V42Z" fill="white"/>
<path d="M39 34H229H39ZM229 119H39H229ZM47 119C39.8203 119 34 113.18 34 106V47C34 39.8203 39.8203 34 47 34C45.3431 34 44 37.5817 44 42V111C44 115.418 45.3431 119 47 119ZM229 34V119V34Z" fill="#FFC144" mask="url(#path-2-inside-1_420_27005)"/>
</g>
<path d="M15 71.7273C15 63.5936 21.5936 57 29.7273 57V57C31.5347 57 33 58.4652 33 60.2727V93.7273C33 95.5347 31.5348 97 29.7273 97V97C21.5936 97 15 90.4064 15 82.2727V71.7273Z" fill="#FFC144"/>
<path d="M253 71.7273C253 63.5936 246.406 57 238.273 57V57C236.465 57 235 58.4652 235 60.2727V93.7273C235 95.5347 236.465 97 238.273 97V97C246.406 97 253 90.4064 253 82.2727V71.7273Z" fill="#D9DEE4"/>
<path d="M99 24.7273C99 16.5936 92.4064 10 84.2727 10H73.7273C65.5936 10 59 16.5936 59 24.7273V24.7273C59 26.5347 60.4652 28 62.2727 28H95.7273C97.5347 28 99 26.5348 99 24.7273V24.7273Z" fill="#FFC144"/>
<path d="M154 24.7273C154 16.5936 147.406 10 139.273 10H128.727C120.594 10 114 16.5936 114 24.7273V24.7273C114 26.5347 115.465 28 117.273 28H150.727C152.535 28 154 26.5348 154 24.7273V24.7273Z" fill="#FFC144"/>
<path d="M209 24.7273C209 16.5936 202.406 10 194.273 10H183.727C175.594 10 169 16.5936 169 24.7273V24.7273C169 26.5347 170.465 28 172.273 28H205.727C207.535 28 209 26.5348 209 24.7273V24.7273Z" fill="#FFC144"/>
<path d="M99 128.273C99 136.406 92.4064 143 84.2727 143H73.7273C65.5936 143 59 136.406 59 128.273V128.273C59 126.465 60.4652 125 62.2727 125H95.7273C97.5347 125 99 126.465 99 128.273V128.273Z" fill="#FFC144"/>
<path d="M154 128.273C154 136.406 147.406 143 139.273 143H128.727C120.594 143 114 136.406 114 128.273V128.273C114 126.465 115.465 125 117.273 125H150.727C152.535 125 154 126.465 154 128.273V128.273Z" fill="#FFC144"/>
<path d="M209 128.273C209 136.406 202.406 143 194.273 143H183.727C175.594 143 169 136.406 169 128.273V128.273C169 126.465 170.465 125 172.273 125H205.727C207.535 125 209 126.465 209 128.273V128.273Z" fill="#D9DEE4"/>
<defs>
<filter id="filter0_d_420_27005" x="31" y="26" width="210" height="105" filterUnits="userSpaceOnUse" color-interpolation-filters="sRGB">
<feFlood flood-opacity="0" result="BackgroundImageFix"/>
<feColorMatrix in="SourceAlpha" type="matrix" values="0 0 0 0 0 0 0 0 0 0 0 0 0 0 0 0 0 0 127 0" result="hardAlpha"/>
<feOffset dx="2" dy="2"/>
<feGaussianBlur stdDeviation="5"/>
<feComposite in2="hardAlpha" operator="out"/>
<feColorMatrix type="matrix" values="0 0 0 0 0 0 0 0 0 0 0 0 0 0 0 0 0 0 0.08 0"/>
<feBlend mode="normal" in2="BackgroundImageFix" result="effect1_dropShadow_420_27005"/>
<feBlend mode="normal" in="SourceGraphic" in2="effect1_dropShadow_420_27005" result="shape"/>
</filter>
</defs>
</svg>
