<svg width="591" height="445" viewBox="0 0 591 445" fill="none" xmlns="http://www.w3.org/2000/svg">
<path d="M-4.22077e-05 87.0648L29.3953 104.067L0.78356 120.617L0.522341 120.767L0.522338 154.771L-4.81531e-05 155.073L0.522338 155.375L0.522335 189.379L29.3827 206.072L0.760555 222.626L0.499388 222.776L0.499385 257.985L30.6782 240.531L30.9394 240.38L30.9394 206.97L30.9624 206.983L30.9624 172.374L58.3799 156.517C58.6328 156.772 58.9546 156.955 59.3129 157.05L59.3129 223.373L88.7093 240.375L88.7092 274.377L116.656 290.54C116.609 290.713 116.575 290.892 116.575 291.08C116.575 291.266 116.608 291.444 116.654 291.616L88.9694 307.627L88.7082 307.778L88.7082 341.163L60.3806 324.78L60.3806 256.173L31.9184 272.634C31.5464 272.258 31.0324 272.026 30.462 272.026C29.3295 272.026 28.4111 272.946 28.4111 274.08C28.4111 275.033 29.062 275.827 29.9396 276.06L29.9396 341.744L0.758438 358.622L0.497272 358.772L0.497268 393.986L29.9406 376.957L29.9406 376.99L59.8572 359.687L89.776 376.99L89.776 342.372L118.887 325.535L119.148 325.384L119.148 293.059C120.026 292.827 120.677 292.032 120.677 291.08C120.677 290.127 120.026 289.334 119.148 289.101L119.148 256.77L89.7529 239.77L89.7529 206.372L118.103 189.976L118.103 223.379L147.499 240.381L147.499 240.986L148.022 240.684L148.544 240.985L148.544 240.382L177.677 223.53L177.938 223.38L177.938 188.167L149.478 204.628C149.106 204.253 148.591 204.018 148.02 204.018C147.45 204.018 146.935 204.252 146.563 204.628L119.147 188.773L119.147 120.159L89.2295 137.463L60.3556 120.765L31.4827 104.066L59.8332 87.6687L60.3556 87.9712L60.3556 87.3662L60.8779 87.0637L60.3556 86.7613L60.3556 52.7574L30.9603 35.756L30.9603 4.03373C31.8379 3.80138 32.4888 3.00802 32.4888 2.05454C32.4888 0.919993 31.5705 2.32216e-05 30.438 2.31226e-05C29.3054 2.30236e-05 28.3871 0.919993 28.3871 2.05454C28.3871 2.24084 28.4195 2.41877 28.4665 2.59146L0.781517 18.6038L0.520297 18.7545L0.520294 53.9662L29.9156 36.9638L29.9156 69.7588L-4.22077e-05 87.0648ZM29.8936 239.776L1.5431 256.173L1.54311 223.381L29.8936 206.984L29.8936 239.776ZM1.56711 121.371L29.9177 104.974L29.9177 137.768L1.56711 154.165L1.56711 121.371ZM1.56711 155.978L29.9177 172.375L29.9177 205.17L1.56711 188.772L1.56711 155.978ZM30.44 171.469L2.0895 155.072L14.9682 147.623L30.4389 138.674L57.8638 154.536C57.8178 154.707 57.7845 154.884 57.7845 155.072C57.7845 155.259 57.8178 155.436 57.8638 155.607L30.44 171.469ZM60.3567 188.768L60.3567 157.05C60.715 156.954 61.0378 156.772 61.2917 156.516L74.533 164.174L88.7082 172.372L88.7082 205.164L74.533 196.966L60.3567 188.768ZM59.3359 324.78L30.9854 341.177L30.9854 308.384L59.3359 291.987L59.3359 324.78ZM59.3359 257.985L59.3359 290.777L30.9854 307.174L30.9854 276.059C31.863 275.825 32.5128 275.032 32.5128 274.079C32.5128 273.893 32.4804 273.715 32.4334 273.544L59.3359 257.985ZM29.8936 375.775L1.54309 392.172L1.5431 359.377L29.8936 342.98L29.8936 375.775ZM30.9854 342.385L59.3359 325.989L59.3359 358.781L30.9854 375.177L30.9854 342.385ZM88.7312 375.177L60.3806 358.781L60.3806 325.989L88.7082 342.372L88.7082 342.989L88.7301 342.977L88.7301 375.177L88.7312 375.177ZM89.7529 341.177L89.7529 308.384L117.169 292.527C117.422 292.783 117.745 292.965 118.102 293.06L118.102 324.78L89.7529 341.177ZM118.103 257.376L118.103 289.102C117.747 289.196 117.426 289.377 117.173 289.63L89.7529 273.772L89.7529 240.98L118.103 257.376ZM60.3566 222.77L60.3567 189.978L74.5319 198.176L88.7071 206.374L88.7071 239.167L60.3566 222.77ZM176.893 189.982L176.893 222.776L148.542 239.173L148.542 208.053C149.42 207.821 150.071 207.027 150.071 206.074C150.071 205.887 150.039 205.712 149.993 205.54L176.893 189.982ZM147.499 208.053L147.499 239.172L119.148 222.775L119.148 189.983L146.049 205.541C146.003 205.712 145.97 205.888 145.97 206.075C145.97 207.026 146.62 207.821 147.499 208.053ZM118.103 188.768L89.7529 205.164L89.7529 172.374L118.103 155.977L118.103 188.768ZM118.103 154.767L89.7529 171.163L89.7529 138.369L118.103 121.972L118.103 154.767ZM88.7082 138.372L88.7082 171.163L74.533 162.965L61.8068 155.605C61.8527 155.434 61.8862 155.258 61.8862 155.072C61.8862 154.119 61.2353 153.326 60.3577 153.092L60.3577 121.975L88.7082 138.372ZM59.3119 153.093C58.9546 153.189 58.6318 153.371 58.3789 153.626L30.9613 137.769L30.9613 104.975L59.3119 121.372L59.3119 153.093ZM30.9624 103.161L30.4401 103.462L29.9177 103.16L29.9177 103.161L2.0895 87.0648L30.439 70.6673L58.7896 87.0648L30.9624 103.161ZM59.3119 86.1574L30.9613 69.7598L30.9613 36.9659L59.3119 53.3634L59.3119 86.1574ZM1.56712 52.1545L1.56712 19.3605L28.9847 3.50308C29.2376 3.75846 29.5593 3.94056 29.9166 4.03476L29.9166 35.757L1.56712 52.1545ZM175.364 257.079C175.364 257.265 175.398 257.443 175.444 257.615L147.759 273.627L147.498 273.778L147.498 341.746L120.245 357.509C119.873 356.987 119.267 356.645 118.579 356.645C117.446 356.645 116.528 357.565 116.528 358.699C116.528 359.652 117.179 360.446 118.056 360.678L118.056 393.988L147.453 376.984L147.453 410.384L177.892 427.989L177.892 392.776L149.048 376.094L177.415 359.687L204.84 375.548C204.794 375.719 204.761 375.896 204.761 376.084C204.761 377.218 205.679 378.138 206.812 378.138C207.944 378.138 208.863 377.218 208.863 376.084C208.863 375.131 208.213 374.337 207.334 374.105L207.334 342.99L207.335 308.382L236.207 291.684L264.557 308.081L235.946 324.632L235.684 324.782L235.684 358.784L235.162 359.086L235.684 359.389L235.684 392.788L206.55 409.638L206.289 409.788L206.289 445L236.468 427.544L236.729 427.395L236.729 393.997L265.08 410.394L265.08 410.998L265.602 410.696L295.52 428.001L295.52 395.07C295.878 394.974 296.201 394.791 296.455 394.536L323.871 410.391L323.871 444.991L353.267 427.988L353.267 427.995L383.444 410.541L383.706 410.39L383.706 376.993L412.056 393.39L412.056 393.994L412.579 393.692L413.101 393.994L413.101 393.39L441.973 376.693L471.891 393.995L471.891 359.389L500.241 342.993L500.241 376.393L530.681 393.998L560.076 410.999L560.076 376.39L587.494 360.534C587.866 360.909 588.38 361.142 588.949 361.142C590.082 361.142 591 360.222 591 359.088C591 357.953 590.082 357.033 588.949 357.033C588.38 357.033 587.865 357.266 587.494 357.641L560.076 341.784L560.076 307.175L529.897 324.632L529.636 324.782L529.636 358.181L501.286 341.785L501.286 307.179L472.824 323.64C472.572 323.385 472.249 323.202 471.891 323.108L471.891 290.783L441.45 273.178L441.45 307.179L412.055 290.178L412.055 325.389L440.927 342.087L412.58 358.483L382.661 341.178L382.661 375.784L354.31 392.181L354.31 325.381L383.445 308.53L383.706 308.379L383.706 273.166L355.243 289.628C354.871 289.252 354.357 289.02 353.788 289.02C352.656 289.02 351.737 289.94 351.737 291.075C351.737 292.027 352.388 292.82 353.266 293.054L353.266 324.779L324.132 341.631L323.87 341.782L323.87 375.18L295.519 358.784L295.519 327.061C296.396 326.828 297.047 326.035 297.047 325.082C297.047 324.895 297.014 324.718 296.968 324.546L324.653 308.533L324.914 308.384L324.914 273.173L294.996 290.476L265.6 273.473L236.205 290.475L206.81 273.473L177.936 290.172L177.936 259.057C178.813 258.825 179.464 258.031 179.464 257.078C179.464 255.943 178.546 255.023 177.413 255.023C176.283 255.024 175.364 255.944 175.364 257.079ZM148.544 274.382L175.961 258.525C176.214 258.781 176.536 258.963 176.894 259.058L176.894 290.777L176.372 291.08L148.544 307.175L148.544 274.382ZM206.289 341.177L177.938 324.78L177.938 291.986L206.289 308.384L206.289 341.177ZM176.893 324.78L148.542 341.177L148.542 308.384L176.893 291.987L176.893 324.78ZM148.544 342.385L176.894 325.989L176.894 358.781L148.544 375.177L148.544 342.385ZM119.102 392.172L119.102 360.675C119.98 360.443 120.63 359.65 120.63 358.697C120.63 358.631 120.616 358.569 120.61 358.505L147.452 342.98L147.452 375.775L119.102 392.172ZM176.847 426.176L148.496 409.779L148.496 376.985L176.847 393.382L176.847 426.176ZM206.288 374.105C205.931 374.2 205.608 374.382 205.355 374.637L177.938 358.78L177.938 325.989L206.288 342.385L206.288 374.105ZM265.601 342.689L293.952 359.086L281.073 366.535L265.602 375.484L237.252 359.086L250.13 351.638L265.601 342.689ZM294.474 391.111C294.117 391.206 293.795 391.389 293.541 391.644L266.646 376.089L294.474 359.993L294.474 391.111ZM266.125 376.994L293.026 392.553C292.98 392.725 292.947 392.903 292.947 393.089C292.947 393.276 292.98 393.453 293.026 393.624L266.125 409.183L266.125 376.994ZM266.125 341.783L266.125 308.988L293.026 324.548C292.98 324.719 292.947 324.896 292.947 325.082C292.947 326.034 293.596 326.827 294.475 327.061L294.475 358.18L266.125 341.783ZM294.474 323.103C294.116 323.199 293.794 323.381 293.54 323.637L266.646 308.081L294.474 291.986L294.474 323.103ZM236.729 325.386L265.08 308.988L265.08 341.783L236.729 358.18L236.729 325.386ZM235.684 426.789L207.334 443.185L207.334 410.392L235.684 393.996L235.684 426.789ZM236.729 392.787L236.729 359.993L265.08 376.39L265.08 409.184L236.729 392.787ZM266.647 410.091L293.541 394.535C293.794 394.791 294.117 394.973 294.475 395.069L294.475 426.187L266.647 410.091ZM324.915 443.177L324.915 410.39L353.266 393.994L353.266 426.779L324.915 443.177ZM413.1 392.182L413.1 359.39L441.45 342.994L441.45 375.785L413.1 392.182ZM470.847 392.182L442.495 375.785L442.495 342.994L456.67 351.192L470.846 359.39L470.846 392.182L470.847 392.182ZM442.495 308.993L456.67 317.191L469.397 324.551C469.35 324.723 469.317 324.899 469.317 325.087C469.317 326.039 469.968 326.834 470.846 327.066L470.846 358.182L456.67 349.984L442.495 341.786L442.495 308.993ZM501.286 342.994L529.636 359.391L529.636 392.185L501.286 375.788L501.286 342.994ZM559.031 409.186L530.681 392.788L530.681 359.994L559.031 376.391L559.031 409.186ZM586.978 359.623L559.554 375.485L531.203 359.088L544.082 351.639L559.554 342.69L586.978 358.552C586.932 358.723 586.898 358.901 586.898 359.088C586.898 359.274 586.932 359.452 586.978 359.623ZM530.681 325.387L559.031 308.989L559.031 341.784L530.681 358.181L530.681 325.387ZM500.241 308.993L500.241 341.785L471.89 358.181L471.89 327.065C472.768 326.833 473.419 326.038 473.419 325.086C473.419 324.899 473.385 324.723 473.34 324.55L500.241 308.993ZM442.495 274.99L470.847 291.386L470.847 323.107C470.488 323.201 470.167 323.384 469.913 323.639L456.67 315.981L442.495 307.783L442.495 274.99ZM413.1 291.99L441.45 308.388L441.45 341.181L413.1 324.784L413.1 291.99ZM383.706 342.99L412.056 359.388L412.056 392.182L383.706 375.784L383.706 342.99ZM382.661 376.993L382.661 409.785L354.31 426.182L354.31 393.39L382.661 376.993ZM324.915 409.175L324.915 376.389L353.266 359.993L353.266 392.778L324.915 409.175ZM382.661 274.981L382.661 307.776L354.31 324.173L354.31 293.055C355.188 292.822 355.839 292.029 355.839 291.076C355.839 290.888 355.805 290.711 355.76 290.54L382.661 274.981ZM324.915 342.387L353.266 325.988L353.266 358.783L324.915 375.18L324.915 342.387ZM323.87 409.181L296.969 393.623C297.015 393.451 297.048 393.275 297.048 393.089C297.048 392.137 296.397 391.343 295.52 391.11L295.52 359.993L323.87 376.389L323.87 409.181ZM323.87 307.778L296.453 323.635C296.2 323.38 295.877 323.198 295.52 323.102L295.52 291.382L323.871 274.986L323.871 307.778L323.87 307.778ZM265.602 274.681L293.953 291.079L266.125 307.174L265.602 307.476L265.08 307.174L237.252 291.079L265.602 274.681ZM235.162 291.079L206.813 307.476L178.461 291.079L206.813 274.681L235.162 291.079Z" fill="url(#paint0_linear_776_66)"/>
<defs>
<linearGradient id="paint0_linear_776_66" x1="655.068" y1="-267.658" x2="119.321" y2="504.097" gradientUnits="userSpaceOnUse">
<stop stop-color="white"/>
<stop offset="0.976" stop-color="#793693"/>
</linearGradient>
</defs>
</svg>
