<svg width="556" height="419" viewBox="0 0 556 419" fill="none" xmlns="http://www.w3.org/2000/svg">
<path opacity="0.5" d="M556 337.022L528.346 321.013L555.263 305.431L555.509 305.289L555.509 273.272L556 272.988L555.509 272.703L555.509 240.686L528.357 224.969L555.284 209.381L555.53 209.24L555.53 176.088L527.139 192.523L526.893 192.665L526.893 224.123L526.871 224.11L526.871 256.697L501.077 271.628C500.84 271.387 500.537 271.215 500.2 271.126L500.2 208.678L472.544 192.67L472.544 160.654L446.252 145.436C446.296 145.272 446.329 145.104 446.329 144.927C446.329 144.752 446.297 144.584 446.254 144.423L472.3 129.347L472.545 129.205L472.545 97.7701L499.195 113.196L499.195 177.795L525.972 162.295C526.322 162.649 526.805 162.868 527.342 162.868C528.407 162.868 529.271 162.002 529.271 160.933C529.271 160.036 528.659 159.289 527.833 159.07L527.833 97.2232L555.286 81.3314L555.532 81.1895L555.532 48.0332L527.833 64.0678L527.833 64.0363L499.688 80.3282L471.541 64.0363L471.541 96.6319L444.154 112.485L443.908 112.627L443.908 143.064C443.082 143.282 442.47 144.03 442.47 144.927C442.47 145.824 443.082 146.571 443.908 146.791L443.908 177.232L471.562 193.239L471.562 224.686L444.891 240.124L444.891 208.673L417.236 192.664L417.236 192.094L416.744 192.379L416.253 192.095L416.253 192.663L388.846 208.53L388.6 208.672L388.6 241.827L415.375 226.328C415.725 226.681 416.209 226.902 416.746 226.902C417.283 226.902 417.767 226.682 418.117 226.328L443.909 241.256L443.909 305.861L472.055 289.569L499.219 305.291L526.382 321.014L499.71 336.454L499.219 336.169L499.219 336.738L498.727 337.023L499.219 337.308L499.219 369.325L526.873 385.333L526.873 415.202C526.048 415.421 525.435 416.168 525.435 417.066C525.435 418.134 526.299 419 527.365 419C528.43 419 529.294 418.134 529.294 417.066C529.294 416.89 529.264 416.723 529.219 416.56L555.265 401.483L555.511 401.341L555.511 368.187L527.856 384.196L527.856 353.317L556 337.022ZM527.877 193.233L554.548 177.795L554.548 208.671L527.877 224.109L527.877 193.233ZM554.526 304.72L527.854 320.16L527.854 289.282L554.526 273.842L554.526 304.72ZM554.526 272.135L527.854 256.696L527.854 225.817L554.526 241.257L554.526 272.135ZM527.363 257.549L554.034 272.989L541.918 280.002L527.364 288.428L501.563 273.493C501.606 273.332 501.638 273.165 501.638 272.989C501.638 272.812 501.606 272.646 501.563 272.484L527.363 257.549ZM499.218 241.261L499.218 271.126C498.881 271.216 498.577 271.387 498.338 271.629L485.881 264.418L472.545 256.699L472.545 225.823L485.881 233.542L499.218 241.261ZM500.178 113.196L526.85 97.7573L526.85 128.634L500.178 144.073L500.178 113.196ZM500.178 176.088L500.178 145.212L526.85 129.773L526.85 159.071C526.024 159.29 525.413 160.037 525.413 160.934C525.413 161.11 525.443 161.277 525.487 161.439L500.178 176.088ZM527.877 65.1804L554.548 49.741L554.548 80.6199L527.877 96.0594L527.877 65.1804ZM526.85 96.6191L500.178 112.058L500.178 81.1816L526.85 65.7432L526.85 96.6191ZM472.524 65.7431L499.195 81.1816L499.195 112.058L472.545 96.6319L472.545 96.0505L472.525 96.0623L472.525 65.7431L472.524 65.7431ZM471.562 97.7573L471.562 128.634L445.77 143.564C445.532 143.324 445.228 143.152 444.892 143.063L444.892 113.196L471.562 97.7573ZM444.891 176.661L444.891 146.79C445.226 146.701 445.528 146.531 445.767 146.292L471.562 161.224L471.562 192.1L444.891 176.661ZM499.218 209.246L499.218 240.122L485.882 232.403L472.546 224.684L472.546 193.807L499.218 209.246ZM389.583 240.118L389.583 209.24L416.255 193.801L416.255 223.103C415.429 223.322 414.817 224.069 414.817 224.967C414.817 225.142 414.847 225.308 414.89 225.469L389.583 240.118ZM417.236 223.103L417.236 193.802L443.908 209.241L443.908 240.117L418.601 225.468C418.644 225.308 418.674 225.141 418.674 224.966C418.674 224.07 418.063 223.322 417.236 223.103ZM444.891 241.261L471.562 225.823L471.562 256.697L444.891 272.136L444.891 241.261ZM444.891 273.276L471.562 257.837L471.562 288.715L444.891 304.155L444.891 273.276ZM472.545 288.713L472.545 257.837L485.881 265.556L497.854 272.486C497.81 272.648 497.779 272.813 497.779 272.989C497.779 273.886 498.391 274.633 499.217 274.852L499.217 304.152L472.545 288.713ZM500.201 274.851C500.537 274.762 500.841 274.59 501.078 274.35L526.872 289.281L526.872 320.159L500.201 304.719L500.201 274.851ZM526.871 321.866L527.363 321.583L527.854 321.867L527.854 321.866L554.034 337.022L527.364 352.462L500.692 337.022L526.871 321.866ZM500.201 337.877L526.872 353.316L526.872 384.194L500.201 368.754L500.201 337.877ZM554.526 369.893L554.526 400.771L528.732 415.702C528.494 415.461 528.191 415.29 527.855 415.201L527.855 385.332L554.526 369.893ZM391.021 176.941C391.021 176.766 390.989 176.598 390.946 176.437L416.992 161.36L417.237 161.218L417.237 97.2212L442.876 82.379C443.226 82.8707 443.796 83.193 444.444 83.193C445.509 83.193 446.373 82.3267 446.373 81.2585C446.373 80.3617 445.761 79.6137 444.935 79.3949L444.935 48.0312L417.28 64.0422L417.28 32.5937L388.643 16.017L388.643 49.1723L415.779 64.8799L389.092 80.3282L363.291 65.3943C363.334 65.2327 363.365 65.0661 363.365 64.8897C363.365 63.8215 362.502 62.9552 361.436 62.9552C360.371 62.9552 359.507 63.8215 359.507 64.8897C359.507 65.7865 360.118 66.5345 360.945 66.7532L360.945 96.0495L360.944 128.636L333.782 144.359L307.11 128.919L334.027 113.336L334.273 113.194L334.273 81.1787L334.765 80.8938L334.273 80.609L334.273 49.1615L361.682 33.2963L361.928 33.1544L361.928 3.16407e-05L333.536 16.4358L333.29 16.5767L333.29 48.0233L306.619 32.5838L306.619 32.0152L306.127 32.3L277.981 16.0061L277.981 47.0132C277.644 47.1028 277.34 47.2753 277.102 47.5158L251.309 32.5868L251.309 0.00888639L223.654 16.018L223.654 16.0111L195.264 32.4458L195.018 32.5877L195.018 64.0333L168.346 48.5948L168.346 48.0262L167.855 48.31L167.364 48.0262L167.364 48.5948L140.202 64.3161L112.055 48.0252L112.055 80.609L85.3841 96.0475L85.3841 64.599L56.7468 48.0223L29.0924 32.0142L29.0924 64.6009L3.29855 79.5309C2.94864 79.1781 2.46508 78.9583 1.9294 78.9583C0.863957 78.9583 -6.97849e-06 79.8246 -7.07188e-06 80.8928C-7.16527e-06 81.9611 0.863956 82.8273 1.9294 82.8273C2.46507 82.8273 2.94963 82.6076 3.29855 82.2548L29.0924 97.1857L29.0924 129.772L57.484 113.336L57.7297 113.194L57.7297 81.7463L84.4013 97.1847L84.4012 129.769L111.177 114.269C111.415 114.509 111.719 114.682 112.055 114.771L112.055 145.207L140.693 161.783L140.693 129.769L168.347 145.777L168.347 112.622L141.185 96.8999L167.854 81.4624L196.001 97.7563L196.001 65.1715L222.672 49.7331L222.672 112.63L195.264 128.496L195.018 128.638L195.018 161.795L221.795 146.294C222.145 146.648 222.628 146.867 223.164 146.867C224.229 146.867 225.093 146 225.093 144.932C225.093 144.035 224.481 143.288 223.655 143.069L223.655 113.197L251.064 97.3296L251.31 97.1877L251.31 65.7402L277.982 81.1786L277.982 111.048C277.157 111.267 276.544 112.014 276.544 112.912C276.544 113.087 276.576 113.254 276.619 113.417L250.574 128.493L250.328 128.634L250.328 161.788L278.474 145.496L306.129 161.505L333.784 145.497L361.438 161.505L388.602 145.782L388.602 175.079C387.776 175.298 387.164 176.045 387.164 176.942C387.164 178.011 388.028 178.877 389.093 178.877C390.157 178.876 391.021 178.01 391.021 176.941ZM416.253 160.649L390.46 175.579C390.222 175.339 389.919 175.167 389.582 175.078L389.582 145.212L390.073 144.927L416.253 129.772L416.253 160.649ZM361.928 97.7573L388.6 113.196L388.6 144.074L361.928 128.634L361.928 97.7573ZM389.583 113.196L416.255 97.7573L416.255 128.634L389.583 144.073L389.583 113.196ZM416.253 96.6191L389.582 112.058L389.582 81.1816L416.253 65.7431L416.253 96.6191ZM443.951 49.741L443.951 79.3979C443.126 79.6167 442.514 80.3637 442.514 81.2604C442.514 81.3225 442.527 81.3807 442.533 81.4418L417.281 96.0594L417.281 65.1804L443.951 49.741ZM389.626 17.7238L416.298 33.1633L416.298 64.0412L389.626 48.6018L389.626 17.7238ZM361.929 66.7532C362.265 66.6636 362.568 66.4921 362.806 66.2516L388.6 81.1826L388.6 112.058L361.929 96.6191L361.929 66.7532ZM306.128 96.3333L279.457 80.8938L291.573 73.8802L306.127 65.4544L332.799 80.8938L320.683 87.9075L306.128 96.3333ZM278.965 50.7402C279.301 50.6506 279.604 50.4791 279.843 50.2386L305.145 64.8848L278.965 80.0404L278.965 50.7402ZM305.636 64.0323L280.327 49.3822C280.371 49.2206 280.402 49.0531 280.402 48.8777C280.402 48.7023 280.371 48.5357 280.327 48.3741L305.636 33.724L305.636 64.0323ZM305.636 97.1867L305.636 128.066L280.327 113.415C280.371 113.253 280.402 113.086 280.402 112.912C280.402 112.015 279.791 111.268 278.964 111.048L278.964 81.7473L305.636 97.1867ZM278.965 114.775C279.302 114.685 279.605 114.513 279.844 114.272L305.145 128.919L278.965 144.074L278.965 114.775ZM333.29 112.625L306.619 128.066L306.619 97.1867L333.29 81.7473L333.29 112.625ZM334.273 17.1473L360.945 1.70884L360.945 32.5858L334.273 48.0243L334.273 17.1473ZM333.29 49.1625L333.29 80.0404L306.619 64.601L306.619 33.723L333.29 49.1625ZM305.144 32.8696L279.843 47.5167C279.605 47.2753 279.301 47.1038 278.964 47.0141L278.964 17.714L305.144 32.8696ZM250.327 1.71672L250.327 32.5878L223.655 48.0262L223.655 17.1562L250.327 1.71672ZM167.365 49.7321L167.365 80.608L140.693 96.0465L140.693 65.1706L167.365 49.7321ZM113.038 49.7321L139.71 65.1706L139.71 96.0465L126.374 88.3273L113.039 80.608L113.039 49.7321L113.038 49.7321ZM139.71 128.061L126.374 120.341L114.402 113.412C114.446 113.25 114.477 113.083 114.477 112.907C114.477 112.01 113.864 111.262 113.039 111.043L113.039 81.7453L126.374 89.4645L139.71 97.1838L139.71 128.061ZM84.4013 96.0465L57.7297 80.6071L57.7297 49.7291L84.4013 65.1686L84.4013 96.0465ZM30.0753 33.721L56.7468 49.1615L56.7468 80.0394L30.0753 64.6L30.0753 33.721ZM3.7841 80.3883L29.5838 65.4534L56.2554 80.8928L44.1394 87.9065L29.5838 96.3323L3.7841 81.3974C3.82734 81.2358 3.8588 81.0682 3.8588 80.8928C3.8588 80.7174 3.82734 80.5499 3.7841 80.3883ZM56.7468 112.624L30.0753 128.065L30.0753 97.1857L56.7468 81.7463L56.7468 112.624ZM85.3841 128.061L85.3841 97.1847L112.056 81.7463L112.056 111.044C111.23 111.263 110.618 112.011 110.618 112.908C110.618 113.083 110.649 113.25 110.692 113.413L85.3841 128.061ZM139.71 160.077L113.038 144.638L113.038 114.772C113.375 114.683 113.677 114.51 113.916 114.27L126.374 121.481L139.71 129.2L139.71 160.077ZM167.365 144.07L140.693 128.63L140.693 97.7534L167.365 113.192L167.365 144.07ZM195.018 96.0495L168.346 80.61L168.346 49.7321L195.018 65.1715L195.018 96.0495ZM196.001 64.0333L196.001 33.1574L222.672 17.7189L222.672 48.5948L196.001 64.0333ZM250.327 33.7319L250.327 64.6019L223.655 80.0404L223.655 49.1704L250.327 33.7319ZM196.001 160.086L196.001 129.207L222.672 113.767L222.672 143.068C221.847 143.286 221.234 144.033 221.234 144.931C221.234 145.107 221.266 145.274 221.309 145.436L196.001 160.086ZM250.327 96.6181L223.655 112.059L223.655 81.1796L250.327 65.7402L250.327 96.6181ZM251.31 33.726L276.618 48.3751C276.575 48.5367 276.543 48.7033 276.543 48.8777C276.543 49.7745 277.156 50.5224 277.981 50.7412L277.981 80.0404L251.31 64.6019L251.31 33.726ZM251.31 129.205L277.104 114.274C277.341 114.514 277.645 114.686 277.981 114.776L277.981 144.642L251.309 160.081L251.309 129.205L251.31 129.205ZM306.127 160.368L279.456 144.928L305.636 129.773L306.127 129.489L306.619 129.773L332.799 144.928L306.127 160.368ZM334.765 144.928L361.435 129.489L388.108 144.928L361.435 160.368L334.765 144.928Z" fill="url(#paint0_linear_776_70)"/>
<defs>
<linearGradient id="paint0_linear_776_70" x1="247.389" y1="308.356" x2="443.362" y2="-56.0413" gradientUnits="userSpaceOnUse">
<stop stop-color="white"/>
<stop offset="0.976" stop-color="#793693"/>
</linearGradient>
</defs>
</svg>
